<svg width="16" height="16" viewBox="0 0 16 16" fill="none" xmlns="http://www.w3.org/2000/svg">
    <path d="M5.628 7.88a1.554 1.554 0 0 1-.027-.055m.027.055 6.662 1.734c-.002 0-.004-.003-.005-.003a4.19 4.19 0 0 0-.241-.132l-.013-.006a5.11 5.11 0 0 0-.28-.131h-.002l-.021-.01a5.725 5.725 0 0 0-.269-.107l-.03-.012a6.925 6.925 0 0 0-.318-.108l-.016-.005a8.572 8.572 0 0 0-.67-.178M5.628 7.88c.18.351.436.657.746.897l-.746-.897zM5.6 7.825a2.692 2.692 0 0 1-.089-.205m.089.205-.136.063.029.06c.191.371.46.695.788.948.476.366 1.07.588 1.718.588 1.276 0 2.425.185 3.25.479.412.148.736.32.953.503.218.184.314.365.314.534v1a.517.517 0 0 1-.517.517H4A.517.517 0 0 1 3.483 12v-1c0-.112.05-.234.164-.366.115-.131.29-.264.52-.39l.14-.077-.017-.026a.464.464 0 0 0-.619-.679c-.69.4-1.154.924-1.154 1.538v1c0 .82.664 1.483 1.483 1.483h8c.82 0 1.483-.664 1.483-1.483v-1c0-.07-.007-.136-.018-.198l-.006-.036v-.004a1.255 1.255 0 0 0-.062-.207l-.001-.004-.001-.002v-.002a1.478 1.478 0 0 0-.08-.17l-.004-.005a.59.59 0 0 0-.004-.007l-.001-.003-.005-.009a1.822 1.822 0 0 0-.112-.168l-.018-.024-.007-.009-.003-.003-.003-.004a2.174 2.174 0 0 0-.141-.163L5.6 7.825zm-.089-.205a1.49 1.49 0 0 1-.028-.076m.028.076-.14.054m.14-.054-.14.056v-.001m.112-.13a2.405 2.405 0 0 1-.06-.201m.06.2-.142.048v.001m.142-.049-.141.05m.08-.25a3.497 3.497 0 0 0-.021-.085m.022.085-.145.038-.006-.02-.018-.07m.169.052-.146.038c.019.07.04.141.064.211m.06-.334a2.641 2.641 0 0 1-.044-.244l-.007-.049m.05.293-.146.033m.147-.033-.146.034m.095-.327a2.632 2.632 0 0 1-.018-.3v-2a2 2 0 0 1 2-2h1.334a2 2 0 0 1 2 2v2c0 .461-.124.89-.33 1.267m-4.986-.967-.149.017a2.78 2.78 0 0 1-.018-.316v-2a2.15 2.15 0 0 1 2.15-2.15h1.333a2.15 2.15 0 0 1 2.15 2.15v2c0 .483-.129.932-.341 1.326M5.35 6.966l4.194.784m.792.183a.333.333 0 1 1-.61-.254l-.071.132-.004-.003-.107-.058m.792.183.132.072.007-.012m-.139-.06.144.044a.41.41 0 0 1-.005.016m-.931-.243c.01-.051.027-.099.05-.141l.128.068h.001l.062-.116A1.986 1.986 0 0 0 10 6.667v-2c0-.737-.597-1.334-1.333-1.334H7.334C6.597 3.333 6 3.93 6 4.667v2a1.998 1.998 0 0 0 2 2c.567 0 1.113.039 1.626.11M9.545 7.75a.483.483 0 0 0 .93.242m-.849.786c.132.018.261.039.389.061m-.389-.061.02-.149c.134.019.264.04.392.062m-.412.087.412-.087m-.023.148.005.001.005.001c.122.022.242.047.36.072l.04.01m-.41-.084.026-.147h-.003m-.023.147.015-.149.008.001m.387.231.033-.146c.237.053.465.114.682.181l.005.002h.001l.006.002.021.006c.105.034.208.07.307.106l.03.011h.001c.095.035.187.072.276.11l.005.003h.002a.318.318 0 0 0 .012.006l.004.001c.092.04.182.082.268.125l.02.01.012.006h.001a4.392 4.392 0 0 1 .257.14m-1.943-.563.033-.146-.04-.01h-.001a9.93 9.93 0 0 0-.366-.073h-.005m2.322.793-2.325-.794h.003m2.322.794a3.973 3.973 0 0 1 .251.162 3.248 3.248 0 0 1 .218.168l-.47-.33zm-2.322-.793h-.004.007-.003zm-4.79-1.4.116.382m-.03-.082.03.082m-.038 2.142a.483.483 0 1 0 0-.966.483.483 0 0 0 0 .966z" fill="#231F20" stroke="#000" stroke-width=".3"/>
</svg>
