<svg width="48" height="48" viewBox="0 0 48 48" fill="none" xmlns="http://www.w3.org/2000/svg">
<path fill-rule="evenodd" clip-rule="evenodd" d="M20.5277 11.5315C20.5259 11.5352 20.5236 11.5404 20.5227 11.5425C20.3977 11.9633 20.0476 12.2675 19.6346 12.2675H9.93756C9.4193 12.2675 9 12.7445 9 13.334C9 13.9225 9.4193 14.3995 9.93756 14.3995H19.6346C20.8537 14.3995 21.8924 13.5168 22.2824 12.2815C22.2874 12.2648 22.2961 12.2502 22.3044 12.2372C22.6994 11.0123 23.7244 10.1331 24.9375 10.1331C25.7135 10.1331 26.4157 10.4893 26.9234 11.0675C27.0936 11.2623 27.3289 11.3835 27.5885 11.3835C28.1067 11.3835 28.5265 10.906 28.5265 10.3159C28.5265 10.0039 28.4065 9.72533 28.2184 9.53053C27.372 8.58693 26.217 8 24.9375 8C22.9045 8 21.1778 9.47173 20.5277 11.5315ZM27.5926 14.3849C27.5876 14.4016 27.5793 14.4162 27.5706 14.4292C27.1765 15.6541 26.1515 16.5327 24.9375 16.5327C24.1607 16.5327 23.4575 16.1745 22.9489 15.5953C22.7795 15.4025 22.5442 15.2833 22.2856 15.2833C21.7683 15.2833 21.349 15.7603 21.349 16.3499C21.349 16.6571 21.4644 16.9321 21.6475 17.1275C22.4948 18.0769 23.6539 18.6664 24.9376 18.6664C26.9696 18.6664 28.6922 17.1957 29.3442 15.1385C29.3474 15.1339 29.3515 15.1276 29.3524 15.1239C29.4779 14.7031 29.8276 14.3995 30.241 14.3995H34.3128C34.8301 14.3995 35.2508 13.9225 35.2508 13.3339C35.2508 12.7444 34.8301 12.2674 34.3128 12.2674H30.2409C29.0204 12.2675 27.9827 13.1497 27.5926 14.3849ZM37.1259 13.334C37.1259 13.9225 37.5452 14.3995 38.0625 14.3995C38.5807 14.3995 39 13.9225 39 13.334C39 12.7445 38.5807 12.2675 38.0625 12.2675C37.5452 12.2675 37.1259 12.7445 37.1259 13.334ZM13.0289 22.1959C13.0266 22.2006 13.0239 22.2053 13.0225 22.2089C12.8975 22.6297 12.5464 22.9339 12.1345 22.9339H9.93762C9.41936 22.9339 9.00006 23.4109 9.00006 24.0005C9.00006 24.589 9.41936 25.066 9.93762 25.066H12.1345C13.3539 25.066 14.3922 24.1833 14.7822 22.9479C14.7877 22.9313 14.7959 22.9167 14.8042 22.9037C15.1997 21.6793 16.2247 20.8001 17.4373 20.8001C18.2132 20.8001 18.9155 21.1564 19.4232 21.7339C19.5935 21.9293 19.8288 22.0501 20.0887 22.0501C20.607 22.0501 21.0262 21.5725 21.0262 20.9829C21.0262 20.6709 20.9063 20.3924 20.7182 20.1976C19.8722 19.2534 18.7168 18.6664 17.4373 18.6664C15.4056 18.6665 13.6785 20.1377 13.0289 22.1959ZM20.0929 25.0515C20.0873 25.0697 20.0782 25.0853 20.0686 25.0994C19.6736 26.3209 18.6495 27.1995 17.4373 27.1995C16.6609 27.1995 15.9573 26.8407 15.4487 26.2621C15.2793 26.0691 15.0441 25.9498 14.7854 25.9498C14.2682 25.9498 13.8489 26.4271 13.8489 27.0167C13.8489 27.3167 13.9592 27.5869 14.135 27.7807C14.9818 28.74 16.1479 29.3331 17.4374 29.3331C19.4695 29.3331 21.1925 27.8619 21.8439 25.805C21.8471 25.8003 21.8513 25.7941 21.8526 25.7904C21.9776 25.3696 22.3277 25.066 22.7406 25.066H38.0625C38.5807 25.066 39 24.5889 39 24.0005C39 23.411 38.5807 22.9339 38.0625 22.9339H22.7406C21.5203 22.9339 20.4815 23.8161 20.0929 25.0515ZM24.2797 32.8625C24.2774 32.8671 24.2742 32.8719 24.2733 32.8755C24.147 33.2968 23.7972 33.6004 23.3852 33.6004H9.93756C9.4193 33.6004 9 34.0775 9 34.6659C9 35.2557 9.4193 35.7328 9.93756 35.7328H23.3852C24.6043 35.7328 25.643 34.8501 26.033 33.6145C26.038 33.5978 26.0467 33.5837 26.0549 33.5702C26.4491 32.3458 27.4741 31.4667 28.6871 31.4667C29.464 31.4667 30.1672 31.8255 30.6757 32.4046C30.846 32.5983 31.0795 32.7166 31.339 32.7166C31.8563 32.7166 32.277 32.2395 32.277 31.65C32.277 31.3427 32.1603 31.0672 31.9772 30.8724C31.1299 29.9227 29.9707 29.3332 28.6871 29.3332C26.6551 29.3332 24.9293 30.8058 24.2797 32.8625ZM31.3423 35.7182C31.3373 35.7354 31.3286 35.7495 31.3204 35.7625C30.9253 36.9874 29.9003 37.8665 28.6872 37.8665C27.9104 37.8665 27.2081 37.5077 26.6995 36.9286C26.5301 36.7364 26.2948 36.6166 26.0362 36.6166C25.5189 36.6166 25.0987 37.0937 25.0987 37.6832C25.0987 37.9894 25.2131 38.2634 25.3949 38.4582C26.2399 39.4105 27.4036 40 28.6872 40C30.7193 40 32.446 38.529 33.0956 36.4708C33.0979 36.4661 33.1011 36.4609 33.102 36.4573C33.227 36.0365 33.5781 35.7329 33.9901 35.7329H38.0625C38.5807 35.7329 39 35.2558 39 34.666C39 34.0775 38.5807 33.6005 38.0625 33.6005H33.9901C32.771 33.6004 31.7323 34.4826 31.3423 35.7182Z" fill="black"/>
</svg>
