<svg width="32" height="32" viewBox="0 0 32 32" fill="none" xmlns="http://www.w3.org/2000/svg">
    <path fill-rule="evenodd" clip-rule="evenodd" d="M26.667 15.335a.666.666 0 1 1-1.334 0c0-.176-1.111-1.011-1.376-1.276l-.723-.723h.021a2.658 2.658 0 0 1-.587-1.667V8.67c0-.368-.3-.666-.667-.666h-1.333A.667.667 0 0 0 20 8.67v.23a.5.5 0 0 1-.846.358l-2.21-2.21a1.332 1.332 0 0 0-1.885 0l-8.012 8.011c-.261.26-.391.602-.391.943h.014c0 .736.558 1.333 1.113 1.333.636 0 1.553.895 1.553 2V24c0 .736.597 1.334 1.333 1.334h2a.667.667 0 0 0 .666-.667v-4.333c0-.92.746-1.666 1.667-1.666h1.999c.92 0 1.666.746 1.666 1.666v4.333c0 .368.299.666.667.666h2c.735 0 1.333-.596 1.333-1.333v-4.665a.667.667 0 1 1 1.332 0V24a2.666 2.666 0 0 1-2.666 2.666h-2a2 2 0 0 1-1.999-2v-3.998A.666.666 0 0 0 16.67 20h-1.334a.666.666 0 0 0-.666.667v3.999a2 2 0 0 1-2 2h-2A2.666 2.666 0 0 1 8.005 24v-4.665c0-.368-.31-.643-.667-.75-.007-.002-.01-.006-.016-.01a2.662 2.662 0 0 1-1.983-2.573v.148a2.65 2.65 0 0 1 .766-2.033l8.013-8.013c.52-.52 1.2-.77 1.883-.77s1.367.25 1.888.77l1.172 1.172c.306-.367.76-.606 1.275-.606h1.999c.92 0 1.666.746 1.666 1.667v3.332c0 .36.144.683.375.923l1.525 1.524c.523.524.767.784.767 1.22zm-2 2a.666.666 0 1 1 0 1.332.666.666 0 0 1 0-1.332z" fill="#231F20"/>
</svg>
