<svg width="48" height="48" viewBox="0 0 48 48" fill="none" xmlns="http://www.w3.org/2000/svg">
<path fill-rule="evenodd" clip-rule="evenodd" d="M40.8751 44H34.6258C33.1121 44 31.8506 42.8535 31.5625 41.33C31.5411 41.33 31.5216 41.3333 31.5002 41.3333V29.2671C31.5002 27.8302 30.3808 26.6674 29.0003 26.6674C27.6196 26.6674 26.5002 27.8302 26.5002 29.2671V40.6321V40.6679C26.5002 41.4811 26.2152 42.2135 25.7629 42.7936C25.5145 43.1947 25.0903 43.459 24.6063 43.459C23.8397 43.459 23.2189 42.7968 23.2189 41.9791C23.2189 41.5468 23.3953 41.1614 23.6742 40.8906C23.8762 40.6529 24.0008 40.345 24.0008 40.0012V38.0949V35.35V29.1428C24.0008 26.3028 26.2389 24 29.0002 24C31.7614 24 34.0007 26.3028 34.0007 29.1428V38.0949C34.0007 38.1906 33.9922 38.2733 33.9867 38.3612C33.991 38.3598 33.9964 38.3598 34.0007 38.3579V40.0012C34.0007 40.7369 34.5598 41.3333 35.2507 41.3333H40.2501C40.9411 41.3333 41.5001 40.7369 41.5001 40.0012V28.0008C41.5001 27.9006 41.4891 27.8048 41.4696 27.711C41.1486 21.9205 36.814 17.3325 31.5002 17.3325C29.2944 17.3325 27.2632 18.1307 25.6128 19.4706C25.6067 19.4673 25.6 19.4687 25.5872 19.4791C25.4194 19.623 25.2076 19.7082 24.9769 19.7082C24.4367 19.7082 24.0009 19.2414 24.0009 18.6659C24.0009 18.5943 23.997 18.5572 23.9899 18.5468C23.9323 17.8677 23.4024 17.3325 22.7509 17.3325H19.0004C17.6201 17.3325 16.5001 18.5272 16.5001 19.9999V40.0012C16.5001 40.121 16.52 40.2363 16.5477 40.3463C16.5184 40.442 16.5001 40.5482 16.5001 40.6679C16.5001 42.5084 15.1015 44 13.3748 44H13.1462H7.12525C5.40016 44 4 42.5084 4 40.6679V17.9992C4 16.1587 5.40016 14.6671 7.12525 14.6671H10.2506C12.3206 14.6671 13.9996 12.876 13.9996 10.6663C13.9996 8.45658 12.3206 6.6655 10.2506 6.6655C8.17931 6.6655 6.50032 8.45658 6.50032 10.6663C6.50032 11.4033 5.94126 11.9996 5.25 11.9996C4.56063 11.9996 4 11.4033 4 10.6663C4 6.98383 6.79876 4 10.2506 4C13.7027 4 16.5 6.98383 16.5 10.6663C16.5 11.0042 16.4691 11.3329 16.4231 11.6578C16.413 11.7203 16.4075 11.7848 16.3962 11.8473C16.3416 12.1715 16.2675 12.4905 16.1692 12.7965C16.1652 12.8115 16.1582 12.8252 16.154 12.8401C15.9382 13.5023 15.6312 14.1155 15.243 14.6657C14.1035 16.2816 12.2941 17.3324 10.2506 17.3324H7.75025C7.05931 17.3324 6.50024 17.9308 6.50024 18.6658V40.001C6.50024 40.7368 7.05931 41.3331 7.75025 41.3331H14.0628C14.0221 41.1176 13.9996 40.8963 13.9996 40.6678V19.9999C13.9996 17.0545 16.2393 14.6671 19.0001 14.6671H23.3757C24.1478 14.6671 24.8497 14.9705 25.3941 15.4685C25.4009 15.4731 25.4076 15.4653 25.4149 15.4711C25.6334 15.6716 25.9166 15.7914 26.2267 15.7914C26.3977 15.7914 26.56 15.7556 26.707 15.6892C26.7516 15.6683 26.7784 15.6716 26.8041 15.6748C28.2555 15.0408 29.8338 14.667 31.5 14.667C37.9796 14.667 43.3066 19.9263 43.9371 26.6596C43.9792 26.8764 44 27.1036 44 27.3341V40.6679C44.0002 42.5084 42.6019 44 40.8751 44ZM20.2505 41.3333C20.9399 41.3333 21.5005 41.9309 21.5005 42.6666C21.5005 43.4037 20.94 44 20.2505 44C19.5596 44 19.0002 43.4037 19.0002 42.6666C19.0002 41.9309 19.5597 41.3333 20.2505 41.3333Z" fill="white"/>
</svg>
