<svg width="89" height="88" viewBox="0 0 89 88" fill="none" xmlns="http://www.w3.org/2000/svg">
<path d="M44.5005 82.0516C31.0993 82.0516 18.6119 74.7615 11.9099 63.026C11.7943 62.8259 11.7647 62.5882 11.8239 62.3659C11.8822 62.1435 12.0275 61.9522 12.2234 61.8371L37.2135 47.2464C37.6226 47.0066 38.1492 47.1477 38.3882 47.5653C38.6252 47.9819 38.4857 48.5126 38.0728 48.7533L13.8387 62.9033C20.1823 73.415 31.4663 80.0024 43.6402 80.3001V52.003C43.6402 51.5226 44.0245 51.134 44.5005 51.134C44.9765 51.134 45.3607 51.5226 45.3607 52.003V81.1807C45.3607 81.662 44.9765 82.0516 44.5005 82.0516Z" fill="#00818F"/>
<path d="M12.6545 63.462C12.5799 63.462 12.5053 63.4514 12.4327 63.432C12.2128 63.3721 12.0236 63.2262 11.9099 63.027C5.21169 51.2906 5.21169 36.7105 11.9099 24.976C12.0236 24.7759 12.2119 24.6309 12.4327 24.571C12.6516 24.512 12.8867 24.543 13.0845 24.657L38.0737 39.2459C38.4866 39.4865 38.6262 40.0182 38.3891 40.4338C38.1502 40.8495 37.6235 40.9915 37.2144 40.7528L12.9785 26.6037C7.14816 37.4142 7.14816 50.5879 12.9785 61.3983L37.2144 47.2474C37.6235 47.0077 38.1502 47.1488 38.3891 47.5663C38.6262 47.9829 38.4866 48.5136 38.0737 48.7543L13.0845 63.3441C12.9536 63.4214 12.8045 63.462 12.6545 63.462Z" fill="#00818F"/>
<path d="M37.6416 40.8687C37.4963 40.8687 37.3482 40.832 37.2144 40.7527L12.2243 26.1639C11.8133 25.9232 11.6738 25.3916 11.9108 24.9759C12.9192 23.2061 14.091 21.4923 15.3956 19.881C15.6958 19.5098 16.2377 19.4557 16.6076 19.7602C16.9756 20.0647 17.0272 20.6127 16.7271 20.9849C15.6671 22.2936 14.6979 23.673 13.8396 25.0968L38.0737 39.2448C38.4866 39.4855 38.6261 40.0171 38.3891 40.4328C38.2295 40.7131 37.9408 40.8687 37.6416 40.8687Z" fill="#00818F"/>
<path d="M44.5004 36.867C44.0244 36.867 43.6402 36.4785 43.6402 35.9981V7.69131C35.5848 7.88849 27.776 10.8424 21.5653 16.0591C21.1992 16.3655 20.6582 16.3143 20.3533 15.9451C20.0513 15.5749 20.101 15.0278 20.4652 14.7194C27.2064 9.05904 35.7406 5.9408 44.4995 5.9408C44.9754 5.9408 45.3596 6.33033 45.3596 6.81073V35.9971C45.3606 36.4785 44.9764 36.867 44.5004 36.867Z" fill="#00818F"/>
<path d="M51.3572 40.8687C51.0581 40.8687 50.7713 40.7131 50.6107 40.4338C50.3737 40.0172 50.5133 39.4865 50.9262 39.2458L75.1602 25.0978C68.8166 14.5802 57.5326 7.98902 45.3606 7.69131V35.9981C45.3606 36.4785 44.9764 36.867 44.5004 36.867C44.0244 36.867 43.6401 36.4785 43.6401 35.9981V6.8117C43.6401 6.3313 44.0244 5.94177 44.5004 5.94177C57.8986 5.94177 70.387 13.2357 77.0909 24.976C77.2047 25.1751 77.2343 25.4129 77.175 25.6362C77.1167 25.8585 76.9734 26.0499 76.7755 26.1649L51.7863 40.7537C51.6497 40.832 51.5025 40.8687 51.3572 40.8687Z" fill="#00818F"/>
<path fill-rule="evenodd" clip-rule="evenodd" d="M50.3689 37.5591L72.7306 24.5052C66.8898 15.858 57.4026 10.3165 47.0791 9.51715V35.622C48.4038 36.0067 49.5011 36.6824 50.3689 37.5591Z" fill="#B0D9D9"/>
<path fill-rule="evenodd" clip-rule="evenodd" d="M38.629 50.5705L16.2673 63.6254C22.1082 72.2716 31.5973 77.8131 41.9188 78.6144V52.5095C40.5951 52.1258 39.4969 51.4472 38.629 50.5705Z" fill="#B0D9D9"/>
<path d="M76.3435 63.462C76.1944 63.462 76.0463 63.4214 75.9144 63.345L50.9252 48.7552C50.5123 48.5145 50.3728 47.9829 50.6099 47.5673C50.8469 47.1516 51.3754 47.0085 51.7855 47.2483L76.0195 61.3992C81.8498 50.5879 81.8498 37.4151 76.0195 26.6047L51.7855 40.7537C51.3745 40.9925 50.8469 40.8513 50.6099 40.4347C50.3728 40.0181 50.5123 39.4875 50.9252 39.2468L75.9144 24.6579C76.1122 24.5439 76.3474 24.5139 76.5682 24.5719C76.788 24.6318 76.9753 24.7768 77.091 24.9769C83.7873 36.7124 83.7873 51.2925 77.091 63.028C76.9753 63.2271 76.789 63.373 76.5682 63.433C76.4946 63.4513 76.4181 63.462 76.3435 63.462Z" fill="#00818F"/>
<path d="M44.5004 82.0516C44.0244 82.0516 43.6401 81.6621 43.6401 81.1817V52.004C43.6401 51.5236 44.0244 51.135 44.5004 51.135C44.9764 51.135 45.3606 51.5236 45.3606 52.004V80.3011C57.5336 80.0034 68.8166 73.416 75.1602 62.9043L50.9252 48.7552C50.5123 48.5146 50.3728 47.9829 50.6098 47.5673C50.8468 47.1517 51.3754 47.0086 51.7854 47.2483L76.7746 61.8391C76.9724 61.9541 77.1158 62.1445 77.1741 62.3678C77.2343 62.5892 77.2037 62.8279 77.0899 63.028C70.3889 74.7615 57.8996 82.0516 44.5004 82.0516Z" fill="#00818F"/>
<path d="M44.5004 87.218C20.9364 87.218 1.76416 67.83 1.76416 44.0005C1.76416 33.9885 5.22508 24.2326 11.5084 16.5308C11.6633 16.3423 11.887 16.2283 12.1297 16.2157C12.3802 16.2031 12.6057 16.2949 12.7777 16.467L15.8506 19.5427L16.1345 19.5679C16.6086 19.6084 16.9594 20.0308 16.9183 20.5093C16.8752 20.9868 16.4642 21.3464 15.9863 21.301L15.3928 21.2488C15.193 21.2314 15.0048 21.1434 14.8623 21.0003L12.2454 18.3799C6.58899 25.6497 3.48457 34.7106 3.48457 44.0005C3.48457 66.8712 21.8836 85.4781 44.4995 85.4781C67.1154 85.4781 85.5144 66.8712 85.5144 44.0005C85.5144 21.1289 67.1154 2.52191 44.4995 2.52191C35.1977 2.52191 26.1397 5.73973 18.8872 11.6031L21.6092 14.3067C21.7698 14.4662 21.8635 14.6837 21.8673 14.9118L21.875 15.3738C21.8845 15.8552 21.5051 16.2505 21.031 16.2602C21.0253 16.2602 21.0195 16.2602 21.0157 16.2602C20.5474 16.2602 20.1622 15.8813 20.1555 15.4057L20.1536 15.2994L16.9985 12.1666C16.8246 11.9936 16.7318 11.7558 16.7404 11.5113C16.75 11.2658 16.8618 11.0367 17.0463 10.8782C24.728 4.3691 34.4761 0.783997 44.4995 0.783997C68.0635 0.783997 87.2338 20.172 87.2338 44.0024C87.2348 67.831 68.0645 87.218 44.5004 87.218Z" fill="#00818F"/>
<path d="M44.5005 52.8748C41.3769 52.8748 38.4656 51.1746 36.8991 48.4372C36.1316 47.0927 35.7263 45.5577 35.7263 44.0005C35.7263 42.4424 36.1316 40.9084 36.8991 39.5638C36.9516 39.4662 37.0204 39.355 37.0892 39.2439C37.3473 38.8379 37.8768 38.72 38.2783 38.9781C38.6778 39.2361 38.7954 39.7736 38.5411 40.1786C38.4905 40.2598 38.4407 40.34 38.3958 40.4202C37.7726 41.5135 37.4458 42.7468 37.4458 44.0005C37.4458 45.2532 37.7726 46.4866 38.3882 47.5663C39.646 49.7663 41.9896 51.134 44.5005 51.134C47.0113 51.134 49.3521 49.7663 50.6108 47.5653C51.2273 46.4876 51.5533 45.2542 51.5533 44.0005C51.5533 42.7449 51.2264 41.5125 50.6108 40.4347C49.353 38.2348 47.0113 36.868 44.5005 36.868C42.9272 36.868 41.4372 37.3832 40.1918 38.3565C39.8142 38.6494 39.2751 38.5798 38.9855 38.2009C38.694 37.8201 38.7638 37.274 39.1385 36.9801C40.6878 35.769 42.5402 35.1281 44.4995 35.1281C47.6231 35.1281 50.5363 36.8284 52.099 39.5638C52.8665 40.9074 53.2737 42.4414 53.2737 44.0015C53.2737 45.5606 52.8665 47.0946 52.099 48.4382C50.5353 51.1736 47.623 52.8748 44.5005 52.8748Z" fill="#00818F"/>
<path fill-rule="evenodd" clip-rule="evenodd" d="M46.974 52.5539L47.4223 78.6607C57.7324 77.6864 67.1259 71.9815 72.8214 63.2377L50.2447 50.583C49.2698 51.568 48.1534 52.2079 46.974 52.5539Z" fill="#F2A88D"/>
<path fill-rule="evenodd" clip-rule="evenodd" d="M19.2953 20.808L31.6212 33.3883L16.2673 24.7846C17.1878 23.3743 18.2028 22.0433 19.2953 20.808Z" fill="#F2A88D"/>
<path fill-rule="evenodd" clip-rule="evenodd" d="M42.1166 35.4761C41.0605 35.7796 40.0541 36.3287 39.1489 37.1541L21.1199 19.0333V18.8942C26.6606 13.518 33.9035 10.0991 41.6712 9.36932L42.1166 35.4761Z" fill="#F2A88D"/>
<path d="M12.1737 17.9546C11.9548 17.9546 11.735 17.8705 11.5668 17.7033L7.16342 13.2927C6.9044 13.0317 6.83465 12.6344 6.99331 12.301C7.15006 11.9656 7.50469 11.7684 7.86311 11.8099L13.2767 12.4063L12.3916 7.36358C12.3266 6.99048 12.5073 6.61834 12.838 6.44242C13.1668 6.2665 13.5749 6.32644 13.8425 6.59032L18.2038 10.9226C18.5431 11.2599 18.5488 11.8109 18.2153 12.1531C17.8807 12.4962 17.3378 12.4982 16.9985 12.1647L14.5584 9.73757L15.1729 13.2434C15.2198 13.5131 15.1395 13.7895 14.9541 13.9886C14.7696 14.1887 14.5001 14.2912 14.2315 14.2593L10.1245 13.806L12.7787 16.4651C13.117 16.8034 13.12 17.3543 12.7864 17.6955C12.6153 17.8686 12.3954 17.9546 12.1737 17.9546Z" fill="#00818F"/>
<path d="M44.4651 45.2716H42.4188C42.1894 45.2716 41.9685 45.1788 41.808 45.0135L18.8184 21.5581L15.9826 21.3C15.5104 21.2565 15.1615 20.8331 15.2045 20.3547C15.2456 19.8762 15.6728 19.5244 16.1383 19.5669L19.2876 19.854C19.4893 19.8733 19.6776 19.9622 19.8219 20.1082L42.7762 43.5308H43.6068V42.8474L20.513 19.65C20.3505 19.4867 20.2588 19.2653 20.2588 19.0324V18.8932L20.1565 15.4134C20.1431 14.933 20.5149 14.5319 20.9909 14.5174C21.465 14.5319 21.8625 14.8808 21.8759 15.3603L21.9735 18.6631L45.073 41.8663C45.2354 42.0306 45.3272 42.252 45.3272 42.4849V44.3988C45.3253 44.8821 44.9411 45.2716 44.4651 45.2716Z" fill="#00818F"/>
<path d="M13.6054 86.8942C13.4248 86.8942 13.2413 86.8352 13.0864 86.7164C10.7514 84.9243 8.54071 82.9118 6.51921 80.737C4.82269 78.913 3.24463 76.9615 1.83197 74.9335C1.55574 74.5411 1.64944 73.9979 2.03749 73.7214C2.42745 73.444 2.96368 73.5387 3.23608 73.9292C4.60477 75.8914 6.13114 77.7792 7.77223 79.5452C9.72873 81.6504 11.8678 83.5962 14.1263 85.3303C14.5048 85.6202 14.5803 86.1664 14.2927 86.5491C14.1225 86.7753 13.8664 86.8942 13.6054 86.8942Z" fill="#00818F"/>
<path d="M8.14698 88C7.96634 88 7.7828 87.942 7.62796 87.8231C6.17898 86.7125 4.81127 85.4665 3.56014 84.1201C2.50686 82.9882 1.53101 81.78 0.657413 80.5273C0.383101 80.1348 0.47675 79.5916 0.8648 79.3151C1.25285 79.0387 1.78902 79.1324 2.06333 79.5249C2.89009 80.7109 3.81626 81.8563 4.81315 82.9283C5.99833 84.2042 7.29631 85.3844 8.66787 86.437C9.04541 86.728 9.11996 87.2731 8.83227 87.6569C8.66214 87.8811 8.406 88 8.14698 88Z" fill="#00818F"/>
<path d="M86.5648 14.3376C86.3 14.3376 86.0382 14.2148 85.8699 13.9819C84.4659 12.0467 82.9089 10.1841 81.2363 8.44712C79.2425 6.37667 77.0719 4.46863 74.7827 2.77515C74.4004 2.49194 74.3182 1.94868 74.5983 1.55915C74.8783 1.17154 75.4145 1.08648 75.8007 1.37163C78.1662 3.12213 80.4095 5.09401 82.4692 7.23212C84.1982 9.02806 85.8087 10.9535 87.2577 12.9534C87.5378 13.34 87.4556 13.8852 87.0713 14.1694C86.9194 14.2834 86.7397 14.3376 86.5648 14.3376Z" fill="#00818F"/>
<path d="M87.642 8.72458C87.3772 8.72458 87.1153 8.60085 86.9452 8.36886C86.0917 7.19155 85.1473 6.06256 84.137 5.0138C82.9308 3.76012 81.6148 2.60311 80.2222 1.57272C79.8399 1.28854 79.7558 0.745316 80.0377 0.356744C80.3158 -0.0308611 80.854 -0.116888 81.2401 0.169224C82.7091 1.25665 84.0979 2.47747 85.3691 3.79977C86.4348 4.90653 87.4317 6.09737 88.334 7.34041C88.614 7.72705 88.5318 8.2722 88.1476 8.55638C87.9947 8.66948 87.8169 8.72458 87.642 8.72458Z" fill="#00818F"/>
</svg>
