<svg width="52" height="52" viewBox="0 0 52 52" fill="none" xmlns="http://www.w3.org/2000/svg">
<path fill-rule="evenodd" clip-rule="evenodd" d="M11.1509 23.1725L23.1714 11.1566C24.0083 10.3199 25.1226 9.94662 26.2178 10.0061H26C28.209 10.0061 30 11.7965 30 14.0046V15.0042C30 15.5563 29.5523 16.0039 29 16.0039C28.4478 16.0039 28 15.5563 28 15.0042V14.0046C28 12.9006 27.1045 12.0054 26 12.0054C26 12.0054 25.9966 11.9971 25.9922 11.9854C25.4829 11.9874 24.9746 12.1817 24.5859 12.5701L12.5649 24.5866C11.7837 25.367 11.7837 26.6331 12.5649 27.4136L24.5859 39.4299C24.9746 39.8184 25.4834 40.0132 25.9932 40.0146C25.9971 40.0029 26 39.9946 26 39.9946C27.1045 39.9946 28 39.0994 28 37.9954V35.9961C28 33.788 29.791 31.9977 32 31.9977H38C39.1045 31.9977 40 31.1025 40 29.9984V22.0015C40 20.8974 39.1045 20.0023 38 20.0023H37C36.4478 20.0023 36 19.5547 36 19.0027C36 18.4506 36.4478 18.0031 37 18.0031H38C40.209 18.0031 42 19.7934 42 22.0016V29.9985C42 32.2066 40.209 33.997 38 33.997H32C30.8955 33.997 30 34.8921 30 35.9962V37.9954C30 40.2036 28.209 41.9939 26 41.9939H26.2173C25.1221 42.0534 24.0083 41.6796 23.1714 40.8434L11.1509 28.8275C10.3699 28.0466 10 27.0233 10 26C10 24.9767 10.3699 23.9534 11.1509 23.1725ZM31 20.0023C30.4478 20.0023 30 19.5547 30 19.0027C30 18.4506 30.4478 18.0031 31 18.0031C31.5523 18.0031 32 18.4506 32 19.0027C32 19.5547 31.5523 20.0023 31 20.0023Z" fill="black"/>
<path d="M8.56115 4H26V0H8.56115V4ZM4 26V8.56115H0V26H4ZM26 48C13.8497 48 4 38.1503 4 26H0C0 40.3594 11.6406 52 26 52V48ZM48 26C48 38.1503 38.1503 48 26 48V52C40.3594 52 52 40.3594 52 26H48ZM26 4C38.1503 4 48 13.8497 48 26H52C52 11.6406 40.3594 0 26 0V4ZM8.56115 0C3.83296 0 0 3.83296 0 8.56115H4C4 6.0421 6.0421 4 8.56115 4V0Z" fill="#F2A88D"/>
</svg>
