<svg width="52" height="52" viewBox="0 0 52 52" fill="none" xmlns="http://www.w3.org/2000/svg">
<path fill-rule="evenodd" clip-rule="evenodd" d="M40.8491 28.8275L28.8286 40.8434C27.9917 41.6801 26.8774 42.0534 25.7822 41.9939H26C23.791 41.9939 22 40.2035 22 37.9954V36.9958C22 36.4437 22.4477 35.9961 23 35.9961C23.5522 35.9961 24 36.4437 24 36.9958V37.9954C24 39.0994 24.8955 39.9946 26 39.9946C26 39.9946 26.0034 40.0029 26.0078 40.0146C26.5171 40.0126 27.0254 39.8183 27.4141 39.4299L39.4351 27.4134C40.2163 26.633 40.2163 25.3669 39.4351 24.5864L27.4141 12.5701C27.0254 12.1816 26.5166 11.9868 26.0068 11.9854C26.0029 11.9971 26 12.0054 26 12.0054C24.8955 12.0054 24 12.9006 24 14.0046V16.0039C24 18.212 22.209 20.0023 20 20.0023H14C12.8955 20.0023 12 20.8975 12 22.0016V29.9985C12 31.1026 12.8955 31.9977 14 31.9977H15C15.5522 31.9977 16 32.4453 16 32.9973C16 33.5494 15.5522 33.9969 15 33.9969H14C11.791 33.9969 10 32.2066 10 29.9984V22.0015C10 19.7934 11.791 18.003 14 18.003H20C21.1045 18.003 22 17.1079 22 16.0038V14.0046C22 11.7964 23.791 10.0061 26 10.0061H25.7827C26.8779 9.94657 27.9917 10.3204 28.8286 11.1566L40.8491 23.1725C41.6301 23.9534 42 24.9767 42 26C42 27.0233 41.6301 28.0466 40.8491 28.8275ZM21 31.9977C21.5522 31.9977 22 32.4453 22 32.9973C22 33.5494 21.5522 33.9969 21 33.9969C20.4477 33.9969 20 33.5494 20 32.9973C20 32.4453 20.4477 31.9977 21 31.9977Z" fill="black"/>
<path d="M26 4H43.4388V0H26V4ZM48 8.56115V26H52V8.56115H48ZM26 48C13.8497 48 4 38.1503 4 26H0C0 40.3594 11.6406 52 26 52V48ZM48 26C48 38.1503 38.1503 48 26 48V52C40.3594 52 52 40.3594 52 26H48ZM43.4388 4C45.9579 4 48 6.0421 48 8.56115H52C52 3.83296 48.167 0 43.4388 0V4ZM26 0C11.6406 0 0 11.6406 0 26H4C4 13.8497 13.8497 4 26 4V0Z" fill="#F2A88D"/>
</svg>
