<svg width="89" height="88" viewBox="0 0 89 88" fill="none" xmlns="http://www.w3.org/2000/svg">
<path d="M14.0378 72.2967C13.8623 72.2967 13.685 72.2446 13.5299 72.1348C11.581 70.7578 9.7035 69.2198 7.9486 67.5665C5.85479 65.5931 3.91976 63.4392 2.19828 61.1663C1.90394 60.7774 1.98008 60.2228 2.3682 59.927C2.75725 59.633 3.31065 59.7093 3.60499 60.0972C5.26704 62.2921 7.13522 64.3724 9.15754 66.2788C10.853 67.8754 12.6664 69.3603 14.5476 70.6908C14.9459 70.9727 15.0406 71.5244 14.7602 71.9226C14.5875 72.1664 14.3145 72.2967 14.0378 72.2967Z" fill="#00818F"/>
<path d="M8.66358 73.4401C8.48809 73.4401 8.31074 73.388 8.15568 73.2782C6.95046 72.425 5.78702 71.4742 4.69787 70.4479C3.3998 69.2235 2.20108 67.8893 1.13514 66.4826C0.841727 66.0937 0.916939 65.5391 1.30506 65.2442C1.69411 64.9502 2.24658 65.0256 2.54092 65.4145C3.5465 66.744 4.6793 68.0047 5.9068 69.1603C6.93653 70.1297 8.03497 71.0294 9.17426 71.8352C9.5726 72.1161 9.66731 72.6679 9.38689 73.067C9.21326 73.3099 8.9412 73.4401 8.66358 73.4401Z" fill="#00818F"/>
<path d="M70.853 13.7912C70.5819 13.7912 70.3126 13.6665 70.1399 13.4293C68.5159 11.2056 66.684 9.09361 64.6951 7.15186C63.0293 5.52645 61.2419 4.01084 59.383 2.64594C58.9903 2.35752 58.9048 1.80393 59.1927 1.41037C59.4805 1.01588 60.033 0.930278 60.4248 1.21963C62.3506 2.63291 64.2002 4.20249 65.9254 5.88466C67.9848 7.89618 69.8818 10.0826 71.5633 12.3854C71.8512 12.7799 71.7658 13.3325 71.3721 13.6209C71.2161 13.7363 71.0341 13.7912 70.853 13.7912Z" fill="#00818F"/>
<path d="M72.0072 8.49444C71.7361 8.49444 71.4668 8.36976 71.2941 8.13251C70.3089 6.78343 69.1993 5.50413 67.995 4.32811C66.9876 3.34374 65.904 2.42543 64.7759 1.59645C64.3831 1.30802 64.2986 0.755361 64.5855 0.360871C64.8743 -0.0317587 65.4258 -0.117357 65.8186 0.170137C67.0127 1.0475 68.1594 2.01978 69.2253 3.0609C70.5002 4.30485 71.6748 5.65951 72.7175 7.0886C73.0053 7.48216 72.9199 8.03575 72.5262 8.32418C72.3702 8.43955 72.1882 8.49444 72.0072 8.49444Z" fill="#00818F"/>
<path d="M35.8756 57.1237C47.8235 57.1237 57.5092 47.4184 57.5092 35.4463C57.5092 23.4742 47.8235 13.7689 35.8756 13.7689C23.9277 13.7689 14.2421 23.4742 14.2421 35.4463C14.2421 47.4184 23.9277 57.1237 35.8756 57.1237Z" fill="#B0D9D9"/>
<path d="M35.8756 45.971C41.6765 45.971 46.379 41.2589 46.379 35.4463C46.379 29.6336 41.6765 24.9216 35.8756 24.9216C30.0747 24.9216 25.3722 29.6336 25.3722 35.4463C25.3722 41.2589 30.0747 45.971 35.8756 45.971Z" fill="#00818F"/>
<path d="M24.128 38.352C26.9546 38.352 29.246 36.0559 29.246 33.2236C29.246 30.3913 26.9546 28.0952 24.128 28.0952C21.3014 28.0952 19.01 30.3913 19.01 33.2236C19.01 36.0559 21.3014 38.352 24.128 38.352Z" fill="white"/>
<path d="M28.3797 45.9254C29.9346 45.9254 31.195 44.6624 31.195 43.1044C31.195 41.5465 29.9346 40.2834 28.3797 40.2834C26.8249 40.2834 25.5645 41.5465 25.5645 43.1044C25.5645 44.6624 26.8249 45.9254 28.3797 45.9254Z" fill="white"/>
<path d="M61.8956 68.4718C61.6746 68.4718 61.4527 68.389 61.2818 68.2224L57.0125 64.0775C56.8287 63.8988 56.7312 63.6504 56.7451 63.3946C56.759 63.1387 56.8825 62.9024 57.0849 62.7451C58.1704 61.9003 59.2502 60.9448 60.2948 59.9074C61.3849 58.8049 62.3682 57.6782 63.2113 56.5626C63.3636 56.3607 63.5957 56.2342 63.8473 56.2147C64.099 56.1933 64.3478 56.2854 64.5289 56.4622L68.8168 60.6341C68.9867 60.7987 69.0823 61.0248 69.0842 61.2621C69.086 61.4984 68.9932 61.7264 68.8261 61.8938L62.5186 68.2131C62.3468 68.3852 62.1212 68.4718 61.8956 68.4718ZM58.9587 63.5062L61.8854 66.3477L66.9458 61.2779L64.0043 58.416C63.2633 59.3343 62.4378 60.2535 61.5427 61.1579C60.6969 61.998 59.8315 62.7833 58.9587 63.5062Z" fill="#00818F"/>
<path d="M36.2712 71.6659C26.7558 71.6659 17.7937 67.9527 11.0341 61.2091C4.26239 54.447 0.521381 45.4574 0.500025 35.8966C0.488883 26.3163 4.21132 17.2989 10.9802 10.5023C17.7315 3.74293 26.6861 0.0138801 36.1942 0.000854492C55.9438 0.000854492 71.9812 16.041 72.022 35.7571C72.0322 40.664 71.0731 45.4174 69.1705 49.8834C67.9969 52.6364 66.4667 55.2462 64.6208 57.6383C64.6041 57.6597 64.5864 57.6811 64.5679 57.7006C63.6691 58.8794 62.6495 60.0433 61.5362 61.1608C60.4601 62.2382 59.3282 63.2402 58.1694 64.1399C51.8917 69.0506 44.341 71.6529 36.3353 71.6659C36.3353 71.6659 36.2722 71.6659 36.2712 71.6659ZM36.2731 1.76769C27.1587 1.77978 18.647 5.32553 12.2291 11.7518C5.79351 18.2125 2.25493 26.7862 2.26514 35.8929C2.28557 44.9811 5.8418 53.5278 12.2802 59.9559C18.7064 66.3664 27.2275 69.8972 36.2722 69.8972V70.7811L36.3334 69.8972C43.9427 69.8861 51.1192 67.4121 57.0877 62.7443C58.1908 61.8883 59.267 60.9356 60.2883 59.9112C61.3663 58.8282 62.3515 57.7015 63.215 56.5636C63.2345 56.5385 63.254 56.5143 63.2754 56.4911C65.0071 54.2349 66.4453 51.7777 67.5493 49.1874C69.3572 44.9429 70.269 40.4258 70.2588 35.758C70.2188 17.0169 54.9725 1.76769 36.2731 1.76769ZM36.3641 65.3336C28.5283 65.3336 21.1614 62.2754 15.62 56.7237C4.18253 45.2621 4.18253 26.6122 15.62 15.1506C21.1614 9.59793 28.5283 6.54063 36.3641 6.54063C44.1999 6.54063 51.5677 9.59793 57.1091 15.1506C68.2987 26.3638 68.6515 44.2572 57.9104 55.8872C57.9076 55.8891 57.9057 55.8919 57.903 55.8947C57.6485 56.1747 57.3811 56.4511 57.11 56.7227C56.8723 56.96 56.6346 57.1935 56.3904 57.4168C56.383 57.4243 56.3746 57.4326 56.3662 57.4401C50.9233 62.5303 43.8192 65.3336 36.3641 65.3336ZM36.3641 8.30747C29 8.30747 22.0751 11.1815 16.867 16.4001C6.11664 27.1723 6.11664 44.7001 16.867 55.4732C22.0751 60.6918 28.9991 63.5658 36.3641 63.5658C43.3586 63.5658 50.0226 60.9412 55.1341 56.1747C55.1462 56.1626 55.1592 56.1496 55.1722 56.1375C55.4071 55.9235 55.6364 55.6993 55.863 55.4732C56.1165 55.2183 56.3681 54.9578 56.6086 54.6945C56.6123 54.6889 56.6179 54.6842 56.6225 54.6786C66.709 43.7483 66.3775 26.9369 55.863 16.4001C50.6531 11.1815 43.7291 8.30747 36.3641 8.30747Z" fill="#00818F"/>
<path d="M74.9627 88C74.7287 88 74.504 87.907 74.3387 87.7414L58.059 71.4314C57.7145 71.0863 57.7145 70.5271 58.059 70.1819L70.7416 57.4698C71.0861 57.1246 71.6441 57.1246 71.9886 57.4698L88.2414 73.7518C88.5859 74.0961 88.5859 74.6543 88.2433 75.0004L75.5875 87.7404C75.4232 87.906 75.1985 87.9991 74.9627 88ZM59.9309 70.8053L74.9617 85.8647L86.3732 74.3771L71.3656 59.3437L59.9309 70.8053Z" fill="#00818F"/>
<path d="M84.375 76.3895L76.9608 83.8495L61.9346 68.8002L62.5233 68.2094L68.8316 61.8864L69.3646 61.3524L84.375 76.3895Z" fill="#F2A88D"/>
</svg>
