<svg width="24" height="24" viewBox="0 0 24 24" fill="none" xmlns="http://www.w3.org/2000/svg">
    <path fill-rule="evenodd" clip-rule="evenodd" d="M12.406 20.625a.719.719 0 1 1-1.437 0 .719.719 0 0 1 1.437 0zM16 23.5H7.375A2.875 2.875 0 0 1 4.5 20.625v-9.344a.719.719 0 0 1 1.438 0v9.344c0 .794.643 1.438 1.437 1.438H16c.794 0 1.438-.644 1.438-1.438v-.719a.719.719 0 0 0-.72-.718H8.095a.719.719 0 0 1 0-1.438h8.984c.87 0 1.594.617 1.76 1.438h.037v1.437A2.875 2.875 0 0 1 16 23.5zM5.937 8.406a.719.719 0 1 1-1.437 0 .719.719 0 0 1 1.438 0zm12.22 7.906a.719.719 0 0 1-.72-.718V3.375c0-.794-.643-1.438-1.437-1.438H7.375c-.794 0-1.438.644-1.438 1.438v.719c0 .397.322.718.72.718h8.624a.719.719 0 1 1 0 1.438H6.297A1.797 1.797 0 0 1 4.5 4.453V3.375A2.875 2.875 0 0 1 7.375.5H16a2.875 2.875 0 0 1 2.875 2.875v12.219a.719.719 0 0 1-.719.719z" fill="#000"/>
</svg>
