<svg width="648" height="492" viewBox="0 0 648 492" fill="none" xmlns="http://www.w3.org/2000/svg">
<path d="M383.835 263.363V263.331H352.469V263.298H333.25V263.266H317.856V263.234H304.61V263.202H292.891V263.169H282.177V263.137H272.24V263.105H263.052V263.073H254.419V263.04H246.27V263.008H238.542V262.976H231.203V262.944H224.158V262.911H217.469V262.879H211.074V262.846H204.939V262.814H199.094V262.782H193.476V262.75H188.052V262.717H182.859V262.685H177.859V262.653H173.054V262.621H168.509V262.589H164.093V262.556H161.528V262.524H161.495V262.427H161.463V262.298H161.43V262.201H161.398V262.104H161.365V262.007H161.333V261.878H161.301V261.781H161.268V261.684H161.236V261.588H161.203V261.491H161.171V261.362H161.138V261.265H161.106V261.168H161.073V261.071H161.041V260.974H161.008V260.877H160.976V260.78H160.944V260.651H160.911V260.555H160.879V260.458H160.846V260.361H160.814V260.264H160.781V260.167H160.749V260.07H160.716V259.941H160.684V259.844H160.651V259.748H160.619V259.65H160.587V259.554H160.554V259.457H160.522V259.36H160.489V259.263H160.457V259.134H160.424V259.037H160.392V258.941H160.359V258.844H160.327V258.747H160.294V258.65H160.262V258.553H160.229V258.457H160.197V258.359H160.164V258.263H160.132V258.166H160.099V258.069H160.067V257.972H160.034V257.875H160.002V257.778H159.97V257.682H159.937V257.584H159.905V257.488H159.872V257.391H159.84V257.294H159.807V257.197H159.775V257.1H159.742V257.004H159.71V256.907H159.677V256.81H159.645V256.713H159.612V256.616H159.58V256.519H159.547V256.423H159.515V256.326H159.482V256.229H159.45V256.132H159.417V256.068H159.385V255.97H159.353V255.874H159.32V255.777H159.288V255.68H159.255V255.583H159.223V255.486H159.19V255.389H159.158V255.293H159.125V255.196H159.093V255.099H159.06V255.002H159.028V254.938H158.996V254.841H158.963V254.744H158.931V254.647H158.898V254.55H158.866V254.453H158.833V254.357H158.801V254.26H158.768V254.195H158.736V254.098H158.703V254.002H158.671V253.904H158.639V253.808H158.606V253.743H158.574V253.646H158.541V253.55H158.509V253.452H158.476V253.356H158.444V253.291H158.411V253.195H158.379V253.097H158.346V253.001H158.314V252.904H158.281V252.839H158.249V252.743H158.216V252.645H158.184V252.549H158.151V252.452H158.119V252.387H158.086V252.29H158.054V252.194H158.021V252.097H157.989V252H157.956V251.936H157.924V251.838H157.891V251.742H157.859V251.677H157.827V251.58H157.794V251.483H157.762V251.419H157.729V251.322H157.697V251.225H157.664V251.161H157.632V251.064H157.599V250.967H157.567V250.87H157.534V250.806H157.502V250.709H157.469V250.612H157.437V250.547H157.405V250.45H157.372V250.354H157.34V250.289H157.307V250.192H157.275V250.095H157.242V249.999H157.21V249.934H157.177V249.837H157.145V249.74H157.112V249.676H157.08V249.579H157.048V249.482H157.015V249.417H156.983V249.32H156.95V249.256H156.918V249.159H156.885V249.062H156.853V248.998H156.82V248.901H156.788V248.836H156.755V248.74H156.723V248.642H156.691V248.578H156.658V248.513H158.444V248.481H161.625V248.449H164.872V248.417H168.249V248.384H171.69V248.352H175.262V248.32H178.963V248.288H182.794V248.255H186.788V248.223H190.878V248.19H195.263V248.158H199.743V248.126H204.384V248.094H209.353V248.061H214.482V248.029H219.906V247.997H225.652V247.965H231.753V247.933H238.248V247.9H245.198V247.868H252.727V247.835H260.909V247.803H269.969V247.771H280.262V247.739H292.08V247.706H306.431V247.674H325.75V247.642H423.117V247.674H438.312V247.642H445.717V247.674H448.993V247.706H451.496V247.739H453.411V247.771H454.966V247.803H456.559V247.835H458.053V247.868H459.224V247.9H460.39V247.933H461.561V247.965H462.727V247.997H463.798V248.029H464.742V248.061H465.681V248.094H466.657V248.126H467.601V248.158H468.539V248.19H469.416V248.223H470.227V248.255H471.038V248.288H471.82V248.32H472.631V248.352H473.441V248.384H474.252V248.417H475.001V248.449H475.717V248.481H476.428V248.513H477.111V248.546H477.827V248.578H478.538V248.61H479.254V248.642H479.969V248.675H480.619V248.707H481.268V248.74H481.918V248.772H482.567V248.804H483.217V248.836H483.866V248.869H484.483V248.901H485.099V248.933H485.715V248.965H486.137V249.03H486.104V249.191H486.071V249.353H486.038V249.514H486.009V249.676H485.976V249.837H485.943V249.999H485.91V250.192H485.877V250.354H485.843V250.547H485.815V250.709H485.782V250.902H485.749V251.064H485.715V251.225H485.682V251.419H485.649V251.58H485.616V251.774H485.587V251.936H485.554V252.097H485.521V252.29H485.488V252.452H485.455V252.645H485.421V252.839H485.388V253.033H485.36V253.227H485.327V253.388H485.293V253.582H485.26V253.775H485.227V253.937H485.194V254.131H485.165V254.324H485.132V254.518H485.099V254.711H485.066V254.905H485.033V255.099H484.999V255.293H484.966V255.486H484.938V255.68H484.905V255.874H484.871V256.068H484.838V256.261H484.805V256.455H484.772V256.681H484.743V256.875H484.71V257.1H484.677V257.294H484.644V257.488H484.611V257.714H484.578V257.907H484.544V258.134H484.516V258.327H484.483V258.521H484.45V258.747H484.416V258.973H484.383V259.166H484.35V259.393H484.317V259.618H484.288V259.812H484.255V260.038H484.222V260.264H484.189V260.49H484.156V260.716H484.122V260.942H484.094V261.168H484.061V261.394H484.028V261.62H483.994V261.846H483.961V262.072H483.928V262.298H483.895V262.524H483.866V262.75H483.833V262.976H483.8V263.234H477.86V263.266H466.268V263.298H450.974V263.331H423.767V263.363" fill="url(#paint0_linear_808_45066)"/>
<path d="M230.444 372.504C238.834 368.368 282.934 350.697 295.658 346.02C311.569 348.082 360.94 358.225 368.65 360.046C351.086 368.875 317.969 386.479 313.535 386.969C309.113 387.479 232.784 373.973 230.444 372.504" fill="#F8A6D7"/>
<path d="M247.667 373.76C248.498 374.283 258.637 376.317 271.574 378.706C281.02 373.973 303.636 359.282 318.104 350.737C316.609 350.385 313.371 349.668 309.004 348.732C292.932 354.859 255.347 369.977 247.667 373.76" fill="#E94290"/>
<path d="M230.449 372.503C230.449 372.503 233.006 453.124 233.605 456.988C241.89 459.667 311.965 477.735 315.723 477.384C315.523 444.74 314.027 390.707 313.543 386.969C297.135 381.451 230.449 372.503 230.449 372.503Z" fill="#E94290"/>
<path d="M368.649 360.047C369.823 380.152 371.195 441.997 370.836 442.927C369.928 445.277 317.985 477.636 315.717 477.384C313.441 477.152 312.904 388.852 313.537 386.97C314.171 385.087 368.649 360.047 368.649 360.047" fill="#DD2278"/>
<path d="M313.538 386.969C314.938 382.262 317.295 475.737 315.72 477.383C314.138 479.03 310.911 395.859 313.538 386.969Z" fill="#F8A6D7"/>
<path d="M230.446 372.504C230.446 372.504 277.87 374.922 313.537 386.969C295.613 385.504 230.446 372.504 230.446 372.504Z" fill="#FAB8D2"/>
<path d="M368.65 360.047C366.7 362.775 317.953 385.801 313.535 386.969C320.256 380.397 368.65 360.047 368.65 360.047Z" fill="#FAB8D2"/>
<path d="M277.017 438.042C278.479 437.383 279.194 436.211 279.173 434.504C279.148 433.109 278.572 431.802 277.448 430.569C276.317 429.339 274.941 428.441 273.308 427.889C271.683 427.337 270.2 427.218 268.884 427.521L269.019 436.544C269.845 437.17 270.726 437.654 271.672 437.984C273.774 438.691 275.556 438.72 277.017 438.042V438.042ZM275.179 409.989C274.251 408.917 273.045 408.13 271.587 407.632C270.517 407.268 269.514 407.171 268.582 407.345L268.689 415.012C269.215 415.367 269.83 415.674 270.57 415.919C272.152 416.455 273.561 416.491 274.791 416.016C276.018 415.541 276.63 414.673 276.608 413.417C276.591 412.207 276.111 411.064 275.179 409.989ZM282.665 424.577C284.557 425.226 286.267 426.359 287.807 427.996C289.347 429.636 290.574 431.618 291.513 433.91C292.437 436.208 292.928 438.604 292.964 441.063C293.045 446.183 290.908 449.227 286.577 450.232C282.242 451.232 275.552 450.209 266.498 447.129L256.722 443.804L256.231 394.91C257.764 394.455 260.122 394.571 263.305 395.281C266.495 395.985 269.524 396.824 272.401 397.806C275.058 398.71 277.626 400.114 280.079 402.022C282.544 403.927 284.546 406.054 286.096 408.411C287.651 410.764 288.44 413.069 288.476 415.309C288.515 418.043 287.882 420.287 286.555 422.024C285.243 423.764 283.497 424.477 281.313 424.19C281.616 424.248 282.06 424.377 282.665 424.577Z" fill="#FCDBE9"/>
<path d="M203.535 368.048C205.107 366.915 162.357 349.996 136.727 345.871C110.821 351.246 64.808 364.601 64.808 364.601C82.9086 372.261 117.113 387.672 121.568 387.886C126.019 388.105 201.308 369.685 203.535 368.048Z" fill="#71D1E9"/>
<path d="M184.616 371.832C194.622 369.327 202.863 367.132 203.46 366.693C204.09 366.241 194.376 362.103 182.678 358.167C169.876 361.883 162.931 365.302 162.931 365.302C168.801 367.787 174.944 370.205 184.616 371.832" fill="#43ACCE"/>
<path d="M121.268 379.167C131.275 376.661 174.366 363.307 174.963 362.867C175.593 362.412 117.048 358.061 105.35 354.126C92.4827 357.857 83.7294 360.504 82.0638 360.976C87.934 363.461 110.814 376.568 121.268 379.167" fill="#43ACCE"/>
<path d="M203.536 368.049C203.536 368.049 206.425 450.955 205.029 452.614C199.438 455.016 129.101 478.356 125.328 478.256C123.386 445.657 121.331 391.637 121.568 387.886C137.578 381.307 203.536 368.049 203.536 368.049" fill="#43ACCE"/>
<path d="M64.8085 364.601C64.2176 379.854 65.8474 439.76 65.8215 447.581C67.2663 449.654 123.078 478.64 125.328 478.255C127.584 477.862 122.321 389.736 121.568 387.886C120.815 386.046 64.8085 364.601 64.8085 364.601Z" fill="#2B6D97"/>
<path d="M121.568 387.886C119.866 383.282 123.646 476.709 125.327 478.255C127.016 479.789 124.772 396.589 121.568 387.886Z" fill="#B9E8F1"/>
<path d="M203.535 368.049C203.535 368.049 156.373 373.55 121.568 387.886C139.366 385.252 203.535 368.049 203.535 368.049Z" fill="#B9E8F1"/>
<path d="M64.808 364.601C66.9314 367.184 117.087 387.005 121.568 387.886C114.431 381.769 64.808 364.601 64.808 364.601Z" fill="#B9E8F1"/>
<path d="M169.041 420.907L163.918 409.899L161.486 422.776L169.041 420.907ZM156.473 449.05L143.72 448.802L156.162 397.312L168.756 394.181L191.632 434.482L179.308 443.023L174.743 433.226L158.749 437.09L156.473 449.05Z" fill="#D5F1F8"/>
<path d="M185.359 287.796C186.619 286.889 152.375 273.337 131.843 270.031C111.09 274.338 74.2325 285.033 74.2325 285.033C88.7325 291.17 116.132 303.517 119.7 303.685C123.268 303.863 183.573 289.107 185.359 287.796Z" fill="#F57615"/>
<path d="M115.211 276.727C103.487 277.557 98.763 287.958 107.084 289.291C115.406 290.624 131.649 283.577 147.331 287.6C163.013 291.615 172.64 280.236 155.442 276.607C138.243 272.985 115.211 276.727 115.211 276.727Z" fill="#F03E1E"/>
<path d="M185.36 287.797C185.36 287.797 187.678 354.206 186.558 355.536C182.077 357.46 125.733 376.158 122.714 376.077C121.159 349.965 119.509 306.691 119.701 303.686C132.525 298.417 185.36 287.797 185.36 287.797Z" fill="#F03E1E"/>
<path d="M74.2328 285.033C73.7588 297.255 75.0672 345.242 75.0445 351.504C76.2004 353.167 120.911 376.384 122.713 376.077C124.519 375.761 120.304 305.167 119.7 303.686C119.096 302.21 74.2328 285.033 74.2328 285.033" fill="#F2561A"/>
<path d="M119.701 303.685C118.341 299.999 121.367 374.838 122.714 376.077C124.068 377.304 122.269 310.658 119.701 303.685Z" fill="#F8A047"/>
<path d="M185.361 287.796C185.361 287.796 147.582 292.203 119.702 303.685C133.958 301.577 185.361 287.796 185.361 287.796Z" fill="#F8A047"/>
<path d="M74.2325 285.033C75.9338 287.105 116.109 302.982 119.7 303.685C113.986 298.785 74.2325 285.033 74.2325 285.033Z" fill="#F8A047"/>
<path d="M67.2925 454.448C67.2925 466.834 77.3931 476.874 89.8477 476.874C102.302 476.874 112.396 466.834 112.396 454.448C112.396 442.068 102.302 432.022 89.8477 432.022C77.3931 432.022 67.2925 442.068 67.2925 454.448Z" fill="#E92A7E"/>
<path d="M84.0967 435.544C89.8726 434.34 93.3791 438.617 87.6324 440.819C81.8824 443.017 76.3565 449.173 76.1357 455.768C75.9539 461.111 69.0578 457.088 71.272 449.173C73.4863 441.254 78.7915 436.644 84.0967 435.544Z" fill="#FAB8D2"/>
<path d="M141.686 143.464C141.686 143.464 165.332 152.142 185.488 137.337C187.507 139.071 190.445 138.403 194.124 136.718C197.114 136.343 199.069 135.568 198.689 134.464C198.29 133.312 195.017 134.006 194.186 134.058C194.296 133.99 198.218 132.715 199.056 132.366C201.014 131.565 200.494 129.612 198.689 129.996C197.169 130.316 193.744 131.281 193.562 131.333C193.715 131.226 197.559 129.322 198.277 128.983C200.387 127.979 199.559 125.509 197.117 126.61C195.465 127.362 192.601 128.783 192.319 128.831C192.377 128.702 194.228 127.143 195.254 126.132C196.949 124.486 195.764 122.817 193.536 124.357C191.773 125.564 187.423 128.266 187.423 128.266C187.423 128.266 187.669 124.777 185.731 124.667C183.777 124.563 183.54 130.674 183.54 130.674C183.54 130.674 168.799 144.765 143.689 135.991C137.468 137.111 141.686 143.464 141.686 143.464" fill="#FABD99"/>
<path d="M143.376 271.73C142.885 272.282 142.807 274.777 143.294 275.594C145.428 278.825 150.421 283.442 156.489 283.816C160.911 284.097 165.337 282.25 166.236 279.939C166.502 279.258 166.895 277.45 165.83 276.162C159.512 272.566 143.376 271.73 143.376 271.73" fill="#E6E7E7"/>
<path d="M142.116 216.959C142.116 216.959 143.691 266.69 143.899 273.04C146.548 276.837 150.253 272.275 150.253 272.275C150.253 272.275 149.344 221.497 148.818 216.959C145.801 216.561 142.116 216.959 142.116 216.959Z" fill="#FABD99"/>
<path d="M143.951 265.641C143.951 265.641 146.328 269.522 147.717 268.773C146.737 267.304 146.977 264.073 149.117 263.698C151.247 263.33 151.247 267.023 151.247 267.023C151.247 267.023 154.039 264.728 159.357 266.197C164.678 267.665 166.484 274.409 165.831 276.162C164.756 277.818 160.087 279.939 154.273 279.113C148.461 278.289 144.698 273.567 143.951 272.921C143.221 272.282 142.636 270.622 143.221 269.331C143.786 268.04 142.565 265.641 143.951 265.641" fill="#8C3943"/>
<path d="M151.704 268.959C151.834 268.959 151.967 268.895 152.051 268.763C153.808 266.141 155.665 267.578 155.743 267.642C155.941 267.797 156.213 267.752 156.343 267.533C156.489 267.303 156.444 266.987 156.246 266.832C156.223 266.816 153.613 264.792 151.35 268.172C151.197 268.395 151.246 268.695 151.434 268.863C151.515 268.93 151.603 268.959 151.704 268.959" fill="white"/>
<path d="M155.912 269.896C156.051 269.896 156.181 269.828 156.262 269.702C158.032 267.078 159.879 268.521 159.961 268.592C160.155 268.74 160.431 268.682 160.564 268.459C160.704 268.24 160.659 267.946 160.47 267.775C160.444 267.759 157.827 265.738 155.574 269.115C155.418 269.331 155.461 269.638 155.652 269.802C155.73 269.867 155.821 269.896 155.912 269.896Z" fill="white"/>
<path d="M125.97 271.73C126.461 272.282 126.535 274.777 126.048 275.594C123.915 278.825 118.922 283.442 112.857 283.816C108.431 284.097 104.006 282.25 103.11 279.939C102.844 279.258 102.451 277.45 103.513 276.162C109.831 272.566 125.97 271.73 125.97 271.73" fill="#E6E7E7"/>
<path d="M127.228 216.959C127.228 216.959 125.624 266.69 125.41 273.04C122.702 276.837 118.916 272.275 118.916 272.275C118.916 272.275 119.845 221.497 120.384 216.959C123.465 216.561 127.228 216.959 127.228 216.959Z" fill="#FABD99"/>
<path d="M125.393 265.641C125.393 265.641 123.02 269.522 121.63 268.773C122.611 267.304 122.367 264.073 120.231 263.698C118.098 263.33 118.098 267.023 118.098 267.023C118.098 267.023 115.305 264.728 109.987 266.197C104.669 267.665 102.864 274.409 103.513 276.162C104.591 277.818 109.257 279.939 115.075 279.113C120.883 278.289 124.646 273.567 125.393 272.921C126.127 272.282 126.708 270.622 126.127 269.331C125.562 268.04 126.78 265.641 125.393 265.641" fill="#8C3943"/>
<path d="M117.64 268.959C117.51 268.959 117.38 268.895 117.295 268.763C115.536 266.141 113.678 267.578 113.601 267.642C113.403 267.797 113.13 267.752 113.003 267.533C112.857 267.303 112.903 266.987 113.097 266.832C113.123 266.816 115.734 264.792 117.993 268.172C118.146 268.395 118.097 268.695 117.909 268.863C117.831 268.93 117.74 268.959 117.64 268.959Z" fill="white"/>
<path d="M113.435 269.896C113.295 269.896 113.165 269.828 113.081 269.702C111.311 267.078 109.464 268.521 109.386 268.592C109.191 268.74 108.915 268.682 108.779 268.459C108.642 268.24 108.688 267.946 108.876 267.775C108.902 267.759 111.516 265.738 113.772 269.115C113.925 269.331 113.883 269.638 113.694 269.802C113.613 269.867 113.522 269.896 113.435 269.896Z" fill="white"/>
<path d="M109.955 190.98C109.955 190.98 108.965 203.581 109.455 231.498C115.676 235.006 131.364 232.883 131.364 232.883L134.738 215.289C134.738 215.289 136.51 225.371 137.358 232.138C141.598 234.342 157.673 232.049 160.117 228.007C159.316 206.855 157.575 189.224 157.575 189.224L109.955 190.98Z" fill="#555658"/>
<path d="M160.291 224.149C160.291 224.149 149.902 229.097 136.72 227.932C137.249 231.23 137.506 233.364 137.506 233.364C137.506 233.364 146.412 234.915 160.642 230.066C160.642 226.865 160.291 224.149 160.291 224.149" fill="#3E3E40"/>
<path d="M109.535 225.992C109.535 225.992 119.564 229.097 132.746 227.932C132.22 231.23 131.963 233.364 131.963 233.364C131.963 233.364 123.057 236.274 108.827 231.424C108.827 228.223 109.535 225.992 109.535 225.992" fill="#3E3E40"/>
<path d="M115.561 140.024C115.561 140.024 120.932 137.967 124.266 136.311C123.948 132.686 122.509 128.828 122.509 128.828L128.961 126.979C128.961 126.979 130.539 132.718 130.883 135.065C135.886 135.427 142.509 135.472 142.509 135.472C142.509 135.472 147.194 156.93 130.399 159.283C125.977 159.9 116.045 146.932 115.561 140.024" fill="#FABD99"/>
<path d="M128.464 128.738L123.013 130.578C123.013 130.578 124.266 133.234 124.776 136.188C126.107 134.648 128.841 133.325 130.613 135.036C130.055 132.56 128.464 128.738 128.464 128.738" fill="#EAA376"/>
<path d="M117.23 139.126C115.078 140.23 112.321 141.295 109.665 142.806C111.909 147.577 113.126 157.249 111.094 159.909C112.678 179.071 109.295 186.325 106.048 195.966C115.272 207.491 153.178 202.856 161.753 195.297C157.315 165.836 146.461 137.079 146.191 136.146C140.672 135.42 138.815 135.097 136.493 134.964C145.318 159.941 117.402 157.713 117.23 139.126" fill="#2AAAC5"/>
<path d="M117.591 142.522C115.363 142.477 113.234 142.293 111.269 141.947C110.734 142.218 110.198 142.503 109.665 142.806C109.961 143.442 110.243 144.162 110.5 144.943C112.964 145.418 115.711 145.627 118.607 145.621C118.172 144.669 117.831 143.636 117.591 142.522V142.522ZM134.315 152.164C140.094 150.964 145.617 149.236 149.993 147.287C149.678 146.315 149.376 145.398 149.091 144.533C145.695 146.002 141.665 147.332 137.393 148.388C136.704 150.089 135.623 151.338 134.315 152.164V152.164ZM111.75 150.289C111.912 151.364 112.026 152.442 112.084 153.472C116.818 154.169 122.419 153.998 128.078 153.233C126.169 152.907 124.243 152.051 122.555 150.709C118.701 150.944 115.003 150.834 111.75 150.289ZM111.094 159.909C111.107 160.106 111.123 160.296 111.139 160.49C123.467 163.315 142.493 160.309 152.613 155.706C152.334 154.77 152.058 153.856 151.786 152.972C141.73 157.336 123.87 160.112 111.948 157.51C111.786 158.534 111.506 159.367 111.094 159.909V159.909ZM146.558 137.189C143.896 138.209 140.945 139.142 137.85 139.926C138.049 140.995 138.159 141.989 138.201 142.925C141.539 142.07 144.708 141.056 147.529 139.943C147.117 138.764 146.789 137.835 146.558 137.189V137.189ZM108.36 189.169C108.062 190.099 107.75 191.016 107.435 191.936C118.331 200.999 151.061 197.213 160.987 190.57C160.828 189.65 160.662 188.73 160.49 187.813C150.23 194.199 119.38 197.729 108.36 189.169V189.169ZM111.318 174.284C111.243 175.378 111.143 176.418 111.023 177.418C124.363 181.967 148.023 178.861 157.448 173.596C157.23 172.686 157.006 171.782 156.782 170.885C146.987 175.969 124.201 178.842 111.318 174.284ZM111.493 169.422C124.318 172.699 145.123 169.251 155.039 164.209C154.786 163.282 154.536 162.369 154.282 161.471C144.12 166.397 123.854 169.635 111.454 166.23C111.487 167.34 111.5 168.402 111.493 169.422V169.422ZM158.779 179.378C158.977 180.272 159.169 181.176 159.36 182.086C150.318 188.094 122.62 191.748 109.419 185.628C109.678 184.669 109.922 183.684 110.146 182.658C123.049 188.543 149.324 185.153 158.779 179.378" fill="#8AD9EF"/>
<path d="M135.691 134.687C136.555 139.233 140.227 151.506 130.542 152.749C122.746 153.746 119.23 144.485 118.243 138.645C116.912 138.907 115.935 139.662 115.935 139.662C115.935 139.662 117.776 157.979 131.672 155.661C144.425 153.533 138.149 134.881 138.149 134.881L135.691 134.687Z" fill="white"/>
<path d="M106.619 194.296C116.311 205.047 152.236 200.767 161.48 193.536C161.574 194.123 161.885 195.626 161.976 196.213C153.402 203.771 114.882 208.417 105.661 196.892C105.85 196.327 106.428 194.845 106.619 194.296Z" fill="white"/>
<path d="M109.212 144.736C109.702 146.383 112.452 154.269 110.708 158.592C110.894 159.76 111.114 163.592 111.114 163.592C111.114 163.592 113.465 164.244 113.988 156.219C114.403 149.821 111.394 141.838 111.394 141.838L108.588 143.077L109.212 144.736" fill="white"/>
<path d="M143.987 135.73C149.14 149.014 149.867 148.969 151.652 153.001C150.49 145.308 147.146 136.363 147.146 136.363L143.987 135.73" fill="white"/>
<path d="M108.403 153.769C116.702 161.074 137.004 167.127 151.341 164.738C152.328 167.202 155.244 167.957 159.289 168.151C162.117 169.187 164.208 169.4 164.387 168.244C164.565 167.04 161.338 166.152 160.578 165.817C160.708 165.807 164.776 166.475 165.685 166.553C167.793 166.74 168.237 164.768 166.458 164.28C164.961 163.867 161.474 163.153 161.289 163.115C161.471 163.089 165.767 163.166 166.562 163.192C168.903 163.27 169.312 160.697 166.633 160.558C164.819 160.464 161.62 160.413 161.345 160.326C161.458 160.238 163.822 159.702 165.202 159.28C167.471 158.595 167.192 156.571 164.5 156.913C162.377 157.175 157.267 157.578 157.267 157.578C157.267 157.578 159.104 154.596 157.432 153.608C155.75 152.62 152.702 157.933 152.702 157.933C152.702 157.933 120.39 160.629 109.585 143.207C104.319 143.655 105.228 150.97 108.403 153.769" fill="#FABD99"/>
<path d="M72.8409 87.162C72.8474 114.682 98.2013 132.999 124.857 132.996C151.51 132.989 169.354 114.666 169.347 87.1426C169.344 59.6225 147.737 38.3068 121.084 38.3133C94.4318 38.3165 72.8377 59.6418 72.8409 87.162Z" fill="#FABD99"/>
<path d="M75.5639 87.6075C75.5639 87.6075 74.9145 82.0163 68.1288 81.0446C60.9762 80.0278 57.8659 89.312 61.5672 95.0033C65.2685 100.682 73.2555 100.992 75.8594 96.6852L75.5639 87.6075Z" fill="#FABD99"/>
<path d="M66.6619 83.4464C71.3567 82.7943 74.8274 91.0907 68.3502 95.1066C71.2333 89.4347 68.8632 87.3686 65.4119 90.0028C65.519 88.1208 66.7268 86.978 69.532 87.2847C69.4021 84.7893 66.6619 83.4464 66.6619 83.4464Z" fill="#D37658"/>
<path d="M127.444 81.6065C127.928 84.3892 135.233 87.5302 132.574 90.9423C130.928 93.0536 127.1 92.5629 127.058 88.3372C127.032 85.8903 127.444 81.6065 127.444 81.6065Z" fill="#F36457"/>
<path d="M111.744 101.996C111.773 104.733 107.624 106.993 102.481 107.048C97.3382 107.099 93.1467 104.92 93.1174 102.183C93.0915 99.4421 97.2375 97.1792 102.384 97.1308C107.526 97.0791 111.718 99.2549 111.744 101.996Z" fill="#F36457"/>
<path d="M164.642 101.463C164.671 104.203 160.522 106.463 155.379 106.515C150.236 106.566 146.044 104.387 146.015 101.65C145.986 98.9123 150.135 96.6493 155.278 96.5977C160.421 96.546 164.612 98.725 164.642 101.463Z" fill="#F36457"/>
<path d="M154.545 66.7726C149.776 64.8422 148.143 70.1105 151.409 70.485C154.912 70.8821 157.701 72.4832 158.172 72.1959C159.227 71.5632 157.231 67.8573 154.545 66.7726" fill="#B26942"/>
<path d="M104.194 67.8319C109.181 66.5471 110.093 71.9833 106.808 71.9252C103.282 71.8542 100.305 73.0712 99.8728 72.7226C98.9182 71.9575 101.392 68.5518 104.194 67.8319Z" fill="#B26942"/>
<path d="M143.301 102.328C139.506 99.907 138.165 103.852 129.769 103.984C121.2 104.117 119.931 100.039 115.863 103.293C112.545 105.947 115.7 120.596 129.743 120.203C143.892 119.793 146.911 104.633 143.301 102.328" fill="#4E1F22"/>
<path d="M120.017 117.294C122.38 119.115 125.585 120.319 129.744 120.202C133.643 120.089 136.695 118.856 138.997 117.081C136.601 116.322 133.397 115.832 129.273 115.896C125.338 115.964 122.29 116.513 120.017 117.294" fill="#EE5B63"/>
<path d="M141.919 101.685C139.036 100.875 137.072 103.871 129.77 103.984C122.384 104.097 120.423 101.088 117.416 102.337C117.54 106.324 123.819 109.149 129.757 108.981C135.64 108.813 142.043 105.633 141.919 101.685Z" fill="white"/>
<path d="M111.938 82.5228C113.798 87.123 111.769 92.2687 107.402 94.0216C103.035 95.7681 97.983 93.4599 96.1194 88.8565C94.259 84.2532 96.2914 79.1107 100.655 77.3578C105.025 75.6113 110.074 77.9227 111.938 82.5228Z" fill="white"/>
<path d="M111.217 83.6949C112.363 86.5292 111.113 89.7057 108.422 90.7839C105.727 91.8621 102.61 90.4385 101.461 87.601C100.315 84.7602 101.568 81.5869 104.256 80.5087C106.954 79.4305 110.068 80.8573 111.217 83.6949Z" fill="#231F20"/>
<path d="M105.49 84.1629C105.49 85.0571 104.802 85.777 103.955 85.777C103.111 85.7737 102.425 85.0539 102.422 84.1564C102.422 83.2655 103.111 82.5423 103.955 82.5391C104.805 82.5456 105.494 83.2719 105.49 84.1629" fill="white"/>
<path d="M110.068 87.8816C110.068 88.4369 109.639 88.8824 109.11 88.8856C108.587 88.8856 108.159 88.4337 108.162 87.8784C108.169 87.3264 108.587 86.8777 109.117 86.8777C109.639 86.8777 110.068 87.3296 110.068 87.8816" fill="white"/>
<path d="M94.8175 82.0355C94.8175 82.0355 101.503 74.049 110.957 79.5079C101.623 69.7878 94.8175 82.0355 94.8175 82.0355Z" fill="#6D3A2C"/>
<path d="M146.49 81.8745C144.805 86.5424 147.029 91.6074 151.457 93.1957C155.889 94.7743 160.847 92.2789 162.535 87.6109C164.22 82.9398 161.996 77.8747 157.568 76.2897C153.133 74.7111 148.175 77.2097 146.49 81.8745Z" fill="white"/>
<path d="M151.873 82.9296C150.834 85.8092 152.204 88.9341 154.938 89.909C157.672 90.8871 160.73 89.3473 161.769 86.4677C162.811 83.585 161.438 80.4633 158.707 79.4852C155.97 78.5102 152.915 80.0533 151.873 82.9296" fill="#231F20"/>
<path d="M157.613 83.1814C157.645 84.0788 158.363 84.7729 159.21 84.7373C160.054 84.7051 160.71 83.9593 160.681 83.0619C160.645 82.1742 159.931 81.4769 159.087 81.5027C158.239 81.5414 157.574 82.2904 157.613 83.1814" fill="white"/>
<path d="M153.182 87.071C153.202 87.6262 153.646 88.0556 154.176 88.0362C154.698 88.0169 155.111 87.552 155.088 86.9968C155.059 86.448 154.624 86.0122 154.094 86.0348C153.568 86.0541 153.159 86.519 153.182 87.071Z" fill="white"/>
<path d="M163.58 80.7444C163.58 80.7444 156.593 73.0162 147.356 78.8269C156.311 68.7583 163.58 80.7444 163.58 80.7444Z" fill="#6D3A2C"/>
<path d="M114.39 14.8282C109.107 4.08158 100.062 2.41263 99.9159 15.1058C92.7536 8.89803 89.7731 13.0075 91.4841 18.363C84.062 10.8446 67.9517 12.6459 71.7439 25.4457C66.7569 23.1375 57.5199 28.5576 62.3023 33.6323C53.5491 28.4123 41.627 37.8418 47.2471 49.3277C36.6351 50.2122 33.816 63.6737 47.8576 66.1271C38.3738 70.7079 43.692 86.5905 53.0069 80.6765C49.0459 90.9905 58.377 94.5641 64.6562 82.8297C67.3088 89.6024 77.6335 89.6863 78.864 86.3194C83.9679 95.2549 88.8316 79.2335 85.1465 74.5882C93.4225 78.1714 94.2926 68.7775 92.2633 65.4072C99.2633 74.133 106.12 61.4592 101.101 57.8759C106.958 60.5746 111.549 54.8156 107.5 53.9278C112.724 54.7446 115.75 46.7225 110.195 43.5654C114.669 43.249 126.494 36.5054 125.338 46.7516C124.182 56.9946 132.754 50.2509 135.552 44.3305C134.315 62.447 146.387 58.2342 150.955 54.3701C145.319 66.4596 156.491 66.7566 160.429 61.0137C159.76 70.9758 172.409 69.2843 170.211 62.5826C176.708 65.6364 181.234 58.0857 174.663 54.0053C183.815 54.9447 186.517 40.8796 176.289 40.8021C184.114 36.9412 179.309 31.7245 175.747 32.1829C180.065 25.4844 173.676 17.2267 166.263 21.4072C172.692 10.2055 155.043 4.78209 150.818 7.93602C152.036 0.243278 145.267 -5.26074 141.289 8.10068C136.02 1.68306 131.939 6.89333 131.952 11.2191C126.137 0.898603 114.841 1.67336 114.39 14.8282" fill="#C87E52"/>
<path d="M164.23 279.43C165.694 278.984 225.919 253.132 229.446 252.955C233.161 252.477 297.34 264.583 302.439 266.988C284.872 275.801 251.758 293.401 247.327 293.904C242.901 294.411 166.565 280.914 164.23 279.43Z" fill="#FDD609"/>
<path d="M195.599 276.791C194.644 276.207 220.745 267.142 235.313 263.627C250.18 264.276 278.9 268.436 277.932 269.705C267.857 274.919 247.755 287.899 245.201 288.219C242.651 288.538 196.952 277.627 195.599 276.791" fill="#F7AD0E"/>
<path d="M164.232 279.429C164.232 279.429 167.008 362.099 168.291 363.913C172.692 368.097 245.75 384.671 249.506 384.315C249.309 351.662 247.815 297.632 247.332 293.904C230.919 288.38 164.232 279.429 164.232 279.429" fill="#F7AD0E"/>
<path d="M302.442 266.988C303.946 268.021 308.171 347.679 306.868 349.858C305.569 352.021 251.775 384.554 249.506 384.315C247.225 384.077 246.696 295.793 247.331 293.904C247.959 292.022 302.442 266.988 302.442 266.988" fill="#EB7317"/>
<path d="M247.33 293.904C248.722 289.197 251.084 382.679 249.507 384.316C247.923 385.975 244.701 302.798 247.33 293.904Z" fill="#F9C11F"/>
<path d="M164.235 279.428C164.235 279.428 211.655 281.856 247.332 293.903C229.403 292.435 164.235 279.428 164.235 279.428Z" fill="#FAE232"/>
<path d="M302.439 266.988C300.484 269.7 251.741 292.73 247.328 293.905C254.05 287.339 302.439 266.988 302.439 266.988Z" fill="#FAE232"/>
<path d="M195.659 352.55C191.831 349.287 188.763 345.442 186.474 341.029C184.168 336.603 182.977 332.184 182.876 327.748C182.779 323.238 183.828 319.384 186.022 316.195C188.224 313.018 191.253 310.813 195.116 309.596C198.98 308.382 203.217 308.36 207.821 309.538C211.175 310.4 214.415 311.83 217.555 313.854C220.685 315.878 223.422 318.425 225.756 321.508C228.087 324.572 229.769 328.023 230.782 331.832L219.185 332.277C218.48 330.26 217.1 328.281 215.064 326.341C213.016 324.41 210.629 323.093 207.902 322.399C204.506 321.531 201.694 321.808 199.49 323.232C197.263 324.656 196.204 327.264 196.289 331.047C196.337 333.588 196.931 335.928 198.045 338.082C199.159 340.225 200.62 342.004 202.428 343.431C204.233 344.867 206.191 345.842 208.295 346.384C210.172 346.859 211.905 346.914 213.5 346.556C215.097 346.188 216.405 345.571 217.428 344.699C218.461 343.831 219.11 342.914 219.402 341.959L230.412 348.376C229.938 351.246 228.616 353.667 226.438 355.64C224.256 357.602 221.532 358.913 218.253 359.542C214.977 360.188 211.571 360.049 208.038 359.145C203.613 358.022 199.487 355.824 195.659 352.55" fill="#FEF8BB"/>
<path d="M193.929 225.127C192.979 224.541 216.817 212.902 231.384 209.388C246.251 210.035 274.576 215.71 273.612 216.977C263.538 222.193 244.543 232.582 241.995 232.9C239.441 233.22 195.285 225.962 193.929 225.127Z" fill="#F8A6D7"/>
<path d="M193.927 225.128C193.927 225.128 194.298 271.471 196.863 273.86C199.434 276.243 241.721 285.298 243.886 285.068C243.537 266.229 242.294 235.051 241.992 232.901C232.481 229.829 193.927 225.128 193.927 225.128Z" fill="#EB78B1"/>
<path d="M273.609 216.979C274.481 217.567 277.481 263.518 276.748 264.783C276.017 266.036 245.193 285.195 243.884 285.069C242.569 284.946 241.638 233.996 241.991 232.902C242.341 231.81 273.609 216.979 273.609 216.979Z" fill="#DC328D"/>
<path d="M241.994 232.902C242.763 230.174 244.781 284.111 243.884 285.069C242.985 286.032 240.533 238.049 241.994 232.902Z" fill="#F8A6D7"/>
<path d="M193.928 225.128C193.928 225.128 221.318 226.194 241.993 232.901C231.633 232.177 193.928 225.128 193.928 225.128Z" fill="#FBC3D9"/>
<path d="M273.613 216.976C272.503 218.559 244.532 232.193 241.996 232.899C245.825 229.055 273.613 216.976 273.613 216.976Z" fill="#FBC3D9"/>
<path d="M218.318 238.805L224.087 240.419L225.126 270.89L216.259 269.344L215.496 246.823L209.789 245.828L209.496 237.267L218.318 238.805" fill="#7046A6"/>
<path d="M316.436 332.635C317.151 332.164 317.637 331.457 317.789 330.647C317.945 329.836 317.756 329.017 317.255 328.345C316.606 327.467 315.542 326.98 314.407 327.038C313.817 327.067 313.253 327.248 312.76 327.561L277.265 346.268L277.165 346.326C276.453 346.801 275.97 347.507 275.818 348.318C275.663 349.128 275.852 349.945 276.349 350.616C276.994 351.491 278.055 351.982 279.194 351.924L279.271 351.917C279.831 351.879 280.377 351.701 280.848 351.398L316.343 332.693L316.436 332.635" fill="#EF2F21"/>
<path d="M314.447 302.687C315.168 302.213 315.649 301.509 315.8 300.696C315.956 299.885 315.767 299.065 315.268 298.394C314.621 297.512 313.556 297.028 312.421 297.086C311.834 297.115 311.264 297.296 310.773 297.609L275.276 316.32L275.18 316.375C274.463 316.85 273.982 317.556 273.831 318.366C273.672 319.177 273.86 319.994 274.359 320.665C275.006 321.543 276.071 322.031 277.206 321.973L277.28 321.966C277.842 321.927 278.389 321.75 278.862 321.446L314.351 302.742L314.447 302.687" fill="#EF2F21"/>
<path d="M311.316 273.586C312.037 273.112 312.519 272.404 312.677 271.594C312.828 270.781 312.64 269.964 312.144 269.289C311.493 268.411 310.43 267.924 309.294 267.985C308.705 268.014 308.135 268.195 307.646 268.508L272.15 287.215L272.051 287.273C271.334 287.748 270.856 288.452 270.701 289.265C270.55 290.075 270.734 290.892 271.234 291.564C271.882 292.439 272.941 292.929 274.081 292.871L274.154 292.865C274.713 292.826 275.261 292.645 275.732 292.342L311.224 273.641L311.316 273.586" fill="#EF2F21"/>
<path d="M308.763 243.35C309.48 242.879 309.96 242.172 310.114 241.361C310.271 240.551 310.085 239.73 309.583 239.057C308.935 238.179 307.869 237.692 306.734 237.751C306.144 237.782 305.577 237.963 305.086 238.274L269.591 256.983L269.492 257.039C268.775 257.513 268.299 258.22 268.141 259.03C267.987 259.841 268.178 260.657 268.676 261.329C269.32 262.207 270.382 262.697 271.521 262.636L271.598 262.63C272.158 262.594 272.704 262.413 273.173 262.11L308.667 243.406L308.763 243.35" fill="#EF2F21"/>
<path d="M322.651 352.095L308.9 212.047C308.702 209.896 306.908 208.124 304.638 207.835C304.298 207.791 303.954 207.782 303.618 207.806C302.32 207.896 301.147 208.46 300.309 209.392C299.472 210.327 299.075 211.517 299.191 212.746L312.938 352.802C313.151 354.949 314.938 356.718 317.196 357.005L317.264 357.012C317.596 357.054 317.936 357.06 318.228 357.034C319.522 356.941 320.699 356.376 321.533 355.446C322.37 354.51 322.767 353.322 322.651 352.095Z" fill="#2A933F"/>
<path d="M275.225 228.686C275.052 226.494 273.257 224.689 270.949 224.396C270.643 224.356 270.337 224.342 270.023 224.36C268.721 224.43 267.535 224.973 266.684 225.892C265.832 226.809 265.413 227.989 265.505 229.225L277.072 377.381C277.23 379.579 279.032 381.387 281.341 381.684L281.408 381.69C281.707 381.729 281.995 381.739 282.277 381.719C284.962 381.568 286.985 379.392 286.795 376.855L275.225 228.686" fill="#2A933F"/>
<path d="M377.994 373.175C376.842 372.375 407.67 359.701 426.226 356.459C444.809 358.471 479.855 367.849 478.539 369.363C465.485 375.093 440.831 386.598 437.605 386.782C434.37 386.973 379.64 374.337 377.994 373.175Z" fill="#C14280"/>
<path d="M377.992 373.175C377.992 373.175 374.699 431.305 377.703 434.524C380.743 437.703 433.005 452.44 435.747 452.34C436.836 428.693 437.818 389.519 437.605 386.782C425.93 382.175 377.992 373.175 377.992 373.175Z" fill="#EB78B1"/>
<path d="M478.541 369.362C479.584 370.166 479.622 428.012 478.588 429.542C477.587 431.066 437.375 452.601 435.754 452.34C434.118 452.065 437.084 388.121 437.61 386.782C438.137 385.455 478.541 369.362 478.541 369.362Z" fill="#D13D89"/>
<path d="M437.605 386.781C438.797 383.424 436.95 451.206 435.749 452.339C434.543 453.459 435.384 393.112 437.605 386.781Z" fill="#F8A6D7"/>
<path d="M377.994 373.174C377.994 373.174 412.241 376.713 437.607 386.781C424.673 385.057 377.994 373.174 377.994 373.174Z" fill="#FAB8D2"/>
<path d="M478.537 369.363C477.016 371.267 440.847 386.084 437.603 386.781C442.72 382.278 478.537 369.363 478.537 369.363Z" fill="#FAB8D2"/>
<path d="M409.22 422.385C410.323 421.992 410.869 421.133 410.93 419.903C410.956 418.896 410.596 417.937 409.828 416.985C409.051 416.074 408.088 415.358 406.912 414.905C405.757 414.447 404.681 414.296 403.731 414.473L403.484 421.01C404.069 421.494 404.681 421.862 405.35 422.146C406.851 422.737 408.149 422.821 409.22 422.385V422.385ZM408.96 402.012C408.326 401.186 407.485 400.585 406.443 400.16C405.688 399.859 404.972 399.756 404.291 399.849L404.074 405.395C404.443 405.67 404.855 405.912 405.389 406.132C406.513 406.593 407.541 406.645 408.448 406.367C409.359 406.057 409.832 405.457 409.863 404.55C409.91 403.669 409.589 402.823 408.96 402.012ZM413.829 412.84C415.174 413.385 416.359 414.282 417.413 415.516C418.464 416.762 419.279 418.234 419.87 419.945C420.464 421.646 420.725 423.392 420.651 425.162C420.512 428.893 418.854 431.014 415.691 431.576C412.514 432.128 407.706 431.14 401.275 428.58L394.314 425.791L395.816 390.381C396.944 390.1 398.641 390.272 400.923 390.911C403.201 391.553 405.363 392.244 407.411 393.067C409.299 393.835 411.104 394.946 412.801 396.428C414.515 397.899 415.886 399.524 416.927 401.273C417.96 403.042 418.446 404.743 418.39 406.361C418.294 408.336 417.756 409.947 416.741 411.151C415.708 412.362 414.437 412.814 412.866 412.526C413.091 412.569 413.395 412.691 413.829 412.84" fill="#FCE1ED"/>
<path d="M377.065 302.133C375.909 301.322 406.728 288.649 425.28 285.427C443.855 287.412 478.924 296.793 477.609 298.317C464.548 304.05 439.9 315.546 436.665 315.739C433.438 315.936 378.69 303.285 377.065 302.133" fill="#57C7CA"/>
<path d="M377.062 302.133C377.062 302.133 373.737 360.266 376.782 363.449C379.814 366.654 432.078 381.397 434.795 381.281C435.909 357.641 436.872 318.451 436.663 315.74C425.003 311.11 377.062 302.133 377.062 302.133" fill="#43ACCE"/>
<path d="M477.608 298.317C478.655 299.128 478.669 356.97 477.665 358.5C476.632 359.998 436.438 381.546 434.794 381.281C433.151 381.023 436.151 317.096 436.663 315.74C437.203 314.393 477.608 298.317 477.608 298.317Z" fill="#2B6D97"/>
<path d="M436.667 315.739C437.867 312.391 436.018 380.157 434.796 381.281C433.609 382.417 434.423 322.063 436.667 315.739Z" fill="#57C7CA"/>
<path d="M377.063 302.133C377.063 302.133 411.297 305.661 436.665 315.74C423.744 313.996 377.063 302.133 377.063 302.133Z" fill="#9EDFE7"/>
<path d="M477.611 298.317C476.087 300.214 439.92 315.054 436.666 315.739C441.786 311.232 477.611 298.317 477.611 298.317" fill="#9EDFE7"/>
<path d="M408.069 341.413L406.18 332.093L402.567 340.132L408.069 341.413ZM410.183 351.759L398.55 349.112L395.332 356.25L386.322 350.181L402.523 320.743L411.677 322.903L421.191 360.104L411.946 360.424L410.183 351.759" fill="#BFEAEF"/>
<path d="M500.53 331.929C502.556 331.292 503.632 329.21 502.929 327.296C502.45 325.95 501.218 324.994 499.73 324.804C499.167 324.733 498.61 324.778 498.072 324.933L453.939 333.659L453.788 333.697C452.809 334.004 452.019 334.656 451.563 335.531C451.112 336.406 451.049 337.4 451.384 338.33C451.869 339.657 453.124 340.631 454.598 340.819L454.7 340.831C455.228 340.883 455.747 340.835 456.246 340.693L500.384 331.971L500.53 331.929" fill="#53C6DB"/>
<path d="M502.974 359.659C504.958 358.926 505.93 356.796 505.133 354.91C504.598 353.658 503.397 352.773 501.992 352.593C501.369 352.515 500.737 352.579 500.159 352.78L456.836 363.52L456.695 363.565C455.727 363.917 454.974 364.605 454.565 365.499C454.157 366.399 454.147 367.397 454.536 368.31C455.061 369.559 456.267 370.448 457.672 370.625L457.769 370.638C458.358 370.696 458.961 370.628 459.51 370.441L502.828 359.704L502.974 359.659" fill="#53C6DB"/>
<path d="M506.204 388.948L506.331 388.9C508.269 388.047 509.089 385.862 508.162 384.028C507.591 382.879 506.453 382.095 505.121 381.923C504.418 381.833 503.7 381.93 503.056 382.198L458.315 396.654L458.193 396.702C456.26 397.548 455.435 399.73 456.358 401.574C456.939 402.72 458.071 403.51 459.399 403.675L459.497 403.688C460.175 403.756 460.854 403.655 461.469 403.397L506.204 388.948" fill="#53C6DB"/>
<path d="M508.995 419.157C509.935 418.757 510.65 418.033 511.007 417.117C511.36 416.2 511.316 415.199 510.875 414.305C510.302 413.14 509.162 412.342 507.82 412.171C507.125 412.081 506.42 412.174 505.779 412.433L460.196 426.804L460.074 426.85C459.134 427.253 458.424 427.979 458.067 428.896C457.709 429.813 457.758 430.811 458.194 431.702C458.762 432.864 459.898 433.664 461.249 433.836L461.332 433.845C461.998 433.919 462.678 433.826 463.295 433.571L508.868 419.206L508.995 419.157" fill="#53C6DB"/>
<path d="M516.682 449.961L502.221 304.893C502.028 302.82 500.303 301.116 498.12 300.838C497.794 300.796 497.459 300.786 497.134 300.812C495.892 300.9 494.758 301.442 493.955 302.336C493.151 303.237 492.767 304.383 492.88 305.564L507.337 450.638C507.539 452.705 509.264 454.409 511.433 454.684L511.502 454.69C511.817 454.732 512.147 454.738 512.428 454.709C513.675 454.625 514.804 454.08 515.612 453.182C516.411 452.285 516.795 451.139 516.682 449.961Z" fill="#EF2F21"/>
<path d="M457.782 311.934C457.615 309.823 455.883 308.086 453.663 307.805C453.37 307.767 453.073 307.753 452.776 307.77C451.522 307.837 450.38 308.36 449.562 309.245C448.74 310.126 448.336 311.262 448.429 312.451L460.787 465.32C460.944 467.435 462.672 469.175 464.896 469.459L464.961 469.465C465.249 469.504 465.528 469.514 465.802 469.495C468.379 469.349 470.33 467.254 470.144 464.81L457.782 311.934" fill="#EF2F21"/>
<path d="M491.382 405.896C490.367 405.221 516.779 393.435 532.78 390.152C548.951 391.414 579.592 398.658 578.492 400.001C567.322 405.305 546.235 415.913 543.445 416.164C540.65 416.416 492.828 406.857 491.382 405.896" fill="#F8A6D7"/>
<path d="M519.357 399.452C512.46 401.286 499.635 404.624 507.765 407.7C515.89 410.786 536.443 404.027 541.62 407.936C546.796 411.836 576.146 405.105 564.184 397.967C552.222 390.836 532.166 396.04 519.357 399.452" fill="#DC328D"/>
<path d="M491.376 405.896C491.376 405.896 490.026 456.394 492.731 459.09C495.442 461.785 541.159 473.232 543.528 473.064C543.864 452.527 543.691 418.518 543.442 416.165C533.201 412.462 491.376 405.896 491.376 405.896Z" fill="#EB78B1"/>
<path d="M578.488 400.001C579.42 400.676 580.947 450.845 580.101 452.194C579.255 453.534 544.951 473.248 543.53 473.064C542.104 472.877 543.019 417.339 543.44 416.164C543.865 414.986 578.488 400.001 578.488 400.001" fill="#DC3D92"/>
<path d="M543.441 416.164C544.389 413.22 544.542 472.051 543.533 473.064C542.518 474.075 541.666 421.717 543.441 416.164Z" fill="#F8A6D7"/>
<path d="M491.382 405.895C491.382 405.895 521.178 408.084 543.442 416.164C532.187 414.986 491.382 405.895 491.382 405.895Z" fill="#FBC3D9"/>
<path d="M578.492 400.001C577.224 401.683 546.233 415.49 543.442 416.164C547.762 412.119 578.492 400.001 578.492 400.001Z" fill="#FBC3D9"/>
<path d="M517.429 421.708L523.653 423.683L523.628 456.914L514.024 454.9L514.054 430.336L507.87 429.039L507.875 419.703L517.429 421.708" fill="#7046A6"/>
<path d="M550.941 468.254C546.204 465.743 543.589 460.549 544.252 455.255C546.056 440.853 565.112 422.204 581.149 409.395C584.343 406.845 587.526 404.514 590.6 402.251C598.713 396.302 606.377 390.678 608.181 385.132C608.839 383.092 608.272 382.011 607.784 381.374C606.922 380.251 605.015 379.092 602.247 379.209C596.398 379.457 606.377 384.997 606.349 385.058C603.506 390.623 581.127 393.69 575.3 388.667C570.416 384.454 568.413 377.285 572.368 370.36C574.705 366.273 583.175 358.277 599.223 355.375C610.212 353.386 625.257 355.207 627.775 356.434C637.363 361.121 620.661 359.758 626.414 367.271C631.843 374.36 633.318 383.473 630.47 392.276C626.351 404.963 615.249 413.114 604.505 420.99C601.617 423.108 598.639 425.297 595.82 427.547C590.198 432.041 584.434 436.915 579.561 442.032C585.988 444.124 590.929 444.828 605.112 437.774C614.319 433.193 631.383 432.819 634.73 438.32C638.072 443.82 634.174 453.382 628.774 456.924C600.556 475.427 580.576 466.86 572.277 464.158C570.881 463.706 568.998 463.096 568.249 463.038C567.96 463.183 579.952 465.572 577.689 467.054C569.378 472.477 556.324 471.118 550.941 468.254" fill="#2D70A2"/>
<path d="M629.114 360.482C629.024 360.356 628.928 360.224 628.831 360.088C627.626 358.523 627.405 357.344 627.722 356.411C625.067 355.185 610.15 353.399 599.224 355.375C583.877 358.151 575.465 365.583 572.714 369.802C571.287 374.576 572.686 381.707 576.286 384.806C579.309 387.418 584.642 385.271 584.557 381.398C584.257 367.304 595.986 362.59 598.426 362.064C600.113 361.705 605.344 379.554 606.352 380.148C607.501 379.457 608.339 378.695 608.757 377.876C608.786 377.817 598.805 372.275 604.653 372.029C607.427 371.913 609.335 373.072 610.195 374.195C610.682 374.831 627.784 372.455 627.127 374.496C626.68 375.88 630.467 392.277 617.34 393.071C621.999 382.153 608.622 383.735 608.18 385.133C606.374 390.679 598.715 396.302 590.603 402.252C587.523 404.514 584.342 406.845 581.149 409.395C568.021 419.88 552.878 434.272 546.821 447.052C546.758 447.398 546.702 447.736 546.662 448.075C546 453.367 548.089 462.099 553.348 461.078C560.169 459.752 557.186 440.157 582.106 421.45C584.274 419.826 570.365 456.007 570.665 455.855C571.406 455.916 573.291 456.523 574.684 456.982C582.989 459.681 602.966 468.248 631.186 449.738C633.003 448.553 634.64 446.684 635.896 444.518C636.123 442.255 635.8 440.083 634.73 438.32C631.384 432.819 614.322 433.194 605.112 437.774C590.931 444.828 585.989 444.124 579.558 442.032C581.539 439.95 583.674 437.91 585.881 435.915C584.579 435.66 583.306 435.285 581.97 434.853C586.838 429.736 592.607 424.858 598.228 420.371C601.047 418.121 604.031 415.929 606.918 413.812C616.507 406.774 626.391 399.521 631.322 389.01C632.89 381.259 631.175 373.485 626.414 367.271C623.284 363.184 626.805 361.722 629.114 360.482" fill="#3190B9"/>
<path d="M606.344 385.058C606.349 385.048 606.168 384.938 605.867 384.754C604.651 385.962 603.276 387.182 601.774 388.412C604.026 387.469 605.697 386.326 606.344 385.058" fill="#1566B1"/>
<path d="M573.367 468.441C571.23 468.593 569.042 468.164 567.044 467.111C562.312 464.613 559.889 459.235 561.164 454.054C565.746 435.479 581.222 421.061 597.262 408.252C600.455 405.699 603.636 403.368 606.708 401.108C614.823 395.158 622.483 389.535 624.286 383.989C624.941 381.949 624.378 380.867 623.89 380.231C623.029 379.108 621.122 377.949 618.354 378.066C612.508 378.311 607.949 383.763 607.903 383.818C604.021 388.96 596.682 389.991 591.508 386.126C586.339 382.262 585.3 374.963 589.188 369.824C590.273 368.388 600.087 356.014 616.367 354.861C616.695 354.835 617.034 354.813 617.378 354.8C627.37 354.38 636.777 358.616 642.519 366.128C647.952 373.217 649.428 382.33 646.579 391.13C642.462 403.82 631.356 411.967 620.617 419.847C617.728 421.965 614.742 424.154 611.928 426.404C606.306 430.898 600.541 435.773 595.665 440.889C602.097 442.981 607.656 444.785 621.226 436.631C626.756 433.306 633.957 435.069 637.299 440.573C640.647 446.074 638.873 453.234 633.343 456.558C610.573 470.24 596.682 465.717 588.384 463.015C586.994 462.563 585.105 461.953 584.364 461.895C584.065 462.04 583.037 462.64 581.222 464.642C579.138 466.927 576.307 468.235 573.367 468.441" fill="#0E87D2"/>
<path d="M573.367 468.441C571.23 468.593 569.042 468.164 567.044 467.111C562.312 464.613 559.889 459.235 561.164 454.054C565.746 435.479 581.222 421.061 597.262 408.252C600.455 405.699 603.636 403.368 606.708 401.108C614.823 395.158 622.483 389.535 624.286 383.989C624.941 381.949 624.378 380.867 623.89 380.231C623.029 379.108 621.122 377.949 618.354 378.066C612.508 378.311 607.949 383.763 607.903 383.818C604.021 388.96 596.682 389.991 591.508 386.126C586.339 382.262 585.3 374.963 589.188 369.824C590.273 368.388 600.087 356.014 616.367 354.861C616.695 354.835 617.034 354.813 617.378 354.8C627.37 354.38 636.777 358.616 642.519 366.128C647.952 373.217 649.428 382.33 646.579 391.13C642.462 403.82 631.356 411.967 620.617 419.847C617.728 421.965 614.742 424.154 611.928 426.404C606.306 430.898 600.541 435.773 595.665 440.889C602.097 442.981 607.656 444.785 621.226 436.631C626.756 433.306 633.957 435.069 637.299 440.573C640.647 446.074 638.873 453.234 633.343 456.558C610.573 470.24 596.682 465.717 588.384 463.015C586.994 462.563 585.105 461.953 584.364 461.895C584.065 462.04 583.037 462.64 581.222 464.642C579.138 466.927 576.307 468.235 573.367 468.441" fill="#4BB4E1"/>
<path d="M621.22 436.631C607.655 444.786 602.097 442.981 595.668 440.889C597.681 438.775 599.852 436.703 602.097 434.678L562.495 449.622C561.991 451.074 561.533 452.55 561.166 454.054C559.888 459.235 562.308 464.613 567.046 467.112C569.042 468.164 571.23 468.593 573.368 468.442C576.302 468.235 579.135 466.928 581.222 464.642C583.037 462.641 584.066 462.04 584.36 461.895C585.106 461.953 586.995 462.563 588.385 463.015C591.654 464.084 595.798 465.43 601.006 465.833L635.028 437.861C631.29 434.581 625.709 433.933 621.22 436.631" fill="#63C8EF"/>
<path d="M642.519 366.128C641.422 364.688 640.188 363.371 638.832 362.18L588.602 382.972C589.343 384.16 590.313 385.236 591.508 386.126C596.676 389.991 604.021 388.961 607.903 383.818C607.949 383.764 612.508 378.311 618.354 378.066C621.122 377.949 623.023 379.109 623.89 380.232C624.373 380.868 624.941 381.949 624.281 383.989C622.483 389.536 614.823 395.159 606.708 401.109C603.63 403.368 600.449 405.699 597.256 408.252C592.742 411.858 588.275 415.593 584.082 419.509L646.579 391.117C649.422 382.32 647.946 373.211 642.519 366.128" fill="#63C8EF"/>
<path d="M622.539 438.342C627.921 435.605 634.466 436.438 638.69 443.982C638.423 442.81 637.957 441.658 637.299 440.573C633.955 435.069 626.757 433.306 621.222 436.631C611.248 442.626 605.242 444.688 595.666 440.889C596.404 442.664 600.434 444.892 604.896 444.711C610.737 444.472 614.785 442.283 622.539 438.342" fill="#78D4F7"/>
<path d="M590.13 372.533C591.218 371.099 600.445 358.39 616.719 357.237C617.057 357.211 618.31 356.937 618.648 356.921C628.643 356.504 638.866 363.055 644.619 370.566C645.277 371.431 645.884 372.326 646.428 373.246C645.512 370.725 644.212 368.33 642.524 366.128C636.777 358.616 627.372 354.38 617.377 354.8C617.034 354.813 616.696 354.836 616.364 354.861C600.084 356.014 590.273 368.388 589.186 369.824C585.963 374.085 586.135 379.832 589.231 383.876C588.487 380.645 587.972 375.389 590.13 372.533" fill="#78D4F7"/>
<path d="M562.543 455.481C565.871 436.638 580.991 424.555 597.031 411.742C600.218 409.195 606.274 405.189 609.35 402.929C617.462 396.977 626.555 387.944 624.521 381.914C623.63 389.216 614.823 395.159 606.711 401.109C603.636 403.369 600.454 405.699 597.26 408.252C581.221 421.062 565.747 435.479 561.165 454.054C560.302 457.556 561.131 461.143 563.221 463.88C562.817 462.15 561.787 459.768 562.543 455.481" fill="#78D4F7"/>
<path d="M606.836 465.165C606.836 472.377 612.721 478.223 619.971 478.223C627.222 478.223 633.101 472.377 633.101 465.165C633.101 457.957 627.222 452.107 619.971 452.107C612.721 452.107 606.836 457.957 606.836 465.165Z" fill="#E92A7E"/>
<path d="M616.623 454.157C619.99 453.457 622.03 455.949 618.685 457.227C615.335 458.509 612.118 462.092 611.99 465.934C611.884 469.046 607.871 466.702 609.158 462.092C610.446 457.482 613.534 454.8 616.623 454.157Z" fill="#FAB8D2"/>
<path d="M478.163 463.221C478.163 471.537 484.943 478.278 493.308 478.278C501.669 478.278 508.449 471.537 508.449 463.221C508.449 454.903 501.669 448.165 493.308 448.165C484.943 448.165 478.163 454.903 478.163 463.221Z" fill="#0995C9"/>
<path d="M489.444 450.525C493.327 449.722 495.678 452.594 491.82 454.067C487.956 455.548 484.242 459.68 484.098 464.106C483.978 467.696 479.346 464.994 480.829 459.68C482.317 454.364 485.878 451.264 489.444 450.525Z" fill="#6CC8E4"/>
<path d="M528.395 274.022C528.395 274.022 512.899 283.352 482.25 266.284C480.346 267.918 477.582 267.285 474.115 265.703C471.307 265.348 469.463 264.622 469.82 263.579C470.196 262.498 473.276 263.15 474.06 263.198C473.955 263.133 470.267 261.933 469.473 261.607C467.629 260.851 468.121 259.011 469.82 259.373C471.252 259.676 474.477 260.584 474.648 260.632C474.507 260.532 470.885 258.74 470.206 258.417C468.222 257.476 469.006 255.149 471.297 256.187C472.859 256.892 475.552 258.23 475.819 258.279C475.763 258.156 474.025 256.688 473.05 255.736C471.457 254.186 472.573 252.616 474.673 254.064C476.331 255.201 480.431 257.743 480.431 257.743C480.431 257.743 480.195 254.459 482.024 254.356C483.863 254.258 484.084 260.012 484.084 260.012C484.084 260.012 502.865 275.249 526.51 266.985C532.364 268.044 528.395 274.022 528.395 274.022" fill="#FABD99"/>
<path d="M526.803 394.781C527.267 395.301 527.337 397.651 526.878 398.419C524.87 401.46 520.171 405.808 514.459 406.163C510.294 406.425 506.129 404.685 505.281 402.509C505.031 401.87 504.661 400.166 505.665 398.952C511.607 395.572 526.803 394.781 526.803 394.781Z" fill="white"/>
<path d="M527.987 343.218C527.987 343.218 526.508 390.039 526.308 396.018C523.814 399.591 520.326 395.295 520.326 395.295C520.326 395.295 521.185 347.489 521.68 343.218C524.519 342.843 527.987 343.218 527.987 343.218Z" fill="#FABD99"/>
<path d="M526.266 389.048C526.266 389.048 524.028 392.702 522.72 391.998C523.644 390.617 523.414 387.572 521.401 387.221C519.398 386.872 519.398 390.349 519.398 390.349C519.398 390.349 516.766 388.189 511.76 389.574C506.75 390.955 505.052 397.302 505.667 398.952C506.681 400.514 511.071 402.509 516.546 401.731C522.02 400.956 525.562 396.511 526.266 395.904C526.955 395.301 527.5 393.742 526.955 392.521C526.421 391.308 527.57 389.048 526.266 389.048Z" fill="#F7AD0E"/>
<path d="M518.96 392.176C518.841 392.176 518.718 392.111 518.634 391.985C516.982 389.519 515.232 390.871 515.162 390.933C514.974 391.081 514.717 391.04 514.594 390.83C514.46 390.617 514.5 390.316 514.688 390.171C514.707 390.158 517.165 388.25 519.291 391.433C519.44 391.64 519.395 391.924 519.217 392.082C519.143 392.147 519.059 392.176 518.96 392.176" fill="white"/>
<path d="M515.004 393.058C514.871 393.058 514.748 392.99 514.669 392.874C513.006 390.401 511.264 391.76 511.19 391.825C511.003 391.967 510.748 391.912 510.62 391.705C510.492 391.495 510.536 391.217 510.708 391.059C510.738 391.047 513.198 389.142 515.319 392.318C515.467 392.522 515.422 392.812 515.245 392.964C515.171 393.029 515.088 393.058 515.004 393.058" fill="white"/>
<path d="M543.194 394.782C542.729 395.302 542.656 397.652 543.116 398.42C545.123 401.461 549.827 405.809 555.535 406.164C559.7 406.426 563.866 404.686 564.713 402.51C564.964 401.871 565.335 400.166 564.331 398.953C558.389 395.573 543.194 394.782 543.194 394.782" fill="white"/>
<path d="M542.008 343.218C542.008 343.218 543.517 390.039 543.722 396.018C546.268 399.592 549.834 395.295 549.834 395.295C549.834 395.295 548.957 347.489 548.448 343.218C545.549 342.843 542.008 343.218 542.008 343.218Z" fill="#FABD99"/>
<path d="M543.732 389.047C543.732 389.047 545.973 392.702 547.279 391.998C546.36 390.617 546.585 387.572 548.596 387.221C550.602 386.872 550.602 390.349 550.602 390.349C550.602 390.349 553.235 388.189 558.24 389.574C563.25 390.955 564.948 397.302 564.337 398.952C563.323 400.514 558.93 402.509 553.449 401.731C547.985 400.956 544.437 396.511 543.732 395.905C543.048 395.3 542.499 393.742 543.048 392.521C543.581 391.307 542.431 389.047 543.732 389.047" fill="#F7AD0E"/>
<path d="M551.034 392.176C551.158 392.176 551.282 392.111 551.359 391.985C553.018 389.519 554.764 390.871 554.837 390.933C555.023 391.081 555.281 391.039 555.405 390.829C555.539 390.616 555.498 390.316 555.312 390.171C555.286 390.158 552.832 388.25 550.703 391.433C550.559 391.639 550.605 391.924 550.781 392.082C550.858 392.146 550.941 392.176 551.034 392.176" fill="white"/>
<path d="M554.998 393.057C555.127 393.057 555.247 392.989 555.33 392.873C556.991 390.4 558.735 391.759 558.808 391.824C558.995 391.966 559.254 391.911 559.379 391.704C559.508 391.495 559.467 391.217 559.285 391.059C559.259 391.046 556.799 389.141 554.681 392.318C554.536 392.521 554.577 392.811 554.754 392.963C554.826 393.028 554.909 393.057 554.998 393.057Z" fill="white"/>
<path d="M558.271 318.758C558.271 318.758 559.2 330.621 558.744 356.905C552.885 360.204 538.112 358.21 538.112 358.21L534.941 341.646C534.941 341.646 533.27 351.137 532.471 357.509C528.481 359.581 513.344 357.422 511.046 353.619C511.798 333.704 513.438 317.105 513.438 317.105L558.271 318.758" fill="#555658"/>
<path d="M510.882 349.986C510.882 349.986 520.663 354.641 533.074 353.547C532.576 356.653 532.335 358.661 532.335 358.661C532.335 358.661 523.952 360.12 510.55 355.555C510.55 352.543 510.882 349.986 510.882 349.986" fill="#3E3E40"/>
<path d="M558.664 351.721C558.664 351.721 549.224 354.642 536.809 353.548C537.308 356.653 537.546 358.662 537.546 358.662C537.546 358.662 545.933 361.402 559.328 356.834C559.328 353.822 558.664 351.721 558.664 351.721" fill="#3E3E40"/>
<path d="M552.993 270.784C552.993 270.784 547.935 268.844 544.793 267.287C545.097 263.875 546.446 260.244 546.446 260.244L540.378 258.5C540.378 258.5 538.89 263.905 538.565 266.116C533.857 266.455 527.619 266.497 527.619 266.497C527.619 266.497 523.21 286.702 539.024 288.913C543.186 289.494 552.535 277.285 552.993 270.784" fill="#FABD99"/>
<path d="M540.847 260.16L545.976 261.889C545.976 261.889 544.801 264.392 544.316 267.174C543.064 265.725 540.49 264.476 538.825 266.086C539.351 263.755 540.847 260.16 540.847 260.16" fill="#E89461"/>
<path d="M558.742 273.915C558.742 273.915 570.742 285.224 585.443 311.443C596.076 315.585 596.949 320.107 595.208 319.384C597.638 321.376 596.58 323.985 594.166 321.337C596.933 324.268 594.904 326.412 592.354 323.875C593.591 325.692 592.458 328.32 588.872 324.591C586.664 322.303 584.608 320.382 584.608 320.382C584.608 320.382 585.036 325.372 582.964 324.743C580.919 324.113 580.772 317.951 580.723 316.046C577.013 310.294 569.109 296.206 556.257 282.409C558.655 278.035 558.742 273.915 558.742 273.915Z" fill="#FABD99"/>
<path d="M588.032 319.875C587.967 319.797 587.967 319.674 588.037 319.597C588.118 319.507 588.253 319.497 588.345 319.577C588.372 319.597 590.946 321.824 592.905 324.216C592.991 324.323 593.018 324.478 592.91 324.568C592.818 324.643 592.678 324.626 592.603 324.536L592.565 324.491C590.633 322.124 588.086 319.923 588.059 319.904L588.032 319.875Z" fill="#D37658"/>
<path d="M589.559 317.595C589.494 317.521 589.489 317.408 589.549 317.328C589.624 317.234 589.759 317.215 589.857 317.286C591.582 318.58 593.972 320.743 594.794 321.744L594.8 321.75C594.875 321.844 594.859 321.979 594.767 322.057C594.675 322.131 594.54 322.118 594.464 322.025L594.454 322.015C593.669 321.056 591.263 318.887 589.592 317.631L589.559 317.595" fill="#D37658"/>
<path d="M590.533 315.891C590.485 315.823 590.468 315.729 590.512 315.649C590.566 315.545 590.701 315.507 590.809 315.561C592.698 316.588 595.459 319.3 595.573 319.419C595.654 319.503 595.659 319.639 595.573 319.723C595.486 319.807 595.351 319.807 595.264 319.723C595.237 319.694 592.433 316.937 590.598 315.946L590.533 315.891" fill="#D37658"/>
<path d="M551.422 269.938C553.447 270.977 556.045 271.984 558.544 273.402C556.43 277.892 555.285 287.002 557.201 289.507C555.707 307.546 558.888 314.377 561.949 323.451C553.265 334.304 517.578 329.94 509.504 322.821C513.684 295.085 523.898 268.011 524.154 267.132C529.349 266.448 531.098 266.148 533.285 266.022C524.976 289.536 551.261 287.438 551.422 269.938Z" fill="#F140A9"/>
<path d="M534.042 265.757C533.228 270.041 529.773 281.591 538.887 282.763C546.234 283.702 549.54 274.983 550.472 269.486C551.723 269.731 552.645 270.445 552.645 270.445C552.645 270.445 550.909 287.686 537.826 285.504C525.819 283.502 531.73 265.944 531.73 265.944L534.042 265.757" fill="white"/>
<path d="M561.412 321.879C552.287 332.003 518.465 327.974 509.762 321.165C509.674 321.717 509.382 323.132 509.293 323.684C517.366 330.801 553.631 335.176 562.313 324.323C562.136 323.79 561.589 322.395 561.412 321.879Z" fill="white"/>
<path d="M558.968 275.22C558.501 276.773 555.921 284.198 557.556 288.265C557.385 289.366 557.177 292.975 557.177 292.975C557.177 292.975 554.965 293.588 554.472 286.031C554.083 280.008 556.912 272.492 556.912 272.492L559.554 273.661L558.968 275.22Z" fill="white"/>
<path d="M526.23 266.739C521.378 279.248 520.69 279.206 519.015 283.002C520.107 275.758 523.258 267.339 523.258 267.339L526.23 266.739" fill="white"/>
<path d="M500.093 187.758C490.437 218.295 520.057 208.537 549.633 217.786C579.209 227.036 597.517 251.781 607.177 221.239C616.838 190.705 600.349 159.555 570.779 150.306C541.203 141.058 509.754 157.221 500.093 187.758Z" fill="#503228"/>
<path d="M498.541 202.801C489.982 229.847 501.648 253.262 527.847 261.454C554.041 269.647 584.829 259.508 593.388 232.456C601.941 205.411 587.342 177.82 561.144 169.628C534.95 161.435 507.089 175.753 498.541 202.801" fill="#FABD99"/>
<path d="M591.561 232.13C591.561 232.13 593.939 226.834 600.907 227.965C608.254 229.163 608.424 239.245 603.026 243.7C597.623 248.145 589.678 245.995 588.458 240.964L591.561 232.13" fill="#FABD99"/>
<path d="M601.608 230.777C597.194 228.696 591.2 235.783 596.328 241.717C595.249 235.26 598.224 233.957 600.79 237.602C601.275 235.723 600.447 234.227 597.597 233.668C598.496 231.256 601.608 230.777 601.608 230.777Z" fill="#D37658"/>
<path d="M541.282 208.343C539.987 210.936 531.875 211.887 533.475 216.019C534.471 218.579 538.382 219.213 539.672 215.072C540.418 212.673 541.282 208.343 541.282 208.343Z" fill="#F36457"/>
<path d="M551.406 230.731C550.57 233.413 553.978 236.849 559.02 238.405C564.058 239.96 568.822 239.045 569.658 236.361C570.5 233.677 567.092 230.241 562.049 228.687C557.012 227.131 552.248 228.047 551.406 230.731" fill="#F36457"/>
<path d="M499.568 214.74C498.728 217.425 502.137 220.861 507.176 222.416C512.215 223.972 516.983 223.055 517.818 220.371C518.658 217.688 515.249 214.253 510.21 212.697C505.166 211.143 500.403 212.058 499.568 214.74Z" fill="#F36457"/>
<path d="M520.205 186.997C525.467 186.493 525.512 192.149 522.188 191.564C518.631 190.929 515.417 191.685 515.034 191.265C514.192 190.335 517.246 187.278 520.205 186.997" fill="#B26942"/>
<path d="M570.101 204.128C565.581 201.408 563.073 206.485 566.326 207.389C569.811 208.35 572.377 210.415 572.905 210.2C574.072 209.727 572.646 205.654 570.101 204.128Z" fill="#B26942"/>
<path d="M521.991 221.203C526.569 218.559 525.909 224.767 533.436 227.081C541.123 229.442 544.206 223.7 546.336 229.568C548.077 234.352 538.27 255.344 525.765 251.209C513.168 247.026 517.628 223.72 521.991 221.203" fill="#4E1F22"/>
<path d="M535.937 249.343C532.939 251.454 529.467 252.434 525.763 251.209C522.297 250.057 520.122 247.452 518.88 244.231C521.403 243.709 524.532 243.786 528.231 244.928C531.758 246.017 534.251 247.605 535.937 249.343" fill="#EE5B63"/>
<path d="M523.542 220.596C526.534 220.119 526.891 225.07 533.44 227.08C540.06 229.118 543.261 225.137 545.389 227.753C541.734 231.866 536.926 234.61 531.643 232.861C526.406 231.123 524.114 226.077 523.542 220.596Z" fill="white"/>
<path d="M562.204 215.328C567.968 217.212 568.278 224.725 568.378 224.414C569.897 219.823 567.416 214.874 562.85 213.382C558.284 211.887 553.334 214.407 551.81 218.997C551.71 219.307 556.035 213.311 562.204 215.328" fill="#69282E"/>
<path d="M518.515 201.821C524.275 203.705 524.584 211.218 524.683 210.907C526.204 206.316 523.726 201.367 519.153 199.875C514.585 198.381 509.634 200.9 508.118 205.49C508.018 205.801 512.346 199.803 518.515 201.821" fill="#69282E"/>
<path d="M602.65 155.937C618.881 163.504 627.597 180.45 614.692 220.567C606.52 221.801 582.279 214.411 582.279 214.411C582.279 214.411 586.154 203.246 582.15 190.977C580.843 204.32 579.16 208.231 577.225 212.909C569.452 211.919 556.434 209.366 544.196 205.05C544.196 205.05 547.365 188.476 549.558 177.948C543.579 187.267 539.277 198.673 537.241 202.839C523.758 198.55 516.752 195.05 514.021 192.806C516.22 183.979 519.203 176.777 523.528 172.999C517.01 176.08 510.555 184.038 507.408 190.597C504.122 188.966 497.374 186.82 492.287 181.636C500.067 157.459 520.555 111.49 595.628 151.984C582.116 137.035 589.862 131.506 595.56 132.272C604.282 133.446 599.492 152.869 599.492 152.869C599.492 152.869 614.097 138.615 619.291 146.109C624.484 153.602 602.65 155.937 602.65 155.937" fill="#694237"/>
<path d="M378.522 233.71C377.384 232.911 408.034 220.345 426.465 217.149C444.938 219.16 479.754 228.524 478.442 230.026C465.461 235.699 440.96 247.099 437.754 247.293C434.547 247.487 380.149 234.866 378.522 233.71" fill="#FDD609"/>
<path d="M378.528 233.709C378.528 233.709 375.181 291.467 378.191 294.649C381.196 297.823 433.117 312.533 435.837 312.424C436.953 288.919 437.962 249.994 437.758 247.292C426.164 242.691 378.528 233.709 378.528 233.709Z" fill="#F7AD0E"/>
<path d="M478.441 230.027C479.484 230.829 479.452 288.301 478.432 289.818C477.416 291.329 437.457 312.683 435.831 312.425C434.204 312.163 437.226 248.628 437.753 247.293C438.279 245.962 478.441 230.027 478.441 230.027" fill="#EB7317"/>
<path d="M437.757 247.293C438.941 243.959 437.032 311.304 435.834 312.424C434.633 313.554 435.523 253.591 437.757 247.293Z" fill="#F9C11F"/>
<path d="M378.525 233.709C378.525 233.709 412.549 237.262 437.755 247.293C424.912 245.552 378.525 233.709 378.525 233.709Z" fill="#FAE232"/>
<path d="M478.442 230.026C476.931 231.903 440.973 246.614 437.753 247.293C442.836 242.826 478.442 230.026 478.442 230.026Z" fill="#FAE232"/>
<path d="M398.315 287.519C395.685 285.024 393.626 282.141 392.147 278.877C390.664 275.604 389.979 272.382 390.075 269.186C390.18 265.936 391.078 263.205 392.784 260.993C394.49 258.792 396.753 257.318 399.58 256.591C402.407 255.865 405.456 256.012 408.723 257.035C411.1 257.785 413.381 258.934 415.562 260.509C417.735 262.088 419.606 264.021 421.168 266.329C422.725 268.628 423.802 271.172 424.387 273.951L416.02 273.829C415.593 272.347 414.677 270.875 413.285 269.403C411.885 267.934 410.223 266.895 408.287 266.294C405.879 265.535 403.842 265.629 402.197 266.568C400.548 267.505 399.68 269.342 399.597 272.069C399.532 273.899 399.872 275.604 400.588 277.199C401.307 278.781 402.289 280.117 403.541 281.215C404.784 282.315 406.154 283.093 407.645 283.561C408.976 283.975 410.223 284.078 411.379 283.884C412.544 283.681 413.508 283.287 414.28 282.696C415.056 282.112 415.562 281.483 415.807 280.805L423.479 285.837C423.03 287.887 421.988 289.579 420.343 290.912C418.69 292.242 416.683 293.078 414.297 293.41C411.92 293.746 409.473 293.517 406.969 292.733C403.829 291.758 400.945 290.021 398.315 287.519" fill="#FEF8BB"/>
<path d="M14.9305 456.433L0 446.948V343.447H23.7185L14.9305 456.433" fill="#FAB60A"/>
<path d="M14.9305 453.66L0 444.179V446.948L14.9305 456.433V453.66" fill="#E18C0D"/>
<path d="M72.6633 446.948L57.7478 456.433L53.6569 343.447H72.6633V446.948Z" fill="#E3980B"/>
<path d="M57.7456 456.433L72.6612 446.948V444.053L57.7456 453.54V456.433" fill="#BE751C"/>
<path d="M57.7467 456.433H14.9312V344.893L57.7467 344.531V456.433Z" fill="#FBC907"/>
<path d="M57.7467 456.433H14.9312V344.893L57.7467 344.531V456.433Z" fill="#FCD205"/>
<path d="M52.1193 453.366L52.6907 453.466V453.225L52.1193 453.366Z" fill="#8D7A51"/>
<path d="M14.9312 456.433H57.7467V453.66H14.9312V456.433Z" fill="#F9AF0B"/>
<path d="M14.9306 456.433L14.5189 433.593L14.9306 344.893C14.9306 344.893 16.1846 409.137 16.0034 433.735C15.9131 445.718 14.9306 456.433 14.9306 456.433" fill="#FCEF91"/>
<path d="M57.4438 456.433C57.4438 456.433 56.8366 446.661 56.8334 433.735C56.8334 420.703 57.4438 344.893 57.4438 344.893C57.4438 344.893 58.5152 409.137 58.3301 433.735C58.2425 445.718 57.4438 456.433 57.4438 456.433" fill="#FCEF91"/>
<path d="M0 343.447C0 346.591 6.80552 354.52 14.9305 349.881C21.5828 356.857 48.4701 357.096 57.746 349.684C67.3467 354.52 72.7817 345.368 72.6584 343.082C61.0902 328.526 45.5415 313.076 39.5155 305.577C38.1909 303.924 35.0798 302.74 33.573 304.654C26.0633 314.19 2.65909 337.927 0 343.447" fill="#FCD67F"/>
<path d="M72.3694 342.721C71.1259 345.997 65.9603 352.102 57.746 347.963C48.4701 355.378 21.5828 355.136 14.9305 348.163C7.70715 352.286 1.74417 346.478 0.279557 342.927C0.169816 343.114 0.0766233 343.289 0 343.447C0 346.591 6.80552 354.52 14.9305 349.881C21.5828 356.857 48.4701 357.096 57.746 349.684C67.3467 354.52 72.7817 345.368 72.6584 343.082C72.5642 342.963 72.4668 342.84 72.3694 342.721Z" fill="#E27530"/>
<path d="M50.5317 317.912C45.905 312.899 41.9408 308.596 39.5155 305.577C38.1908 303.925 35.0797 302.74 33.5729 304.654C30.9512 307.982 26.3924 313.044 21.4541 318.455C24.3836 319.207 28.5544 319.759 34.1534 319.907C40.7914 320.082 46.8239 319.162 50.5317 317.912" fill="#33353B"/>
<path d="M35.5138 306.135C34.032 304.389 25.4871 316.579 27.1037 317.925C28.7203 319.271 35.8025 306.474 35.5138 306.135Z" fill="#AEB5C8"/>
<path d="M20.8255 321.573C19.8488 319.868 2.96244 338.96 6.06634 342.646C7.21959 344.018 23.0664 325.479 20.8255 321.573Z" fill="#FEF0C7"/>
<path d="M29.5981 322.548C29.1621 320.343 13.679 345.126 15.2637 346.569C16.1936 347.414 29.9699 324.443 29.5981 322.548Z" fill="#F9A944"/>
<path d="M46.7267 322.467C46.1747 320.275 61.8338 343.524 61.389 345.074C61.0871 346.103 48.4117 329.168 46.7267 322.467Z" fill="#F9A944"/>
<path d="M36.8648 322.916C36.4304 320.711 34.5102 344.974 36.0956 346.414C37.0252 347.26 37.2375 324.811 36.8648 322.916Z" fill="#E27530"/>
<path d="M178.215 430.178C183.129 427.756 208.832 417.404 216.284 414.663C225.604 415.87 254.524 421.813 259.043 422.879C248.753 428.05 229.782 438.364 227.184 438.652C224.593 438.949 179.581 431.04 178.215 430.178Z" fill="#FCF5B9"/>
<path d="M178.214 430.178C178.214 430.178 177.86 477.403 178.214 479.669C183.064 481.238 224.98 491.824 227.181 491.62C227.064 472.496 227.467 440.841 227.181 438.652C217.571 435.421 178.214 430.178 178.214 430.178Z" fill="#09944C"/>
<path d="M183.02 436.289C183.02 436.289 182.903 474.143 183.189 475.957C187.078 477.213 219.611 485.696 221.377 485.532C221.283 470.207 220.861 445.393 220.633 443.636C212.929 441.047 183.02 436.289 183.02 436.289" fill="#FCF5B9"/>
<path d="M259.044 422.879C259.044 437.477 259.255 470.888 259.044 471.431C258.515 472.809 228.511 491.765 227.182 491.62C225.849 491.481 226.814 439.756 227.182 438.652C227.557 437.551 259.044 422.879 259.044 422.879" fill="#D4C264"/>
<path d="M227.181 438.652C227.285 435.779 228.103 490.655 227.181 491.62C226.255 492.582 226.95 445.07 227.181 438.652Z" fill="#FCF4A8"/>
<path d="M178.215 430.178C178.215 430.178 206.289 431.592 227.182 438.652C216.682 437.794 178.215 430.178 178.215 430.178Z" fill="#FFFCC4"/>
<path d="M259.043 422.879C257.902 424.477 229.772 437.968 227.184 438.652C231.121 434.801 259.043 422.879 259.043 422.879Z" fill="#FFFCC4"/>
<path d="M205.464 469.585C206.373 469.178 206.814 468.452 206.801 467.39C206.785 466.525 206.428 465.714 205.73 464.949C205.029 464.184 204.175 463.626 203.162 463.284C202.149 462.941 201.233 462.867 200.415 463.058L200.499 468.655C201.009 469.049 201.558 469.346 202.145 469.55C203.451 469.992 204.558 470.008 205.464 469.585V469.585ZM204.321 452.172C203.743 451.507 202.996 451.02 202.09 450.707C201.428 450.484 200.805 450.423 200.227 450.532L200.292 455.291C200.619 455.51 201.003 455.701 201.46 455.852C202.444 456.188 203.318 456.208 204.08 455.914C204.843 455.62 205.223 455.078 205.207 454.3C205.197 453.547 204.902 452.837 204.321 452.172V452.172ZM208.97 461.227C210.142 461.631 211.204 462.335 212.162 463.351C213.119 464.368 213.879 465.598 214.46 467.022C215.038 468.449 215.34 469.937 215.363 471.461C215.415 474.64 214.087 476.532 211.399 477.155C208.704 477.775 204.555 477.139 198.934 475.228L192.863 473.165L192.561 442.811C193.509 442.53 194.973 442.601 196.951 443.043C198.931 443.476 200.814 443.999 202.6 444.609C204.246 445.17 205.84 446.042 207.363 447.227C208.895 448.408 210.136 449.729 211.1 451.194C212.064 452.653 212.558 454.083 212.577 455.475C212.6 457.169 212.207 458.564 211.382 459.642C210.571 460.72 209.486 461.166 208.132 460.988C208.321 461.024 208.593 461.105 208.97 461.227" fill="#09944C"/>
<path d="M336.389 422.114C337.24 421.856 371.946 406.806 373.998 406.706C376.158 406.426 414.636 413.476 417.608 414.874C407.382 420.003 387.409 430.246 384.829 430.543C382.254 430.837 337.75 422.98 336.389 422.114" fill="#FCF5B9"/>
<path d="M336.391 422.114C336.391 422.114 335.645 470.237 336.391 471.289C338.95 473.726 382.646 483.372 384.83 483.165C384.719 464.161 385.114 432.709 384.83 430.543C375.281 427.324 336.391 422.114 336.391 422.114Z" fill="#196ABD"/>
<path d="M341.774 428.113C341.774 428.113 341.166 466.938 341.774 467.797C343.853 469.775 377.016 477.336 378.792 477.168C378.698 461.724 379.16 436.861 378.931 435.099C367.883 433.61 341.774 428.113 341.774 428.113" fill="#FCF5B9"/>
<path d="M417.609 414.873C418.487 415.474 418.366 461.84 417.609 463.108C416.852 464.371 386.151 483.304 384.832 483.165C383.508 483.026 384.464 431.64 384.832 430.543C385.2 429.445 417.609 414.873 417.609 414.873Z" fill="#D4C264"/>
<path d="M384.83 430.543C385.643 427.799 385.754 482.213 384.83 483.165C383.915 484.131 384.558 437.755 384.83 430.543Z" fill="#FCF4A8"/>
<path d="M336.385 422.114C336.385 422.114 364.067 423.528 384.828 430.543C374.394 429.684 336.385 422.114 336.385 422.114Z" fill="#FFFCC4"/>
<path d="M417.608 414.874C416.467 416.452 387.395 429.856 384.829 430.543C388.743 426.721 417.608 414.874 417.608 414.874Z" fill="#FFFCC4"/>
<path d="M352.431 464.436C349.963 462.28 347.986 459.739 346.504 456.821C345.023 453.899 344.251 450.981 344.186 448.05C344.121 445.074 344.795 442.526 346.208 440.421C347.625 438.323 349.577 436.867 352.062 436.067C354.554 435.266 357.282 435.253 360.249 436.035C362.409 436.606 364.499 437.549 366.525 438.888C368.543 440.225 370.308 441.91 371.81 443.943C373.312 445.971 374.396 448.25 375.054 450.764L367.581 451.055C367.122 449.722 366.237 448.415 364.922 447.133C363.602 445.858 362.064 444.986 360.306 444.528C358.118 443.953 356.308 444.137 354.887 445.074C353.454 446.013 352.772 447.737 352.825 450.235C352.861 451.914 353.243 453.457 353.961 454.881C354.676 456.294 355.622 457.47 356.787 458.415C357.952 459.361 359.214 460.007 360.57 460.365C361.78 460.682 362.896 460.717 363.919 460.481C364.95 460.239 365.794 459.832 366.452 459.255C367.114 458.687 367.536 458.08 367.723 457.45L374.818 461.692C374.514 463.587 373.665 465.188 372.261 466.486C370.856 467.78 369.103 468.645 366.988 469.062C364.877 469.488 362.685 469.391 360.408 468.794C357.558 468.052 354.899 466.599 352.431 464.436" fill="#196ABD"/>
<path d="M397.412 201.083C397.412 216.876 410.292 229.678 426.178 229.678C442.06 229.678 454.94 216.876 454.94 201.083C454.94 185.287 442.06 172.486 426.178 172.486C410.292 172.486 397.412 185.287 397.412 201.083Z" fill="#0995C9"/>
<path d="M418.847 176.971C426.214 175.441 430.685 180.897 423.353 183.697C416.022 186.505 408.972 194.356 408.695 202.765C408.466 209.585 399.669 204.45 402.49 194.356C405.306 184.262 412.074 178.375 418.847 176.971" fill="#6CC8E4"/>
<path d="M195.763 177.518C192.769 175.928 191.114 172.643 191.533 169.298C192.677 160.194 204.722 148.408 214.861 140.307C216.876 138.697 218.891 137.222 220.836 135.792C225.967 132.032 230.807 128.478 231.945 124.974C232.364 123.682 232.004 122.997 231.694 122.597C231.15 121.885 229.947 121.154 228.196 121.226C224.499 121.384 230.811 124.885 230.791 124.924C228.994 128.442 214.845 130.38 211.162 127.206C208.075 124.544 206.809 120.01 209.309 115.633C210.786 113.05 216.141 107.998 226.287 106.162C233.234 104.906 242.744 106.053 244.333 106.83C250.393 109.791 239.839 108.932 243.476 113.679C246.905 118.161 247.838 123.924 246.038 129.488C243.433 137.507 236.413 142.661 229.623 147.638C227.8 148.978 225.914 150.362 224.133 151.785C220.579 154.624 216.935 157.706 213.856 160.938C217.921 162.263 221.047 162.709 230.006 158.247C235.829 155.352 246.615 155.116 248.732 158.594C250.845 162.069 248.382 168.115 244.966 170.351C227.127 182.048 214.499 176.636 209.249 174.928C208.372 174.642 207.179 174.255 206.707 174.219C206.519 174.311 214.11 175.823 212.672 176.757C207.419 180.183 199.166 179.327 195.763 177.518" fill="#2D70A2"/>
<path d="M245.185 109.388C245.122 109.31 245.066 109.225 245.004 109.14C244.241 108.152 244.102 107.406 244.3 106.817C242.622 106.039 233.194 104.914 226.288 106.16C216.587 107.916 211.267 112.61 209.53 115.279C208.629 118.298 209.511 122.806 211.787 124.765C213.702 126.417 217.07 125.06 217.018 122.613C216.827 113.7 224.242 110.72 225.785 110.389C226.851 110.16 230.154 121.445 230.795 121.821C231.519 121.383 232.052 120.902 232.315 120.385C232.335 120.346 226.025 116.843 229.723 116.689C231.473 116.614 232.677 117.347 233.22 118.056C233.532 118.459 244.343 116.957 243.928 118.249C243.642 119.123 246.037 129.488 237.74 129.989C240.684 123.087 232.23 124.088 231.947 124.971C230.808 128.478 225.966 132.033 220.837 135.792C218.893 137.221 216.88 138.696 214.863 140.309C206.563 146.936 196.99 156.035 193.16 164.111C193.121 164.331 193.088 164.546 193.062 164.762C192.641 168.105 193.96 173.627 197.289 172.979C201.602 172.142 199.717 159.754 215.465 147.93C216.837 146.903 208.047 169.773 208.234 169.679C208.705 169.718 209.895 170.101 210.774 170.388C216.021 172.096 228.65 177.512 246.494 165.812C247.639 165.063 248.679 163.882 249.471 162.512C249.613 161.082 249.409 159.705 248.734 158.593C246.616 155.116 235.829 155.352 230.009 158.247C221.048 162.708 217.922 162.26 213.856 160.939C215.11 159.624 216.455 158.332 217.853 157.072C217.031 156.912 216.225 156.673 215.383 156.402C218.459 153.167 222.107 150.082 225.657 147.246C227.44 145.824 229.328 144.44 231.151 143.102C237.214 138.65 243.461 134.064 246.58 127.421C247.57 122.521 246.488 117.608 243.477 113.68C241.497 111.096 243.724 110.173 245.185 109.388" fill="#3190B9"/>
<path d="M230.789 124.925C230.789 124.918 230.675 124.847 230.487 124.734C229.718 125.496 228.847 126.268 227.899 127.046C229.325 126.452 230.38 125.729 230.789 124.925Z" fill="#1566B1"/>
<path d="M209.94 177.637C208.59 177.733 207.203 177.461 205.943 176.796C202.949 175.215 201.419 171.816 202.228 168.541C205.121 156.8 214.905 147.687 225.046 139.587C227.061 137.976 229.072 136.501 231.017 135.072C236.146 131.312 240.991 127.757 242.127 124.252C242.545 122.959 242.184 122.278 241.88 121.876C241.335 121.165 240.129 120.431 238.378 120.504C234.686 120.661 231.802 124.109 231.775 124.142C229.316 127.391 224.678 128.043 221.407 125.601C218.143 123.159 217.484 118.544 219.94 115.295C220.625 114.388 226.83 106.568 237.118 105.837C237.329 105.82 237.543 105.807 237.76 105.8C244.075 105.534 250.023 108.212 253.655 112.96C257.089 117.441 258.022 123.202 256.217 128.767C253.614 136.787 246.598 141.936 239.808 146.916C237.984 148.258 236.096 149.64 234.318 151.062C230.763 153.903 227.118 156.986 224.037 160.218C228.103 161.541 231.612 162.68 240.192 157.527C243.691 155.424 248.238 156.541 250.353 160.019C252.468 163.494 251.346 168.022 247.854 170.122C233.459 178.773 224.682 175.913 219.436 174.205C218.55 173.923 217.364 173.534 216.893 173.497C216.702 173.587 216.054 173.969 214.901 175.235C213.588 176.68 211.794 177.504 209.94 177.637" fill="#0E87D2"/>
<path d="M209.94 177.637C208.59 177.733 207.203 177.461 205.943 176.796C202.949 175.215 201.419 171.816 202.228 168.541C205.121 156.8 214.905 147.687 225.046 139.587C227.061 137.976 229.072 136.501 231.017 135.072C236.146 131.312 240.991 127.757 242.127 124.252C242.545 122.959 242.184 122.278 241.88 121.876C241.335 121.165 240.129 120.431 238.378 120.504C234.686 120.661 231.802 124.109 231.775 124.142C229.316 127.391 224.678 128.043 221.407 125.601C218.143 123.159 217.484 118.544 219.94 115.295C220.625 114.388 226.83 106.568 237.118 105.837C237.329 105.82 237.543 105.807 237.76 105.8C244.075 105.534 250.023 108.212 253.655 112.96C257.089 117.441 258.022 123.202 256.217 128.767C253.614 136.787 246.598 141.936 239.808 146.916C237.984 148.258 236.096 149.64 234.318 151.062C230.763 153.903 227.118 156.986 224.037 160.218C228.103 161.541 231.612 162.68 240.192 157.527C243.691 155.424 248.238 156.541 250.353 160.019C252.468 163.494 251.346 168.022 247.854 170.122C233.459 178.773 224.682 175.913 219.436 174.205C218.55 173.923 217.364 173.534 216.893 173.497C216.702 173.587 216.054 173.969 214.901 175.235C213.588 176.68 211.794 177.504 209.94 177.637" fill="#4BB4E1"/>
<path d="M240.192 157.526C231.614 162.681 228.105 161.541 224.038 160.218C225.312 158.882 226.682 157.572 228.102 156.292L203.069 165.739C202.747 166.657 202.462 167.588 202.228 168.542C201.42 171.815 202.951 175.216 205.944 176.797C207.206 177.46 208.592 177.731 209.943 177.636C211.796 177.506 213.586 176.679 214.904 175.232C216.054 173.971 216.704 173.589 216.892 173.497C217.365 173.533 218.551 173.922 219.434 174.206C221.501 174.879 224.12 175.732 227.412 175.987L248.919 158.304C246.56 156.233 243.028 155.821 240.192 157.526" fill="#63C8EF"/>
<path d="M253.657 112.96C252.962 112.049 252.184 111.215 251.325 110.461L219.572 123.604C220.043 124.355 220.658 125.036 221.41 125.601C224.681 128.043 229.319 127.391 231.778 124.139C231.805 124.106 234.685 120.661 238.381 120.504C240.132 120.431 241.334 121.162 241.882 121.873C242.187 122.275 242.547 122.96 242.13 124.249C240.99 127.754 236.149 131.308 231.016 135.069C229.075 136.498 227.064 137.973 225.049 139.587C222.188 141.863 219.368 144.225 216.715 146.704L256.224 128.754C258.021 123.192 257.089 117.435 253.657 112.96" fill="#63C8EF"/>
<path d="M241.018 158.611C244.424 156.878 248.562 157.406 251.231 162.177C251.059 161.435 250.769 160.707 250.35 160.021C248.238 156.54 243.688 155.425 240.19 157.528C233.885 161.32 230.09 162.623 224.035 160.218C224.5 161.343 227.048 162.754 229.869 162.636C233.558 162.485 236.122 161.104 241.018 158.611" fill="#78D4F7"/>
<path d="M220.537 117.011C221.223 116.104 227.057 108.072 237.342 107.341C237.555 107.324 238.348 107.152 238.564 107.142C244.877 106.877 251.344 111.019 254.98 115.766C255.399 116.312 255.779 116.879 256.122 117.461C255.542 115.869 254.723 114.353 253.654 112.962C250.022 108.211 244.072 105.536 237.758 105.801C237.542 105.808 237.329 105.821 237.119 105.837C226.83 106.566 220.624 114.389 219.941 115.296C217.9 117.991 218.007 121.623 219.965 124.182C219.495 122.136 219.175 118.815 220.537 117.011" fill="#78D4F7"/>
<path d="M203.1 169.442C205.201 157.531 214.757 149.892 224.899 141.794C226.916 140.183 230.744 137.651 232.689 136.221C237.815 132.46 243.563 126.749 242.281 122.939C241.712 127.551 236.147 131.309 231.017 135.07C229.076 136.5 227.062 137.974 225.046 139.588C214.907 147.683 205.123 156.797 202.228 168.539C201.682 170.755 202.205 173.022 203.526 174.752C203.272 173.656 202.625 172.152 203.1 169.442" fill="#78D4F7"/>
<path d="M300.396 297.516L300.281 306.093L294.414 305.987L294.674 297.416L300.396 297.516" fill="#FABD99"/>
<path d="M300.382 302.321C300.201 303.415 296.359 304.487 294.516 303.267C294.541 302.169 294.544 300.939 294.544 300.939C294.544 300.939 292.347 303.702 290.829 302.799C286.358 300.129 280.178 300.771 280.608 307.076C280.814 309.878 284.938 312.602 291.216 313.319C297.855 314.074 301.715 312.638 302.03 310.52C302.514 307.179 300.382 302.321 300.382 302.321" fill="#43ACCE"/>
<path d="M291.216 313.318C284.938 312.602 280.814 309.877 280.611 307.075C280.561 306.474 280.604 305.935 280.676 305.432C288.55 312.227 298.645 310.21 302.116 309.228C302.113 309.667 302.088 310.103 302.033 310.52C301.716 312.637 297.858 314.074 291.216 313.318Z" fill="#E8E8E7"/>
<path d="M338.522 249.029L345.945 240.072L349.794 243.495L342.844 252.047L338.522 249.029Z" fill="#FABD99"/>
<path d="M348.569 236.031C347.884 236.03 346.054 235.951 344.602 239.989C343.914 241.918 341.794 243.025 341.989 243.768C342.307 244.992 343.974 243.867 343.974 243.867C343.974 243.867 344.945 248.102 347.514 249.205C350.092 250.304 349.571 250.622 350.574 253.505C351.994 257.589 358.482 257.704 360.157 253.725C361.828 249.747 354.011 236.046 348.569 236.031" fill="#43ACCE"/>
<path d="M348.569 236.031C354.011 236.046 361.829 249.747 360.158 253.725C359.66 254.907 358.737 255.715 357.655 256.179C357.198 256.201 356.736 256.145 356.275 255.965C352.313 254.41 352.746 249.258 346.687 243.063C345.239 241.577 344.985 239.773 345.379 238.262C346.648 235.987 348 236.031 348.569 236.031Z" fill="#E8E8E7"/>
<path d="M349.728 235.848C346.991 235.585 344.943 238.286 348.137 241.554C354.192 247.752 353.758 252.908 357.712 254.457C361.671 256 361.818 250.319 358.082 243.517C355.664 239.111 352.612 236.129 349.728 235.848" fill="#C7C6C3"/>
<path d="M279.905 228.04C279.905 228.04 286.208 257.878 291.613 297.785C292.842 298.601 299.463 300.729 303.504 297.436C305.63 289.321 307.785 274.555 308.45 247.651C315.34 266.53 319.325 272.476 330.928 270.31C340.863 268.45 347.19 255.17 347.19 255.17C347.19 255.17 340.933 248.954 340.591 245.471C337.329 248.784 332.717 252.543 332.717 252.543C332.717 252.543 323.381 224.729 320.764 219.74C313.139 220.012 279.905 228.04 279.905 228.04" fill="#5DC79F"/>
<path d="M314.98 241.622C315.157 241.239 311.428 247.06 300.567 248.744C306.891 249.382 312.48 246.975 314.98 241.622Z" fill="#298260"/>
<path d="M332.721 252.542C332.721 252.542 329.921 254.282 326.482 258.519C327.599 252.852 332.721 252.542 332.721 252.542Z" fill="#298260"/>
<path d="M305.143 293.555C305.143 293.555 298.074 296.199 290.516 294.149C290.676 297.142 291.238 299.069 291.238 299.069C291.238 299.069 296.488 301.019 304.435 298.491C305.143 295.773 305.143 293.555 305.143 293.555Z" fill="#298260"/>
<path d="M337.658 247.74C337.658 247.74 340.066 254.994 346.367 257.884C347.146 257.021 348.518 254.971 348.518 254.971C348.518 254.971 342.903 250.752 340.982 244.739C340.039 245.404 337.658 247.74 337.658 247.74" fill="#298260"/>
<path d="M290.253 167.783C290.519 165.482 291.079 161.073 291.92 157.723C296.693 157.726 298.547 158.064 298.547 158.064C298.547 158.064 298.266 163.874 298.008 169.222C304.022 170.535 306.826 171.698 306.826 171.698L294.935 174.77C294.935 174.77 287.46 175.248 282.032 166.913C285.356 167.25 287.613 167.365 290.253 167.783" fill="#FABD99"/>
<path d="M291.639 163.03C291.733 163.045 291.815 163.052 291.912 163.066C291.969 162.552 292.048 161.914 292.141 161.199C296.16 161.203 297.734 161.492 297.734 161.492C297.734 161.492 297.558 165.105 297.372 169.014C297.042 166.908 292.127 166.097 290.847 167.915C291.041 166.456 291.306 164.693 291.639 163.03" fill="#EAA376"/>
<path d="M276.499 167.469C276.499 167.469 252.254 168.686 235.349 143.259C236.67 142.994 239.244 139.692 238.244 138.575C237.193 137.405 235.871 139.826 235.044 139.654C234.837 133.391 231.987 131.201 230.866 134.509C229.984 132.755 227.721 133.199 227.659 135.648C226.576 133.911 224.404 135.596 225.255 137.856C223.75 137.45 222.446 140.208 225.041 143.152C227.106 145.495 228.946 147.053 228.946 147.053C228.946 147.053 248.774 175.491 276.191 174.586C277.222 169.525 276.499 167.469 276.499 167.469" fill="#FABD99"/>
<path d="M312.56 172.694C315.829 173.82 331.973 184.821 332.182 197.391C332.383 209.968 317.022 211.778 317.022 211.778L316.813 205.421C316.813 205.421 324.412 204.982 324.932 196.885C325.445 188.786 313.912 182.367 313.912 182.367L312.56 172.694" fill="#FABD99"/>
<path d="M313.144 172.932C313.144 172.932 311.08 171.564 304.62 170.538C305.174 172.386 293.501 173.905 283.263 166.79C276.559 166.515 273.365 167.339 273.365 167.339C273.365 167.339 273.538 210.888 270.329 226.923C287.328 230.887 312.707 233.897 327.329 220.093C322.658 207.523 313.144 172.932 313.144 172.932Z" fill="#EE2B23"/>
<path d="M261.53 92.3587C255.372 87.3298 248.66 96.3075 257.804 101.316C259.462 99.4672 261.53 92.3587 261.53 92.3587Z" fill="#EAA376"/>
<path d="M257.287 96.2399C242.261 113.121 241.145 143.712 281.433 161.64C321.502 179.458 349.594 154.634 361.092 126.774C374.974 93.1607 326.231 62.4899 302.186 54.7173C264.646 42.5861 274.42 76.998 257.287 96.2399" fill="#FABD99"/>
<path d="M248.499 113.28C249.682 107.884 252.115 102.861 255.405 98.5501C257.542 98.9399 259.802 99.9025 263.187 103.129C269.009 108.684 266.896 116.29 261.094 119.553C256.141 122.333 251.71 118.045 248.499 113.28Z" fill="#F8A191"/>
<path d="M263.199 111.891C262.74 112.156 262.199 111.961 261.993 111.461C261.791 110.957 261.997 110.339 262.453 110.071C262.908 109.806 263.452 109.987 263.658 110.487C263.864 110.988 263.655 111.612 263.199 111.891Z" fill="#FBCCC0"/>
<path d="M268.825 81.5622C258.36 80.1033 256.81 66.3402 264.646 65.2142C256.165 61.943 258.909 53.4196 271.028 55.232C268.647 43.232 276.397 33.1182 289.677 41.5059C288.768 33.5415 296.311 34.5854 298.002 37.6265C302.321 28.2525 311.728 30.1429 313.696 36.7717C321.772 28.5073 337.21 32.3498 334.416 43.7662C343.025 37.3183 351.916 49.006 350.217 51.7347C358.351 47.6375 363.15 53.169 362.716 60.0978C371.863 55.0635 372.937 64.421 369.606 68.2758C380.687 65.6786 382.849 79.5649 373.508 84.0074C385.337 84.6896 387.098 95.9581 373.9 93.5334C379.224 97.2814 382.919 112.343 376.339 117.815C386.986 121.739 381.324 133.396 373.355 127.369C379.224 136.107 372.169 138.432 368.936 133.367C369.077 141.298 361.083 158.694 350.217 155.345C350.539 168.868 335.664 167.05 333.986 163.621C325.306 177.978 309.207 171.204 306.715 166.393C297.936 170.158 287.305 159 293.666 152.682C286.243 151.131 287.652 136.537 293.447 134.534C289.636 130.744 292.843 125.181 297.625 121.196C287.292 122.867 293.844 109.943 297.597 105.342C288.727 112.41 282.142 102.287 286.908 95.6581C274.07 101.995 268.825 81.5622 268.825 81.5622" fill="#37201F"/>
<path d="M288.659 111.594C288.659 111.594 290.807 104.526 298.514 104.755C306.659 104.983 307.917 116.512 302.391 123.036C296.862 129.564 287.776 129.339 286.007 123.229L288.659 111.594Z" fill="#FABD99"/>
<path d="M299.521 108.156C294.522 106.296 288.574 116.241 294.684 122.816C292.954 114.885 296.093 112.733 299.222 116.874C299.582 114.428 298.55 112.69 295.385 112.486C296.162 109.289 299.521 108.156 299.521 108.156" fill="#D48A5B"/>
<defs>
<linearGradient id="paint0_linear_808_45066" x1="473.214" y1="-329.582" x2="473.214" y2="1079.93" gradientUnits="userSpaceOnUse">
<stop stop-color="#083450"/>
<stop offset="1" stop-color="#FEFBBA"/>
</linearGradient>
</defs>
</svg>
