<svg width="89" height="88" viewBox="0 0 89 88" fill="none" xmlns="http://www.w3.org/2000/svg">
<path d="M75.4662 13.0372C58.3833 -4.07133 30.6567 -4.07133 13.556 13.0372C-3.52598 30.129 -3.52598 57.8698 13.556 74.9616C30.6557 92.0702 58.3833 92.0702 75.4662 74.9794C92.566 57.8699 92.566 30.129 75.4662 13.0372Z" fill="white"/>
<path d="M61.0834 27.4283C51.938 18.2693 37.0989 18.2693 27.9456 27.4283C18.8022 36.5755 18.8022 51.4242 27.9456 60.5734C37.0989 69.7304 51.938 69.7304 61.0834 60.5822C70.2367 51.4242 70.2367 36.5755 61.0834 27.4283Z" fill="#B0D9D9"/>
<path d="M87.609 42.5686C87.1379 42.5686 86.7468 42.2 86.7221 41.7247C86.6332 39.9945 86.4327 38.2494 86.1255 36.5379C86.0406 36.0548 86.3606 35.5923 86.8455 35.5063C87.3275 35.4223 87.7907 35.7415 87.8756 36.2257C88.1956 38.0113 88.404 39.8285 88.4988 41.6338C88.5235 42.1239 88.1462 42.5419 87.6554 42.5676C87.6396 42.5686 87.6238 42.5686 87.609 42.5686ZM85.9962 32.9431C85.608 32.9431 85.2535 32.6902 85.1419 32.2998C84.6639 30.6338 84.0752 28.9797 83.3928 27.3799C83.2002 26.9283 83.4106 26.4057 83.8619 26.212C84.3093 26.0213 84.8357 26.2298 85.0293 26.6813C85.7394 28.3493 86.3527 30.0746 86.8524 31.8088C86.9877 32.2821 86.7132 32.7742 86.2431 32.9086C86.1581 32.9323 86.0771 32.9431 85.9962 32.9431ZM82.26 23.9264C81.9479 23.9264 81.6447 23.7614 81.4827 23.4669C80.6432 21.9511 79.7001 20.4689 78.6779 19.0618C78.3885 18.6646 78.4774 18.1083 78.8744 17.8197C79.2714 17.5312 79.8275 17.6181 80.1149 18.0154C81.1815 19.4808 82.1632 21.0262 83.0373 22.6062C83.2743 23.0361 83.1202 23.5766 82.6896 23.8148C82.5533 23.8908 82.4061 23.9264 82.26 23.9264Z" fill="#00818F"/>
<path d="M79.397 19.4284C79.1234 19.4284 78.8508 19.301 78.677 19.0618C73.006 11.2566 64.7406 5.58667 55.4046 3.09657C54.9305 2.97108 54.648 2.48388 54.7754 2.0076C54.9009 1.53329 55.3888 1.25072 55.8618 1.37819C65.5919 3.97204 74.204 9.88106 80.115 18.0154C80.4043 18.4116 80.3174 18.969 79.9204 19.2575C79.7614 19.3721 79.5787 19.4284 79.397 19.4284Z" fill="#00818F"/>
<path d="M13.6419 74.9813C13.4108 74.9813 13.1787 74.8914 13.0039 74.7135C12.3807 74.0732 11.7624 73.3963 11.1679 72.7046C10.8469 72.3321 10.8893 71.7718 11.2617 71.4497C11.634 71.1305 12.195 71.172 12.515 71.5446C13.0878 72.2086 13.6794 72.8568 14.2789 73.4714C14.6216 73.8232 14.6137 74.3865 14.2621 74.7293C14.0892 74.8973 13.8651 74.9813 13.6419 74.9813Z" fill="#00818F"/>
<path d="M9.1185 69.4972C8.83702 69.4972 8.56047 69.3648 8.38763 69.1158C7.35458 67.6286 6.40252 66.0635 5.55909 64.4617C5.33095 64.0279 5.49685 63.4904 5.93042 63.2601C6.36497 63.0329 6.90224 63.1979 7.13137 63.6327C7.94122 65.1702 8.8548 66.6722 9.84638 68.1C10.1269 68.5042 10.0271 69.0585 9.62415 69.3391C9.47107 69.4458 9.29331 69.4972 9.1185 69.4972ZM4.47864 60.9005C4.12605 60.9005 3.7932 60.69 3.65395 60.3431C2.97841 58.6623 2.40164 56.9222 1.93844 55.1752C1.81302 54.6999 2.09648 54.2127 2.57054 54.0873C3.04657 53.9618 3.53052 54.2444 3.65693 54.7197C4.10038 56.3975 4.65443 58.0675 5.30329 59.6811C5.48699 60.1366 5.26577 60.6544 4.81048 60.8382C4.70184 60.8797 4.58925 60.9005 4.47864 60.9005ZM1.88314 51.4816C1.45253 51.4816 1.07427 51.1683 1.00613 50.7286C0.726628 48.9401 0.555775 47.116 0.500468 45.3067C0.484666 44.8146 0.870837 44.4045 1.36169 44.3887C1.83476 44.364 2.2624 44.7603 2.27722 45.2504C2.33055 46.9885 2.4935 48.7375 2.76214 50.4549C2.83818 50.9391 2.50634 51.3946 2.02142 51.4707C1.975 51.4786 1.92857 51.4816 1.88314 51.4816ZM1.48514 41.7218C1.46341 41.7218 1.44167 41.7208 1.41895 41.7188C0.92909 41.6832 0.561693 41.2563 0.597247 40.7662C0.729589 38.9638 0.976507 37.1476 1.33106 35.37C1.42686 34.8878 1.89203 34.5716 2.37695 34.6714C2.85792 34.7673 3.171 35.2357 3.0752 35.7179C2.73546 37.4244 2.49845 39.1664 2.37104 40.8966C2.33549 41.364 1.94537 41.7218 1.48514 41.7218ZM3.29248 32.12C3.20557 32.12 3.11769 32.1082 3.03077 32.0815C2.56165 31.9373 2.29795 31.4402 2.44214 30.9699C2.97546 29.2337 3.62038 27.5203 4.35814 25.8731C4.55862 25.4235 5.08404 25.2239 5.53242 25.4254C5.9808 25.626 6.18129 26.1517 5.97982 26.6003C5.27169 28.1813 4.65245 29.8266 4.14086 31.4916C4.02432 31.874 3.67272 32.12 3.29248 32.12ZM7.19656 23.1626C7.04546 23.1626 6.89236 23.1241 6.75212 23.0421C6.32744 22.797 6.18229 22.2516 6.42821 21.8276C7.33485 20.2615 8.35109 18.7348 9.44735 17.2921C9.74463 16.9008 10.3017 16.8237 10.6928 17.1221C11.0839 17.4196 11.1599 17.9769 10.8626 18.3692C9.8118 19.7516 8.83701 21.217 7.96691 22.7189C7.80198 23.0035 7.50273 23.1626 7.19656 23.1626ZM13.0255 15.3208C12.8073 15.3208 12.589 15.2417 12.4172 15.0807C12.0587 14.7447 12.0409 14.1824 12.3767 13.8237C13.6151 12.5036 14.9484 11.2477 16.341 10.0896C16.7173 9.77633 17.2773 9.82577 17.5923 10.2042C17.9054 10.5817 17.855 11.143 17.4777 11.4572C16.1405 12.5688 14.8625 13.7753 13.6734 15.0421C13.4996 15.2259 13.2626 15.3208 13.0255 15.3208ZM20.4702 8.99667C20.1838 8.99667 19.9023 8.85835 19.7315 8.60242C19.4589 8.19531 19.5666 7.64197 19.9744 7.36924C21.4766 6.36036 23.0578 5.43547 24.6726 4.61828C25.1101 4.39397 25.6434 4.57181 25.8666 5.01054C26.0888 5.44829 25.913 5.9839 25.4755 6.20524C23.9259 6.98982 22.409 7.87716 20.9651 8.84554C20.813 8.9483 20.6411 8.99667 20.4702 8.99667ZM29.1386 4.5017C28.7801 4.5017 28.4443 4.28431 28.309 3.93055C28.1332 3.47206 28.3633 2.95824 28.8206 2.78235C30.5085 2.1371 32.2566 1.58865 34.0136 1.15486C34.4955 1.04024 34.9745 1.32876 35.0901 1.80405C35.2096 2.28033 34.9182 2.76356 34.4422 2.88114C32.7543 3.29814 31.0764 3.82382 29.4576 4.44338C29.35 4.48192 29.2443 4.5017 29.1386 4.5017Z" fill="#00818F"/>
<path d="M38.6129 2.06389C38.1754 2.06389 37.7952 1.74178 37.733 1.29613C37.6658 0.809966 38.0046 0.361375 38.4915 0.294182C39.3942 0.168689 40.3067 0.069832 41.1995 0.0026388C41.6973 -0.0349103 42.118 0.332716 42.1546 0.821842C42.1911 1.31196 41.8247 1.73883 41.3368 1.77638C40.4766 1.8416 39.6026 1.93644 38.7344 2.05502C38.6939 2.06095 38.6534 2.06389 38.6129 2.06389Z" fill="#00818F"/>
<path d="M44.5485 88C40.7373 88 36.9171 87.502 33.173 86.503C29.0783 85.4111 25.1871 83.7501 21.605 81.5683C21.1862 81.3123 21.0529 80.7649 21.3077 80.3459C21.5635 79.928 22.1087 79.7936 22.5304 80.0485C25.9663 82.1423 29.7005 83.7362 33.6313 84.7856C41.5994 86.9101 49.935 86.6719 57.7294 84.0969C58.1945 83.9388 58.6972 84.1957 58.8523 84.6621C59.0063 85.1285 58.7535 85.6315 58.2873 85.7856C53.8272 87.2589 49.1933 88 44.5485 88Z" fill="#00818F"/>
<path d="M60.3871 84.9664C60.0345 84.9664 59.6987 84.7539 59.5614 84.4051C59.3797 83.9486 59.6039 83.4319 60.0611 83.251C61.6739 82.6117 63.263 81.8637 64.7849 81.0307C65.2175 80.7945 65.7548 80.9526 65.9908 81.3844C66.2279 81.8152 66.0699 82.3548 65.6383 82.5909C64.0531 83.4595 62.3959 84.2372 60.7159 84.9041C60.6093 84.9466 60.4977 84.9664 60.3871 84.9664ZM68.9962 80.3706C68.7127 80.3706 68.4352 80.2362 68.2634 79.9862C67.9858 79.5811 68.0876 79.0267 68.4905 78.7491C69.9216 77.7629 71.3052 76.6789 72.601 75.5277C72.9674 75.2016 73.5284 75.2343 73.8553 75.6018C74.1822 75.9694 74.1486 76.5307 73.7822 76.8578C72.4321 78.0574 70.9912 79.1858 69.4999 80.2125C69.3458 80.3202 69.17 80.3706 68.9962 80.3706ZM76.357 73.9645C76.1426 73.9645 75.9264 73.8874 75.7575 73.7313C75.395 73.3993 75.3693 72.8371 75.7012 72.4744C76.8755 71.1938 77.9796 69.8262 78.9821 68.4131C79.2655 68.0139 79.8215 67.9181 80.2205 68.2027C80.6215 68.4873 80.7144 69.0436 80.4309 69.4438C79.385 70.9171 78.2354 72.342 77.0127 73.677C76.8369 73.8677 76.5979 73.9645 76.357 73.9645Z" fill="#00818F"/>
<path d="M67.3241 49.3135L57.1743 39.1594C56.2469 38.2296 55.4944 37.4569 55.4944 37.4351C55.4944 37.4134 51.3917 29.6941 45.385 25.7514C39.3783 21.8088 41.0701 18.6151 41.0701 15.4234C41.0701 12.7337 37.7388 12.043 35.4544 15.0371C34.6574 16.0796 33.8762 18.1062 33.7182 19.4096C33.2441 23.372 35.8367 26.0123 36.7867 27.4411C37.4307 28.4085 37.805 30.2029 37.1324 32.4312H36.5556H29.9139H19.5823C17.5705 32.4312 15.939 34.0626 15.939 36.0764C15.939 38.0903 17.5705 39.7227 19.5823 39.7227C17.5705 39.7227 15.939 41.3551 15.939 43.3679C15.939 45.3807 17.5705 47.0131 19.5823 47.0131C17.5705 47.0131 15.939 48.6455 15.939 50.6584C15.939 52.6732 17.5705 54.3055 19.5823 54.3055C17.5705 54.3055 15.939 55.936 15.939 57.9508C15.939 59.9646 17.5705 61.597 19.5823 61.597H29.9139V61.6158H47.5884C48.896 61.6158 50.7212 62.3717 51.6446 63.2956L52.4949 64.1484C53.4243 65.0752 54.9274 65.0752 55.8568 64.1484L67.3221 52.6741C68.2515 51.7492 68.2515 50.2433 67.3241 49.3135Z" fill="white"/>
<path d="M71.3921 54.8154L71.3615 54.7838C70.5112 53.9331 69.1315 53.9331 68.2811 54.7838L57.7698 65.3015C56.9195 66.1523 56.9195 67.5327 57.7698 68.3845L57.8005 68.4142C58.6508 69.2669 60.0305 69.2669 60.8809 68.4162L71.3921 57.8984C72.2445 57.0466 72.2445 55.6662 71.3921 54.8154Z" fill="white"/>
<path d="M54.1779 65.7334C53.3404 65.7334 52.5059 65.4152 51.8688 64.7798L51.0165 63.9261C50.262 63.1712 48.6591 62.5071 47.5885 62.5071H29.914V60.7285H47.5885C49.1282 60.7285 51.1864 61.5803 52.2738 62.6682L53.1261 63.522C53.7029 64.099 54.648 64.101 55.2307 63.52L66.6941 52.0467C66.9756 51.7661 67.1296 51.3926 67.1296 50.9963C67.1296 50.5981 66.9756 50.2236 66.6941 49.943L56.5443 39.7889C55.1843 38.4253 54.7774 38.0162 54.6559 37.7543C54.2372 36.9885 50.343 30.0706 44.8952 26.4936C39.5156 22.962 39.8129 19.8227 40.0746 17.0539C40.129 16.4867 40.1783 15.9512 40.1783 15.4225C40.1783 14.7249 39.8712 14.2377 39.3161 14.05C38.525 13.7812 37.2461 14.1518 36.1607 15.5757C35.4851 16.4581 34.7425 18.3336 34.6002 19.5144C34.2417 22.5134 35.8772 24.709 36.9596 26.1625C37.1779 26.454 37.3725 26.7159 37.5265 26.9471C38.4678 28.3641 38.6396 30.5093 37.9818 32.6882L37.7932 33.3206H29.913V31.542H36.4441C36.8007 29.8779 36.4945 28.6072 36.0471 27.9343C35.9078 27.7258 35.7311 27.4896 35.5355 27.2268C34.3592 25.6487 32.3909 23.0074 32.8353 19.3029C33.0171 17.7931 33.8753 15.6359 34.7494 14.4956C36.1725 12.628 38.1903 11.7911 39.888 12.3652C41.163 12.7971 41.9561 13.968 41.9561 15.4235C41.9561 16.0351 41.8998 16.6389 41.8445 17.2229C41.5995 19.8197 41.3872 22.0627 45.872 25.0074C51.1054 28.4441 55.2347 34.9056 56.1788 36.8858L56.1867 36.8809C56.2638 36.9718 56.8198 37.5449 57.8035 38.533L67.9533 48.6861C68.5706 49.3036 68.9103 50.1238 68.9103 50.9973C68.9103 51.8698 68.5706 52.691 67.9513 53.3076L56.488 64.7798C55.85 65.4152 55.0135 65.7334 54.1779 65.7334Z" fill="#00818F"/>
<path d="M59.3422 69.9428C58.5225 69.9428 57.7511 69.6226 57.1724 69.0416C55.9457 67.8144 55.9458 65.8677 57.1418 64.6721L67.653 54.1543C68.8105 52.9963 70.8322 52.9943 71.9917 54.1543C72.603 54.765 72.921 55.5358 72.921 56.3559C72.921 57.1761 72.603 57.9468 72.0223 58.5259L61.511 69.0436C60.9313 69.6236 60.1599 69.9428 59.3422 69.9428ZM69.8219 55.0348C69.4762 55.0348 69.1523 55.1692 68.9093 55.4123L58.396 65.9299C57.8943 66.4329 57.8943 67.2521 58.398 67.757C58.9481 68.3054 59.7678 68.2728 60.2518 67.7867L70.765 57.269C71.008 57.0249 71.1433 56.7018 71.1433 56.3559C71.1433 56.0111 71.008 55.687 70.765 55.4429C70.4895 55.1692 70.1656 55.0348 69.8219 55.0348Z" fill="#00818F"/>
<path d="M36.5547 40.611H19.5814C17.0827 40.611 15.0482 38.5765 15.0482 36.0755C15.0482 33.5755 17.0827 31.5409 19.5814 31.5409H36.5547C39.0544 31.5409 41.0879 33.5755 41.0879 36.0755C41.0879 38.5774 39.0554 40.611 36.5547 40.611ZM19.5824 33.3205C18.0644 33.3205 16.8279 34.5577 16.8279 36.0765C16.8279 37.5962 18.0644 38.8333 19.5824 38.8333H36.5557C38.0757 38.8333 39.3102 37.5962 39.3102 36.0765C39.3102 34.5577 38.0757 33.3205 36.5557 33.3205H19.5824Z" fill="#00818F"/>
<path d="M36.5547 47.9035H19.5814C17.0827 47.9035 15.0482 45.8679 15.0482 43.368C15.0482 40.868 17.0827 38.8324 19.5814 38.8324H36.5547C39.0544 38.8324 41.0879 40.868 41.0879 43.368C41.0879 45.8679 39.0554 47.9035 36.5547 47.9035ZM19.5824 40.611C18.0644 40.611 16.8279 41.8482 16.8279 43.368C16.8279 44.8877 18.0644 46.1239 19.5824 46.1239H36.5557C38.0757 46.1239 39.3102 44.8877 39.3102 43.368C39.3102 41.8482 38.0757 40.611 36.5557 40.611H19.5824Z" fill="#00818F"/>
<path d="M36.5547 55.1968H19.5814C17.0827 55.1968 15.0482 53.1613 15.0482 50.6593C15.0482 48.1594 17.0827 46.1238 19.5814 46.1238H36.5547C39.0544 46.1238 41.0879 48.1594 41.0879 50.6593C41.0879 53.1623 39.0554 55.1968 36.5547 55.1968ZM19.5824 47.9034C18.0644 47.9034 16.8279 49.1396 16.8279 50.6593C16.8279 52.1801 18.0644 53.4182 19.5824 53.4182H36.5557C38.0757 53.4182 39.3102 52.1801 39.3102 50.6593C39.3102 49.1396 38.0757 47.9034 36.5557 47.9034H19.5824Z" fill="#00818F"/>
<path d="M36.5547 62.4883H19.5814C17.0827 62.4883 15.0482 60.4537 15.0482 57.9528C15.0482 55.4528 17.0827 53.4182 19.5814 53.4182H36.5547C39.0544 53.4182 41.0879 55.4528 41.0879 57.9528C41.0879 60.4547 39.0554 62.4883 36.5547 62.4883ZM19.5824 55.1968C18.0644 55.1968 16.8279 56.433 16.8279 57.9528C16.8279 59.4725 18.0644 60.7097 19.5824 60.7097H36.5557C38.0757 60.7097 39.3102 59.4725 39.3102 57.9528C39.3102 56.433 38.0757 55.1968 36.5557 55.1968H19.5824Z" fill="#00818F"/>
</svg>
