<svg width="49" height="48" viewBox="0 0 49 48" fill="none" xmlns="http://www.w3.org/2000/svg">
    <path fill-rule="evenodd" clip-rule="evenodd" d="M34.92 28a5.909 5.909 0 0 1-3.398-1.078.05.05 0 0 1-.01.01 1.243 1.243 0 0 0-1.602.136l-4.738 3.508c0 .004.003.009.004.013-.414.336-.597 1.297-.47 1.814a.064.064 0 0 0-.012.006A5.87 5.87 0 0 1 24.92 34a6 6 0 1 1-12 0 5.992 5.992 0 0 1 3-5.189v-.01c.399-.302.723-.89.647-1.407a.076.076 0 0 1 .012-.01l-1.053-5.203c-.117-.922-.637-2.175-1.107-2.2v-.006A5.994 5.994 0 0 1 8.92 14a6 6 0 1 1 12 0 1 1 0 1 1-2 0 4 4 0 1 0-4 4c1.104 0 2.124 1.41 2.5 3.5h.008l1.095 5.413-.004.012c.317 1.738-.565 3.12-1.372 3.493l-.006.016A3.987 3.987 0 0 0 14.92 34a4 4 0 0 0 8 0c0-.629-.155-1.219-.415-1.748l.018-.052c-.037-.063-.081-.12-.104-.201-.272-.969.18-2.001 1.104-2.683l.002-.008 6.138-4.546c.645-.479 1.803-.332 2.939.499l.018.003a3.97 3.97 0 0 0 2.3.736 4 4 0 0 0 0-8c-1.382-.001-2.591.706-3.31 1.772l-.02.008c-.568.789-1.724 1.238-2.49.959l-.024.008-3.839-1.47a1.001 1.001 0 0 1 .747-1.857l2.422.93.04-.1c.031.027.063.057.099.082.356.251 1.384.259 1.794-.236.013.004.025.01.038.013A5.954 5.954 0 0 1 34.92 16a6 6 0 1 1 0 12zm-12.5-10a1 1 0 1 1-.002-2 1 1 0 0 1 .002 2z" fill="#696969"/>
</svg>
