<svg width="49" height="48" viewBox="0 0 49 48" fill="none" xmlns="http://www.w3.org/2000/svg">
    <path fill-rule="evenodd" clip-rule="evenodd" d="M39.5 40H37c-2.761 0-5.001-2.047-5.001-4.572V23.999a2.181 2.181 0 0 0-1.1-1.882l-20.772-11.68a2.46 2.46 0 0 0-.842-.151c-1.263 0-2.286.934-2.286 2.088v23.25c0 1.154 1.023 2.09 2.286 2.09.325 0 .633-.064.912-.175l12.46-7.015.005.008c.176-.086.373-.14.588-.14.69 0 1.25.513 1.25 1.143 0 .415-.244.775-.607.977l-12.391 6.974A5.107 5.107 0 0 1 9.275 40C6.637 40 4.5 38.045 4.5 35.633V12.365C4.5 9.956 6.637 8 9.275 8c.806 0 1.56.19 2.225.511L32.32 20.232c.251.156.493.332.716.536.975.892 1.465 2.061 1.465 3.231v11.429c0 1.262 1.12 2.286 2.5 2.286h2.5c1.38 0 2.499-1.024 2.499-2.286V12.571c0-1.262-1.118-2.285-2.499-2.285H37c-1.38 0-2.5 1.023-2.5 2.285v3.428c0 .632-.56 1.144-1.25 1.144s-1.251-.512-1.251-1.144v-3.428c0-2.525 2.24-4.571 5-4.571H39.5c2.761 0 5 2.046 5 4.57v22.858c0 2.525-2.239 4.572-5 4.572zM28.25 27.429c.69 0 1.25.51 1.25 1.142 0 .631-.56 1.143-1.25 1.143-.691 0-1.25-.512-1.25-1.143s.559-1.142 1.25-1.142z" fill="#000"/>
</svg>
