<svg width="48" height="48" viewBox="0 0 48 48" fill="none" xmlns="http://www.w3.org/2000/svg">
    <path fill-rule="evenodd" clip-rule="evenodd" d="M38.462 33.846H37.23a1.23 1.23 0 1 1 0-2.461h1.232c1.358 0 2.461-1.101 2.461-2.462v-3.691c0-.099-.02-.197-.047-.292-.01-.036-.027-.071-.042-.108-.017-.043-.033-.086-.055-.127-.28-.569-.968-1.117-1.826-1.274-1.098-.41-2.566-.662-4.185-.662-1.572 0-3 .255-4.087.653a2.8 2.8 0 0 0-1.397.635l-.006-.008c-.2.177-.461.289-.75.289-.626 0-1.134-.51-1.134-1.135 0-.444.256-.825.626-1.01a8.787 8.787 0 0 1 2.419-1.218 6.137 6.137 0 0 1-1.799-3.857 5.011 5.011 0 0 1-.025-.503v-3.692A4.923 4.923 0 0 1 33.54 8H36a4.924 4.924 0 0 1 4.923 4.923v3.692a1.232 1.232 0 0 1-2.461 0v-3.692A2.462 2.462 0 0 0 36 10.461H33.54a2.461 2.461 0 0 0-2.462 2.462v3.692a3.693 3.693 0 0 0 3.691 3.693c4.548 0 8.263 2.013 8.585 4.567.02.115.032.234.032.357v3.691a4.923 4.923 0 0 1-4.923 4.923zm-12.94-10.58a.982.982 0 0 1-.05.128l-.003.006h-.002c-.199.41-.614.696-1.1.696a1.232 1.232 0 0 1-1.128-1.726l-.003-.002a4.89 4.89 0 0 0 .456-2.06 5.03 5.03 0 0 0-.071-.805c.046-.222.071-.454.071-.69v-5.01c0-1.845-1.469-3.342-3.282-3.342H17.13c-1.814 0-3.283 1.497-3.283 3.342v5.01c0 .236.026.468.072.69a5.017 5.017 0 0 0-.072.805 4.925 4.925 0 0 0 4.924 4.924c7.847 0 14.25 2.806 14.723 6.347.027.137.046.278.046.42v3.08A4.923 4.923 0 0 1 28.615 40H8.923A4.923 4.923 0 0 1 4 35.078V32c0-.143.014-.278.035-.411.16-1.24 1.052-2.383 2.464-3.349.2-.17.455-.277.738-.277a1.138 1.138 0 0 1 .614 2.093l.008.012c-.889.594-1.398 1.253-1.398 1.932v3.078a2.462 2.462 0 0 0 2.462 2.46h19.692a2.461 2.461 0 0 0 2.462-2.46V32c0-2.38-5.511-4.307-12.308-4.307a7.355 7.355 0 0 1-5.093-2.047 7.397 7.397 0 0 1-1.654-2.345L12 23.255a7.462 7.462 0 0 1-.219-.573c-.014-.043-.034-.085-.048-.13-.055-.172-.098-.351-.14-.53-.017-.067-.037-.132-.052-.2a8.148 8.148 0 0 1-.098-.623c-.005-.04-.014-.078-.017-.118a7.309 7.309 0 0 1-.042-.773c0-.136.013-.268.021-.403-.01-.14-.02-.277-.02-.418v-5.743c0-3.173 2.48-5.744 5.538-5.744h3.693c3.059 0 5.538 2.571 5.538 5.744v5.743c0 .141-.011.279-.02.418.007.136.02.267.02.403a7.312 7.312 0 0 1-.631 2.958zm-13.521 3.81a1.232 1.232 0 1 1-2.464-.001 1.232 1.232 0 0 1 2.464.002z" fill="#fff"/>
</svg>
