<svg width="48" height="48" viewBox="0 0 48 48" fill="none" xmlns="http://www.w3.org/2000/svg">
    <path fill-rule="evenodd" clip-rule="evenodd" d="M21.001 22h10a1 1 0 1 1 0 2h-10a1 1 0 0 1 0-2zm0 8h10a1 1 0 0 1 0 2h-10a1 1 0 0 1 0-2zm0-4h10a1 1 0 1 1 0 1.999h-10a1 1 0 1 1 0-1.999zm-4-4a1 1 0 1 1 0 2 1 1 0 0 1 0-2zm0 8A1.001 1.001 0 1 1 17 32.002a1.001 1.001 0 0 1 .003-2.003zm0-4a1 1 0 1 1 0 2 1 1 0 0 1 0-2zm17.001 14H14.001A4.001 4.001 0 0 1 10 36V16c0-2.21 1.792-4 4.001-4h1.672c.21 0 .391-.13.464-.314.001-.005.007-.013.014-.024A2.498 2.498 0 0 1 18.501 10h2.04A3.998 3.998 0 0 1 24.001 8c1.48 0 2.768.805 3.46 2h1.54a1 1 0 0 1 0 2h-1.546a2 2 0 0 1-1.71-.965A1.995 1.995 0 0 0 24 10c-.75 0-1.396.42-1.739 1.032l-.002.002c-.35.58-.986.966-1.712.966h-1.547a1 1 0 0 0-.938.664l-.005.007A2 2 0 0 1 16.173 14H14a2 2 0 0 0-2 2v20a2 2 0 0 0 2 2h20.001a2 2 0 0 0 2-2V16c0-1.104-.896-2-2-2h-1.5a.5.5 0 0 0-.5.5v1a2.5 2.5 0 0 1-2.5 2.5h-11c-.691 0-1.316-.28-1.769-.733l.005-.004a1.102 1.102 0 1 1 1.563-1.55c.18.176.427.287.7.287h10a1 1 0 0 0 1-1v-1a2 2 0 0 1 2.001-2h2a4 4 0 0 1 4 4v20a4 4 0 0 1-4 4z" fill="#fff"/>
</svg>
