<svg width="32" height="32" viewBox="0 0 32 32" fill="none" xmlns="http://www.w3.org/2000/svg">
    <path fill-rule="evenodd" clip-rule="evenodd" d="M25.64 22.564h-.82a.82.82 0 1 1 0-1.64h.82c.906 0 1.642-.735 1.642-1.642v-2.46a.688.688 0 0 0-.032-.195c-.007-.024-.018-.048-.028-.072-.012-.029-.022-.057-.037-.085-.187-.38-.645-.745-1.217-.85-.732-.272-1.71-.44-2.79-.44-1.048 0-2 .17-2.725.434a1.867 1.867 0 0 0-.93.424l-.005-.005a.752.752 0 0 1-1.256-.564c0-.296.17-.55.417-.674a5.863 5.863 0 0 1 1.613-.811 4.091 4.091 0 0 1-1.199-2.572 3.34 3.34 0 0 1-.017-.335V8.616a3.282 3.282 0 0 1 3.283-3.282h1.64a3.282 3.282 0 0 1 3.283 3.282v2.46a.821.821 0 0 1-1.642 0v-2.46c0-.907-.735-1.641-1.64-1.641h-1.641a1.64 1.64 0 0 0-1.642 1.64v2.462a2.462 2.462 0 0 0 2.461 2.462c3.032 0 5.509 1.342 5.723 3.044.013.077.021.157.021.238v2.461a3.282 3.282 0 0 1-3.282 3.282zm-8.625-7.053a.644.644 0 0 1-.034.085l-.002.004h-.001a.816.816 0 0 1-.735.464.821.821 0 0 1-.75-1.15l-.003-.002a3.26 3.26 0 0 0 .304-1.373c0-.183-.019-.362-.047-.537.03-.148.047-.302.047-.46v-3.34c0-1.23-.98-2.228-2.188-2.228H11.42c-1.21 0-2.189.998-2.189 2.228v3.34c0 .158.017.312.048.46a3.346 3.346 0 0 0-.048.537 3.283 3.283 0 0 0 3.282 3.282c5.232 0 9.5 1.871 9.816 4.232.018.091.03.185.03.28v2.053a3.282 3.282 0 0 1-3.282 3.28H5.948a3.282 3.282 0 0 1-3.282-3.28v-2.053c0-.095.01-.185.023-.274.107-.826.702-1.588 1.643-2.232a.759.759 0 0 1 .492-.185.759.759 0 0 1 .41 1.396l.005.008c-.593.396-.932.835-.932 1.287v2.053c0 .905.736 1.64 1.641 1.64h13.128a1.64 1.64 0 0 0 1.641-1.64v-2.053c0-1.586-3.674-2.87-8.205-2.87a4.903 4.903 0 0 1-3.395-1.365 4.937 4.937 0 0 1-1.103-1.564l-.015-.03a4.97 4.97 0 0 1-.146-.382c-.01-.03-.022-.057-.031-.087-.038-.115-.066-.234-.094-.354-.011-.044-.025-.087-.034-.133a5.437 5.437 0 0 1-.066-.415c-.003-.027-.01-.052-.011-.079a4.86 4.86 0 0 1-.028-.515c0-.091.008-.179.014-.269-.006-.093-.014-.184-.014-.279V9.163c0-2.115 1.654-3.83 3.692-3.83h2.462c2.04 0 3.692 1.715 3.692 3.83v3.828c0 .095-.007.186-.013.28.005.09.013.177.013.268 0 .702-.154 1.367-.42 1.972zM8 18.05a.821.821 0 1 1-1.642 0 .821.821 0 0 1 1.642 0z" fill="#fff"/>
</svg>
