<svg width="48" height="48" viewBox="0 0 48 48" fill="none" xmlns="http://www.w3.org/2000/svg">
    <path fill-rule="evenodd" clip-rule="evenodd" d="m38.255 33.108-11.342 4.608a7.963 7.963 0 0 1-5.847-.008L9.751 33.112A3.194 3.194 0 0 1 8 30.266V15.867a1.067 1.067 0 0 1 2.134 0v14.25c0 .385.21.714.516.901l10.891 4.609c.024.01.045.014.069.024a6.12 6.12 0 0 0 2.39.482 6.12 6.12 0 0 0 2.377-.477c.024-.01.045-.015.069-.024l10.903-4.613c.306-.188.518-.517.518-.902V20.133a1.066 1.066 0 0 1 2.133 0v10.134c0 1.241-.712 2.309-1.745 2.841zm.678-16.174a1.068 1.068 0 1 1 .003-2.135 1.068 1.068 0 0 1-.003 2.135zm-5.16 13.084-5.031 2.096v-.001a1.096 1.096 0 0 1-1.542-1c0-.468.295-.864.708-1.022l5.125-2.243c.333-.179.567-.525.567-.931V12.95a.533.533 0 0 0-.752-.486v-.002l-7.213 3.158c-.336.179-.567.525-.567.93V31.333a2.135 2.135 0 0 1-2.966 1.965l-7.88-3.284a3.2 3.2 0 0 1-1.955-2.946V12.134a2.134 2.134 0 0 1 2.953-1.969l4.895 2.04a1.118 1.118 0 0 1-.43 2.146c-.187 0-.36-.05-.515-.13l-4.017-1.759c-.002 0 0 .002-.002.002a.533.533 0 0 0-.751.487v13.965c0 .407.234.753.568.932l7.214 3.157v-.002a.533.533 0 0 0 .751-.487V16.4c0-1.326.807-2.464 1.958-2.948l7.89-3.287a2.135 2.135 0 0 1 2.954 1.969v14.933c0 1.326-.811 2.465-1.962 2.951z" fill="#696969"/>
</svg>
