<svg width="32" height="32" viewBox="0 0 32 32" fill="none" xmlns="http://www.w3.org/2000/svg">
    <path fill-rule="evenodd" clip-rule="evenodd" d="M25 26a1 1 0 1 1 0-2 1 1 0 0 1 0 2zm-1-10h1a1 1 0 1 1 0 2h-.333a.667.667 0 0 0-.667.667V19a1 1 0 1 1-2 0v-1a2 2 0 0 1 2-2zm-3 6a1 1 0 1 1 0 2h-.333a.667.667 0 0 0-.667.667V25a1 1 0 1 1-2 0v-1a2 2 0 0 1 2-2h1zm-3-6h1a1 1 0 1 1 0 2h-.333a.667.667 0 0 0-.667.667V19a1 1 0 1 1-2 0v-1a2 2 0 0 1 2-2zm-3 6a1 1 0 1 1 0 2h-.333a.667.667 0 0 0-.667.667V25a1 1 0 1 1-2 0v-1a2 2 0 0 1 2-2h1zm-3-6h1a1 1 0 1 1 0 2h-.333a.667.667 0 0 0-.667.667V19a1 1 0 1 1-2 0v-1a2 2 0 0 1 2-2zM7 26a1 1 0 0 1-1-1v-1a2 2 0 0 1 2-2h1a1 1 0 0 1 0 2h-.333a.667.667 0 0 0-.667.667V25a1 1 0 0 1-1 1zm24-10a1 1 0 1 1 0-2 1 1 0 0 1 0 2zm-3 16H4a4 4 0 0 1-4-4V14a4 4 0 0 1 4-4h25a1 1 0 0 0 1-1V8a2 2 0 0 0-2-2h-1.5A2.5 2.5 0 0 1 24 3.5V3a1 1 0 0 0-2 0v.5A2.5 2.5 0 0 1 19.5 6h-7A2.5 2.5 0 0 1 10 3.5V3a1 1 0 0 0-2 0v.5A2.5 2.5 0 0 1 5.5 6H4a2 2 0 0 0-2 2 1 1 0 0 1-2 0 4 4 0 0 1 4-4h1a1 1 0 0 0 1-1 3 3 0 0 1 6 0 1 1 0 0 0 1 1h6a1 1 0 0 0 1-1 3 3 0 0 1 6 0 1 1 0 0 0 1 1h1a4 4 0 0 1 4 4v1.5a2.5 2.5 0 0 1-2.5 2.5H4a2 2 0 0 0-2 2v14a2 2 0 0 0 2 2h24a2 2 0 0 0 2-2v-9a1 1 0 1 1 2 0v9a4 4 0 0 1-4 4z" fill="#231F20"/>
</svg>
