<svg width="48" height="48" viewBox="0 0 48 48" fill="none" xmlns="http://www.w3.org/2000/svg">
    <path fill-rule="evenodd" clip-rule="evenodd" d="M24.5 16.5a1 1 0 1 1 2 0 1 1 0 0 1-2 0zm14.347.079-.422.42c-.004.005-.007.005-.011.009a1.997 1.997 0 0 1-2.787.034l-2.577-2.579a1 1 0 0 1 1.414-1.413l2.178 2.176c.002.002.003 0 .005.002a.5.5 0 0 0 .706 0c.006-.006.012 0 .018-.004l.06-.06a2 2 0 0 0 0-2.83l-1.766-1.766a1.999 1.999 0 0 0-2.829 0l-3.431 3.431H12.5A2.5 2.5 0 0 0 10 16.5v19a2.5 2.5 0 0 0 2.5 2.5h19a2.5 2.5 0 0 0 2.5-2.5V22.64a.5.5 0 0 0-.853-.353c-.002.002-.001-.007-.003-.006l-5.557 5.556a3.967 3.967 0 0 1-2.128 1.105c-.148.035-.3.057-.459.057h-.14a4.748 4.748 0 0 1-.2 0H21A1.999 1.999 0 0 1 19 27v-3.66a6.614 6.614 0 0 1 0-.2V23c0-.159.023-.311.058-.459a3.977 3.977 0 0 1 1.105-2.13l2.124-2.124.006.006A1 1 0 0 1 24 19a.995.995 0 0 1-.352.756l-2.07 2.07a1.982 1.982 0 0 0-.57 1.59c0 .028-.008.055-.008.084V25c0 1.104.896 2 2 2h1.5c.028 0 .056-.007.084-.008.57.05 1.154-.134 1.59-.57L32.594 20c.361-.355.857-.5 1.404-.5a2 2 0 0 1 2.001 2v14.499A4 4 0 0 1 32 40H12a4 4 0 0 1-4-4.001v-20A4 4 0 0 1 12 12h16.575l2.846-2.847A3.967 3.967 0 0 1 34.25 8c1.024 0 2.047.372 2.829 1.153l1.768 1.768A3.998 3.998 0 0 1 40 13.767a3.94 3.94 0 0 1-1.153 2.812z" fill="#231F20"/>
</svg>
