<svg width="512" height="512" viewBox="0 0 512 512" fill="none" xmlns="http://www.w3.org/2000/svg">
<g clip-path="url(#clip0_3108_99717)">
<path d="M512 256C512.04 288.886 505.727 321.471 493.406 351.962C493.376 352.03 493.353 352.091 493.323 352.159V352.167C485.042 372.584 474.148 391.841 460.914 409.456C458.361 412.864 455.728 416.202 453.014 419.469C452.022 420.666 451.015 421.855 450.007 423.029C444.819 429.05 439.361 434.819 433.633 440.335C432.299 441.623 430.951 442.895 429.588 444.152C429.27 444.448 428.952 444.736 428.634 445.031C421.962 451.128 414.971 456.867 407.692 462.224C402.806 465.837 397.792 469.268 392.65 472.517C391.521 473.236 390.385 473.943 389.241 474.638C387.257 475.849 385.255 477.034 383.235 478.19C380.6 479.705 377.931 481.171 375.23 482.59C374.139 483.173 373.041 483.734 371.943 484.294C370.337 485.12 368.724 485.915 367.095 486.695C366.815 486.832 366.535 486.968 366.255 487.097C365.194 487.612 364.119 488.112 363.043 488.612C349.036 495.072 334.469 500.241 319.523 504.055C319.44 504.078 319.364 504.093 319.281 504.116C318.304 504.365 317.319 504.608 316.335 504.843C315.6 505.024 314.858 505.199 314.115 505.365C314.024 505.395 313.93 505.418 313.835 505.433C312.313 505.789 310.79 506.13 309.253 506.441C308.389 506.622 307.526 506.804 306.663 506.978C306.14 507.092 305.61 507.191 305.087 507.289C304.428 507.418 303.777 507.539 303.118 507.668C302.754 507.743 302.391 507.804 302.02 507.865C301.187 508.016 300.353 508.168 299.528 508.311C298.119 508.554 296.695 508.789 295.279 509.001C294.249 509.16 293.226 509.311 292.196 509.455C290.984 509.629 289.773 509.788 288.553 509.94C288.22 509.993 287.887 510.031 287.553 510.069C287.122 510.122 286.69 510.175 286.258 510.228C285.387 510.334 284.516 510.432 283.638 510.523C283.183 510.576 282.736 510.622 282.282 510.667C281.419 510.758 280.555 510.841 279.692 510.917C278.578 511.023 277.465 511.114 276.344 511.205C274.981 511.311 273.625 511.409 272.254 511.493C271.375 511.546 270.497 511.599 269.611 511.644C267.354 511.765 265.097 511.849 262.824 511.909C261.696 511.939 260.56 511.962 259.424 511.977H259.401C258.273 511.992 257.136 512 256 512C244.487 512.005 232.987 511.236 221.577 509.698C213.207 508.577 204.972 507.057 196.87 505.138C196.545 505.062 196.219 504.987 195.901 504.903C195.083 504.714 194.273 504.509 193.462 504.305C192.743 504.123 192.031 503.934 191.311 503.744C172.767 498.919 154.829 492.01 137.839 483.151C137.756 483.105 137.665 483.06 137.581 483.014C137.089 482.757 136.604 482.507 136.12 482.242C135.052 481.681 133.989 481.111 132.931 480.53C126.91 477.22 121.042 473.681 115.329 469.911C113.86 468.95 112.406 467.973 110.966 466.98C110.504 466.662 110.05 466.344 109.596 466.026C109.118 465.693 108.641 465.36 108.172 465.026C106.922 464.14 105.68 463.244 104.445 462.338C99.3329 458.581 94.3719 454.64 89.5625 450.515C72.5154 435.915 57.4517 419.148 44.7549 400.64C40.3241 394.187 36.1887 387.527 32.3487 380.66C11.0682 342.563 -0.0704548 299.638 0.000335325 256C0.000335325 114.617 114.617 0 256 0C397.384 0 512 114.617 512 256Z" fill="#F2F4F8"/>
<path d="M333.225 406.169L334.149 406.646C334.058 407.631 333.838 408.237 333.225 406.169Z" fill="#2F2E41"/>
<path d="M334.444 406.487C334.451 406.593 334.467 406.707 334.474 406.813L334.148 406.646C334.156 406.548 334.164 406.442 334.179 406.336C334.255 405.01 334.164 403.443 334.444 406.487Z" fill="#2F2E41"/>
<path d="M429.588 444.152C429.27 444.448 428.952 444.735 428.634 445.031C421.962 451.128 414.971 456.867 407.692 462.224C402.807 465.836 397.793 469.267 392.65 472.517C391.521 473.236 390.385 473.943 389.242 474.637C387.257 475.849 385.255 477.033 383.235 478.19C380.6 479.704 377.931 481.171 375.23 482.59C374.139 483.173 373.041 483.734 371.943 484.294C370.337 485.12 368.724 485.915 367.095 486.695C366.815 486.831 366.535 486.968 366.255 487.097L363.051 484.438L400.678 438.449L408.245 429.201C408.245 429.201 411.267 429.201 418.197 434.245C422.027 437.096 425.647 440.22 429.028 443.592C429.209 443.781 429.399 443.963 429.588 444.152Z" fill="#FDB797"/>
<path d="M312.807 145.326C312.807 145.326 307.053 171.788 343.008 182.373L312.807 145.326Z" fill="#2F2E41"/>
<path d="M156.682 150.143C156.682 150.143 169.913 179.727 130.22 192.958L156.682 150.143Z" fill="#2F2E41"/>
<path d="M244.525 369.594C313.001 374.995 372.89 323.864 378.292 255.388C383.693 186.912 332.561 127.023 264.086 121.621C195.61 116.22 135.721 167.351 130.319 235.827C124.918 304.303 176.049 364.192 244.525 369.594Z" fill="#2F2E41"/>
<path d="M255.13 365.345C296.599 368.616 332.868 337.651 336.139 296.183C339.41 254.714 308.445 218.445 266.976 215.174C225.508 211.903 189.239 242.868 185.968 284.337C182.696 325.805 213.662 362.074 255.13 365.345Z" fill="#FDB797"/>
<path d="M421.15 447.695L421.058 447.71L403.263 450.523L366.211 456.383L361.156 457.185L304.81 466.089L300.024 466.851L163.319 488.463C154.523 484.278 145.977 479.588 137.722 474.417C137.643 474.365 137.556 474.313 137.476 474.261C137.006 473.965 136.542 473.678 136.08 473.376C135.059 472.733 134.044 472.081 133.035 471.418C127.293 467.645 121.722 463.655 116.323 459.448C114.934 458.374 113.561 457.286 112.205 456.183C111.769 455.83 111.341 455.477 110.913 455.124C110.464 454.754 110.014 454.385 109.572 454.016C108.396 453.034 107.228 452.043 106.069 451.042C120.969 428.384 153.244 415.089 184.956 408.922C208.891 404.261 215.728 383.277 216.784 364.207C217.013 359.856 216.987 355.496 216.705 351.148C216.298 344.232 215.326 337.36 213.797 330.603L288.689 339.033L295.028 357.494C294.662 359.437 294.438 361.405 294.359 363.382C293.793 378.069 302.084 388.25 312.754 395.238C314.141 396.145 315.57 397.003 317.026 397.809C334.658 407.565 356.139 409.829 356.139 409.829C362.752 409.621 369.363 410.268 375.81 411.753C377.376 412.12 378.894 412.531 380.362 412.986C388.937 415.625 396.891 419.966 403.751 425.748C406.372 427.943 408.827 430.328 411.097 432.884C415.14 437.314 418.526 442.302 421.15 447.695Z" fill="#FDB797"/>
<path d="M145.033 183.899C165.43 185.508 183.27 170.277 184.879 149.88C186.488 129.483 171.257 111.644 150.86 110.035C130.463 108.426 112.623 123.657 111.014 144.054C109.405 164.451 124.636 182.29 145.033 183.899Z" fill="#2F2E41"/>
<path d="M372.734 191.243C393.131 192.852 410.971 177.622 412.58 157.225C414.189 136.828 398.958 118.988 378.561 117.379C358.164 115.77 340.325 131.001 338.716 151.398C337.107 171.795 352.337 189.634 372.734 191.243Z" fill="#2F2E41"/>
<path d="M337.325 135.362C338.045 126.253 342.106 117.732 348.727 111.435C355.348 105.138 364.063 101.511 373.197 101.249C368.083 100.279 362.823 100.397 357.759 101.596C352.694 102.794 347.939 105.046 343.803 108.205C339.667 111.365 336.243 115.36 333.754 119.93C331.265 124.501 329.767 129.545 329.358 134.733C328.949 139.922 329.637 145.138 331.379 150.042C333.12 154.947 335.875 159.429 339.465 163.198C343.054 166.966 347.398 169.936 352.212 171.914C357.026 173.892 362.202 174.833 367.404 174.677C358.425 172.987 350.387 168.038 344.835 160.781C339.283 153.524 336.608 144.471 337.325 135.362V135.362Z" fill="#2F2E41"/>
<path d="M104.324 173.586C98.4629 166.576 95.3995 157.647 95.7222 148.515C96.0449 139.384 99.7308 130.694 106.072 124.115C101.741 127 98.0658 130.766 95.2871 135.167C92.5084 139.567 90.6881 144.504 89.9448 149.655C89.2015 154.806 89.5518 160.056 90.973 165.063C92.3941 170.069 94.8542 174.72 98.193 178.713C101.532 182.705 105.674 185.949 110.35 188.233C115.027 190.518 120.132 191.791 125.333 191.971C130.535 192.151 135.715 191.232 140.538 189.276C145.361 187.319 149.717 184.369 153.323 180.616C145.727 185.694 136.521 187.784 127.477 186.486C118.432 185.189 110.186 180.594 104.324 173.586V173.586Z" fill="#2F2E41"/>
<path d="M258.883 187.571C215.175 184.124 178.113 201.997 176.102 227.494C175.202 238.902 181.501 249.89 192.622 258.872L208.728 249.035L203.221 266.002C204.877 266.934 206.572 267.844 208.347 268.701L233.201 243.943L230.628 276.564C237.519 278.232 244.532 279.349 251.6 279.902C295.308 283.349 332.37 265.476 334.382 239.979C336.393 214.483 302.591 191.019 258.883 187.571Z" fill="#2F2E41"/>
<path d="M188.942 314.233C192.343 313.564 193.798 306.404 192.192 298.241C190.587 290.078 186.528 284.003 183.126 284.672C179.725 285.341 178.27 292.501 179.875 300.664C181.481 308.827 185.54 314.902 188.942 314.233Z" fill="#FDB797"/>
<path d="M343.407 299.661C344.57 291.424 342.73 284.353 339.298 283.868C335.866 283.384 332.14 289.669 330.978 297.907C329.815 306.145 331.655 313.216 335.087 313.7C338.519 314.185 342.245 307.899 343.407 299.661Z" fill="#FDB797"/>
<path d="M432.474 444.213C383.243 481.325 355.862 498.071 300.308 512.379C249.562 513.515 232.521 512.379 194.651 505.183C180.639 500.639 175.338 499.503 153.373 491.171C153.373 491.171 127.807 479.504 125.728 477.917C124.308 476.837 125.229 477.523 123.835 476.402C111.178 466.304 94.2163 456.518 83.693 444.213L90.0953 441.234L94.4699 439.317L160.476 410.441L165.347 408.309L199.953 400.114C199.953 400.114 218.486 451.887 267.635 447.841C316.783 443.796 326.403 400.114 326.403 400.114L404.148 408.309L432.474 444.213Z" fill="#2F2E41"/>
</g>
<defs>
<clipPath id="clip0_3108_99717">
<rect width="512" height="512" fill="white"/>
</clipPath>
</defs>
</svg>
