<svg width="80" height="80" viewBox="0 0 80 80" fill="none" xmlns="http://www.w3.org/2000/svg">
    <path fill-rule="evenodd" clip-rule="evenodd" d="M63.333 66.667H17.62A7.619 7.619 0 0 1 10 59.05V32.387a7.618 7.618 0 0 1 7.62-7.617h4.285a2.847 2.847 0 0 0 2.501-1.5l.028-.02 1.572-2.766-.043.018c.463-.805.928-1.612 1.376-2.428 1.77-3.221 4.48-4.801 8.127-4.739h9.992c3.592-.062 6.267 1.477 8.037 4.598.232.315.373.7.373 1.123a1.9 1.9 0 0 1-3.459 1.093l-.001.001c-1.434-2.035-3.482-3.043-6.122-2.998-2.969 0-4.83-.005-7.8-.005-2.969-.052-5.173 1.213-6.613 3.791a346.564 346.564 0 0 1-3.027 5.307 3.81 3.81 0 0 1-3.513 2.333h-4.762a4.762 4.762 0 0 0-4.761 4.76v24.76a4.762 4.762 0 0 0 4.761 4.762h43.81a4.762 4.762 0 0 0 4.762-4.761v-24.76c0-2.628-3.085-4.762-5.715-4.762a1.904 1.904 0 0 1 0-3.807h.953c4.209 0 8.572 3.41 8.572 7.617V59.05a7.618 7.618 0 0 1-7.62 7.617zM30 49.528a1.904 1.904 0 1 1 .002 3.808A1.904 1.904 0 0 1 30 49.528zm-4.762-5.714c0-8.415 6.822-15.237 15.239-15.237 8.415 0 15.238 6.822 15.238 15.237S48.892 59.05 40.475 59.05a1.905 1.905 0 1 1 0-3.81c6.312 0 11.429-5.114 11.429-11.426 0-6.31-5.117-11.427-11.428-11.427-6.311 0-11.428 5.117-11.428 11.427a1.905 1.905 0 0 1-3.811 0zm30.477-17.141a1.904 1.904 0 1 1 1.904-1.903c0 1.05-.852 1.903-1.904 1.903z" fill="#00818F"/>
</svg>
