<svg width="512" height="512" viewBox="0 0 512 512" fill="none" xmlns="http://www.w3.org/2000/svg">
<g clip-path="url(#clip0_3108_99742)">
<path d="M512 256C512.046 290.655 505.031 324.955 491.384 356.809L490.535 358.764C467.45 411.281 427.422 454.54 376.85 481.624C326.279 508.708 268.087 518.051 211.579 508.16C210.041 507.887 208.506 507.605 206.974 507.312C191.139 504.242 175.633 499.669 160.667 493.656C158.235 492.679 155.822 491.666 153.426 490.619C151.79 489.907 150.154 489.172 148.533 488.415C104.195 467.865 66.6548 435.068 40.3384 393.89C14.0221 352.712 0.0260291 304.869 0 256C0 114.617 114.617 0 256 0C397.383 0 512 114.617 512 256Z" fill="#F2F4F8"/>
<path d="M243.481 314.97C297.026 328.052 351.037 295.251 364.119 241.706C377.201 188.162 344.4 134.151 290.856 121.069C237.312 107.986 183.3 140.788 170.218 194.332C157.136 247.876 189.937 301.888 243.481 314.97Z" fill="#FDB797"/>
<path d="M211.162 282.994C211.162 282.994 209.217 343.519 207.736 349.578C206.256 355.638 257.158 396.97 257.158 396.97L310.884 400.464L342.386 350.371C342.386 350.371 323.192 297.523 327.634 279.345L211.162 282.994Z" fill="#FDB797"/>
<path d="M463.116 410.361L461.828 412.058C426.938 457.596 377.786 490.118 322.232 504.425C266.678 518.733 207.93 513.998 155.384 490.978C153.956 490.348 152.532 489.709 151.112 489.061C136.459 482.32 122.481 474.198 109.369 464.804C107.24 463.278 105.135 461.722 103.057 460.135C101.636 459.056 100.221 457.954 98.8266 456.833C86.1705 446.734 74.5022 435.456 63.9789 423.151L60.6314 387.006L68.2957 383.655L84.0624 376.755L100.885 369.396L105.259 367.479L171.266 338.603L176.137 336.472L210.445 321.464L210.454 321.458C210.454 321.458 229.275 380.049 278.424 376.004C327.573 371.959 337.193 328.277 337.193 328.277L463.116 410.361Z" fill="#2F2E41"/>
<path d="M203.115 115.91C203.115 115.91 250.191 56.7371 305.428 86.5423C360.666 116.347 388.372 147.581 385.296 171.294C382.221 195.006 369.913 228.695 369.913 228.695C369.913 228.695 375.094 179.674 331.545 179.907C287.997 180.14 225.749 156.777 225.749 156.777L192.927 246.614C192.927 246.614 185.457 227.121 170.125 234.248C154.792 241.374 157.059 126.403 203.115 115.91Z" fill="#2F2E41"/>
<path d="M109.369 464.804C107.239 463.278 105.135 461.721 103.056 460.135C101.636 459.055 100.221 457.953 98.8262 456.833C77.8967 440.12 59.7123 420.235 44.9334 397.898C53.9456 390.339 60.6309 387.006 60.6309 387.006L106.079 398.109L107.294 422.685L109.369 464.804Z" fill="#2F2E41"/>
<path d="M424.524 395.646L461.829 412.058C445.588 433.278 426.125 451.823 404.146 467.021L424.524 395.646Z" fill="#2F2E41"/>
</g>
<defs>
<clipPath id="clip0_3108_99742">
<rect width="512" height="512" fill="white"/>
</clipPath>
</defs>
</svg>
