<svg width="49" height="48" viewBox="0 0 49 48" fill="none" xmlns="http://www.w3.org/2000/svg">
    <path fill-rule="evenodd" clip-rule="evenodd" d="m42.15 36.016-9.237 3.79c-.3.126-.628.194-.974.194-1.38 0-2.501-1.102-2.501-2.462V15.557c0-.468-.271-.867-.664-1.074l-6.011-2.59a1.265 1.265 0 0 1-.824-1.177c0-.699.575-1.264 1.284-1.264.182 0 .356.038.513.106v-.002l5.893 2.418a3.69 3.69 0 0 1 2.31 3.41v21.212c0 .339.28.616.625.616.09 0 .178-.02.257-.055v.002l8.462-3.646a1.22 1.22 0 0 0 .656-1.07v-21.04a.62.62 0 0 0-.626-.616c-.09 0-.176.02-.254.054h-.002l-1.03.443c-.044.022-.09.043-.137.06l-.36.071c-.023.002-.047.008-.072.008-.701 0-1.269-.56-1.269-1.251 0-.369.166-.696.424-.924l2.35-1.053c.3-.126.63-.195.976-.195 1.38 0 2.5 1.1 2.5 2.46v22.154c0 1.529-.943 2.84-2.29 3.402zm-6.46-23.093a1.24 1.24 0 0 1-1.25-1.232c0-.678.558-1.23 1.25-1.23.69 0 1.25.552 1.25 1.23 0 .68-.56 1.231-1.25 1.231zm-8.75 24.36c0 .698-.577 1.265-1.286 1.265-.182 0-.355-.038-.513-.106v.002l-5.898-2.422c-1.351-.558-2.305-1.873-2.305-3.408V11.403a.62.62 0 0 0-.623-.616.624.624 0 0 0-.257.054h-.001l-8.454 3.642c-.391.207-.664.606-.664 1.073v21.04c0 .339.28.616.625.616a.63.63 0 0 0 .256-.055v.002l4.726-2.038a1.306 1.306 0 0 1 1.894 1.147c0 .536-.331.995-.804 1.19l-5.722 2.347c-.298.127-.63.195-.975.195-1.381 0-2.5-1.102-2.5-2.462V15.384c0-1.536.95-2.85 2.306-3.407l9.22-3.782c.3-.126.627-.195.973-.195 1.382 0 2.5 1.1 2.5 2.46v21.982c0 .465.27.86.657 1.071l6.023 2.594c.48.184.821.64.821 1.175z" fill="#696969"/>
</svg>
