<svg width="32" height="32" viewBox="0 0 32 32" fill="none" xmlns="http://www.w3.org/2000/svg">
    <path fill-rule="evenodd" clip-rule="evenodd" d="M28 32H4a4 4 0 0 1-4-3.999v-3c0-1.602 1.222-3.063 3.26-4.236a.94.94 0 0 1 1.498.756c0 .349-.194.65-.476.812l.003.004C2.845 23.127 2 24.048 2 25.001v3a2 2 0 0 0 2 2h24a2 2 0 0 0 2-2v-3c0-2.762-6.268-5-14-5a7.96 7.96 0 0 1-4.88-1.67 8.07 8.07 0 0 1-2.237-2.69 8.07 8.07 0 0 1-.43-1.007 7.224 7.224 0 0 1-.182-.602c-.022-.084-.047-.168-.066-.254a7.934 7.934 0 0 1-.115-.635c-.011-.082-.028-.162-.037-.245A7.893 7.893 0 0 1 8 12.001V6A6 6 0 0 1 14 0h4a6 6 0 0 1 6 6v6c0 1.381-.371 2.668-.988 3.798a.994.994 0 0 1-.95.703 1 1 0 0 1-1-1c0-.169.046-.326.12-.465l-.012-.006c.456-.78.744-1.668.809-2.62.014-.135.02-.272.02-.41V6a4 4 0 0 0-4-4H14a4 4 0 0 0-4 4v6c0 .138.007.275.02.41a5.993 5.993 0 0 0 5.716 5.578c.08.01.167.012.264.012 1.702 0 3.34.118 4.878.333.396.055.784.117 1.167.186.01 0 .02.003.03.004a29.107 29.107 0 0 1 1.2.244c.702.157 1.373.336 2.01.534.03.011.063.018.093.029a21.017 21.017 0 0 1 1.806.667 15.253 15.253 0 0 1 .854.394l.093.048c.25.126.493.257.722.393.006.002.011.008.017.01a11.525 11.525 0 0 1 .728.471 9.28 9.28 0 0 1 .618.476c.173.146.336.295.486.446l.023.023c.145.149.274.302.397.457.026.036.056.069.082.105.114.153.219.309.31.466l.033.06c.085.152.155.306.217.462.01.023.021.046.029.07A3.355 3.355 0 0 1 32 25v3a3.999 3.999 0 0 1-4 4zM9 20.001A1 1 0 1 1 6.999 20a1 1 0 0 1 2 .001z" fill="#000"/>
</svg>
