<svg width="96" height="96" viewBox="0 0 96 96" fill="none" xmlns="http://www.w3.org/2000/svg">
    <path fill-rule="evenodd" clip-rule="evenodd" d="M56 29c0-2.622 2.025-4.752 4.595-4.96.13-.028.265-.041.404-.041h1a2.001 2.001 0 0 1 0 4 2 2 0 0 0-2 2A1.999 1.999 0 1 1 56 30v-1zm4.595 19.04c.13-.027.265-.04.404-.04h1a2 2 0 1 1 0 4 2 2 0 0 0-2 2 2.001 2.001 0 0 1-2 2A2 2 0 0 1 56 54v-1c0-2.623 2.024-4.751 4.594-4.96zm-4.594-7.041c0-2.621 2.024-4.75 4.594-4.958.13-.027.265-.04.404-.04h1a2 2 0 1 1 0 3.998c-1.103 0-2 .897-2 2a2 2 0 1 1-3.998 0v-1zm-12.002-12c0-2.621 2.027-4.751 4.598-4.96.133-.011.264-.04.403-.04h1A2 2 0 0 1 50 28c-1.105 0-2 .894-2 2a2 2 0 1 1-4 0v-1zm4.598 19.04c.133-.01.264-.04.403-.04h1a2 2 0 0 1 0 4c-1.105 0-2 .895-2 2a2.001 2.001 0 1 1-4 0v-1c0-2.622 2.026-4.75 4.597-4.96zM43.999 41c0-2.621 2.027-4.75 4.598-4.958.133-.012.264-.04.403-.04h1a2 2 0 0 1 0 3.998 2 2 0 0 0-2 2 2 2 0 1 1-4 0v-1zm-11.998-12c0-2.621 2.027-4.751 4.597-4.96.134-.011.264-.04.403-.04H38a2 2 0 0 1 0 4 1.998 1.998 0 0 0-1.998 2 2 2 0 0 1-4 0v-1zm4.597 19.04c.134-.01.264-.04.403-.04H38a1.999 1.999 0 1 1 0 4 1.998 1.998 0 0 0-1.998 2 2.001 2.001 0 0 1-4 0v-1c0-2.622 2.027-4.75 4.597-4.96zM32.001 41c0-2.621 2.027-4.75 4.597-4.958.134-.012.264-.04.403-.04H38a1.999 1.999 0 1 1 0 3.998 2 2 0 0 0-1.998 2 2.001 2.001 0 0 1-4 0v-1zm-6.001 20A2.001 2.001 0 1 1 26 65 2.001 2.001 0 0 1 26 61zM64 80h-7.001a4.999 4.999 0 0 1-5-4.999V66c0-1.104-.896-2-2-2H46a2 2 0 0 0-2 2V75A4.999 4.999 0 0 1 39 80h-7a8 8 0 0 1-8-8v-2a2 2 0 0 1 4 0v2a4.001 4.001 0 0 0 4 4.001h6.5a1.5 1.5 0 0 0 1.5-1.5V65c0-2.76 2.24-5.001 5-5.001h6c2.76 0 5 2.24 5 5v9.502c0 .827.672 1.5 1.499 1.5h6.5c2.208 0 4-1.792 4-4.001V23.999A4 4 0 0 0 64 20H32.001c-2.21 0-4 1.79-4 3.998v26A2 2 0 0 1 24 50V24A7.999 7.999 0 0 1 32 16h32a8 8 0 0 1 8 7.999V72c0 4.418-3.584 8-8 8z" fill="#fff"/>
</svg>
