<svg width="512" height="512" viewBox="0 0 512 512" fill="none" xmlns="http://www.w3.org/2000/svg">
<rect width="512" height="512" fill="white"/>
<path d="M443.105 340.911H69.3677V451.703H443.105V340.911Z" fill="#F0F0F0"/>
<path d="M278.026 363.801H234.448V451.696H278.026V363.801Z" fill="#212738"/>
<path d="M421.311 210.174H91.1504V312.103H421.311V210.174Z" fill="#F0F0F0"/>
<path d="M454.785 216.449H57.6801C57.0172 216.449 56.3694 216.251 55.82 215.88C55.2705 215.509 54.8447 214.982 54.597 214.367C54.3494 213.752 54.2913 213.077 54.4303 212.429C54.5692 211.781 54.8989 211.189 55.3768 210.729L163.906 106.41V60.9713C163.907 60.0901 164.257 59.2452 164.88 58.6221C165.504 57.999 166.348 57.6485 167.23 57.6475H188.649C189.531 57.6485 190.375 57.999 190.999 58.6221C191.622 59.2452 191.972 60.0901 191.973 60.9713V79.4323L200.171 71.5528C213.585 58.6587 231.382 51.3196 249.986 51.0102C268.59 50.7008 286.621 57.4442 300.457 69.8851L457.007 210.654C457.507 211.103 457.859 211.694 458.016 212.348C458.173 213.001 458.129 213.687 457.888 214.315C457.647 214.943 457.222 215.483 456.668 215.864C456.114 216.245 455.457 216.449 454.785 216.449Z" fill="#212738"/>
<path d="M178.314 236.021C181.078 236.021 183.816 236.566 186.37 237.624C188.924 238.682 191.244 240.232 193.199 242.187C195.154 244.142 196.704 246.462 197.762 249.016C198.82 251.57 199.365 254.308 199.365 257.072V285.509H157.264V257.072C157.264 254.308 157.808 251.57 158.866 249.016C159.924 246.462 161.474 244.142 163.429 242.187C165.384 240.232 167.704 238.682 170.258 237.624C172.812 236.566 175.55 236.021 178.314 236.021V236.021Z" fill="white"/>
<path d="M256.239 236.396C261.822 236.396 267.177 238.614 271.124 242.562C275.072 246.51 277.29 251.864 277.29 257.447V285.884H235.189V257.447C235.189 251.864 237.407 246.51 241.355 242.562C245.302 238.614 250.657 236.396 256.239 236.396V236.396Z" fill="white"/>
<path d="M334.16 236.763C339.743 236.763 345.097 238.981 349.045 242.928C352.993 246.876 355.211 252.23 355.211 257.813V286.25H313.11V257.813C313.11 252.23 315.328 246.876 319.275 242.928C323.223 238.981 328.577 236.763 334.16 236.763V236.763Z" fill="white"/>
<path d="M365.176 362.7C370.759 362.7 376.114 364.918 380.061 368.866C384.009 372.813 386.227 378.168 386.227 383.751V412.187H344.126V383.751C344.126 378.168 346.344 372.813 350.292 368.866C354.239 364.918 359.594 362.7 365.176 362.7Z" fill="white"/>
<path d="M156.89 362.7C162.473 362.7 167.827 364.918 171.775 368.866C175.722 372.813 177.94 378.168 177.94 383.751V412.187H135.839V383.751C135.839 380.986 136.384 378.249 137.442 375.695C138.5 373.141 140.05 370.82 142.005 368.866C143.96 366.911 146.28 365.36 148.834 364.303C151.388 363.245 154.125 362.7 156.89 362.7V362.7Z" fill="white"/>
<path d="M497.701 342.639L427.592 311.617C427.215 311.45 426.808 311.364 426.396 311.364H92.2682C91.8867 311.364 91.5089 311.438 91.1555 311.582L14.8418 342.603C14.2071 342.861 13.6817 343.332 13.3558 343.935C13.0298 344.538 12.9234 345.235 13.0549 345.907C13.1863 346.58 13.5475 347.186 14.0764 347.621C14.6053 348.057 15.2692 348.295 15.9544 348.295H35.7542V450.223H33.5383V460.564H478.922V450.223H475.229V348.295H496.506C497.183 348.295 497.84 348.062 498.366 347.635C498.892 347.209 499.256 346.614 499.396 345.951C499.536 345.288 499.444 344.598 499.136 343.995C498.827 343.391 498.321 342.913 497.701 342.639ZM469.32 450.223H41.6631V348.295H469.32V450.223Z" fill="#212738"/>
<path d="M204.535 281.452H150.617V290.315H204.535V281.452Z" fill="#212738"/>
<path d="M283.56 281.452H229.642V290.315H283.56V281.452Z" fill="#CACACA"/>
<path d="M362.585 281.452H308.667V290.315H362.585V281.452Z" fill="#212738"/>
<path d="M392.139 409.23H338.22V418.094H392.139V409.23Z" fill="#212738"/>
<path d="M183.111 409.23H129.192V418.094H183.111V409.23Z" fill="#212738"/>
<path d="M286.732 295.884H230.671V251.04C231.706 230.545 249.222 228.89 265.681 229.99C268.446 229.99 271.183 230.534 273.737 231.592C276.291 232.65 278.611 234.2 280.566 236.155C282.521 238.11 284.071 240.43 285.129 242.984C286.187 245.538 286.732 248.275 286.732 251.04V295.884Z" fill="#212738"/>
</svg>
