<svg width="32" height="32" viewBox="0 0 32 32" fill="none" xmlns="http://www.w3.org/2000/svg">
    <path fill-rule="evenodd" clip-rule="evenodd" d="M18.667 9.667c0-.874.675-1.584 1.531-1.654A.663.663 0 0 1 20.333 8h.333a.667.667 0 0 1 0 1.333A.667.667 0 0 0 20 10a.666.666 0 1 1-1.333 0v-.333zm1.531 6.346a.667.667 0 0 1 .135-.013h.333a.666.666 0 1 1 0 1.333A.667.667 0 0 0 20 18a.667.667 0 1 1-1.333 0v-.333a1.66 1.66 0 0 1 1.531-1.654zm-1.531-2.347a1.66 1.66 0 0 1 1.531-1.652.66.66 0 0 1 .135-.014h.333a.667.667 0 1 1 0 1.333A.667.667 0 0 0 20 14a.666.666 0 1 1-1.333 0v-.334zm-4-4c0-.873.675-1.583 1.532-1.653.044-.004.088-.013.134-.013h.334a.667.667 0 0 1 0 1.333A.666.666 0 0 0 16 10a.666.666 0 1 1-1.334 0v-.333zm1.532 6.347c.044-.003.088-.013.134-.013h.334a.667.667 0 1 1 0 1.333A.666.666 0 0 0 16 18a.667.667 0 0 1-1.334 0v-.333c0-.875.676-1.584 1.533-1.654zm-1.533-2.347c0-.873.676-1.583 1.533-1.652.044-.004.088-.014.134-.014h.334a.667.667 0 0 1 0 1.333A.667.667 0 0 0 16 14a.666.666 0 1 1-1.334 0v-.334zm-4-4c0-.873.677-1.583 1.533-1.653.045-.004.088-.013.135-.013h.332a.667.667 0 0 1 0 1.333.666.666 0 0 0-.665.667.667.667 0 0 1-1.334 0v-.333zm1.533 6.347c.045-.003.088-.013.135-.013h.332a.666.666 0 1 1 0 1.333.666.666 0 0 0-.665.667.668.668 0 0 1-1.334 0v-.333c0-.875.676-1.584 1.532-1.654zm-1.532-2.347c0-.873.676-1.583 1.532-1.652.045-.004.088-.014.135-.014h.332a.666.666 0 1 1 0 1.333.667.667 0 0 0-.665.667.667.667 0 0 1-1.334 0v-.334zm-2 6.667a.667.667 0 1 1 0 1.334.667.667 0 0 1 0-1.334zm12.666 6.334H19c-.92 0-1.667-.746-1.667-1.667v-3a.667.667 0 0 0-.666-.666h-1.334a.667.667 0 0 0-.667.666v3c0 .92-.745 1.667-1.666 1.667h-2.333A2.667 2.667 0 0 1 8 24v-.666a.667.667 0 0 1 1.334 0V24c0 .736.597 1.334 1.333 1.334h2.166a.5.5 0 0 0 .5-.5v-3.167c0-.92.747-1.667 1.667-1.667h2c.92 0 1.667.747 1.667 1.667v3.167a.5.5 0 0 0 .5.5h2.166c.736 0 1.333-.598 1.333-1.334V8c0-.736-.597-1.333-1.333-1.333H10.667c-.736 0-1.333.597-1.333 1.333v8.667a.667.667 0 0 1-1.334 0V8a2.666 2.666 0 0 1 2.667-2.667h10.666A2.667 2.667 0 0 1 24 8v16a2.667 2.667 0 0 1-2.667 2.667z" fill="#fff"/>
</svg>
