<svg width="49" height="48" viewBox="0 0 49 48" fill="none" xmlns="http://www.w3.org/2000/svg">
    <path fill-rule="evenodd" clip-rule="evenodd" d="M18.016 26.785a1.002 1.002 0 1 1 1.417-1.417 1.002 1.002 0 0 1-1.417 1.417zm21.25-9.917-2.834 2.833a4.072 4.072 0 0 1-1.092.757 3.99 3.99 0 0 1-4.575-.757c-.065-.065-.297-.163-.38-.214a4.003 4.003 0 0 0-4.932.568l-3.895 3.897-.001-.001a1.001 1.001 0 1 1-1.416-1.417l3.895-3.895a6.007 6.007 0 0 1 8.195-.277c.787.717 2.024.683 2.784-.077l2.834-2.834a2.004 2.004 0 0 0 0-2.834l-1.417-1.416a.603.603 0 0 0-.186-.126c-3.183-2.561-10.513.2-17.522 7.21-6.985 6.985-9.75 14.286-7.237 17.488a.746.746 0 0 0 .153.22l.124.124.001.001 1.293 1.292c.782.783 2.05.783 2.832 0l2.834-2.832c.76-.761.775-1.977.059-2.764.005-.007.01-.015.016-.021-.023-.02-.052-.027-.075-.05a1.002 1.002 0 1 1 1.417-1.416 3.99 3.99 0 0 1 .755 4.578 3.884 3.884 0 0 1-.318.555c-.13.186-.27.368-.437.534l-2.834 2.833a4.008 4.008 0 0 1-5.666 0L9.87 37.056c-3.521-3.52-.353-12.397 7.437-20.188C25.097 9.077 33.974 5.91 37.495 9.43l1.77 1.771a4.008 4.008 0 0 1 0 5.667z" fill="#696969"/>
</svg>
