<svg width="96" height="96" viewBox="0 0 96 96" fill="none" xmlns="http://www.w3.org/2000/svg">
    <path fill-rule="evenodd" clip-rule="evenodd" d="M48 58.042a2.001 2.001 0 1 1-4.002.002A2.001 2.001 0 0 1 48 58.042zm26.568-6.45.004.001a1 1 0 0 0-.666.944c0 .266.108.504.277.683l2.286 2.288a5.275 5.275 0 0 1 0 7.455c-.47.47-1.009.824-1.58 1.08l-3.55 1.495a1.497 1.497 0 0 0-.711 1.856c.027.073.048.13.061.173l1.135 2.743a7.008 7.008 0 0 1-3.788 9.155 6.997 6.997 0 0 1-9.146-3.792L57.826 73.1c-.002-.002-.007.006-.008.003a1.757 1.757 0 0 0-1.607-1.047 1.75 1.75 0 0 0-.663.138l-3.373 1.422h-.007A5.925 5.925 0 0 1 44 68.13v-2.08a2.001 2.001 0 1 1 4 0v2.002c0 1.106.895 2.002 2 2.002.245 0 .477-.053.694-.133l3.331-1.402c.034-.013.062-.015.098-.03a5.638 5.638 0 0 1 7.379 3.033l.002.006 1.082 2.612a2.999 2.999 0 1 0 5.542-2.298l-1.17-2.83a5.497 5.497 0 0 1 2.796-7.114l3.624-1.527c.003 0-.002-.002 0-.002a.978.978 0 0 0 .346-1.601l-4.704-4.71a3.542 3.542 0 0 1 2.52-6.027h.46c2.209 0 4-1.792 4-4.003v-20.02a4.002 4.002 0 0 0-4-4.004H24c-2.209 0-4 1.793-4 4.004v20.02a4.002 4.002 0 0 0 4 4.004h18c1.105 0 2-.897 2-2.002v-9.361a5.652 5.652 0 0 1 5.648-5.654 5.63 5.63 0 0 1 4.002 1.664c.019.018.018.007.032.02l10.666 10.676a2.126 2.126 0 0 1-1.473 3.656c-.6 0-1.14-.253-1.527-.653L50.425 35.445c-.005-.004 0 .01-.008.002a1.407 1.407 0 0 0-2.417.98V47.03a5.002 5.002 0 0 1-5 5.005H24c-4.418 0-8-3.586-8-8.008v-20.02C16 19.586 19.582 16 24 16h48c4.418 0 8 3.586 8 8.008v20.02c0 3.52-2.277 6.492-5.432 7.564z" fill="#fff"/>
</svg>
