<svg width="40" height="40" viewBox="0 0 40 40" fill="none" xmlns="http://www.w3.org/2000/svg">
    <path d="M0 8a8 8 0 0 1 8-8h24a8 8 0 0 1 8 8v24a8 8 0 0 1-8 8H8a8 8 0 0 1-8-8V8z" fill="#0F0"/>
    <path fill-rule="evenodd" clip-rule="evenodd" d="M35.448 15.457 22.102 29.821c-.066.083-.118.175-.192.253l-1.81 1.948c-.817.882-1.89 1.317-2.963 1.31-1.073.007-2.147-.428-2.964-1.31l-2.332-2.508c-.075-.08-.129-.173-.196-.258l-7.093-7.634c-1.625-1.749-1.625-4.585 0-6.333l1.81-1.95c1.626-1.749 4.26-1.749 5.886 0l2.602 2.802c.01.01.02.012.033.025.813.874 2.653.874 3.466 0 .01-.012.02-.015.032-.025l5.152-5.545c.009-.01.012-.025.022-.036a.991.991 0 0 1 1.473 0 1.185 1.185 0 0 1 0 1.587l.004.003-5.533 5.955c-.015.014-.03.025-.046.041-1.424 1.532-4.25 1.532-5.674 0-.017-.018-.032-.027-.048-.043l-2.587-2.784c-1.016-1.093-2.663-1.093-3.678 0L6.39 16.476c-1.015 1.093-1.015 2.865 0 3.959l7.094 7.634c.063.087.121.178.195.258l1.596 1.716a2.498 2.498 0 0 0 1.861.818 2.496 2.496 0 0 0 1.86-.818l1.075-1.157c.073-.079.131-.17.194-.255L33.609 14.27c1.016-1.093 1.016-2.865 0-3.959l-1.23-1.323c-.12-.13-.22-.262-.356-.41a1.182 1.182 0 0 1 0-1.584.99.99 0 0 1 1.473 0c.137.148.23.275.355.41l1.597 1.72c1.625 1.748 1.625 4.585 0 6.333zm-8.16-5.665c-.573 0-1.04-.502-1.04-1.122 0-.618.467-1.12 1.04-1.12.576 0 1.043.502 1.043 1.12 0 .62-.467 1.122-1.042 1.122z" fill="#000"/>
</svg>
