<svg width="88" height="88" viewBox="0 0 88 88" fill="none" xmlns="http://www.w3.org/2000/svg">
    <g clip-path="url(#x891nhxuha)">
        <path d="M0 44C0 19.7 19.7 0 44 0s44 19.7 44 44-19.7 44-44 44S0 68.3 0 44z" fill="#fff"/>
        <path d="M11.673 37.7c-.66 3.335 3.543 6.317 9.586 4.861 6.07-1.456 7.91-9.793 7.553-11.531-.358-1.738-4.56-5.073-5.878-4.58 0 0-10.272 6.247-11.261 11.25z" fill="#CC6140"/>
        <path d="M22.714 38.78s-1.071-7.163-.824-10.616c.247-3.475 2.444-9.793 7.498-12.94 5.054-3.17 25.241-2.443 29.416-.024 4.175 2.42 7.828 8.878 7.388 13.692-.274 3.03-1.043 8.385-1.758 9.56-.714 1.197-41.583 1.29-41.72.328z" fill="#3F3832"/>
        <path d="m69.406 76.286-50.812.024s14.996-7.093 16.04-9.348c.44-.939.714-3.17.907-5.448.027-.235.027-.47.055-.705.22-2.865.274-5.566.274-5.566h16.232s.055 2.701.275 5.566c.027.235.027.47.055.705.192 2.278.494 4.509.934 5.448 1.016 2.255 16.04 9.324 16.04 9.324z" fill="#FFDDCA"/>
        <path opacity=".25" d="M52.432 61.514c-3.049 1.198-6.043 1.855-8.432 1.855-2.417 0-5.41-.634-8.46-1.832.028-.235.028-.47.056-.704.22-2.866.274-5.566.274-5.566h16.232s.055 2.7.275 5.566c0 .188.027.446.055.68z" fill="#DD7F50"/>
        <path d="M62.43 30.442c-4.807-7.726-18.485-7.726-18.485-7.726s-13.678 0-18.484 7.726c-2.417 3.9-1.676 19.893 3.13 23.838 4.807 3.946 11.097 6.318 15.382 6.294 4.284 0 10.574-2.372 15.38-6.317 4.807-3.922 5.521-19.916 3.076-23.814z" fill="#FFDDCA"/>
        <path d="M33.096 36.548c0 .94.742 1.691 1.648 1.691.907 0 1.648-.751 1.648-1.69 0-.94-.742-1.692-1.648-1.692-.906 0-1.648.752-1.648 1.691zM53.311 38.216c.91 0 1.648-.757 1.648-1.691s-.738-1.691-1.648-1.691c-.91 0-1.648.757-1.648 1.69 0 .935.738 1.692 1.648 1.692z" fill="#3F3832"/>
        <path d="M25.296 35.022c-.769-.775-2.142-1.62-4.45-.61-2.306 1.009-1.894 6.528 0 7.96 2.555 1.903 4.368 1.363 5 0 .659-1.361.054-6.74-.55-7.35zM62.622 34.998c.769-.775 2.142-1.62 4.45-.61 2.306 1.01 1.894 6.529 0 7.961-2.555 1.903-4.368 1.362-5 0-.659-1.362-.054-6.717.55-7.35z" fill="#FFDDCA"/>
        <path opacity=".5" d="M44.577 36.995c.824 0-2.5 4.063-1.868 7.257.192.916 2.28.657 2.884.704.632.047-.22.4-.824.446-.632.047-2.335-.023-2.582-.61-.714-1.668 1.785-7.797 2.39-7.797z" fill="#DD7F50"/>
        <path d="M32.272 33.26c.879-.304 3.186-.586 4.038-.492.851.094 1.208 0 1.07-.494-.164-.493-.933-.375-1.922-.328-.989.047-2.362.516-3.186.822-.824.328-.412.657 0 .493zM55.645 33.26c-.878-.304-3.186-.586-4.037-.492-.851.093-1.208 0-1.071-.494.165-.493.934-.375 1.922-.352.99.047 2.363.517 3.186.822.824.329.412.658 0 .517z" fill="#3F3832"/>
        <path opacity=".25" d="M34.661 41.222c0 .376-.906.658-2.005.658-1.098 0-2.005-.306-2.005-.658 0-.376.907-.657 2.005-.657 1.099 0 2.005.281 2.005.657zM57.403 41.199c0 .375-.907.657-2.005.657-1.099 0-2.005-.305-2.005-.657 0-.376.906-.658 2.005-.658 1.098 0 2.005.305 2.005.658z" fill="#FF3B3B"/>
        <path d="m88 94.722-88 .047s4.092-11.884 8.432-17.45c.412-.516.796-.986 1.181-1.385 1.044-1.08 3.24-2.02 5.85-2.819 4.312-1.338 9.723-2.278 12.882-2.77 1.593-.236 2.609-.377 2.609-.377s7.196 3.734 13.018 3.64c7.966-.117 12.992-3.663 12.992-3.663s.714.094 1.867.258c4.642.681 16.535 2.677 19.501 5.684C82.892 80.49 88 94.722 88 94.722z" fill="#49564A"/>
        <path d="M40.896 48.878c.77.235 3.543.728 5.383.118 1.84-.61.33.4-.521.61-.852.212-2.033.447-3.324.094-1.318-.328-1.895-.939-1.538-.822zM23.648 32.603l.742 1.715s7.195-1.01 8.267-3.805c1.098-2.795.934-4.368 3.708-5.848 2.774-1.48 12.661-1.456 14.117-.587 1.456.845 3.35 4.18 5.63 5.448 2.28 1.269 3.846.893 4.258 1.809.412.892 1.236 4.04 3.405 2.865 2.17-1.15-1.62-6.6-3.515-8.337-1.895-1.738-11.371-4.298-16.754-3.993-5.384.282-14.118 2.936-16.315 4.674-2.197 1.738-3.543 6.059-3.543 6.059z" fill="#3F3832"/>
        <path d="M61.935 13.227c-5.52-5.542-14.337-6.458-17.88-6.458-4.861 0-12.414.94-17.907 6.482-4.862 4.885-4.093 13.763-4.093 13.763 5.74-3.453 18.32-5.637 22-5.684 4.093-.047 16.26 2.208 22 5.66-.027 0 .742-8.877-4.12-13.762z" fill="#E2774D"/>
        <path d="M43.945 13.909c-6.51 0-5.41 4.157-4.752 4.532.66.376 3.543-.258 4.752-.258 1.18 0 4.092.634 4.751.258.66-.375 1.758-4.532-4.751-4.532z" fill="#3F3832"/>
        <path d="M41.803 15.364c.412-1.056 4.065-1.503 5.63-1.315 1.566.188 2.417-.234 2.665-.657.274-.423 1.18.986.44 2.113-.742 1.104.988-.61.74.165-.246.775.303 2.16-2.416 2.419-2.72.258-8.268.282-7.059-2.724z" fill="#3F3832"/>
    </g>
    <defs>
        <clipPath id="x891nhxuha">
            <path d="M0 44C0 19.7 19.7 0 44 0s44 19.7 44 44-19.7 44-44 44S0 68.3 0 44z" fill="#fff"/>
        </clipPath>
    </defs>
</svg>
