<svg width="96" height="96" viewBox="0 0 96 96" fill="none" xmlns="http://www.w3.org/2000/svg">
    <g clip-path="url(#rb1ahea2ta)">
        <path d="M0 48C0 21.49 21.49 0 48 0s48 21.49 48 48-21.49 48-48 48S0 74.51 0 48z" fill="#fff"/>
        <path d="M66.907 16.528s4.824-.75 6.232 2.812c1.408 3.562 2.187 13.445-.51 16.445-2.696 3-7.97 5.544-12.164 7.312-4.195 1.767-34.607-3.536-34.607-3.536s-3.386-9.374-3.116-15.105c.27-5.732 6.142-11.731 10.007-14.168 3.865-2.438 16.48-3.83 23.041-2.196 6.562 1.606 11.117 8.436 11.117 8.436z" fill="#996D3C"/>
        <path d="M75.715 82.36h-55.43S36.643 74.3 37.781 71.7c.48-1.07.81-3.615.99-6.213.03-.268.029-.536.059-.803.24-3.268.3-6.348.3-6.348h17.708s.06 3.08.3 6.347c.03.268.03.536.06.804.209 2.598.538 5.142.988 6.214 1.168 2.598 17.528 10.66 17.528 10.66z" fill="#F4BD98"/>
        <path opacity=".25" d="M57.229 65.487c-3.326 1.366-6.592 2.116-9.198 2.116-2.637 0-5.903-.75-9.199-2.116.03-.268.03-.536.06-.803.24-3.268.3-6.348.3-6.348H56.9s.06 3.08.3 6.347c-.03.268 0 .536.029.804z" fill="#DD7F50"/>
        <path d="M68.165 30.08C62.92 21.27 48 21.27 48 21.27s-14.921 0-20.165 8.811c-2.636 4.446-1.857 22.685 3.386 27.185 5.244 4.5 12.105 7.204 16.78 7.204 4.673 0 11.535-2.705 16.778-7.204 5.243-4.5 6.023-22.739 3.386-27.185z" fill="#F4BD98"/>
        <path d="M36.165 37.017c0 1.071.809 1.928 1.798 1.928s1.797-.857 1.797-1.928c0-1.072-.808-1.929-1.797-1.929-1.019.027-1.798.884-1.798 1.929zM56.42 37.017c0 1.071.809 1.928 1.798 1.928.988 0 1.797-.857 1.797-1.928 0-1.072-.809-1.929-1.797-1.929-1.019.027-1.798.884-1.798 1.929z" fill="#3F3832"/>
        <path d="M27.655 35.276c-.839-.884-2.337-1.848-4.854-.696-2.516 1.151-2.067 7.445 0 9.079 2.787 2.17 4.764 1.553 5.454 0 .689-1.553.06-7.66-.6-8.383zM68.345 35.276c.839-.884 2.337-1.848 4.854-.696 2.517 1.151 2.067 7.445 0 9.079-2.787 2.17-4.764 1.553-5.453 0-.69-1.553-.06-7.66.599-8.383z" fill="#F4BD98"/>
        <path opacity=".5" d="M48.69 37.553c.898 0-2.758 4.606-2.038 8.276.21 1.044 2.486.75 3.146.803.689.054-.24.455-.9.509-.688.053-2.546-.027-2.816-.696-.779-1.902 1.918-8.892 2.607-8.892z" fill="#DD7F50"/>
        <path d="M35.266 33.294c.958-.348 3.475-.67 4.404-.563.929.108 1.319 0 1.169-.562-.18-.562-1.02-.429-2.098-.375-1.078.054-2.577.59-3.475.937-.9.349-.48.724 0 .563zM60.734 33.294c-.959-.348-3.476-.67-4.404-.563-.93.108-1.319 0-1.169-.562.18-.562 1.019-.429 2.097-.375 1.08.054 2.577.59 3.476.937.929.349.48.724 0 .563z" fill="#3F3832"/>
        <path opacity=".25" d="M35.655 43.096c1.208 0 2.187-.335 2.187-.75 0-.414-.979-.75-2.187-.75-1.208 0-2.187.336-2.187.75 0 .415.979.75 2.187.75zM60.465 43.096c1.208 0 2.187-.335 2.187-.75 0-.414-.98-.75-2.187-.75-1.208 0-2.188.336-2.188.75 0 .415.98.75 2.188.75z" fill="#FF3B3B"/>
        <path d="M96 103.385H0s4.494-13.552 9.228-19.9c.45-.59.87-1.125 1.289-1.58 1.138-1.232 3.535-2.303 6.382-3.214 3.985-1.286 8.839-2.25 12.314-2.866.63-.107 1.199-.214 1.708-.294 1.738-.268 2.847-.429 2.847-.429s7.85 4.258 14.172 4.151c8.69-.133 14.172-4.15 14.172-4.15s.78.106 2.038.294c.749.107 1.678.267 2.696.455 5.963 1.044 15.82 3.133 18.547 6.053C90.427 87.155 96 103.385 96 103.385z" fill="#F9A61A"/>
        <path d="M44.645 51.078c.838.267 3.865.83 5.872.16 2.008-.67.36.456-.57.697-.928.24-2.216.508-3.625.107-1.438-.375-2.067-1.072-1.678-.964z" fill="#3F3832"/>
        <path d="M66.906 75.879c-4.824 6.08-18.517 8.463-26.037 6.508-6.053-1.58-10.098-5.035-11.626-6.535.63-.107 1.199-.214 1.708-.295 1.738-.267 2.846-.428 2.846-.428s7.85 4.258 14.173 4.151c8.689-.134 14.172-4.151 14.172-4.151s.78.107 2.038.294c.778.108 1.707.268 2.726.456zM33.588 93.529l-1.139 5.089h3.835l-1.078 4.767h7.58l2.218-9.856H33.588zM64.479 93.529h-16.69l-1.168 5.089h7.94l-3.895 2.999-.39 1.768h11.206c-.719-.777-1.767-1.393-3.026-1.768l5.124-3.937.899-4.151z" fill="#665431"/>
        <path d="M71.19 33.32s-1.588 1.42-3.146 1.42c-2.726.027-5.663-4.419-6.741-9.454 0 0-4.854-3.509-13.873-3.08-3.805.187-10.786 3.214-12.674 5.303-.989 1.098-3.805 5.437-6.172 6.535-1.468.67-2.547.723-3.746-.723-1.168-1.446 4.405-10.767 9.918-13.9 5.513-3.134 23.94-3.83 27.925-1.982 3.985 1.848 8.51 15.882 8.51 15.882z" fill="#996D3C"/>
        <path d="M61.214 21.162c-3.776 1.82-2.457 4.633-8.57 6.106-6.112 1.446-6.741-3.375-6.681-4.017.06-.643.629 2.008 4.075 2.089 3.445.08 3.325-4.473 6.292-6.107 2.936-1.634 6.502 1.125 4.884 1.929z" fill="#996D3C"/>
    </g>
    <defs>
        <clipPath id="rb1ahea2ta">
            <path d="M0 48C0 21.49 21.49 0 48 0s48 21.49 48 48-21.49 48-48 48S0 74.51 0 48z" fill="#fff"/>
        </clipPath>
    </defs>
</svg>
