<svg width="48" height="48" viewBox="0 0 48 48" fill="none" xmlns="http://www.w3.org/2000/svg">
    <path d="M37.528 21.464C37.528 13.994 31.422 8 23.97 8c-2.85 0-5.485.877-7.651 2.377m-5.78 11.087c0-2.642.416-4.596 1.712-6.67M9.069 22.982v-.807c0-.324.262-.586.586-.586h1.678a4.885 4.885 0 0 1 4.884 4.885v1.31c0 1.974-1.6 3.574-3.574 3.574v0H10.572c-.83 0-1.503-.673-1.503-1.503v0-1.37M38.931 22.982v-.807a.586.586 0 0 0-.586-.586h-1.678a4.885 4.885 0 0 0-4.884 4.885v1.31c0 1.974 1.6 3.574 3.574 3.574v0H37.428c.83 0 1.503-.673 1.503-1.503v0-1.37" stroke="#fff" stroke-width="3" stroke-linecap="round"/>
    <path d="M14.881 12.32c0 .554-.464 1.003-1.035 1.003-.572 0-1.036-.449-1.036-1.002 0-.554.464-1.002 1.036-1.002.571 0 1.035.448 1.035 1.002zM8 25.66c0 .519.434.94.969.94.535 0 .968-.421.968-.94 0-.519-.433-.94-.968-.94-.535 0-.969.421-.969.94zM40 25.66c0 .519-.434.94-.969.94-.535 0-.968-.421-.968-.94 0-.519.433-.94.968-.94.535 0 .97.421.97.94z" fill="#fff"/>
    <rect x="20.159" y="36.43" width="7.683" height="3.57" rx="1.785" stroke="#fff" stroke-width="3"/>
    <path d="M37.528 30.444v2.827a5 5 0 0 1-5 5h-5.363" stroke="#fff" stroke-width="3"/>
</svg>
