<svg width="48" height="48" viewBox="0 0 48 48" fill="none" xmlns="http://www.w3.org/2000/svg">
    <path fill-rule="evenodd" clip-rule="evenodd" d="M9.15 21.172 21.172 9.157a3.976 3.976 0 0 1 3.047-1.15H24a4 4 0 0 1 4 3.998v1a1 1 0 0 1-2 0v-1a2 2 0 0 0-2-2l-.008-.02a1.993 1.993 0 0 0-1.406.585L10.565 22.587a1.998 1.998 0 0 0 0 2.827l12.02 12.016c.39.388.898.583 1.408.585l.007-.02a2 2 0 0 0 2-2v-1.999a4 4 0 0 1 4-3.998h6a2 2 0 0 0 2-2v-7.997a2 2 0 0 0-2-1.999h-1a1 1 0 1 1 0-1.999h1a4 4 0 0 1 4 3.999v7.997a4 4 0 0 1-4 3.998h-6a2 2 0 0 0-2 2v1.998a4 4 0 0 1-4 3.999h.217a3.976 3.976 0 0 1-3.046-1.15L9.151 26.826A3.964 3.964 0 0 1 8 24c0-1.023.37-2.047 1.15-2.828zM29 18.002a1 1 0 1 1 0-2 1 1 0 0 1 0 2z" fill="#000"/>
</svg>
