<svg width="24" height="24" viewBox="0 0 24 24" fill="none" xmlns="http://www.w3.org/2000/svg">
    <g clip-path="url(#k2w5odvp7a)">
        <path d="M23.5 12.264c0-.781-.065-1.567-.203-2.336H12.231v4.428h6.337a5.318 5.318 0 0 1-2.345 3.495v2.873h3.78c2.22-2.003 3.497-4.96 3.497-8.46z" fill="#4285F4"/>
        <path d="M12.232 23.5c3.164 0 5.832-1.018 7.776-2.776l-3.78-2.873c-1.052.701-2.41 1.098-3.992 1.098-3.06 0-5.656-2.024-6.587-4.745H1.748v2.962C3.74 21.049 7.796 23.5 12.232 23.5z" fill="#34A853"/>
        <path d="M5.645 14.204a6.76 6.76 0 0 1 0-4.403V6.839H1.748a11.306 11.306 0 0 0 0 10.327l3.897-2.962z" fill="#FBBC04"/>
        <path d="M12.232 5.052a6.446 6.446 0 0 1 4.5 1.724l3.35-3.284a11.402 11.402 0 0 0-7.85-2.991C7.796.5 3.74 2.95 1.748 6.839l3.897 2.962c.927-2.725 3.526-4.75 6.587-4.75z" fill="#EA4335"/>
    </g>
    <defs>
        <clipPath id="k2w5odvp7a">
            <path fill="#fff" transform="translate(.5 .5)" d="M0 0h23v23H0z"/>
        </clipPath>
    </defs>
</svg>
