<svg width="676" height="632" viewBox="0 0 676 632" fill="none" xmlns="http://www.w3.org/2000/svg">
    <path d="m51.408 483.458-30.31 4.737A98.985 98.985 0 0 1 .492 445.256c22.164 18.143 55.869 8.502 82.744 18.407a59.545 59.545 0 0 1 35.62 37.343l14.814 15.938a99.776 99.776 0 0 1-83.411-4.593 96.328 96.328 0 0 1-19.64-14.099c10.605-6.678 20.788-14.794 20.788-14.794z" fill="#F2F2F2"/>
    <path d="m62.169 434.981-29.243-9.279a98.985 98.985 0 0 1 .709-47.621c11.746 26.123 46.213 32.526 65.85 53.377a59.552 59.552 0 0 1 15.228 49.31l6.15 20.871a99.766 99.766 0 0 1-72.608-41.31 96.364 96.364 0 0 1-11.291-21.378c12.471-1.247 25.205-3.97 25.205-3.97z" fill="#F2F2F2"/>
    <path d="M.33 526.598a1.182 1.182 0 0 0 .734 1.101c.145.059.3.09.456.089h673.29a1.188 1.188 0 0 0 .841-2.031 1.19 1.19 0 0 0-.841-.349H1.52a1.189 1.189 0 0 0-1.19 1.19z" fill="#CCC"/>
    <path d="M397.002 475.866c-118.741 0-215-96.259-215-215s96.259-215 215-215 215 96.259 215 215-96.259 215-215 215z" fill="#E6E6E6"/>
    <path d="M212.002 260.866a184.74 184.74 0 0 0 74.67 148.51c1.55 1.16 3.13 2.29 4.72 3.39a185.03 185.03 0 0 0 211.22 0c1.59-1.1 3.17-2.23 4.72-3.39a185.028 185.028 0 0 0 54.952-231.623 185.024 185.024 0 0 0-54.952-65.397c-1.55-1.16-3.13-2.29-4.72-3.39a185.031 185.031 0 0 0-211.22 0c-1.59 1.1-3.17 2.23-4.72 3.39a184.74 184.74 0 0 0-74.67 148.51z" fill="#fff"/>
    <path d="M397.002 429.866c-93.336 0-169-75.664-169-169s75.664-169 169-169 169 75.664 169 169-75.664 169-169 169z" fill="#F2A88D"/>
    <path opacity=".2" d="M396.562 92.338c2.562 0 5.108.067 7.642.18A168.992 168.992 0 0 0 250.04 264.45a168.993 168.993 0 0 0 161.32 165.236 171.18 171.18 0 0 1-14.798.652 168.997 168.997 0 0 1-169-169 169 169 0 0 1 169-169z" fill="#000"/>
    <path d="M396.502 79.866a5.509 5.509 0 0 1 5.5 5.5v24a5.496 5.496 0 0 1-5.5 5.5 5.496 5.496 0 0 1-5.5-5.5v-24a5.511 5.511 0 0 1 5.5-5.5zM286.672 112.356c1.55-1.16 3.13-2.29 4.72-3.39a5.5 5.5 0 0 1 4.9 2.39l13.51 19.83a5.497 5.497 0 0 1-5.57 8.497 5.5 5.5 0 0 1-3.52-2.307l-13.51-19.83a5.463 5.463 0 0 1-.53-5.19zM225.292 202.776a5.5 5.5 0 0 1 5.055-3.425 5.48 5.48 0 0 1 2.105.405l22.24 9.03a5.499 5.499 0 0 1-4.14 10.19l-22.24-9.03a5.515 5.515 0 0 1-3.02-7.17zM484.202 131.186l13.51-19.83a5.503 5.503 0 0 1 4.9-2.39c1.59 1.1 3.17 2.23 4.72 3.39a5.464 5.464 0 0 1-.53 5.19l-13.51 19.83a5.501 5.501 0 0 1-7.64 1.45 5.5 5.5 0 0 1-1.45-7.64zM539.313 208.786l22.24-9.03a5.498 5.498 0 0 1 4.14 10.19l-22.24 9.03a5.5 5.5 0 0 1-4.14-10.19zM396.502 406.866a5.51 5.51 0 0 1 5.5 5.5v24a5.496 5.496 0 0 1-5.5 5.5 5.496 5.496 0 0 1-5.5-5.5v-24a5.51 5.51 0 0 1 5.5-5.5zM287.202 404.186l13.51-19.83a5.484 5.484 0 0 1 3.52-2.307 5.492 5.492 0 0 1 5.624 2.387c.396.604.669 1.28.803 1.99a5.492 5.492 0 0 1-.857 4.12l-13.51 19.83a5.5 5.5 0 0 1-4.9 2.39c-1.59-1.1-3.17-2.23-4.72-3.39a5.463 5.463 0 0 1 .53-5.19zM228.313 311.786l22.24-9.03a5.498 5.498 0 0 1 4.14 10.19l-22.24 9.03a5.5 5.5 0 0 1-4.14-10.19zM485.652 382.906a5.498 5.498 0 0 1 7.64 1.45l13.51 19.83a5.468 5.468 0 0 1 .53 5.19c-1.55 1.16-3.13 2.29-4.72 3.39a5.5 5.5 0 0 1-4.9-2.39l-13.51-19.83a5.505 5.505 0 0 1-.054-6.11 5.49 5.49 0 0 1 1.504-1.53zM536.292 305.776a5.5 5.5 0 0 1 5.055-3.425 5.48 5.48 0 0 1 2.105.405l22.24 9.03a5.499 5.499 0 0 1-4.14 10.19l-22.24-9.03a5.515 5.515 0 0 1-3.02-7.17z" fill="#fff"/>
    <path d="M389.366 258.137a11.516 11.516 0 0 0 9.409 13.265l97.598 16.602a11.504 11.504 0 0 0 11.665-5.217 11.493 11.493 0 0 0 1.476-8.677 11.503 11.503 0 0 0-9.284-8.781l-97.598-16.601a11.512 11.512 0 0 0-13.266 9.409z" fill="#3F3D56"/>
    <path d="M286.647 366.268a7.509 7.509 0 0 0 10.607.042l105.063-104.239a7.506 7.506 0 0 0 2.212-5.294 7.502 7.502 0 0 0-12.777-5.355L286.689 355.661a7.508 7.508 0 0 0-.042 10.607z" fill="#3F3D56"/>
    <path d="M397.002 273.866c-7.18 0-13-5.82-13-13s5.82-13 13-13 13 5.82 13 13-5.82 13-13 13z" fill="#CCC"/>
    <path d="M486.546 35.445c19.955 31.372 50.401 52.193 87.949 65.87a7.06 7.06 0 0 0 7.833.422 7.065 7.065 0 0 0 2.049-1.84c20.396-27.233 15.791-66.153-11.128-86.962a62.065 62.065 0 0 0-69.341-4.389 62.072 62.072 0 0 0-18.217 16.264l-.564.753a7.063 7.063 0 0 0-.421 7.832 7.061 7.061 0 0 0 1.84 2.05zM308.313 24.81a62.068 62.068 0 0 0-87.558-11.875c-26.918 20.809-31.523 59.73-11.128 86.962a7.056 7.056 0 0 0 7.398 2.607 7.045 7.045 0 0 0 2.484-1.189c34.857-13.345 63.442-36.44 87.95-65.87a7.06 7.06 0 0 0 1.418-9.882l-.564-.753zM317.059 447.134a5.51 5.51 0 0 1 2.114 7.486l-31.742 56.722a5.5 5.5 0 0 1-9.599-5.371l31.742-56.723a5.508 5.508 0 0 1 7.485-2.114zM484.431 449.248l31.742 56.722a5.502 5.502 0 0 1-2.114 7.485 5.497 5.497 0 0 1-7.485-2.113l-31.742-56.722a5.506 5.506 0 0 1 .481-6.094 5.503 5.503 0 0 1 5.813-1.886 5.494 5.494 0 0 1 3.305 2.608z" fill="#E6E6E6"/>
    <path d="M281.002 525.866c-9.389 0-17-7.611-17-17s7.611-17 17-17 17 7.611 17 17-7.611 17-17 17zM269.002 90.866c-9.389 0-17-7.611-17-17s7.611-17 17-17 17 7.611 17 17-7.611 17-17 17zM398.002 50.866c-9.389 0-17-7.611-17-17s7.611-17 17-17 17 7.611 17 17-7.611 17-17 17zM521.002 88.866c-9.389 0-17-7.611-17-17s7.611-17 17-17 17 7.611 17 17-7.611 17-17 17zM510.002 525.866c-9.389 0-17-7.611-17-17s7.611-17 17-17 17 7.611 17 17-7.611 17-17 17z" fill="#E6E6E6"/>
    <path d="M294.337 356.707a8.518 8.518 0 0 1-12.951 1.677l-26.675 14.293 1.431-15.661 25.112-11.172a8.559 8.559 0 0 1 11.366-.38 8.564 8.564 0 0 1 1.717 11.243z" fill="#FFB7B7"/>
    <path d="m274.9 362.173-10.453-14.43-50.36 23.806-62.667-11.758a21.476 21.476 0 0 0-17.655 4.567 21.484 21.484 0 0 0-7.775 16.496 21.492 21.492 0 0 0 21.431 21.51l71.816.133 55.663-40.324z" fill="#3F3D56"/>
    <path d="m291.001 611.399 10.577-5.058-14.529-44.208-15.609 7.466 19.561 41.8zM220.095 604.272a283.565 283.565 0 0 0 9.346 5.594v.023l.046.008.016.008 1.196.295 1.717-4.537.793-2.09 1.118-2.96 2.051-5.415 10.799-28.511-16.789-4.141-.629 2.572h-.008l-.31 1.274-5.866 23.788-1.196 4.863-.039.148-.722 2.905-.622 2.517-.691 2.813-.21.846z" fill="#FFB7B7"/>
    <path d="M119.946 504.147a316.247 316.247 0 0 0 3.248 5.097 293.422 293.422 0 0 0 6.269 9.275c0 .008.008.008.016.016a21.88 21.88 0 0 0 4.117 3.006c.062.047.132.078.194.117a15.242 15.242 0 0 0 3.465 1.391l1.313.326c1.569.373 3.123.691 4.669.971 2.75.489 5.469.839 8.173 1.056.217.024.435.039.652.055 11.117.816 21.939-.497 33.235-2.649 5.578-1.057 11.272-2.323 17.169-3.636 1.926-.435 3.861-.862 5.819-1.29.147-.031.303-.07.458-.101 2.797-.613 5.64-1.219 8.553-1.818a409.425 409.425 0 0 1 11.381-2.175l-.279 5.539a41.722 41.722 0 0 1-2.626 12.454c-1.678 4.909-3.006 8.794-.202 16.881l1.352 3.916a13.374 13.374 0 0 0 1.375 11.831l.272.412-11.273 28.519-.73 1.849h5.772l7.101.008h12.034l17.363-34.835.831-1.663v-.085l-1.795-66.943a19.716 19.716 0 0 0-.147-1.779 20.348 20.348 0 0 0-7.746-13.704 19.603 19.603 0 0 0-14.597-3.994l-5.943.77-12.143 1.569-8.553 1.111-.171.023-25.225 3.263-1.81-7.38-.334-.125-10.62-3.892-36.731-13.463-.093-.031-2.416-.886-.287.466c-.086.14-.171.28-.249.42a72.012 72.012 0 0 0-5.803 13.471 211.677 211.677 0 0 0-6.285 24.215l-.023.086c-.024.132-.039.217-.047.24-.847 3.527-.256 7.831 1.297 12.096z" fill="#2F2E41"/>
    <path d="M118.396 479.477c.117-.498.264-1.003.42-1.492a106.159 106.159 0 0 1 4.304-10.892c1.833-4.039 4.032-8.367 6.65-13.051a291.696 291.696 0 0 1 6.362-10.83c.031-.058.065-.115.101-.171l.225-.373 36.343 4.864 13.533 1.81.808 6.743.194 1.67c.008 0 .008 0 0 .008l.544 4.553v.007l.722 6.013.062-.007 20.083-2.603 20.695-2.68 11.118-1.437a19.571 19.571 0 0 1 7.699.53 19.574 19.574 0 0 1 6.898 3.463 20.36 20.36 0 0 1 7.745 13.704c.07.544.117 1.103.14 1.655l10.488 24.852a160.313 160.313 0 0 1 11.855 46.643l7.691 24.588-1.095.101-16.299 1.515-4.304.404-9.478-13.836a73.294 73.294 0 0 1-3.061-4.863 73.91 73.91 0 0 1-4.187-8.422l-20.502-48.787c-1.585.272-3.154.531-4.707.777a419.862 419.862 0 0 1-20.696 2.851c-21.496 2.4-40.11 2.587-56.681.551a154.335 154.335 0 0 1-13.494-2.237 129.91 129.91 0 0 1-4.716-1.08 43.68 43.68 0 0 1-1.08-.264 19.824 19.824 0 0 1-13.867-12.958 20.224 20.224 0 0 1-.513-11.319zM287.622 604.18l11.443-5.484 1.795-.863 2.867 7.039 20.012 4.405a4.742 4.742 0 0 1 3.714 4.231 4.742 4.742 0 0 1-.68 2.884 4.744 4.744 0 0 1-2.257 1.92l-19.554 7.978-6.207-5.585 1.522 7.496-7.364 3.007-8.072-25.691 2.781-1.337zM217.297 593.34l-.731 1.849h.731v-1.849zM221.282 595.584l11.99 4.155 1.882.649-2.915 7.019 11.121 17.211a4.749 4.749 0 0 1-5.806 6.967l-19.508-8.09-.48-8.336-4.193 6.398-7.349-3.045 12.341-23.935 2.917 1.007z" fill="#2F2E41"/>
    <path d="M121.386 490.732a4.395 4.395 0 0 0 2.043-.507l63.275-33.062.731-2.993 1.377-9.472-.018-.089-6.018-27.743c.11-.238.341-.629.601-1.07 2.687-4.552 10.862-18.406-4.741-37.481l-27.396-31.939-23.512-1.012-.268.338a61.238 61.238 0 0 0-10.41 56.889l2.448 44.216-2.626 8.93a24.639 24.639 0 0 0 .722 15.944l-.602 14.459a4.408 4.408 0 0 0 2.67 4.233 4.408 4.408 0 0 0 1.724.359z" fill="#3F3D56"/>
    <path d="M176.272 527.198a8.51 8.51 0 0 1-4.071-5.946 8.528 8.528 0 0 1 1.945-6.938l-15.213-26.163 15.702.885 12.039 24.709a8.56 8.56 0 0 1-4.413 14.523 8.559 8.559 0 0 1-5.989-1.07z" fill="#FFB7B7"/>
    <path d="m170.134 507.964 14.057-10.95-25.543-49.501 9.571-63.038a21.472 21.472 0 0 0-21.934-24.682 21.488 21.488 0 0 0-14.96 6.792 21.488 21.488 0 0 0-5.792 15.374l2.364 71.778 42.237 54.227z" fill="#3F3D56"/>
    <path d="M166.322 333.104v-23.267a31.175 31.175 0 0 0-53.208-22.079 31.178 31.178 0 0 0-9.146 22.039v.04c-5.495 11.451-2.057 16.895 0 23.267a4.195 4.195 0 0 0 4.186 4.186h53.98a4.19 4.19 0 0 0 4.188-4.186z" fill="#2F2E41"/>
    <path d="M145.368 335.778c-12.889 0-23.337-10.448-23.337-23.337 0-12.888 10.448-23.337 23.337-23.337s23.337 10.449 23.337 23.337c0 12.889-10.448 23.337-23.337 23.337z" fill="#FFB7B7"/>
    <path d="M120.945 318.559c.211-.033.422-.078.634-.111 3.64-.646 7.281-1.28 10.91-1.937l.334-8.227 4.397 7.37c10.03 3.328 19.414 1.447 28.242-2.705a79.707 79.707 0 0 0 8.461-4.665 30.935 30.935 0 0 0-15.196-21.886 21.485 21.485 0 0 0-.99-.523l-.005-.001-.003-.002-.003-.004-.001-.004a33.764 33.764 0 0 0-1.725-.757 25.711 25.711 0 0 0-26.985 5.232c-7.124 6.802-10.33 18.034-8.07 28.22z" fill="#2F2E41"/>
</svg>
