<svg width="48" height="48" viewBox="0 0 48 48" fill="none" xmlns="http://www.w3.org/2000/svg">
<path fill-rule="evenodd" clip-rule="evenodd" d="M34.0003 10.2509V10.3138V12.7496C34.0003 13.4405 34.5606 13.9996 35.2504 13.9996H37.6876H37.7505C38.4402 13.9996 39.0011 14.5602 39.0011 15.2499C39.0011 15.9409 38.4402 16.5002 37.7505 16.5002H34.6253C32.9865 16.5002 31.6552 15.2331 31.5247 13.627C31.518 13.5428 31.4997 13.4616 31.4997 13.3747V10.2509C31.4997 9.55961 32.0606 9.00055 32.7497 9.00055C33.4406 9.00055 34.0003 9.55969 34.0003 10.2509ZM13.9997 25.2495C13.9997 24.5605 14.5588 23.9995 15.2497 23.9995C15.9395 23.9995 16.4997 24.5605 16.4997 25.2495C16.4997 25.9405 15.9394 26.5002 15.2497 26.5002C14.5588 26.5002 13.9997 25.9405 13.9997 25.2495ZM24 34.0007C21.2827 34.0007 18.8241 32.9149 17.0216 31.1559C16.7427 30.927 16.5591 30.5821 16.5591 30.1915C16.5591 29.5018 17.1188 28.9416 17.8078 28.9416C18.1539 28.9416 18.4652 29.0813 18.6923 29.3083L18.6966 29.304C20.0534 30.6627 21.9284 31.5 24.0001 31.5C27.7826 31.5 30.8996 28.6986 31.4155 25.0591L31.4252 25.0603C31.5333 24.3847 32.1601 23.9153 32.8395 24.0136C33.5225 24.113 33.9962 24.7466 33.8979 25.4309C33.8881 25.4968 33.8698 25.5591 33.8503 25.6213C33.0738 30.3721 28.9696 34.0007 24 34.0007ZM42.7499 26.5002C42.0602 26.5002 41.5012 25.9405 41.5012 25.2495C41.5012 24.5605 42.0602 23.9995 42.7499 23.9995C43.4409 23.9995 44 24.5605 44 25.2495C44 25.9405 43.4409 26.5002 42.7499 26.5002ZM36.5004 44H11.4996C7.3582 44 4 40.6424 4 36.4995V23.9995C4 21.2387 6.2382 19.0002 8.99891 19.0002H9.62453H13.9996C14.8181 19.0002 15.5457 18.6065 16.0029 17.9967C16.0139 17.9827 16.0279 17.9745 16.0407 17.9631C17.8651 15.5569 20.7466 13.9995 23.9999 13.9995C27.2527 13.9995 30.1347 15.5569 31.9591 17.9631C31.972 17.9745 31.986 17.9827 31.997 17.9967C32.4541 18.6065 33.1817 19.0002 34.0002 19.0002H39.001C40.381 19.0002 41.5011 17.8805 41.5011 16.5002V16.0402V13.9995V11.5009C41.5011 8.73844 39.2616 6.50031 36.5003 6.50031H11.4996C8.73828 6.50031 6.50008 8.73844 6.50008 11.5009V13.9996V15.2499C6.50008 15.9409 5.93977 16.5002 5.25008 16.5002C4.55914 16.5002 4.00008 15.9409 4.00008 15.2499V11.5009C4 7.35813 7.3582 4 11.4996 4H36.5004C40.6417 4 44 7.35813 44 11.5009V15.2499V16.5002C44 19.2611 41.7618 21.5005 39.0011 21.5005H34.0003C32.3657 21.5005 30.9155 20.7159 30.003 19.5034C29.9956 19.4937 29.9859 19.4921 29.9791 19.4839C28.6126 17.6718 26.4457 16.5002 24 16.5002C21.5555 16.5002 19.3856 17.6718 18.0208 19.4839C18.0134 19.4921 18.0037 19.4937 17.997 19.5034C17.0856 20.7159 15.6342 21.5005 13.9996 21.5005H8.99883C7.61875 21.5005 6.5 22.6189 6.5 23.9995V36.4995C6.50008 39.2619 8.73828 41.5 11.4996 41.5H36.5004C39.2617 41.5 41.5012 39.2619 41.5012 36.4995V30.2501C41.5012 29.5591 42.0602 29.0002 42.7499 29.0002C43.4409 29.0002 44 29.5591 44 30.2501V36.4995C44 40.6424 40.6417 44 36.5004 44Z" fill="#444444"/>
</svg>
