<svg width="32" height="32" viewBox="0 0 32 32" fill="none" xmlns="http://www.w3.org/2000/svg">
    <path fill-rule="evenodd" clip-rule="evenodd" d="M16.003 14.341c.491 0 .89.374.89.833 0 .46-.399.834-.89.834-1.964 0-3.557-1.493-3.557-3.333s1.593-3.332 3.557-3.332c1.965 0 3.556 1.492 3.556 3.332 0 .46-.398.833-.888.833-.491 0-.89-.373-.89-.833 0-.92-.796-1.666-1.778-1.666s-1.779.745-1.779 1.666c0 .92.797 1.666 1.779 1.666zm8.702 4.1a843.08 843.08 0 0 0-5.784 8.68c-1.941 2.95-3.881 2.95-5.821 0a913.897 913.897 0 0 0-5.636-8.458 9.576 9.576 0 0 1-2.128-5.97c0-.007-.003-.011-.003-.018 0-.46.398-.833.89-.833.49 0 .889.373.889.833h.011a7.892 7.892 0 0 0 .753 3.364c.02.044.042.086.064.13.227.459.498.899.817 1.32a722.21 722.21 0 0 1 4.734 7.12c.838 1.275 1.675 3.063 2.512 3.062.837 0 1.674-1.787 2.51-3.063a751.204 751.204 0 0 1 4.728-7.109c.329-.433.61-.886.84-1.358.013-.03.029-.057.042-.085 1.45-3.058.844-6.764-1.832-9.271-3.474-3.255-9.103-3.255-12.575 0l-.004-.004a.92.92 0 0 1-.628.245c-.491 0-.889-.374-.889-.834 0-.23.099-.439.26-.589l-.007-.006c4.17-3.907 10.928-3.907 15.098 0 3.734 3.497 4.113 8.938 1.159 12.843zM6.666 10.592c-.49 0-.888-.374-.888-.834 0-.46.397-.833.888-.833.492 0 .89.373.89.833 0 .46-.398.834-.89.834z" fill="#231F20"/>
</svg>
