<svg width="48" height="48" viewBox="0 0 48 48" fill="none" xmlns="http://www.w3.org/2000/svg">
    <path fill-rule="evenodd" clip-rule="evenodd" d="M24 40h-1a1 1 0 1 1 0-2h1c7.732 0 14-6.268 14-14s-6.268-14-14-14-14 6.268-14 14c0 4.58 2.21 8.635 5.61 11.188l-.011.015a.997.997 0 1 1-1.196 1.594l-.003.004C10.515 33.88 8 29.234 8 24c0-8.837 7.163-16 16-16 8.836 0 16 7.163 16 16 0 8.836-7.164 16-16 16zm-5-2a1 1 0 1 1 0 1.999A1 1 0 0 1 19 38zm4-24a1 1 0 0 1 1 1v9.422l5.562 3.212a1 1 0 1 1-1 1.731l-6.062-3.5c-.007-.003-.014-.01-.022-.015a.99.99 0 0 1-.099-.072.655.655 0 0 1-.14-.136c-.018-.02-.034-.037-.048-.059a1.014 1.014 0 0 1-.06-.099c-.013-.021-.026-.042-.037-.065a1.22 1.22 0 0 1-.064-.188c-.008-.03-.012-.06-.017-.091a.887.887 0 0 1-.01-.108c0-.01-.003-.021-.003-.032V15a1 1 0 0 1 1-1z" fill="#231F20"/>
</svg>
