<svg width="48" height="48" viewBox="0 0 48 48" fill="none" xmlns="http://www.w3.org/2000/svg">
<path fill-rule="evenodd" clip-rule="evenodd" d="M35.8118 14H31.7509C30.8527 14 30.1259 14.5591 30.1259 15.25V17.7503C30.1259 18.44 30.8527 18.9991 31.7509 18.9991H36.4188C38.7198 18.9991 40.2179 20.5099 39.7767 22.3205L38.8642 26.0641C38.4651 27.7054 36.4442 29.0005 34.3399 29.0005H31.7509C30.8527 29.0005 30.1259 29.5596 30.1259 30.2493V40.8755C30.1259 42.6009 28.3057 43.9992 26.0626 43.9992C26.0316 44.001 23.3791 43.9992 22.0001 43.9992C21.1035 43.9992 20.3743 43.4401 20.3743 42.7492C20.3743 42.0595 21.1035 41.4992 22.0001 41.4992H25.2501C26.1483 41.4992 26.8751 40.9401 26.8751 40.2505V29.6255C26.8751 27.8988 28.6937 26.4999 30.9384 26.4999H33.875C34.7208 26.4999 35.5865 25.9805 35.8118 25.3256L36.6734 22.8293C36.925 22.102 36.3878 21.4994 35.4697 21.4994H30.9383C28.6936 21.4994 26.875 20.1008 26.875 18.3741V14.625C26.875 12.8983 28.6936 11.4998 30.9383 11.4998H34.9992C35.8974 11.4998 36.6242 10.9404 36.6242 10.2495V7.74906C36.6242 7.05969 35.8974 6.50031 34.9992 6.50031H28.5008C24.013 6.50031 20.3742 9.29789 20.3742 12.7497V18.3741C20.3742 20.1007 18.5564 21.4993 16.3133 21.4993H13.9139C12.9959 21.4993 12.25 22.102 12.25 22.8292V25.3255C12.25 25.9805 12.9355 26.4998 13.7805 26.4998H16.3133C18.5564 26.4998 20.3742 27.8987 20.3742 29.6255V32.7491C20.3742 33.4401 19.6474 33.9998 18.7508 33.9998C17.8526 33.9998 17.1258 33.4401 17.1258 32.7491V30.2492C17.1258 29.5595 16.3974 29.0005 15.5008 29.0005H12.8094C10.7051 29.0005 9 27.7053 9 26.0641V22.3205C9 20.5098 10.8654 18.999 13.1664 18.999H15.5007C16.3973 18.999 17.1257 18.4399 17.1257 17.7502V12.1246C17.1259 7.63711 21.8541 4 27.6876 4H35.8118C38.0565 4 39.8751 5.39859 39.8751 7.12406V10.8744C39.8751 12.601 38.0565 14 35.8118 14ZM18.7509 36.4998C19.6475 36.4998 20.3743 37.0589 20.3743 37.7498C20.3743 38.4395 19.6475 39.0005 18.7509 39.0005C17.8527 39.0005 17.1259 38.4395 17.1259 37.7498C17.1259 37.0589 17.8527 36.4998 18.7509 36.4998Z" fill="white"/>
</svg>
