<svg width="48" height="48" viewBox="0 0 48 48" fill="none" xmlns="http://www.w3.org/2000/svg">
    <path fill-rule="evenodd" clip-rule="evenodd" d="M42.393 27.547c-.042.039-.087.07-.13.108l-15.2 11.426a5.339 5.339 0 0 1-3.005.919c-2.793 0-5.057-2.07-5.057-4.626v-2.232c0-1.38.672-2.611 1.729-3.45 1.832-1.363 3.527-2.626 4.853-3.614 1.228-1.159 1.22-3.01-.032-4.157a3.075 3.075 0 0 0-.258-.212c-.02-.015-.03-.028-.049-.042l-14.737-10.97a2.713 2.713 0 0 0-1.437-.411c-1.419 0-2.57 1.05-2.57 2.347v22.732c0 1.297 1.151 2.349 2.57 2.349.53 0 1.017-.155 1.427-.406.053-.038.108-.08.16-.12l.004.006c.223-.186.515-.301.84-.301.69 0 1.25.51 1.25 1.143 0 .398-.227.75-.566.953l-.122.092A5.328 5.328 0 0 1 9.059 40C6.265 40 4 37.93 4 35.374v-22.75C4 10.071 6.265 8 9.06 8a5.32 5.32 0 0 1 3.013.925l15.192 11.421c.042.036.087.068.128.105 2.144 1.96 2.144 5.137 0 7.096-.041.038-.084.069-.125.104l-4.898 3.682c-.468.478-.87 1.03-.87 1.72v2.312c0 1.297 1.15 2.349 2.568 2.349.529 0 1.015-.153 1.423-.4l15.093-11.236c1.228-1.159 1.22-3.01-.033-4.157a3.396 3.396 0 0 0-.257-.212c-.02-.015-.031-.028-.05-.041L25.508 10.697a2.717 2.717 0 0 0-1.44-.411c-1.103 0-2.035.64-2.399 1.533l-.013-.004c-.174.439-.63.756-1.171.756-.69 0-1.25-.512-1.25-1.144 0-.13.027-.255.073-.371h-.002l.006-.011c.02-.052.044-.1.072-.148C20.136 9.202 21.935 8 24.058 8a5.32 5.32 0 0 1 3.015.925l15.192 11.421c.042.036.087.068.128.105 2.143 1.96 2.143 5.137 0 7.096zM15.25 34.285c.69 0 1.25.512 1.25 1.143 0 .632-.56 1.143-1.25 1.143s-1.249-.511-1.249-1.143c0-.63.56-1.143 1.249-1.143z" fill="#000"/>
</svg>
