<svg width="49" height="48" viewBox="0 0 49 48" fill="none" xmlns="http://www.w3.org/2000/svg">
    <path fill-rule="evenodd" clip-rule="evenodd" d="M15.206 27.366A1 1 0 0 1 13.84 27c-.017-.03-.027-.06-.041-.09a9.913 9.913 0 0 1-1.3-4.91c0-3.662 1.978-6.855 4.912-8.597.03-.02.056-.044.09-.063a1 1 0 0 1 1 1.732h-.002l.003.005A7.99 7.99 0 0 0 14.5 22c0 1.458.396 2.82 1.078 3.997l-.006.003a1 1 0 0 1-.366 1.366zM22.5 14A1 1 0 1 1 22.499 12a1 1 0 0 1 .001 2zm16.828 24.83a3.998 3.998 0 0 1-5.656 0l-2.679-2.679c-1.839-1.838-1.762-3.284-.91-4.568C33.066 28.597 34.5 25.823 34.5 22c0-6.627-5.372-12-12-12s-12 5.373-12 12 5.372 12 12 12a1 1 0 1 1 0 2c-7.732 0-14-6.269-14-14 0-7.732 6.268-14 14-14a13.957 13.957 0 0 1 10.828 5.127c.125.152.235.317.355.475.157.208.317.415.462.628.128.193.242.395.36.595.116.19.235.378.34.574.114.21.21.43.312.647.094.198.194.394.276.595.087.21.158.427.236.642.077.216.16.432.227.65.066.22.117.446.172.67.055.218.117.436.16.656.051.257.082.52.12.783.027.19.063.382.082.573.045.455.07.918.07 1.385 0 .401-.023.804-.057 1.205-.01.117-.025.233-.037.35-.034.306-.078.61-.132.915-.02.104-.035.21-.056.313-.077.387-.171.77-.28 1.149-.027.087-.057.171-.085.259a13.837 13.837 0 0 1-1.086 2.542A13.988 13.988 0 0 1 32.4 31.9c-1.136 1.135-1.087 1.741 0 2.828l2.66 2.661a2.001 2.001 0 0 0 2.83-2.828l-2.131-2.131c-.01-.009-.02-.01-.03-.02a1.002 1.002 0 0 1 1.416-1.414c.003.003.003.006.006.01l.006-.006 2.172 2.172a4 4 0 0 1 0 5.656zM26.5 34A1 1 0 1 1 26.5 36a1 1 0 0 1 0-2z" fill="#231F20"/>
</svg>
