<svg width="49" height="48" viewBox="0 0 49 48" fill="none" xmlns="http://www.w3.org/2000/svg">
    <path fill-rule="evenodd" clip-rule="evenodd" d="M15.75 33.142c-.69 0-1.25-.511-1.25-1.143 0-.63.56-1.142 1.25-1.142S17 31.368 17 32c0 .632-.56 1.143-1.25 1.143zM39.725 40a5.095 5.095 0 0 1-2.232-.516L16.675 27.763a4.77 4.77 0 0 1-.71-.53c-.977-.894-1.466-2.064-1.465-3.234V12.571c0-1.262-1.12-2.285-2.5-2.285H9.5c-1.381 0-2.5 1.023-2.5 2.285v22.857c0 1.262 1.119 2.286 2.5 2.286H12c1.088 0 2.002-.64 2.348-1.526l.013.005c.171-.445.63-.765 1.175-.765.689 0 1.25.511 1.25 1.143 0 .134-.03.263-.077.383h.001l-.005.01c-.017.042-.037.081-.058.12C15.92 38.786 14.122 40 12 40H9.5c-2.762 0-5-2.047-5-4.572V12.571C4.5 10.046 6.738 8 9.5 8H12c2.762 0 5 2.046 5 4.57V24c0 .585.244 1.17.732 1.617.113.102.24.184.367.264l20.775 11.682c.261.094.543.15.84.15 1.264 0 2.287-.935 2.287-2.09V12.375c0-1.154-1.023-2.088-2.286-2.088-.325 0-.634.064-.915.175l-17.336 9.76c-.203.13-.448.207-.714.207-.69 0-1.25-.511-1.25-1.143 0-.415.244-.775.608-.975l-.005-.005L37.49 8.518A5.073 5.073 0 0 1 39.725 8c2.638 0 4.775 1.954 4.775 4.366v23.267c0 2.412-2.137 4.367-4.775 4.367z" fill="#000"/>
</svg>
