<svg width="48" height="48" viewBox="0 0 48 48" fill="none" xmlns="http://www.w3.org/2000/svg">
    <g clip-path="url(#t5jl2rq11a)">
        <path d="M0 24C0 10.745 10.745 0 24 0s24 10.745 24 24-10.745 24-24 24S0 37.255 0 24z" fill="#fff"/>
        <path d="M33.453 8.264s2.412-.375 3.116 1.406c.704 1.781 1.094 6.723-.254 8.222-1.349 1.5-3.985 2.773-6.083 3.656-2.097.884-17.303-1.767-17.303-1.767s-1.693-4.687-1.558-7.553c.135-2.866 3.071-5.866 5.004-7.084 1.932-1.219 8.24-1.915 11.52-1.098 3.281.803 5.558 4.218 5.558 4.218z" fill="#996D3C"/>
        <path d="M37.858 41.18H10.143s8.18-4.03 8.749-5.33c.24-.535.404-1.808.494-3.107.015-.133.015-.267.03-.401.12-1.634.15-3.174.15-3.174h8.854s.03 1.54.15 3.174c.014.134.014.268.03.401.104 1.3.27 2.572.494 3.107.584 1.3 8.764 5.33 8.764 5.33z" fill="#F4BD98"/>
        <path opacity=".25" d="M28.614 32.743c-1.662.683-3.295 1.058-4.599 1.058-1.318 0-2.951-.375-4.599-1.058.015-.133.015-.267.03-.401.12-1.634.15-3.174.15-3.174h8.854s.03 1.54.15 3.174c-.015.134 0 .268.014.401z" fill="#DD7F50"/>
        <path d="M34.082 15.04C31.46 10.634 24 10.634 24 10.634s-7.461 0-10.083 4.406c-1.318 2.223-.929 11.343 1.693 13.592 2.622 2.25 6.053 3.603 8.39 3.603 2.337 0 5.767-1.353 8.39-3.603 2.62-2.25 3.01-11.369 1.692-13.592z" fill="#F4BD98"/>
        <path d="M18.082 18.509c0 .535.404.964.899.964.494 0 .899-.429.899-.964 0-.536-.405-.965-.9-.965-.509.014-.898.442-.898.965zM28.209 18.509c0 .535.404.964.899.964.494 0 .899-.429.899-.964 0-.536-.405-.965-.9-.965-.508.014-.898.442-.898.965z" fill="#3F3832"/>
        <path d="M13.828 17.638c-.42-.442-1.169-.924-2.427-.348-1.259.576-1.034 3.723 0 4.54 1.393 1.084 2.382.776 2.726 0 .345-.777.03-3.83-.3-4.192zM34.172 17.638c.42-.442 1.168-.924 2.427-.348 1.258.576 1.034 3.723 0 4.54-1.393 1.084-2.382.776-2.727 0-.344-.777-.03-3.83.3-4.192z" fill="#F4BD98"/>
        <path opacity=".5" d="M24.344 18.776c.45 0-1.378 2.304-1.019 4.138.105.523 1.244.375 1.573.402.345.027-.12.228-.45.255-.344.026-1.273-.014-1.407-.349-.39-.95.959-4.446 1.303-4.446z" fill="#DD7F50"/>
        <path d="M17.633 16.647c.48-.174 1.738-.335 2.203-.281.464.053.659 0 .584-.281-.09-.282-.51-.215-1.049-.188-.54.027-1.288.295-1.738.469-.45.174-.24.361 0 .281zM30.367 16.647c-.48-.174-1.738-.335-2.203-.281-.464.053-.659 0-.584-.281.09-.282.51-.215 1.049-.188.54.027 1.288.295 1.738.469.464.174.24.361 0 .281z" fill="#3F3832"/>
        <path opacity=".25" d="M17.828 21.548c.604 0 1.094-.168 1.094-.375s-.49-.375-1.094-.375c-.604 0-1.094.168-1.094.375s.49.375 1.094.375zM30.232 21.548c.604 0 1.094-.168 1.094-.375s-.49-.375-1.094-.375c-.604 0-1.093.168-1.093.375s.49.375 1.093.375z" fill="#FF3B3B"/>
        <path d="M48 51.692H0s2.247-6.776 4.614-9.95c.225-.294.435-.562.644-.79.57-.616 1.768-1.151 3.191-1.607 1.993-.643 4.42-1.125 6.158-1.433.314-.053.599-.107.854-.147.869-.134 1.423-.214 1.423-.214s3.925 2.129 7.086 2.075c4.345-.066 7.086-2.075 7.086-2.075s.39.053 1.019.147c.374.054.839.134 1.348.228 2.981.522 7.91 1.566 9.274 3.026C45.214 43.577 48 51.692 48 51.692z" fill="#F9A61A"/>
        <path d="M22.322 25.539c.42.134 1.933.415 2.937.08 1.003-.335.18.228-.285.348-.465.12-1.109.255-1.813.054-.719-.188-1.034-.536-.839-.482z" fill="#3F3832"/>
        <path d="M33.453 37.94c-2.412 3.04-9.258 4.231-13.018 3.254-3.026-.79-5.049-2.518-5.813-3.268.315-.053.6-.107.854-.147.869-.134 1.423-.215 1.423-.215s3.925 2.13 7.086 2.076c4.345-.067 7.087-2.075 7.087-2.075s.389.053 1.018.147c.39.053.854.134 1.363.227zM16.794 46.764l-.57 2.544h1.918l-.54 2.384h3.791l1.109-4.928h-5.708zM32.24 46.764h-8.345l-.584 2.544h3.97l-1.948 1.5-.195.884h5.603c-.36-.388-.884-.696-1.513-.884l2.562-1.968.45-2.076z" fill="#665431"/>
        <path d="M35.595 16.66s-.794.71-1.573.71c-1.363.014-2.831-2.21-3.37-4.727 0 0-2.428-1.754-6.937-1.54-1.903.094-5.393 1.607-6.337 2.652-.494.548-1.903 2.718-3.086 3.267-.734.335-1.274.362-1.873-.362-.584-.723 2.202-5.383 4.959-6.95 2.756-1.567 11.97-1.915 13.962-.99 1.993.923 4.255 7.94 4.255 7.94z" fill="#996D3C"/>
        <path d="M30.607 10.58c-1.888.911-1.229 2.317-4.285 3.054-3.056.723-3.37-1.688-3.34-2.009.03-.321.314 1.004 2.037 1.045 1.723.04 1.663-2.237 3.146-3.054 1.468-.817 3.25.563 2.442.965z" fill="#996D3C"/>
    </g>
    <path d="M24 47C11.297 47 1 36.703 1 24h-2c0 13.807 11.193 25 25 25v-2zm23-23c0 12.703-10.297 23-23 23v2c13.807 0 25-11.193 25-25h-2zM24 1c12.703 0 23 10.297 23 23h2C49 10.193 37.807-1 24-1v2zm0-2C10.193-1-1 10.193-1 24h2C1 11.297 11.297 1 24 1v-2z" fill="#C6C6C6"/>
    <defs>
        <clipPath id="t5jl2rq11a">
            <path d="M0 24C0 10.745 10.745 0 24 0s24 10.745 24 24-10.745 24-24 24S0 37.255 0 24z" fill="#fff"/>
        </clipPath>
    </defs>
</svg>
