<svg width="48" height="48" viewBox="0 0 48 48" fill="none" xmlns="http://www.w3.org/2000/svg">
    <path fill-rule="evenodd" clip-rule="evenodd" d="m38.847 16.579-.422.42c-.004.005-.007.005-.011.009L36 19.5c-.006.006.002.002 0 0-.006.006-.006.006 0 0s-.006.006 0 0l-6.595-5.501H12.5A2.5 2.5 0 0 0 10 16.5v19a2.5 2.5 0 0 0 2.5 2.5h19a2.5 2.5 0 0 0 2.5-2.5V22.64a.5.5 0 0 0-.853-.353c-.002.002-.001-.007-.003-.006l-5.557 5.556a3.967 3.967 0 0 1-2.128 1.105c-.148.035-.3.057-.459.057h-.14a4.748 4.748 0 0 1-.2 0H21A1.999 1.999 0 0 1 19 27v-3.66a6.614 6.614 0 0 1 0-.2V23c0-.159.023-.311.058-.459a3.977 3.977 0 0 1 1.105-2.13l2.124-2.124.006.006 4.207-4.294h2.905L36 19.5V35.999A4 4 0 0 1 32 40H12a4 4 0 0 1-4-4.001v-20A4 4 0 0 1 12 12h16.575l2.846-2.847A3.967 3.967 0 0 1 34.25 8c1.024 0 2.047.372 2.829 1.153l1.768 1.768c.782.782 1.154 1.82 1.153 2.846a3.94 3.94 0 0 1-1.153 2.812z" fill="#231F20"/>
</svg>
