<svg width="48" height="48" viewBox="0 0 48 48" fill="none" xmlns="http://www.w3.org/2000/svg">
    <path fill-rule="evenodd" clip-rule="evenodd" d="M13.256 22.792c-.435.391-1.101.414-1.587.11l-.031.028-.885-.798c-2.444-2.2-2.444-5.77 0-7.971a1.352 1.352 0 0 1 1.77 0c.49.44.49 1.154 0 1.594-1.466 1.321-1.466 3.462 0 4.782l.885.798-.031.027c.34.442.315 1.038-.12 1.43zm3.237-7.891a1.048 1.048 0 0 1 0-1.594 1.348 1.348 0 0 1 1.77 0 1.05 1.05 0 0 1 0 1.594 1.35 1.35 0 0 1-1.77 0zm24.352 10.42-8.029 7.231c-.488.44-1.28.44-1.77 0a1.048 1.048 0 0 1 0-1.594l7.144-6.434.885-.798c3.109-2.8 3.422-8.078 0-11.16-3.422-3.081-8.97-3.081-12.39 0l-.877.789a2.644 2.644 0 0 1-1.78.67 2.641 2.641 0 0 1-1.779-.67l-.876-.79c-3.42-3.08-8.969-3.08-12.39 0-3.423 3.083-3.188 8.292 0 11.161l2.655 2.392 13.276 11.958a1.05 1.05 0 0 1 0 1.594c-.49.44-1.281.44-1.77 0l-7.081-6.377-8.85-7.971c-4.165-3.751-4.4-10.388 0-14.35 4.398-3.963 11.531-3.963 15.931 0l.885.798.885-.798c4.399-3.963 11.532-3.963 15.931 0 4.4 3.962 4.008 10.739 0 14.35zM29.706 33.76c.488.44.488 1.154 0 1.595-.488.44-1.281.44-1.771 0a1.051 1.051 0 0 1 0-1.595c.49-.44 1.283-.44 1.771 0z" fill="#231F20"/>
</svg>
