<svg width="48" height="48" viewBox="0 0 48 48" fill="none" xmlns="http://www.w3.org/2000/svg">
    <path fill-rule="evenodd" clip-rule="evenodd" d="M35.919 34H12.88C11.29 34 10 32.656 10 31c0-1.657 1.29-3 2.88-3 .53 0 .96-.447.96-1v-6c0-3.037 1.182-5.787 3.094-7.778v.002a.931.931 0 0 1 .685-.303c.531 0 .96.448.96 1 0 .281-.111.533-.29.714l.002.001C16.727 16.264 15.76 18.514 15.76 21v6.5c0 1.38-1.075 2.5-2.401 2.5h-.48c-.53 0-.959.448-.959 1s.429 1 .96 1h23.039c.53 0 .961-.448.961-1s-.43-1-.961-1h-.48c-1.325 0-2.4-1.12-2.4-2.5V21c0-4.567-3.267-8.33-7.498-8.912.005-.008.005-.013-.002-.015-1.184-.154-2.1-1.205-2.1-2.48v-.594c0-.552.43-.999.961-.999.53 0 .96.447.96 1v.374c0 .372.26.68.599.74a.412.412 0 0 0-.147 0c5.162.722 9.147 5.312 9.147 10.886v6c0 .553.43 1 .96 1 1.591 0 2.881 1.343 2.881 3 0 1.656-1.29 3-2.881 3zm-15.36-21c-.53 0-.96-.448-.96-1 0-.553.43-1 .96-1 .531 0 .96.447.96 1 0 .552-.429 1-.96 1zm1.921 23c.53 0 .959.448.959.999 0 .553.43 1.001.961 1.001.53 0 .96-.448.96-1.001 0-.55.43-.999.96-.999s.96.448.96.999c0 1.658-1.29 3.001-2.88 3.001-1.591 0-2.881-1.343-2.881-3.001 0-.55.43-.999.961-.999z" fill="#231F20"/>
</svg>
