<svg width="648" height="392" viewBox="0 0 648 392" fill="none" xmlns="http://www.w3.org/2000/svg">
    <path d="M314.829 377.482h-11.747V83.889h17.292l-5.545 293.593" fill="#E3240D"/>
    <path d="M290.611 377.482h12.465V83.889h-12.465v293.593z" fill="#FF5E00"/>
    <path d="M319.638 381.598h-11.747V88.004h17.293l-5.546 293.594z" fill="#E3240D"/>
    <path d="M208.796 140.699c3.297-.345 6.599-.709 9.884-1.125-1.005-3.172-2.335-6.22-3.899-9.244-3.038 1.298-6.075 2.597-9.118 3.889 1.153 2.174 2.414 4.182 3.133 6.48" fill="#FFA77B"/>
    <path d="M216.128 133.071a73.072 73.072 0 0 0-1.347-2.742c.494.888.99 1.769 1.448 2.668-.035.024-.068.049-.101.074z" fill="#FFBEB3"/>
    <path d="M207.359 137.241h-.001.001zm-.001 0c-.014-.03-1.259-2.309-1.636-3.022 3.024-1.291 6.042-2.588 9.059-3.89.471.911.921 1.824 1.347 2.742-.531.406-.865.989-1.132 1.642a13.783 13.783 0 0 1-7.638 2.528" fill="#FF8963"/>
    <path d="M233.905 162.699c-11.438-.836-23.34-.677-34.924-1.787-.376 4.317-.368 3.959-.772 9.258-.492 6.444-1.46 21.619 1.466 28.585 2.57 6.121 6.211 12.355 8.928 18.42-.597.681-1.311 1.337-1.919 2.018 1.975.283 4.175.283 6.012.738 4.099-8.41 4.799-11.298 9.618-20.895 4.82-9.596 12.488-24.607 11.591-36.337" fill="#78C9B9"/>
    <path d="M217.574 209.148a191.708 191.708 0 0 1 2.358-5.223l.07.079a158.718 158.718 0 0 1-2.428 5.144" fill="#94C3BD"/>
    <path d="M213.635 217.186c.11-5.486.258-11.002.121-16.509-3.525-2.416-7.122-4.761-10.707-7.119l.06-.061c3.404.251 6.489.421 10.55.492a65.952 65.952 0 0 0 3.589 6.467c.716 1.131 1.635 2.291 2.684 3.47a191.753 191.753 0 0 0-2.358 5.222c-1.335 2.724-2.715 5.441-3.939 8.038" fill="#51A89A"/>
    <path d="M242.879 160.01c-8.917.257-17.786.533-26.681.778-2.969 6.16-5.962 12.361-9.28 18.388 3.867 7.456 5.482 13.614 10.33 21.281 3.546 5.605 12.12 11.928 16.569 17.874.042.056-.479 1.67-.54 1.912 1.571.201 3.207.249 4.77.414 1.006-7.82 1.497-15.171 3.001-23.052 1.504-7.881 3.739-15.743 3.852-24.089.054-3.987-1.059-9.391-2.021-13.506" fill="#78C9B9"/>
    <path d="M238.918 212.205c-1.05-5.394-2.07-10.522-3.008-15.829-.175-.038-.35-.077-.524-.118l.004-2.685c2.229-.105 4.435-.226 6.55-.362a173.65 173.65 0 0 0-.851 4.049c-1.262 6.529-1.305 9.131-2.171 14.945" fill="#51A89A"/>
    <path d="M231.675 219.885c-1.661.418-.931 1.246-1.017 2.091 2.741.079 5.399.161 8.109.242.096-.892.181-1.838-.392-2.658-.529.582-1.981.964-2.682.75-1.222-.372-3.245-.619-4.018-.425M204.88 218.389c-1.981.142-1.452 1.292-1.79 2.21 3.535.225 6.971.419 10.466.633.152-.969.265-1.974-.199-2.901-.591.553-.96.747-2.014.921-1.782.293-4.988-.969-6.463-.863" fill="#FF5D40"/>
    <path d="M201.449 162.984c-4.279 5.225-15.268 5.056-22.224 2.544-.253-3.074-.137-6.137-.351-9.257 5.622.479 9.464-1.573 15.355-2.042 4.024-.321 10.687 4.523 7.22 8.755" fill="#FFA77B"/>
    <path d="M180.806 157.332c-2.654-3.071-5.784-2.13-8.797-2.73-2.108-.419-1.864-.134-3.572-.455-.526.561-.386.972.184 1.567.264.276.886.693 1.289.921-1.179.213-2.401.716-3.458 1.15-1.058.433-4.007 1.887-3.747 2.764.261.884 1.281.607 2.192.33.462-.14.896-.28 1.189-.269-1.09.448-3.633 1.26-3.432 2.45.201 1.19 2.797.241 3.591.095-.741.303-2.458.762-2.195 1.647.262.884 1.95.562 2.746.499-.311.562-1.635.818-.972 1.64.664.821 2.472.646 3.746.842 3.323.512 7.682-.08 10.174-1.715 3.437-2.255 2.799-6.727 1.062-8.736M192.17 154.289c3.035-1.758 7.722-8.441 9.978-9.585 4.9-2.486 9.056-.068 9.851 3.375 1.623 7.032-6.067 12.91-12.633 16.721 3.017-2.982-5.591-7.569-7.196-10.511z" fill="#FFA77B"/>
    <path d="M173.083 167.932c2.476-.139 4.989-.766 6.661-1.864.12-.079.236-.161.346-.245.455.145.924.28 1.404.405a48.521 48.521 0 0 1-1.403-.339c-.082.061-.137.123-.236.182-2.015 1.187-4.37 1.75-6.772 1.861zm-3.188-.103c-.111-.011-.221-.024-.332-.037-1.358-.166-3.049-.034-3.748-.843-.402-.465-.117-.754.253-1.021-.356.262-.621.547-.244 1.013.664.822 2.472.646 3.746.842.107.017.216.032.325.046zm28.113-2.244-.026-.002c.21-.098.415-.201.615-.309l-.004.048c-.194.091-.389.179-.585.263zm-31.416-.044a.862.862 0 0 0 .188-.229c-.356.028-.894.108-1.401.108-.622 0-1.199-.12-1.344-.607-.101-.34.09-.617.405-.846-.307.227-.49.501-.39.835.144.487.721.608 1.344.608.507 0 1.044-.08 1.401-.109a.937.937 0 0 1-.203.24zm-2.937-1.879c-.528 0-.94-.145-1.015-.591-.075-.445.233-.837.705-1.177-.464.338-.765.726-.691 1.166.075.446.487.592 1.015.592.879 0 2.08-.405 2.576-.497l-.035.015c-.508.098-1.688.492-2.555.492zm-.083-2.502c-.415 0-.747-.148-.881-.601-.109-.367.344-.834.985-1.286-.634.449-1.079.912-.971 1.276.134.453.466.601.881.601.396 0 .867-.135 1.311-.27.445-.135.864-.27 1.156-.27h.033l-.024.01h-.022c-.293 0-.712.135-1.157.27-.445.135-.916.27-1.311.27zm6.316-4.521c-.402-.228-1.02-.642-1.281-.915-.515-.542-.691-.937-.3-1.423-.366.486-.202.874.314 1.413.264.276.886.693 1.289.921l-.022.004" fill="#FFBEB3"/>
    <path d="m198.593 165.322.004-.048c.177-.096.35-.195.519-.298a3 3 0 0 1 .02.078c-.179.093-.361.182-.543.268" fill="#AE9E89"/>
    <path d="M189.475 167.198c-2.638 0-5.332-.372-7.981-.97-.48-.125-.949-.261-1.404-.405 2.273-1.732 2.486-4.529 1.75-6.643.721.083 1.442.12 2.16.12 3.081 0 6.135-.681 9.179-1.343.336-.332.78-.733 1.249-1.175 1.3 1.173 2.849 2.434 3.984 3.669.092 1.494.312 3.006.703 4.526a11.825 11.825 0 0 1-1.133.606l-1.011-.051.008.456c-2.381.852-4.916 1.21-7.504 1.21z" fill="#FF8963"/>
    <path d="M172.175 167.953c-.762 0-1.525-.043-2.28-.124a11.049 11.049 0 0 1-.325-.046c-1.274-.196-3.082-.021-3.746-.842-.377-.467-.112-.751.244-1.013.177-.128.375-.252.524-.387a.937.937 0 0 0 .203-.24c-.357.028-.894.109-1.401.109-.623 0-1.2-.121-1.344-.608-.1-.334.083-.608.39-.835.507-.368 1.334-.614 1.791-.801l-.021.003.035-.014c-.496.091-1.697.496-2.576.496-.528 0-.94-.145-1.015-.591-.074-.44.227-.829.691-1.166.791-.57 2.045-.993 2.728-1.274h-.011a.244.244 0 0 1 .024-.01l-.033-.001c-.292 0-.711.135-1.156.27-.444.136-.915.271-1.311.271-.415 0-.747-.149-.881-.601-.108-.364.337-.828.971-1.276.891-.629 2.146-1.227 2.762-1.479 1.057-.433 2.28-.937 3.459-1.15a.04.04 0 0 0-.009-.005l.022-.004c-.403-.228-1.025-.645-1.289-.921-.516-.54-.68-.928-.314-1.414.037-.046.079-.093.126-.14 1.568.276 1.635.077 3.524.462 2.448.498 5.489 2.416 7.403 4.081.829.228 1.655.383 2.48.477.736 2.114.523 4.911-1.75 6.643-.11.084-.226.166-.346.245-1.672 1.097-4.185 1.725-6.661 1.864-.302.014-.605.021-.908.021M198.412 160.451c-1.135-1.234-2.684-2.496-3.984-3.668 1.918-1.809 4.25-4.3 1.311-5.564.13-.159.294-.353.482-.574.252.224.478.308.69.308.331 0 .628-.207.931-.414.303-.207.615-.413.975-.413.145 0 .299.033.463.114-.596 3.192-1.091 6.649-.868 10.211z" fill="#FF8963"/>
    <path d="M196.208 150.633a3.118 3.118 0 0 1-.431-.498c-2.32-3.228 3.734-8.125 9.405-9.153-1.79 1.547-3.896 2.683-4.967 5.304l-.114.114c-1.208 1.205-2.593 2.751-3.548 3.858l-.345.375" fill="#AEDFD5"/>
    <path d="M196.221 150.645a.154.154 0 0 1-.013-.012l.345-.375a38.16 38.16 0 0 0-.332.387zm3.88-4.245.114-.114-.002.002-.112.112" fill="#AEBBA0"/>
    <path d="M196.553 150.257c.955-1.106 2.34-2.653 3.548-3.859-1.074 1.085-2.308 2.503-3.548 3.859z" fill="#AEC5B7"/>
    <path d="M196.911 150.952c-.212 0-.438-.084-.69-.308.103-.121.214-.251.332-.387 1.24-1.356 2.474-2.773 3.548-3.857l.112-.112a8.822 8.822 0 0 0-.478 1.612c-.152.762-.307 1.542-.455 2.339a1.036 1.036 0 0 0-.463-.114c-.361 0-.672.206-.975.413-.303.207-.6.414-.931.414" fill="#AEAF97"/>
    <path d="M246.467 192.884c-9.175.741-21.429 1.183-29.903 1.137-8.047-.043-12.161-.412-19.423-.994-.463-7.818-2.111-17.233 2.012-24.794 9.694-1.464 37.102-8.376 44.904-2.753 2.061 1.486 2.405 8.507 2.642 11.024.529 5.595.216 10.908-.232 16.38" fill="#FF5D40"/>
    <path d="M199.145 168.259c9.754-1.698 37.03-8.084 44.954-2.934 1.177.765 1.684 4.773 1.934 6.161-20.148 3.125-31.704 8.485-44.419 21.985-1.353-.104-3.109-.036-4.406-.448-.426-7.414-2.405-17.66 1.937-24.764z" fill="#F44134"/>
    <path d="M239.446 145.946c-4.118-6.949-9.853-8.573-16.95-11.047-2.042-.711-4.269-2.994-6.023-2.051-2.514 1.352-1.314 6.035-5.199 6.664-1.2.194-1.745-.332-2.21-.859-.472-.533-.862-1.066-1.77-.852-1.153.272.048.991-1.239 2.353-2.227 2.355-5.448 3.371-6.32 7.747-1.302 6.54-2.851 14.478 1.438 22.254.638 1.156 42.186 2.909 42.483-.405.78-8.728-.092-16.855-4.21-23.804" fill="#FF5D40"/>
    <path d="M212.95 168.171c4.574-1.804 8.368-4.358 11.724-7.412 3.658-3.329 6.394-6.824 8.278-10.969.856-1.884 1.184-3.701 1.086-5.718-.11-2.279-4.678-6.457-4.776-6.697 3.897 1.817 7.948 3.472 10.177 8.474 3.301 7.406 5.918 15.164 3.961 23.831-.743 3.292-37.406 4.668-40.882 2.825-1.846-.979.378-.926-.707-1.767 3.988-.552 7.559-1.156 11.139-2.567" fill="#F44134"/>
    <path d="M197.04 170.341c7.987.14 13.273.413 21.946.204 7.028-.169 17.895-1.612 25.337-2.793.983-.156.493-.251.881-.665-.391-.982-.501-2.998-.872-3.76-.372-.762.064-.856-1.152-.696-7.712 1.014-16.484 2.39-24.412 2.888-7.459.47-14.445.402-21.797.012.02 1.596.142 3.197.069 4.81" fill="#78C9B9"/>
    <path d="M205.262 165.825c-.294-.005-.588-.01-.884-.017.338-.009.674-.019 1.009-.03l-.125.047" fill="#94735E"/>
    <path d="M204.458 166.098a15.915 15.915 0 0 0-.362-.281l.282-.008.884.016c-.262.095-.53.186-.804.273" fill="#51A89A"/>
    <path d="M211.172 141.944c-1.13 0-1.872-.614-2.541-1.167-.255-.211-.496-.411-.755-.58-.099-.064-.113-.181-.032-.26a.275.275 0 0 1 .326-.026c.28.183.542.4.795.609.796.659 1.547 1.28 2.884.973 3.352-.772 5.148-4.059 6.065-6.681.034-.099.162-.156.285-.129.124.027.196.13.162.228-.949 2.712-2.826 6.118-6.384 6.937a3.615 3.615 0 0 1-.805.096M210.801 155.882c.013.36.385.602.828.589.443-.014.796-.28.783-.64-.013-.36-.385-.603-.828-.589-.443.014-.797.28-.783.64M202.054 156.699c.007.359.373.612.816.613.442 0 .803-.259.795-.617-.007-.359-.379-.608-.818-.608-.44 0-.801.253-.793.612M201.604 145.913c.027.345.39.588.819.58.429-.008.754-.264.728-.61-.026-.345-.389-.588-.818-.58-.429.008-.754.264-.729.61M222.865 137.353c.087.356.496.575.94.527.445-.047.741-.341.656-.697-.083-.356-.502-.572-.946-.525-.444.047-.736.34-.65.695zM237.211 156.636c.011.359.353.634.809.618.457-.016.78-.313.767-.673-.012-.36-.353-.634-.809-.618-.457.015-.779.313-.767.673M241.171 161.469c.007.358.354.626.806.613.452-.013.788-.299.778-.659-.011-.36-.357-.634-.809-.618-.453.016-.781.307-.775.664M232.637 162.783c.008.359.354.625.806.613.452-.012.786-.298.778-.657-.008-.359-.354-.626-.806-.613-.451.013-.786.298-.778.657zM214.918 151.018c.029.357.406.599.847.58.442-.019.776-.291.747-.648-.029-.357-.405-.599-.847-.58-.442.019-.776.291-.747.648zM206.272 151.338c.032.353.416.589.849.576.434-.013.779-.268.747-.622-.032-.355-.419-.587-.853-.574-.433.012-.775.268-.743.62zM210.117 145.95c.032.357.42.578.856.549.436-.029.78-.298.748-.655-.032-.357-.42-.578-.856-.549-.437.028-.781.298-.748.655M216.912 141.501c.057.352.457.572.892.542.433-.03.753-.299.695-.651-.057-.353-.457-.572-.891-.543-.434.03-.754.3-.696.652M205.462 142.177c.047.346.439.568.863.552.424-.016.749-.267.702-.612-.047-.346-.44-.568-.864-.552-.424.016-.749.267-.701.612z" fill="#fff"/>
    <path d="M222.279 129.227c-9.02 3.719-20.662 9.461-30.867 8.919-3.236-.172-3.571-4.154-5.134-5.618.835 1.863 1.539 4.185 1.719 6.14.06.64-.071.573-.419 1.165-4.301-8.697-8.724-16.131-6.399-26.349 1.127-4.954 26.619-6.008 32.978-4.582 3.042 6.602 5.598 13.486 8.122 20.325" fill="#041917"/>
    <path d="M185.854 118.218c-1.93-1.499-3.38-3.025-4.293-5.065.555-.272 1.062-.654 1.751-.704 2.224-.16 4.28.289 5.137 2.08.857 1.791-.573 2.943-2.523 3.675l-.072.014z" fill="#480200"/>
    <path d="M188.315 111.426c-3.725 1.61-5.201-2.55-4.858 2.464.313 4.569.525 11.246 4.002 14.888 3.098 3.245 8.659 9.084 18.204 7.465 11.773-1.997 17.723-9.312 15.086-20.383-.816-3.425-6.366-6.643-9.779-9.006-7.634 1.413-14.918 3.44-22.655 4.572" fill="#FFA77B"/>
    <path d="M198.98 125.154c.162.486.714.788 1.341.682.627-.106.928-.551.766-1.037-.163-.487-.717-.787-1.343-.681-.627.107-.926.55-.764 1.036M192.757 126.486c.151.428.649.692 1.201.602.553-.091.821-.477.67-.906-.152-.427-.649-.691-1.202-.601-.553.09-.821.477-.669.905z" fill="#000"/>
    <path d="M205.166 126.758c1.032 1.124 2.835.844 4.251.202 1.176-.534 2.499-1.842 1.483-2.913-1.017-1.07-2.851-.813-4.143-.225-1.292.589-2.623 1.811-1.591 2.936M188.125 129.493c.269-.088.341-.156.625-.202 1.489-.243 3.185-.244 3.801 1.05.406.851-.522 1.518-1.267 2.006-1.318-.767-2.212-1.801-3.159-2.854" fill="#FF5D40"/>
    <path d="M202.001 122.332c-1.407.091-2.426.195-3.887.088-.711-.051-.868-1.124.136-1.349 1.319-.295 2.735-.296 4.066.223.542.212.15 1.008-.315 1.038M189.582 124.534c1.041-.161 2.263-.379 3.106-1.045.496-.391-.453-1.119-1.168-1.001-.941.154-2.325.339-2.813 1.138-.219.358.275 1 .875.908" fill="#112F2D"/>
    <path d="M182.45 124.59c5.237-3.887 11.38-5.753 18.336-6.809.186-1.318.399-2.633.656-3.943.314 1.284.613 2.571.909 3.858a99.719 99.719 0 0 1 1.973-.055c.145-1.098.305-2.196.432-3.295.425 1.105.828 2.215 1.241 3.322 1.384.038 2.767.097 4.149.164-.831-2.128-1.587-4.297-1.703-6.533 1.399 3.733 2.957 7.413 4.485 11.118.252-.854.491-1.587.478-2.5-.021-1.395-.555-2.951-1.001-4.253.094.384 1.926 2.681 2.093 2.555 5.477-4.141 7.481 1.11 6.837 5.54-.373 2.563 5.595 1.534 7.199-2.944 1.074-2.999.346-14.174-6.138-16.531-1.81-.658-2.911-1.647-4.986-1.457-.653-.929-.556-1.269-1.802-1.985-9.521-5.475-18.783-3.074-28.191.638-3.628 1.432-3.082 1.548-5.438 3.364.237-.307 2.615-.588 2.527-.463-4.619 6.556-5.075 13.031-2.056 20.209z" fill="#112F2D"/>
    <path d="M196.486 126.616c-.518.8-.804.914-.965 1.832-.16.918 1.835.909 2.332.242.498-.667-.85-2.875-1.367-2.074z" fill="#FF5D40"/>
    <path d="M221.474 120.483c-1.35-3.249-3.484-5.281-6.977-2.25-.145.126-2.015-2.202-2.09-2.567.442 1.298.979 2.857.999 4.251.013.913-.225 1.646-.478 2.499a905.22 905.22 0 0 0-2.54-6.083c1.323-2.605 1.362-5.559.695-8.292 4.567 1.217 10.835.424 10.04-4.421.489.325.76.266 1.278.617 4.137 2.812 4.592 5.235 6.355 10.929.021.068 2.805 11.238.562 14.082-2.566 3.254-6.544 6.991-12.364 7.212.877-4.342 1.243-8.961 1.501-13.43 1.009-.85 2.015-1.698 3.019-2.547" fill="#041917"/>
    <path d="M183.115 106.58c8.675-7.194 25.203-3.81 32.957 2.946 2.217 1.932 4.732 5.772 4.869 6.546.412 2.34-1.649 1.111-2.251 1.955-.056.08-.111-.029-.188-.031-.742-.018-1.624-.211-2.319-.183-1.9-2.706-2.279-3.702-4.957-6.509-6.914-7.246-16.593-8.158-25.907-4.054-3.013 1.327-2.901 1.974-3.898 2.777-.998.802-1.031.366-.574-.296 1.042-1.507-.45-.896 2.268-3.151" fill="#92D4A3"/>
    <path d="M216.65 122.74c2.213.857 4.332-.349 5.469-1.565 1.635-1.75 1.867-4.252-.267-5.645-2.557-1.668-6.01.342-6.863 2.255-.924 2.073-.553 4.098 1.661 4.955" fill="#FFA77B"/>
    <path d="M218.138 121.173c-.109 0-.206-.062-.228-.15-.024-.101.06-.197.186-.217 1.106-.167 1.5-.424 1.406-.916-.038-.2-.254-.396-.484-.604-.333-.302-.711-.644-.624-1.101.112-.583.731-.921 1.277-1.219.161-.088.318-.173.456-.263a.275.275 0 0 1 .326.027c.081.079.066.196-.033.26a7.883 7.883 0 0 1-.487.281c-.491.268-.999.545-1.08.969-.054.288.221.537.514.802.263.239.536.486.594.792.197 1.037-1.188 1.246-1.779 1.336l-.044.003M199.445 131.095c-.108 0-.205-.061-.227-.148-.026-.1.054-.198.18-.218.801-.133 1.766-.383 2.125-1.155.044-.095.177-.144.298-.109.12.036.181.143.137.238-.438.941-1.548 1.236-2.466 1.388l-.047.004" fill="#CF0500"/>
    <path d="M383.618 377.482s-2.139-3.716.979-7.875c0 0 4.079 3.07 9.517 2.211 4.34-.685 3.4-3.498 9.276-4.521 0 0-1.767 3.638 1.919 4.907 1.937.667 4.615-4.122 10.396-3.422 0 0 .537 5.084 2.231 5.699 1.912.693 7.837-.488 7.837-.488l-2.013 3.489h-40.142" fill="#28A534"/>
    <path d="M453.811 222.715h-7.586v-57.823h7.586v57.823zM474.708 222.715h-7.587v-57.823h7.587v57.823zM495.604 222.715h-7.587v-57.823h7.587v57.823zM516.5 223.868h-7.586v-57.825h7.586v57.825zM190.604 229.88l.097-70.765h-11.345l-.097 70.765h11.345zM235.338 231.326l.097-71.002h-11.344l-.098 71.002h11.345" fill="#0071BC"/>
    <path d="M460.289 222.138h-7.587v-57.824h7.587v57.824zM481.185 222.138h-7.587v-57.824h7.587v57.824zM502.081 222.138h-7.586v-57.824h7.586v57.824zM522.977 223.291h-7.586v-57.824h7.586v57.824z" fill="#29ABE2"/>
    <path d="M553.067 350.903c-3.523 0-6.373-2.274-6.373-5.077V71.495c0-2.804 2.85-5.077 6.373-5.077s6.373 2.273 6.373 5.077v274.331c0 2.803-2.85 5.077-6.373 5.077z" fill="#FF9600"/>
    <path d="M553.626 343.369c-1.694 0-3.381-.532-4.635-1.588-.467-.395-11.481-9.818-7.149-20.079.787-1.858 2.366-3.305 4.515-4.23a57.783 57.783 0 0 1-.011-1.726c.023-6.209.912-11.931.952-12.172.433-2.782 3.625-4.754 7.114-4.407 3.495.349 5.974 2.887 5.535 5.669-.655 4.186-.923 8.592-.838 12.291 4.869 1.167 9.76 3.563 11.299 7.095 1.288 2.967.017 6.097-3.318 8.17-3.306 2.053-6.202 2.694-8.545 2.672 2.115 2.041 1.91 5.068-.541 6.914-1.232.929-2.811 1.391-4.378 1.391" fill="#FF9600"/>
    <path d="m213.935 228.235-.094-69.12h10.998l.094 69.12h-10.998" fill="#29ABE2"/>
    <path d="m213.841 168.68 47.145 2.028v-11.593h-47.145v9.565z" fill="#29ABE2"/>
    <path d="M368.196 0H203.6l70.343 62.047h164.596L368.196 0z" fill="#7CBC0C"/>
    <path d="M368.196 2.907H203.6l70.343 62.047h164.596L368.196 2.907z" fill="#39B54A"/>
    <path d="M269.271 60.834h-.484L203.6 3.334h.484l65.187 57.5z" fill="#82C688"/>
    <path d="M313.769 60.834h-44.498l-65.188-57.5h164.113l25.919 22.863-27.145-6.038-53.201 40.675" fill="#2CA63A"/>
    <path d="M298.713 63.761H134.117l70.343-61.62h164.597l-70.344 61.62z" fill="#7CBC0C"/>
    <path d="M297.853 61.621H133.257L203.6.001h164.596l-70.343 61.62z" fill="#8CC63F"/>
    <path d="m312.595 48.706-1.757-19.493-20.494-1.397 13.276-16.887-13.013 1.558-17.751 12.99-39.582-9.293L245.617 0h122.579l-55.601 48.707z" fill="#A5D35E"/>
    <path d="m206.192 38.688 4.064-10.343L235.85.002h16.903l-46.561 38.687M183.592 42.131l2.706-6.887L210.44 0h11.256l-38.104 42.131zM282.115 47.133l20.056-22.78h6.208l-7.521 8.438-13.019 14.342h-5.724M278.668 39.604l16.259-16.415 10.005-6.364-7.521 8.437-13.019 14.342h-5.724zM256.677 37.296l9.636-12.039 28.934-16.16-20.954 16.552L258.476 42.2l-1.799-4.904" fill="#A5D35E"/>
    <path d="M142.82 377.482h17.293V83.889H142.82v293.593z" fill="#E3240D"/>
    <path d="M0 377.482h647.661V392H0v-14.518" fill="#FFDB24"/>
    <path d="M115.291 83.888h339.303V60.833H115.291v23.055z" fill="#FF9600"/>
    <path d="M254.016 83.888h322.668V60.833H254.016v23.055zM438.539 377.482h-17.292V83.889h17.292v293.593zM274.951 377.482h-13.966V83.889h17.293l-3.327 293.593" fill="#FF9600"/>
    <path d="M130.356 377.482h12.464V83.889h-12.464v293.593z" fill="#FF5E00"/>
    <path d="m179.717 230.118.096-71.003h-11.344l-.098 71.003h11.346" fill="#29ABE2"/>
    <path d="M290.611 133.227h12.465v-49.34h-12.465v49.34z" fill="#F54905"/>
    <path d="M421.262 377.482h-12.465V83.889h12.465v293.593zM261.379 377.482h-12.465V83.889h12.465v293.593z" fill="#FF5E00"/>
    <path d="M533.503 236.769H115.291v-15.576h418.212v15.576z" fill="#FF5E00"/>
    <path d="M260.985 236.769H130.598v-15.576h130.387v15.576zM191.312 377.482H60.924l69.674-140.712h130.388l-69.674 140.712z" fill="#39B54A"/>
    <path d="M182.459 377.482H52.072l78.526-156.131h130.388l-78.527 156.131z" fill="#8CC63F"/>
    <path d="M627.088 384.018c-1.186 0-29.397-.182-49.133-16.006-7.331-5.873-15.186-14.134-23.503-22.881-11.395-11.982-24.313-25.564-37.101-33.981-11.82-7.779-23.739-12.074-36.359-16.621-11.928-4.297-24.262-8.742-37.868-16.39-31.175-17.525-51.884-51.846-52.75-53.299-1.873-3.14-.195-6.896 3.749-8.387 3.943-1.492 8.658-.155 10.531 2.985.288.478 19.901 32.852 47.587 48.414 12.376 6.958 24.014 11.151 35.267 15.206 13.011 4.688 26.465 9.535 39.912 18.386 14.212 9.352 27.716 23.554 39.636 36.085 7.986 8.401 15.534 16.335 22.112 21.61 15.152 12.148 37.698 12.288 37.92 12.288 4.367 0 7.907 2.818 7.907 6.295 0 3.478-3.54 6.296-7.907 6.296" fill="#FFD949"/>
    <path d="M616.28 375.858c-9.138-1.413-22.346-4.84-32.721-13.154-17.039-13.664-38.37-42.272-61.172-57.279-23.835-15.686-47.058-17.761-74.705-33.301-23.059-12.962-40.436-36.259-47.145-46.179-1.943-2.873-5.86-4.678-10.135-4.678h-91.596s.183.306.537.872h-.537s20.327 34.082 50.169 50.856c27.646 15.541 50.869 17.615 74.704 33.302 22.801 15.006 44.131 43.614 61.175 57.278 17.646 14.147 43.53 14.147 43.53 14.147h87.759c.365 0 .662-.225.662-.502v-.872c0-.239-.217-.443-.525-.49" fill="#29ABE2"/>
    <path d="M539.762 343.497c-2.058-2.783-4.617-5.395-7.605-7.773a52.47 52.47 0 0 0-10.164-6.328c-3.648-1.739-7.215-3.556-10.898-5.264-3.901-1.809-7.911-3.531-12.133-4.976-.433-.148-.87-.291-1.31-.434.027.42-.508.87-1.289.699a64.802 64.802 0 0 1-3.895-.976c.649.542-.338 1.437-1.31.972a28.778 28.778 0 0 0-5.554-2.009c-3.303-.811-6.885-1-10.235-.318-2.852.581-5.358 1.843-6.96 3.528-1.668 1.755-2.262 3.907-1.79 5.984.633 2.791 2.893 5.188 5.661 7.271 6.252 4.706 13.816 8.535 19.908 13.345 2.811 2.219 5.174 4.675 7.393 7.172 1.966 2.211 3.808 4.477 5.971 6.607 2.035 2.004 4.408 3.914 7.378 5.317 3.101 1.464 6.682 2.276 10.434 2.336 6.422.104 12.157-2.053 15.725-5.56 3.586-3.524 5.028-8.054 4.236-12.328-.473-2.57-1.847-4.946-3.563-7.265" fill="#1BA0CE"/>
    <path d="M528.384 384.018c-1.192 0-29.4-.182-49.138-16.006-7.326-5.873-15.182-14.134-23.501-22.881-11.396-11.982-24.312-25.564-37.101-33.981-11.821-7.779-23.74-12.074-36.36-16.621-11.927-4.297-24.261-8.742-37.867-16.39-31.176-17.525-51.884-51.846-52.75-53.299-1.873-3.141-.195-6.896 3.748-8.387 3.943-1.492 8.659-.155 10.532 2.985.287.478 19.901 32.852 47.586 48.415 12.377 6.957 24.014 11.15 35.268 15.205 13.011 4.688 26.465 9.535 39.914 18.386 14.209 9.352 27.716 23.555 39.633 36.085 7.989 8.401 15.535 16.335 22.114 21.61 15.153 12.148 37.694 12.288 37.922 12.288 4.366 0 7.906 2.818 7.906 6.295 0 3.478-3.54 6.296-7.906 6.296" fill="#FFD949"/>
    <path d="m219.387 236.257-35.768 79.894-9.114 36.289 13.938-38.85 30.944-77.333zM182.67 225.679l-34.835 57.897-7.049 25.766 10.782-27.584 31.102-56.079M143.413 327.981l-13.072 23.517-2.225 18.984 10.782-27.585 4.515-14.916M151.467 227.436l-47.02 76.744-15.77 40.027 21.772-44.01 41.018-72.761M168.812 330.973l-7.857 22.807-9.488 14.132 17.345-36.939zM186.796 250.553l-14.193 39.981-10.569 15.74 24.762-55.721zM107.266 347.194l-7.693 24.87-5.743 2.025 13.436-26.895z" fill="#A5D35E"/>
    <path d="M278.278 83.89H115.291V60.832h162.987V83.89z" fill="#FF5E00"/>
    <path d="m347.464 219.291-2.762-.339c-.19-2.509-.381-5.017-.574-7.525l8.153-.022-4.817 7.886" fill="#FF9D39"/>
    <path d="M348.716 217.604c.223 1.201 1.767 1.281 2.527 1.485 1.537.415 1.64.924 1.428 1.903-2.893-.01-5.719-.012-8.587-.02-.111-.896-.091-1.789.364-2.624.808.234 2.103.821 2.923.515.491-.182-.047-.898.263-1.216.229-.234 1.054-.19 1.082-.043z" fill="#39B54A"/>
    <path d="M352.775 220.146c.039.29.019.572-.119.845l-8.57-.018a4.377 4.377 0 0 1-.081-.846l8.77.019" fill="#FAD3A3"/>
    <path d="M337.42 172.228c-2.07 10.306 2.083 21.203 6.624 30.769-.038 4.743.044 8.279-.017 13.022 1.905.174 3.704.313 5.675.51 4.452-4.983 10.878-8.591 13.577-14.43 4.049-8.762 4.773-20.132 6.606-29.418-10.876-.179-21.631-.274-32.465-.453" fill="#26807A"/>
    <path d="M344.033 215.619c-.152-1.48-.074-3.26.015-5.068.005 1.612.005 3.254-.015 5.068zm.003-11.312a8.648 8.648 0 0 0-.23-1.143c-.191-.685-.566-1.714-1.037-2.918.418.928.845 1.845 1.275 2.752-.004.446-.006.882-.008 1.309zm-3.942-10.566-.009-.02.001-.001.008.021" fill="#708281"/>
    <path d="M344.068 215.934a14.491 14.491 0 0 1-.036-.316c.021-1.813.021-3.456.016-5.067.109-2.205.236-4.45-.012-6.244.002-.427.004-.863.008-1.31-.431-.906-.857-1.823-1.275-2.752-.761-1.947-1.776-4.352-2.675-6.504l-.008-.022a121.02 121.02 0 0 0 2.134-4.976c2.253-.411 4.483-1.094 6.721-1.608a667.983 667.983 0 0 1-5.87 4.5c1.693 3.76 3.283 7.529 4.604 11.389-1.226 4.676-2.436 8.368-3.607 12.91" fill="#194F4C"/>
    <path d="M343.457 214.434c.161.646.178 1.28.283 1.921l6.599.85c.349-.691.785-1.374 1.076-2.07l-6.485-.571-1.473-.13z" fill="#78C9BA"/>
    <path d="M371.106 147.099c2.869 2.964 8.171 6.694 12.009 8.728 2.291 1.214 4.443 1.386 6.88 2.033-.095 3.046-.233 6.119-.216 9.204-4.134-.271-6.473-.183-10.94-.798-6.575-.906-13.854-4.065-19.522-7.244 4.548-3.845 7.173-8.116 11.789-11.923" fill="#FF9D39"/>
    <path d="M381.481 154.933c-2.957-2.367-7.751-5.238-10.377-7.841-4.188 3.809-6.283 8.09-10.441 11.919 5.453 3.606 20.138 8.26 28.298 8.003 2.565 1.679.259-3.24.259-3.24s-8.041.244-9.719-2.215c-1.134-1.663-1.281-4.376 1.98-6.626z" fill="#FF5F00"/>
    <path d="M362.887 139.82c3.363 2.28 9.661 7.82 16.494 12.947 0 0-2.863 4.038-3.794 5.561-1.678 2.748-2.918 4.111-5.432 5.987-8.274-1.427-16.896-2.954-24.874-4.844 2.422-3.84 16.071-20.691 17.606-19.651z" fill="#8CC63F"/>
    <path d="m370.18 164.317-.023-.004c.088-.065.174-.131.258-.196l.015.006c-.083.067-.167.131-.25.194" fill="#68C775"/>
    <path d="m370.43 164.124-.015-.006.335-.258c-.106.091-.213.179-.32.264" fill="#68AF46"/>
    <path d="M369.932 164.276c-8.28-1.348-16.569-2.864-24.702-4.697-.921.109-1.844.212-2.766.317 1.249-.662 2.948-1.85 4.878-3.316-.93 1.233-1.653 2.245-2.06 2.891 7.906 1.873 16.444 3.39 24.65 4.805zm2.032-17.324c-2.01-1.624-3.863-3.14-5.47-4.417 2.302 1.573 4.036 3.003 5.47 4.417z" fill="#68C775"/>
    <path d="m370.157 164.313-.225-.037c-8.206-1.416-16.744-2.932-24.651-4.805.408-.646 1.131-1.658 2.061-2.891 6.152-4.674 14.648-12.184 18.4-14.549.258.17.508.338.752.505 1.607 1.276 3.46 2.793 5.47 4.416 2.451 2.417 4.025 4.788 6.062 7.746-1.003 1.137-4.116 6.474-7.277 9.164-.109.085-.22.171-.334.257l-.258.194" fill="#4DB947"/>
    <path d="m309.893 215.934-1.907-2.355c2.504-1.256 5.013-2.504 7.518-3.759 1.415 1.112 2.834 2.219 4.252 3.327-3.288.928-6.576 1.855-9.863 2.787z" fill="#FF9D39"/>
    <path d="M340.627 172.311c-7.07-.223-28.417-10.29-30.679-3.697-2.458 7.168 4.854 26.327 4.854 26.327s-1.375 12.675-4.086 16.921c.659 1.382 1.337 2.755 1.998 4.144.033-.033.012-.009-.003.015-.011.017-.019.035.003.03 5.258-1.367 15.648-6.832 19.793-10.595 4.983-4.524 8.703-14.12 11.082-20.156-.965-4.432-1.808-8.614-2.962-12.989" fill="#26807A"/>
    <path d="M310.754 211.803a2.785 2.785 0 0 1-.025-.086c.468-.767.887-1.676 1.262-2.67-.375 1.084-.788 2.036-1.237 2.756zm4.045-16.835c-.175-.416-5.356-12.77-5.341-21.806.308 8.586 5.344 21.78 5.344 21.78l-.003.026" fill="#652B20"/>
    <path d="M342.561 180.532c-.526-2.426-1.063-4.825-1.688-7.274 5.747 1.622 15.888 4.772 6.609 6.567a50.388 50.388 0 0 1-4.921.707" fill="#194F4C"/>
    <path d="M310.301 167.913c.513-1.287 1.853-1.787 3.695-1.787 1.337 0 2.938.264 4.679.682-1.491-.268-2.876-.429-4.089-.429-1.991 0-3.517.433-4.285 1.534" fill="#652B20"/>
    <path d="m310.903 212.279-.011-.048.018.04-.007.008z" fill="#705B32"/>
    <path d="m310.911 212.271-.019-.039c-.035-.147-.093-.286-.138-.429.449-.72.862-1.671 1.237-2.756 2.137-5.672 2.813-14.068 2.813-14.068l-.005-.01.003-.027s-5.036-13.193-5.344-21.779c.003-1.957.25-3.759.844-5.25.768-1.1 2.294-1.533 4.284-1.533 1.213 0 2.598.16 4.09.429 6.488 1.559 14.911 5.262 18.8 5.449.104.103 1.515.47 3.396 1.001.626 2.449 1.163 4.847 1.689 7.273a45.787 45.787 0 0 1-4.243.199c-5.181 0-9.356-.902-12.664-1.803-3.309-.902-5.752-1.804-7.471-1.804-.329 0-.632.033-.909.106 4.394 13.62 6.809 23.034-6.363 35.041" fill="#194F4C"/>
    <path d="M336.405 139.123c1.907-5.602 8.059-6.512 14.066-5.217 5.356 1.154 12.347 3.103 11.039 8.883-1.308 5.779-10.789 6.275-15.716 5.274-4.926-1.001-11.295-3.337-9.389-8.94" fill="#FF9D39"/>
    <path d="M354.644 139.084c-2.85-1.425-5.793-2.721-8.722-4.038 1.411-1.614 3.621-5.038 4.621-6.828a319.759 319.759 0 0 0 8.936 3.863c-1.165 1.766-3.451 5.337-4.835 7.003" fill="#FF9D39"/>
    <path d="M357.846 134.568c.324-.501 1.911-2.785 2.234-3.287a309.284 309.284 0 0 1-9.144-3.931c-.538.999-2.281 4.198-3.009 5.124 3.422.417 6.739 1.012 9.919 2.094" fill="#FF5F00"/>
    <path d="M343.746 132.933s3.386 6.112 9.318 6.873c3.188.409 4.802-1.204 5.547-3.385 4.519 3.655 7.084 4.866 10.097 10.262 4.321 7.737 5.884 21.496 4.408 30.485-.523 3.188-21.386 4.928-33.016-.158-7.374-3.225-19.45-8.686-29.363-7.737-1.037.099-1.286-.19-1.076-1.031 2.114-8.442 12.043-32.771 34.085-35.309z" fill="#8CC63F"/>
    <path d="M311.514 215.847c-1.054.756-1.084 1.227-1.13 2.223-.036.778-1.077.89-1.841.992-.895-1.831-1.77-3.653-2.659-5.479 1.008-.409 2.063-.705 3.201-.666-.065.505-.349 1.227.227 1.618.345.234.916-.34 1.429-.187.375.113.968 1.357.773 1.499" fill="#39B54A"/>
    <path d="M306.842 213.221a7.61 7.61 0 0 0-.957.362c.885 1.826 1.77 3.651 2.653 5.478.37.006.704-.079 1.03-.212a7241.87 7241.87 0 0 0-2.726-5.628" fill="#FAD3A3"/>
    <path d="M385.01 114.689c-.812 1.612-2.968 2.301-4.972 1.655-2.004-.646-3.028-2.363-2.248-3.998.78-1.634 3.007-2.267 5.005-1.621 1.999.646 3.027 2.352 2.215 3.964" fill="#510E00"/>
    <path d="M377.194 116.166c1.961-1.34 3.557-2.744 4.55-4.669-.42-.363-.827-.753-1.446-.928-1.996-.564-4.072-.175-5.003 1.463-.931 1.637.022 3.201 1.841 4.114l.058.02z" fill="#480200"/>
    <path d="M375.144 108.813c3.392.285 5.459 1.835 5.64 4.672.165 2.585-.383 5.005-1.808 7.304.199 1.915-.049 1.752-.373 3.986-.865 5.953-9.509 10.126-15.831 9.314-14.472-1.86-22.563-12.951-18.692-23.096 4.332-2.683 8.229-5.372 12.38-8.065a3145.758 3145.758 0 0 1 18.684 5.885z" fill="#FF9D39"/>
    <path d="M367.154 116.679a1.011 1.011 0 0 1-1.228.696c-.618-.142-.852-.681-.711-1.146.14-.466.638-.827 1.253-.685.614.142.827.672.686 1.135M376.433 117.745c-.117.399-.526.764-1.07.644-.544-.121-.7-.614-.583-1.013.116-.398.525-.764 1.07-.644.543.121.698.614.583 1.013" fill="#000"/>
    <path d="M359.277 121.121c-.737 1.23-2.427 1.013-3.8.352-1.14-.55-2.827-2.038-2.071-3.215.758-1.176 2.653-.864 3.871-.294 1.218.57 2.738 1.926 2 3.157M378.969 122.761c-1.183-.292-2.413.313-2.98 1.373-.364.679.42 1.499 1.268 1.864.171.072.597.273.824.32.366-.688.978-2.544.888-3.557" fill="#FF3B00"/>
    <path d="M364.627 112.607c1.503.196 2.637.35 4.288.341.804-.005 1.277-1.265.223-1.74-1.385-.623-3.82-.59-5.116.237-.58.37.108 1.097.605 1.162zM379.723 115.004c-.986.1-2.294-.363-3.065-1.001-.453-.374-.483-1.184.41-1.255 1.174-.093 2.717.71 3.177 1.535.205.37.045.663-.522.721z" fill="#3A0901"/>
    <path d="M366.938 131.247a.356.356 0 0 0 .222.013c.886-.237 1.438-.582 1.639-1.027.187-.415.067-.9-.358-1.443-.085-.109-.266-.143-.403-.074-.138.068-.179.212-.094.321.325.415.427.764.304 1.038-.138.303-.567.553-1.274.742-.153.041-.237.173-.185.295a.256.256 0 0 0 .149.135" fill="#CF0500"/>
    <path d="M386.242 104.5c1.182 2.699.388 5.728-2.523 7.706-4.272 2.903-11.97-.715-14.858-2.275-3.653-1.973-4.911-2.926-8.579-2.922.198.436 2.183 2.376.792 2.546-1.391.171-2.532-2.057-4.583-1.595-4.903 1.104-5.733 7.195-9.109 5.884-4.65-1.806-3.704 6.299-2.991 8.743-3.702-3.293-6.278-3.291-7.956-8.68-1.226-3.935.456-11.844 6.614-14.192 1.72-.655 2.436-.767 4.02-.24.141-.762.467-1.958 1.249-2.428 8.612-5.176 21.767-4.686 28.946 1.27 3.123 2.591 3.588 5.305 5.767 7.028 1.997 1.579 1.945-.8 3.211-.845z" fill="#510E00"/>
    <path d="M347.492 113.914c2.758 1.115 4.012-2.857 5.314-4.412-2.458-1.239-3.799-2.386-4.273-5.053-.451-2.54.857-6.18 2.315-8.718-.863.39-1.768.716-2.554 1.29-.786.575-1.053 1.637-1.228 2.458-1.581-.533-2.296-.42-4.015.234-6.157 2.342-7.846 10.269-6.617 14.193 1.683 5.375 4.264 5.407 7.942 8.672-.479-2.315-1.969-10.721 3.116-8.664" fill="#3A0901"/>
    <path d="M347.199 116.584c-1.502 1.46-4.061.253-5.409-.503-1.938-1.087-3.177-3.149-1.964-4.644 1.454-1.791 4.51-.652 5.812.187 1.931 1.244 3.063 3.501 1.561 4.96z" fill="#FF9D39"/>
    <path d="M351.587 128.594c-4.738-3.724-6.497-7.608-5.594-13.455-.856-.049-2.488.21-2.791-.547-.232-.577.905-1.323.453-1.866-.531-.638-1.769-.621-2.495-.754-.726-.132-.909-.275-1.319-.677l-.042.051c-1.294 1.901-.215 3.61 1.563 4.967.666.508 1.225.64 2.014.864-1.12 14.779 19.36 17.851 22.169 16.903-5.213-.985-9.927-2.32-13.958-5.486" fill="#FF5F00"/>
    <path d="M343.631 115.275c.295.116.614.156.913.193.1.013.202.025.306.041.159.024.312-.059.342-.186.03-.127-.074-.249-.234-.273a13.06 13.06 0 0 0-.323-.043c-.554-.069-.955-.119-1.224-.555-.055-.091.076-.356.172-.551.178-.36.38-.768.139-1.116-.32-.464-1.132-.648-1.784-.796a10.117 10.117 0 0 1-.4-.096c-.153-.041-.32.024-.371.146-.052.122.031.256.183.296.126.034.272.067.428.103.518.118 1.227.279 1.431.572.108.156-.04.456-.171.72-.158.321-.323.653-.153.928.199.322.461.505.746.617" fill="#CF0500"/>
    <path d="M370.981 118.761c1.009 1.454 1.92 1.192 2.449 2.365.573 1.269-2.023 1.252-2.829.467-1.093-1.064-.068-3.477.38-2.832z" fill="#FF5F00"/>
    <path d="M364.897 124.659c-.21-.146-.681-.331-.728-.672-.084-.612.644-.847 1.369-.446.227.126.41.291.551.48.407.552-.527 1.113-1.125.685l-.067-.047" fill="#CF0500"/>
    <path d="m311.752 209.789-1.451 1.765c.777 1.536 1.554 3.072 2.336 4.606l2.767-.773c-1.22-1.865-2.436-3.731-3.652-5.598z" fill="#78C9BA"/>
    <path d="M309.661 168.241c2.114-8.441 12.043-32.771 34.085-35.309 0 0 .354.638 1.03 1.524-17.093 8.688-6.968 33.459 12.245 43.582.648.341 2.483 1.87 3.166 2.167-6.615.134-14.439-.726-20.087-3.196-7.374-3.224-19.45-8.686-29.363-7.737-1.037.1-1.286-.19-1.076-1.031" fill="#39B54A"/>
    <path d="m533.503 167.933-268.84 2.085v-11.91h268.84v9.825z" fill="#FF9600"/>
    <path d="M386.462 162.524c1.774 1.689 4.033 2.72 6.774 3.02 2.22.243 4.59.319 6.774-.143 2.04-.433 3.672-1.425 4.204-3.108.461-1.454-.074-2.837-.82-4.184h-20.331c.982 1.549 2.008 3.092 3.399 4.415zM327.283 165.586c2.463.399 5.504.128 7.323-1.385 1.482-1.234 2.196-3.012 2.994-4.56.256-.497.518-1.022.818-1.533h-20.795c.999 1.655 2.18 3.258 3.733 4.615 1.6 1.399 3.571 2.482 5.927 2.863" fill="#FF5E00"/>
    <path d="m179.814 168.941-36.994 1.928V158.96l36.994.155v9.826z" fill="#29ABE2"/>
    <path d="M389.996 153.173c-2.845.723-2.53 2.275-2.611 4.291-.058 1.413.077 2.254.078 3.583.541.763 1.223.532 1.905-.147.315-.315.741-1.123.925-1.563.618 1.029 1.765 2.568 2.546 3.385.781.816 2.605 2.355 3.505 2.172 1.308-.265-.373-1.896-.484-2.283.555.651 2.071 2.772 3.263 2.42 1.192-.352-.447-2.657-.728-3.211.3.394 1.35 2.014 2.107 1.732 1.009-.377.336-1.994.192-2.607.308.247.342 1.834 1.468 1.326.878-.396.623-1.897.514-3.557-.107-1.66-5.44-7.379-12.68-5.541M327.571 152.247c3.293-.263 4.36 1.098 6.203 2.717 1.293 1.135 1.905 1.861 3.069 2.945.163.784-.678.8-1.912.45-.57-.161-1.677-.693-2.234-.996.323 1.024.6 2.622.586 3.522-.016.9-.371 2.701-1.374 2.822-1.454.175-1.313-1.658-1.549-2.008.052.698.494 2.881-.929 2.951-1.423.07-1.912-2.301-2.135-2.836.065.41.504 2.047-.452 2.043-1.274-.005-2.061-1.526-2.465-2.068-.071.294 1.287 1.598-.21 1.521-1.168-.06-2.246-1.36-3.6-2.746-1.354-1.387-1.38-7.648 7.002-8.317" fill="#FF9D39"/>
    <path d="M437.405 60.833h41.039c-11.03-9.589-30.008-9.589-41.039 0z" fill="#E3240D"/>
    <path d="M478.444 60.833h41.039c-11.03-9.589-30.008-9.589-41.039 0z" fill="#29ABE2"/>
    <path d="M519.484 60.833h41.039c-11.03-9.589-30.007-9.589-41.039 0z" fill="#FFDB24"/>
    <path d="M536.609 315.796c2.064 2.809-7.183 10.187-20.661 16.48-13.477 6.293-25.277 10.488-26.804 8.31-3.096-4.415 2.755-13.861 16.231-20.154 13.478-6.293 29.165-7.444 31.234-4.636" fill="#112F2D"/>
    <path d="M500.726 326.455c7.386 3.264 14.477 6.728 21.07 10.944 3.617 6.908 8.748 13.239 14.505 19.14 1.904-.542 3.797-1.12 5.672-1.715-.957-.371-2.069-.758-2.89-1.181-.097-7.883 3.067-16.052.519-23.986-3.152-9.81-11.789-18.75-20.861-25.888-6.996 7.415-9.495 15.202-18.015 22.686" fill="#FF4618"/>
    <path d="M526.428 335.287c-.855-2.84-5.392-11.449-5.392-11.449s8.271-2.303 12.341-5.334c-4.041-5.405-8.804-10.345-14.685-14.741-7.01 7.264-9.737 14.982-18.339 22.282 7.517 3.399 14.751 6.979 21.444 11.354 1.936 3.704 4.284 7.158 6.923 10.57-.068-4.174-1.368-9.636-2.292-12.682" fill="#E3240D"/>
    <path d="M542.589 354.073c1.727-.246 1.636.7 2.292 1.401-3.073.77-5.992 1.679-9.024 2.442-.428-.774-.77-1.595-.61-2.448.638.386 1.02.488 1.972.456 1.608-.054 4.087-1.669 5.37-1.851" fill="#FFDB24"/>
    <path d="M535.441 357.071c.108.291.25.57.416.845 3.021-.757 5.974-1.685 9.007-2.432a6.828 6.828 0 0 0-.479-.796c-3.004.74-5.934 1.652-8.944 2.383z" fill="#112F2D"/>
    <path d="M535.555 324.658c-.08-.35-.416-.685-.895-.606-.485.079-.633.508-.553.853.08.345.41.69.889.609.479-.08.644-.508.559-.856M528.127 327.984a.766.766 0 0 0-.866-.566c-.451.073-.599.463-.513.79a.763.763 0 0 0 .866.562c.445-.071.599-.458.513-.786z" fill="#FFDB24"/>
    <path d="M525.932 320.478c-.085-.348-.416-.684-.899-.605-.48.079-.633.508-.551.854.082.344.413.688.892.608.473-.08.638-.508.558-.857M519.234 323.614a.763.763 0 0 0-.864-.566c-.45.073-.602.463-.516.79a.762.762 0 0 0 .865.562c.449-.071.6-.459.515-.786M524.349 334.816a.788.788 0 0 0-.928-.551.662.662 0 0 0-.538.851c.099.35.464.645.934.549.47-.095.633-.501.532-.849" fill="#FFAB00"/>
    <path d="M535.794 331.756c-.125-.329-.524-.56-.963-.485-.439.075-.621.413-.496.745.126.332.53.568.963.485.439-.084.627-.416.496-.745zM529.723 335.777c-.131-.327-.496-.618-.952-.515-.45.102-.587.499-.45.834a.847.847 0 0 0 .975.507c.456-.103.558-.498.427-.826zM538.217 339.788c-.171-.323-.598-.544-1.043-.43-.439.113-.542.511-.371.834a.905.905 0 0 0 1.038.426c.433-.132.547-.508.376-.83M532.328 342.563c-.188-.33-.632-.584-1.088-.439-.462.145-.531.561-.342.893.188.332.638.586 1.094.441.456-.145.525-.563.336-.895zM537.014 352.641a.943.943 0 0 0-1.123-.36c-.45.167-.581.56-.37.905.216.346.701.528 1.163.368.461-.161.553-.574.33-.913" fill="#FFDB24"/>
    <path d="M526.702 341.386c-.154-.347-.542-.657-1.021-.526-.482.131-.594.573-.452.926a.904.904 0 0 0 1.062.512c.479-.13.559-.564.411-.912" fill="#FFAB00"/>
    <path d="M538.063 347.563a.922.922 0 0 0-1.095-.368c-.439.167-.501.579-.29.902.211.322.672.539 1.111.37.433-.17.479-.582.274-.904M532.198 349.002a.986.986 0 0 0-1.158-.405c-.461.168-.547.597-.336.942a.981.981 0 0 0 1.151.406c.468-.168.553-.597.343-.943" fill="#FFDB24"/>
    <path d="m484.408 333.979 20.487 10.303 9.91 17.421 5.535-.513-2.227-1.724s8.441-17.324 6.431-23.098c-2.487-7.141-18.385-21.138-18.385-21.138l-21.751 18.749z" fill="#FF4618"/>
    <path d="M497.793 334.15s15.229 9.028 12.247 19.175l-5.145-9.042-20.487-10.304 24.868-20.402s4.661 3.815 8.408 12.076c-12.304-1.539-19.891 8.497-19.891 8.497" fill="#E3240D"/>
    <path d="M521.309 360.547c1.456.141 1.485 1.846 1.485 1.846l-8.76.517c-.453-1.461.105-2.37.105-2.37s.364.542 1.597.755c2.081.36 4.49-.853 5.573-.748" fill="#FFDB24"/>
    <path d="M513.873 362.054c.021.27.069.558.162.856l8.76-.517s-.047-.408-.191-.855l-8.731.516" fill="#112F2D"/>
    <path d="M519.976 332.39c-.111-.346-.552-.555-.986-.467-.433.088-.696.439-.586.785.11.345.552.554.985.466.434-.087.697-.438.587-.784zM513.787 336.372c-.11-.345-.551-.554-.984-.467-.434.088-.697.439-.587.785.111.345.551.554.985.466.434-.087.697-.439.586-.784zM515.03 329.384c-.11-.346-.552-.554-.985-.467-.434.088-.696.439-.586.784.11.346.551.555.985.467.433-.088.696-.439.586-.784M507.004 332.438c-.111-.345-.551-.554-.985-.466-.434.087-.696.439-.586.784.11.345.551.554.985.467.433-.088.696-.439.586-.785z" fill="#FFDB24"/>
    <path d="M505.389 341.613c-.11-.346-.551-.555-.985-.467-.434.088-.696.439-.586.784.11.346.552.554.985.467.434-.087.696-.439.586-.784zM509.45 324.161c-.11-.346-.551-.555-.985-.467-.433.088-.695.439-.585.784.109.346.551.555.984.467.434-.088.696-.439.586-.784zM499.721 329.435c-.11-.346-.551-.555-.984-.467-.434.088-.697.439-.587.784.111.346.551.555.985.467.434-.088.696-.439.586-.784M497.492 337.292c-.11-.345-.551-.554-.984-.467-.434.088-.697.439-.587.784.111.346.551.555.985.467.434-.088.697-.439.586-.784z" fill="#FFAB00"/>
    <path d="M522.028 339.68c-.11-.347-.551-.556-.984-.468-.434.088-.696.439-.587.785.111.346.552.554.985.467.435-.088.697-.439.586-.784zM514.007 343.644c-.11-.345-.551-.554-.985-.466-.433.087-.695.439-.586.784.11.346.551.555.985.467.433-.088.696-.439.586-.785zM521.149 347.186c-.111-.345-.552-.554-.985-.467-.434.088-.696.439-.587.785.111.346.552.555.985.467.434-.088.697-.439.587-.785zM515.197 350.066c-.11-.345-.551-.554-.985-.466-.433.088-.695.439-.585.785.109.345.55.554.984.466.434-.088.696-.439.586-.785zM516.547 358.227c-.11-.346-.551-.555-.985-.467-.433.088-.696.439-.586.784.11.346.551.554.985.467.434-.088.696-.439.586-.784z" fill="#FFDB24"/>
    <path d="M509.488 347.628c-.11-.346-.551-.555-.985-.467-.433.087-.696.439-.586.784.111.346.552.555.985.467.434-.087.696-.439.586-.784z" fill="#FFAB00"/>
    <path d="M519.25 353.873c-.109-.346-.551-.554-.984-.467-.434.088-.696.44-.586.785.11.345.551.554.985.467.434-.088.696-.439.585-.785zM513.027 354.511c-.11-.345-.551-.554-.984-.466-.434.088-.696.439-.586.784.11.345.551.554.985.467.434-.087.696-.439.585-.785z" fill="#FFDB24"/>
    <path d="M507.786 267.078c-.551 0-1.11-.141-1.654-.492-1.852-1.194-1.926-3.513-.116-5.188.863-.8 2.918-2.018 4.717-2.018.745 0 1.446.209 2 .742 1.581 1.521.496 3.962-1.294 5.345-.895.691-2.246 1.611-3.653 1.611" fill="#FF8842"/>
    <path d="M481.779 280.087c-2.215 2.576-11.982 7.511-17.216 7.038-4.291-.389-7.837-1.761-10.93-3.177-2.13 2.562-3.869 4.527-6 7.143 3.598 2.635 10.689 5.87 14.575 6.693 6.346 1.345 18.103-.031 23.145-3.223-1.298-5.102-2.236-9.444-3.574-14.474z" fill="#FFA655"/>
    <path d="m470.584 286.172-.001-.001s.413-.184 1.081-.491l.098.094c-.393.141-.787.274-1.178.398" fill="#C8733A"/>
    <path d="M478.335 282.374a38.189 38.189 0 0 0 1.639-.943l.074.141c-.095.068-.193.136-.293.204l-.516.217c-.308.128-.61.255-.904.381" fill="#FF7F13"/>
    <path d="M470.592 298.22c.146-.121 2.17-1.243 2.605-3.31.661-3.144-2.565-8.655-2.613-8.737.391-.124.785-.258 1.178-.4 3.734 3.612 3.654 9.281 3.362 11.98-1.5.224-3.032.382-4.532.467zm9.163-16.443.293-.204.037.069-.33.135" fill="#FF7116"/>
    <path d="M456.479 288.906c.743-3.16.196-4.79-1.568-6.584-1.918-1.954-2.733-2.199-4.39-3.792-1.149-1.103-1.636-3.179-2.653-3.897-1.017-.718-2.548 1.058-1.571 3.956 0 0-6.487-4.95-7.65-4.069-1.13.855 2.251 4.233 2.515 4.483-.657-.227-5.201-3.481-6.755-2.105-1.065.944 3.618 3.816 4.22 4.137-.565-.072-5.111-1.276-5.675-.261-.662 1.19 5.909 3.416 6.852 4.002-.659-.41-7.147.171-7.138 1.128.008.777 6.297 1.287 6.297 1.287 1.251 1.397 2.974 3.181 5.003 3.999 3.809 1.536 11.663 1.328 12.513-2.284" fill="#FFA655"/>
    <path d="M447.548 289.023c-.786 0-1.536-.171-1.988-.509-2.843-2.129-1.369-5.757 2.234-6.951.094.016.589 2.18.605 2.202 1.165 1.524 2.468 2.255 2.216 3.663-.192 1.069-1.686 1.595-3.067 1.595" fill="#FF7116"/>
    <path d="M451.224 287.238a.282.282 0 0 0 .182-.042c.099-.066.112-.182.029-.261l-.255-.243c-1.792-1.699-3.206-3.042-3.166-5.651.002-.102-.102-.187-.229-.188-.129-.001-.235.081-.236.183-.042 2.747 1.494 4.206 3.274 5.895l.256.242c.038.036.09.058.145.065zM440.802 286.478c.103.012.206-.032.248-.113.909-1.753 3.153-4.533 4.802-5.948.088-.075.082-.192-.012-.262a.276.276 0 0 0-.329.01c-1.68 1.441-3.965 4.272-4.892 6.059-.049.095.008.203.126.242l.057.012z" fill="#CF0500"/>
    <path d="M506.02 276.988c3.439 1.499 12.843-.366 15.618-1.21 2.111-.642 5.908-3.338 6.865-6.333.958-2.977 11.527-1.267 10.712 1.784-1.386 5.211-4.698 10.518-7.537 12.788-6.918 5.542-20.759 7.053-20.759 7.053s-3.234-9.114-4.899-14.082" fill="#FFA655"/>
    <path d="M529.107 285.74a19.825 19.825 0 0 0 2.44-1.62c-.005.004-.011.008-.011.012a17.785 17.785 0 0 1-2.429 1.608zm4.168-3.261c1.47-1.648 2.952-3.917 4.138-6.41.057-.039.108-.077.16-.118-1.203 2.558-2.754 4.841-4.298 6.528z" fill="#FF8842"/>
    <path d="M522.187 288.487c-.372-2.578-1.339-6.472-3.835-9.986 2.586 1.579 5.141 3.839 6.919 6.513 0 0 8.015-2.552 11.754-8.604.086-.137.24-.237.388-.341-1.186 2.493-2.668 4.762-4.139 6.41a15.198 15.198 0 0 1-1.727 1.642 20.134 20.134 0 0 1-2.44 1.62c-2.086 1.157-4.507 2.054-6.92 2.746" fill="#FF7116"/>
    <path d="M471.518 285.545c5.347 4.831 3.375 13.735 3.375 13.735l1.62 3.834 39.37-5.518 3.013-4.748 3.524-1.459s.165-8.894-5.913-15.099c0 0-8.998-.846-18.598.254-11.72 1.344-26.391 9.001-26.391 9.001" fill="#FFDB24"/>
    <path d="M480.858 281.332c.799.927 1.56 1.875 2.243 2.853 1.076 1.541 1.948 3.161 3.5 4.451.345.287.811.297 1.172.161 3.91.71 10.615 1.209 13.633-1.159 3.821-2.996 2.645-9.24 1.895-11.635 3.387-.196 1.673-.148 4.089-.08 2.386 2.778 6.173 11.401 8.891 13.136 1.823 1.164 4.529.944 6.084 1.025.064.821.055 1.305.055 1.305l-3.524 1.459-3.013 4.748-39.37 5.518-1.62-3.834s.334-1.502.294-2.221c6.759-3.241 5.878-9.68 4.029-15.056.666-.282.916-.381 1.642-.671" fill="#FFAC00"/>
    <path d="M487.177 279.923c.338 1.702 4.713 3.902 9.708 3.127 4.301-.667 6.56-3.856 5.827-5.284-.922-1.796-3.619-2.022-7.946-1.478-4.328.545-7.927 1.932-7.589 3.635z" fill="#FFA655"/>
    <path d="M488.448 278.07c-.281-1.686 2.02-3.362 5.183-3.761.46-.058.912-.086 1.352-.086 2.276 0 4.193.744 4.842 1.898-.47-.064-.99-.094-1.56-.094-1.013 0-2.18.095-3.5.261-2.601.327-4.939.96-6.317 1.782" fill="#FF8842"/>
    <path d="M494.908 281.406c-2.975 0-6.143-1.737-6.45-3.284l-.01-.052c1.378-.822 3.716-1.454 6.317-1.781 1.32-.166 2.487-.261 3.5-.261.57 0 1.09.03 1.56.094.097.172.166.353.203.542.339 1.703-1.044 4.285-4.239 4.688-.29.036-.584.054-.881.054" fill="#FF7116"/>
    <path d="M489.145 340.585s-2.468-3.844 3.33-10.662c9.555-11.235 25.65-9.186 33.195-12.642 8.066-3.698 10.597-1.945 10.597-1.945s-3.654-2.653-6.219-4.004c-4.629-2.439-8.89-6.153-11.602-13.818-5.684-16.07-11.251-22.153-11.251-22.153l-3.606.073s2.213 6.029 1.592 9.509c-1.08 6.047-10.454 5.784-13.98 2.737-4.224-3.653-6.31-9.454-6.31-9.454l-5.582 1.977s6.675 11.719 4.665 15.927c-2.184 4.575-8.761 4.244-8.761 4.244s-2.735 20.082-1.019 26.06c1.825 6.352 14.951 14.151 14.951 14.151" fill="#247A77"/>
    <path d="M475.357 300.378c-.094-.001-.144-.004-.144-.004s.05.003.144.004z" fill="#1B6175"/>
    <path d="m475.506 300.38-.149-.001.143.001c1.117 0 5.216-.188 7.538-2.832v.004c-2.318 2.639-6.409 2.828-7.532 2.828z" fill="#70611B"/>
    <path d="M489.145 340.585s-13.126-7.799-14.951-14.151c-.41-1.431-.566-3.668-.566-6.245.002-8.193 1.585-19.815 1.585-19.815s.05.003.144.004l.149.002c1.123 0 5.214-.19 7.532-2.829.859 7.62-2.239 15.286-.973 22.937.493 2.98 1.959 5.606 4.865 7.579 1.506 1.022 5.078 2.401 5.078 2.401-5.392 6.516-2.863 10.117-2.863 10.117" fill="#194D4B"/>
    <path d="M467.201 258.492c-1.92 2.203-5.654 3.965-10.263 2.896-2.799-.648-6.209-3.646-7.236-6.191.236-.017.632.046.929.059-.297-.795-.614-1.613-.904-2.395 1.232.292 2.771.947 4.085.74 2.429-.385 5.007-1.788 7.287-1.741 1.669.034 2.057.127 3.272.654-.941-.639-1.437-1.124-2.685-1.486-1.087-.313-2.789-.335-4.006-.319 1.791-.634 4.363-1.726 6.301-1.152 2.645.783 4.343 2.783 5.99 4.429-1.475 1.873-.852 2.304-2.77 4.506" fill="#FF4618"/>
    <path d="M452.271 253.513c1.257 1.669 3.218 2.746 5.357 3.637-.564-.635-.982-1.329-1.195-2.077 1.871.703 3.49 1.269 5.662.696 2.492-.657 4.427-2.28 7.295-2.37.233.164.308.448.572.596-1.455 1.855-.847 2.299-2.761 4.498-1.916 2.2-5.657 3.968-10.262 2.895-2.797-.65-6.212-3.644-7.237-6.19.236-.017.632.044.929.059-.3-.8-.607-1.604-.91-2.404.833.264 1.684.479 2.55.66z" fill="#E3240D"/>
    <path d="M470.136 252.461c-1.611-.179-3.159 2.203-3.456 3.268-.276.995-.961 4.035.671 4.271 1.633.235 2.638-2.877 2.801-3.64.163-.762 1.594-3.72-.016-3.899" fill="#FFDB24"/>
    <path d="M495.694 246.071c3.286.75 7.46 1.505 10.12-1.686 1.615-1.938 1.767-6.032.462-8.554-.194.108-.448.358-.665.52-.426-.775-.856-1.58-1.277-2.342-.705.858-1.347 2.158-2.527 2.666-2.182.937-5.316 1.15-7.028 2.351-1.252.879-1.474 1.149-1.974 2.183.196-.982 1.355-2.519 2.017-3.44 0 0-3.1.088-4.116 1.528-1.386 1.964-1.079 3.793-.989 5.925 2.673.719 2.692.098 5.977.849" fill="#FF4618"/>
    <path d="M501.391 236.841c1.276 1.578 1.315 2.776.406 4.568a5.128 5.128 0 0 0-.792-2.241c-.858 1.506-1.556 2.165-3.694 2.822-2.455.756-5.417-.347-7.694 1.046-.044.247.195 1.938.114 2.188 2.644.714 2.684.097 5.964.847 3.28.75 7.464 1.505 10.119-1.687 1.611-1.937 1.771-6.03.462-8.553-.193.108-.448.357-.665.521-.427-.782-.853-1.569-1.279-2.352-.422.632-1.093 1.916-2.941 2.841" fill="#E3240D"/>
    <path d="M490.044 245.203c.781-1.137 4.158-.663 5.43-.199 1.188.434 4.864.585 4.128 1.771-.736 1.185-4.537-.083-5.418-.447-.882-.363-4.922.012-4.14-1.125" fill="#FFDB24"/>
    <path d="M508.505 259.251c1.432-1.799 2.396-3.566 2.538-5.718-.575-.225-1.147-.483-1.824-.469-2.185.045-4.021 1.016-4.275 2.852-.254 1.836 1.352 2.993 3.493 3.332l.068.003" fill="#480200"/>
    <path d="M501.872 251.048c4.359.888 9.207 6.574 7.458 16.36-.881 4.927-5.797 11.092-13.982 12.125-11.826 1.494-21.377-5.057-23.07-15.023-.622-3.663 7.84-9.438 10.15-12.746 7.268.34 12.139-.7 19.444-.716z" fill="#FFA655"/>
    <path d="M488.707 266.336c.223.441.101.985-.498 1.168-.599.183-1.162-.151-1.386-.593-.222-.442-.098-.986.501-1.168.601-.182 1.16.152 1.383.593M501.433 264.449c-.016.483-.412.949-1.061.941-.649-.009-1.013-.484-.997-.968.015-.484.412-.95 1.06-.941.649.008 1.014.483.998.968z" fill="#000"/>
    <path d="M487.886 271.674c-.178 1.328-1.812 1.705-3.399 1.538-1.32-.138-3.28-1.032-3.089-2.324.192-1.292 1.927-1.686 3.352-1.53 1.424.156 3.314.988 3.136 2.316zM507.657 266.675c1.077.832.51 1.955-.51 2.754-.849.664-2.719 1.272-3.755.453-1.038-.818-.431-2.009.491-2.722.922-.713 2.698-1.316 3.774-.485z" fill="#FF5D40"/>
    <path d="M484.441 265.013c1.268-.111 2.011-.212 3.444-.469.697-.125.55-.957-.419-1.06-1.273-.137-3.09-.168-3.9.693-.363.385.456.873.875.836zM501.073 262.207c-.779.026-1.934-.05-2.766-.43-.489-.222-.099-.764.503-.776.791-.016 2.352.033 2.858.585.227.247-.147.606-.595.621" fill="#E3240D"/>
    <path d="M496.78 271.514c-1.79.818-3.561.671-5.38-.021.3 1.023.845 2.09 2.379 2.222 1.533.131 2.539-1.142 3.001-2.201" fill="#fff"/>
    <path d="M514.468 261.111c.079-5.819-3.058-10.333-8.897-13.847-.19-.115 1.828.068 2.045.186-2.415-1.302-1.8-1.312-5.084-2.294-19.531-5.842-24.276 2.07-25.991 4.265-1.915.205-2.642.984-4.083 2.058-5.161 3.845-4.492 13.436-1.701 16.725 2.619 3.086 3.906 3.642 5.706 4.157.127-1.329-.968-3.767.651-4.168-1.12-5.535 1.108-5.283 2.075-8.943 3.596.444 7.592-2.672 18.161.414 3.563 1.042 8.971 2.151 12.729 1.527-1.618-.93-6.522-2.477-6.135-4.45 2.88 2.503 6.218 4.208 10.524 4.37" fill="#FF4618"/>
    <path d="M476.541 249.421c-.423.038-2.391.313-4.501 2.215-4.764 4.294-4.037 13.278-1.278 16.568 2.588 3.086 3.896 3.643 5.701 4.157.127-1.328 1.22-2.907.65-4.167-1.398-3.098 2.047-8.797 2.075-8.943-5.067-1.625-4.751-7.645-2.647-9.83" fill="#E3240D"/>
    <path d="M478.159 271.228c-.528 1.936-3.293 1.902-5.019 1.772-2.483-.188-5.247-1.551-5.208-3.525.046-2.365 4.402-2.626 6.241-2.353 2.729.407 4.493 2.251 3.986 4.106z" fill="#FFA655"/>
    <path d="M473.765 271.423c.41.046.765-.06 1.114-.164.121-.037.246-.075.379-.108.123-.03.192-.134.154-.232-.039-.098-.169-.153-.292-.122-.142.035-.276.076-.406.114-.52.156-.864.26-1.403-.027-.143-.077-.216-.369-.281-.627-.099-.397-.212-.848-.641-1.048-.603-.281-1.479-.118-2.183.012-.135.026-.263.049-.379.068-.126.02-.207.117-.182.218.025.1.147.165.274.145.12-.019.252-.043.393-.07.624-.115 1.399-.26 1.842-.053.249.117.336.464.42.801.09.36.175.7.479.862.257.137.492.206.712.231" fill="#CF0500"/>
    <path d="M495.35 266.965c.533.859 1.251.456 1.703 1.363.452.907-1.509 1.563-2.331.78-.908-.865.096-3.002.628-2.143" fill="#FF5F00"/>
    <path d="M506.956 250.039c1.386.922 2.426 3.11 3.043 4.541-1.872-.825-3.763-1.726-5.631-2.594.406.797.811 1.597 1.223 2.394-3.005-2.218-6.06-4.406-9.386-6.319 1.447.135 2.897.266 4.351.353a301.033 301.033 0 0 1-6.533-2.458c4.679.591 9.143 1.563 12.933 4.083" fill="#FF7336"/>
    <path d="M515.708 303.229s-3.803 1.698-10.784 3.332c-6.801 1.593-14.334 2.019-14.334 2.019s7.098 11.669 19.45 8.831c10.079-2.315 5.668-14.182 5.668-14.182" fill="#74C4B7"/>
    <path d="m509.751 310.235-2.412-1.491-.984 1.957-4.53.777 4.044 1.679.228 2.521 3.179-2.101 4.201-.521-1.618-1.043 1.94-2.146-4.048.368" fill="#FFF07B"/>
    <path d="M506.236 279.738a19.629 19.629 0 0 0-.922-2.465c-.044-.097.02-.203.141-.238.121-.034.254.016.297.113.381.847.696 1.69.937 2.505.03.1-.048.199-.173.223l-.086.003c-.092-.011-.172-.065-.194-.141zm.564 4.673c.065-.812.032-1.672-.095-2.557-.015-.102.077-.193.205-.205.128-.011.243.061.258.163.129.907.163 1.789.097 2.623-.009.102-.119.179-.247.173-.137-.015-.225-.099-.218-.197zm-21.573-1.18a24.802 24.802 0 0 1-1.113-2.456c-.038-.097.031-.201.153-.232.123-.03.254.025.292.122.329.843.698 1.659 1.098 2.423.049.095-.007.203-.125.243l-.122.012a.234.234 0 0 1-.183-.112zm20.021 5.879c-.11-.053-.145-.167-.079-.255a7.79 7.79 0 0 0 1.22-2.336c.032-.099.159-.158.283-.133.124.026.199.127.167.226a8.142 8.142 0 0 1-1.272 2.436c-.05.066-.142.097-.232.087l-.087-.025zm-17.121-1.674a19.198 19.198 0 0 1-1.729-2.226c-.06-.09-.017-.202.096-.251.113-.048.255-.013.315.077a18.764 18.764 0 0 0 1.696 2.183c.074.083.051.199-.053.259a.285.285 0 0 1-.169.033.248.248 0 0 1-.156-.075zm4.282 3.386a15.191 15.191 0 0 1-2.52-1.698c-.089-.073-.086-.19.006-.262a.278.278 0 0 1 .329.006c.773.64 1.595 1.194 2.444 1.646.107.057.135.172.064.257a.261.261 0 0 1-.227.08l-.096-.029zm8.183 1.114c-.039-.098.028-.202.15-.233a8.363 8.363 0 0 0 2.732-1.232.278.278 0 0 1 .329.018c.084.077.074.194-.023.261a8.854 8.854 0 0 1-2.896 1.306l-.103.007c-.086-.01-.161-.057-.189-.127zm-5.724-.093c-.121-.036-.181-.143-.136-.239.046-.096.181-.144.301-.107 1.028.311 2.081.48 3.099.499.128.003.231.088.228.19-.003.102-.11.183-.239.181a11.525 11.525 0 0 1-1.075-.072 12.316 12.316 0 0 1-2.178-.452" fill="#74C4B7"/>
    <path d="M511.952 306.37c-.055-.093-.005-.203.111-.247 1.82-.683 2.858-1.187 2.869-1.192.109-.053.252-.025.32.062.067.088.032.202-.077.255-.011.005-1.067.517-2.914 1.211l-.044.012c-.105.02-.218-.02-.265-.101zm-15.317 3.79a61.17 61.17 0 0 1-2.808.247c-.128.009-.24-.067-.251-.169-.01-.102.085-.192.213-.2.92-.06 1.856-.143 2.783-.245.128-.014.245.057.262.158.017.095-.06.183-.175.205l-.024.004zm9.252-1.895c-.041-.097.026-.202.149-.234a65.486 65.486 0 0 0 3.049-.882c.119-.037.255.009.302.104.048.095-.01.203-.13.241a67.919 67.919 0 0 1-3.076.889c-.135.026-.255-.026-.294-.118zm-6.026 1.457c-.126.02-.249-.045-.274-.145-.026-.101.05-.198.181-.219a67.314 67.314 0 0 0 3.163-.59c.122-.024.247.034.279.132.033.099-.041.2-.165.227a63.767 63.767 0 0 1-3.184.595" fill="#247A77"/>
    <path d="M532.135 272.486c-2.571-1.571-3.341-2.78-3.495-4.606-.165-1.987.154-2.482.074-4.142-.057-1.15-1.163-2.599-1.037-3.463.125-.863 2.235-.455 3.603 1.695 0 0 .547-5.73 1.835-5.7 1.249.03 1.505 3.492 1.511 3.755.239-.417.769-4.302 2.622-4.143 1.271.11.405 3.826.262 4.275.291-.284 2.195-2.944 3.221-2.579 1.197.429-1.237 4.566-1.408 5.319.12-.527 4.39-2.949 5.028-2.373.519.467-2.896 3.458-2.896 3.458.194 1.369.365 3.172-.302 4.527-1.243 2.545-6.077 5.774-9.018 3.977" fill="#FFA655"/>
    <path d="M535.675 269.386c-.371 0-.724-.086-1.027-.287-1.1-.734-.815-1.728-1.14-3.137-.005-.019-1.168-1.525-1.123-1.574a6.153 6.153 0 0 1 1.654-.224c2.411 0 4.577 1.398 4.36 3.426-.091.837-1.487 1.796-2.724 1.796z" fill="#FF7116"/>
    <path d="M534.153 269.245a.2.2 0 0 1-.137.053c-.103.003-.188-.062-.194-.143l-.006-.255c-.074-1.781-.131-3.188-1.915-4.731-.068-.06-.063-.155.011-.21a.22.22 0 0 1 .263.009c1.875 1.624 1.938 3.153 2.012 4.922l.011.254-.045.101M539.876 264.341a.215.215 0 0 1-.222.038c-1.728-.66-4.943-1.364-6.881-1.506-.103-.008-.177-.08-.165-.162.005-.082.097-.142.199-.134 1.978.144 5.25.861 7.006 1.534.091.036.131.125.086.199l-.023.031z" fill="#CF0500"/>
    <path d="M298.806 377.482s5.316-14.545 11.814-13.829c0 0-1.687 5.892 1.963 6.365 3.925.509 5.381-8.332 11.956-9.478 0 0-2.855 6.041 1.07 8.078 2.064 1.07 5.354-4.328 11.511-3.206 0 0-3.56 6.268-1.756 7.254 2.037 1.112 8.348-.784 8.348-.784l-2.144 5.6h-42.762" fill="#39B54A"/>
    <path d="m190.701 248.274 7.589-2.764 3.995-10.135-2.766-5.258-5.407-.077-8.029 14.1 4.618 4.134z" fill="#FFD949"/>
    <path d="m193.421 242.673 6.098-12.556-5.407-.077-6.789 11.921 6.098.712" fill="#FFE594"/>
    <path d="m154.385 294.939 5.012-1.855 2.637-6.804-1.826-3.529-3.571-.052-5.302 9.465 3.05 2.775z" fill="#F44134"/>
    <path d="m156.181 291.179 4.027-8.428-3.571-.052-4.483 8.002 4.027.478" fill="#FF5D40"/>
    <path d="m164.444 330.301 6.639-1.694 2.639-6.803-1.827-3.53-3.571-.052-6.29 6.12 2.41 5.959" fill="#FFD949"/>
    <path d="m165.568 327.605 6.327-9.332-3.571-.051-6.29 6.119 3.534 3.264" fill="#FFE594"/>
    <path d="m216.218 270.479 6.871-2.224.719-6.865-1.69-1.259-5.318-.158-4.579 7.529 3.997 2.977" fill="#FF5E00"/>
    <path d="m219.387 267.144 2.731-7.013-5.318-.158-3.872 6.365 6.459.806" fill="#FF9600"/>
    <path d="m111.012 339.524 4.389 2.674 8.792-1.295 3.077-2.927-1.599-2.543-12.987.651-1.672 3.44" fill="#0071BC"/>
    <path d="m116.028 339.046 11.242-1.07-1.599-2.545-10.981.551 1.338 3.064" fill="#29ABE2"/>
    <path d="m93.56 351.743 8.791-1.296 3.078-2.926-12.58-1.993.71 6.215" fill="#FFD949"/>
    <path d="m94.187 348.591 11.242-1.07-1.6-2.544-10.98.551 1.338 3.063" fill="#FFE594"/>
    <path fill-rule="evenodd" clip-rule="evenodd" d="M122.438 280.382c7.831 7.007 15.235 9.737 15.948 20.666.563 8.639-8.719 19.628-15.565 28.454-2.667-.215-6.079-1.365-8.628-1.837a70.57 70.57 0 0 0 5.157-19.54c-6.164-4.733-12.894-9.101-18.812-14.016 8.09-3.743 13.249-10.389 21.9-13.727" fill="#FF9D39"/>
    <path fill-rule="evenodd" clip-rule="evenodd" d="M138.078 304.767c.269-1.277.386-2.521.308-3.719-.713-10.93-8.117-13.659-15.948-20.666-8.651 3.338-13.81 9.984-21.9 13.727 5.918 4.914 14.367 13.849 20.53 18.582-.009.076 2.714-4.869 3.086-5.075 6.13-3.407 13.924-2.849 13.924-2.849" fill="#FF5F00"/>
    <path fill-rule="evenodd" clip-rule="evenodd" d="M116.058 309.343c-6.287-6.888-14.171-12.689-20.345-19.674-2.481-5.107-3.846-11.189-1.976-16.559 9.787 3.434 20.668 4.425 31.299 4.77 6.726 6.902 11.465 14.294 14.552 22.68-8.672 1.312-17.046 3.883-23.53 8.783" fill="#E3240D"/>
    <path fill-rule="evenodd" clip-rule="evenodd" d="M117.958 291.609c-4.455-3.17-22.055-1.68-22.055-1.68 5.174 7.356 13.937 12.607 20.159 19.413 1.472-1.432 8.415-4.498 10.156-5.449-3.685-6.328-4.587-9.672-8.26-12.284z" fill="#CF0500"/>
    <path fill-rule="evenodd" clip-rule="evenodd" d="M114.152 327.464c.111-1.62.664-3.348 1.124-4.998-1.893-.684.537-2.282.786-2.126 2.013 1.253 12.673-.174 13.249 2.265.714 3.023-6.616 8.02-9.139 10.593-2.178-.138-4.034-1.091-6.001-1.71.073-1.392-.118-2.597-.019-4.024" fill="#E5E6E6"/>
    <path fill-rule="evenodd" clip-rule="evenodd" d="M129.299 323.598c-.263.594-.613 1.186-.913 1.78-4.804-.193-9.216-.556-13.142-2.902-.409-.244-.366-.452-.622-.754 2.244.854 3.78 1.255 6.458 1.603 2.225.289 5.73.392 8.219.273M114.951 323.618c3.515 2.207 7.892 2.732 12.225 3.069-.585.625-1.151 1.265-1.763 1.872-4.124-.577-7.63-1.544-10.887-3.7.116-.42.327-.818.425-1.241M114.129 327.486c.02-.481.073-.958.153-1.435 2.857 2.118 6.097 3.041 9.872 3.701-.567.506-1.148 1.07-1.81 1.497-3.305-.629-5.734-1.778-8.215-3.65v-.113M114.187 329.931c2.288 1.14 4.524 1.903 7.233 2.109-.548.522-1.065 1.022-1.461 1.632-2.167-.065-4.037-1.047-5.785-1.978.01-.587.012-1.175.013-1.763z" fill="#92D4A3"/>
    <path fill-rule="evenodd" clip-rule="evenodd" d="M125.273 332.826c-1.572-.456-2.348.082-4.475.105-1.184.014-4.78-.559-6.269-1.08-1.652.983-2.125 2.2-2.151 3.753 6.854 1.614 7.595.849 14.123-.388.14-.842.055-2.018-1.228-2.39" fill="#CF0500"/>
    <path fill-rule="evenodd" clip-rule="evenodd" d="M105.384 291.609c5.399 6.277 14.693 15.872 13.516 23.928-1.326 9.086-13.826 14.889-19.29 22.132-2.032-1.638-3.696-3.153-5.613-4.722 1.175-6.274 3.177-12.2 5.958-18.088-2.862-5.251-5.08-10.703-6.798-16.281 4.617-1.648 7.458-5.341 12.227-6.969" fill="#FF9D39"/>
    <path fill-rule="evenodd" clip-rule="evenodd" d="M99.949 314.872c.096.006 8.817.383 12.095 1.932.25.069.496.149.733.228.961.32 1.865.725 2.719 1.2.718.399 1.395.838 2.062 1.285.667-1.261 1.138-2.581 1.342-3.98 1.177-8.056-8.117-17.651-13.516-23.928-4.769 1.628-7.61 5.321-12.227 6.969 1.717 5.578 3.936 11.03 6.798 16.281l-.006.013" fill="#FF5F00"/>
    <path fill-rule="evenodd" clip-rule="evenodd" d="M120.282 315.841c2.813-9.339 1.113-17.493-4.056-27.955-3.015-6.105-18.25-8.821-23.939-11.65-3.794 4.545-3.167 9.371-1.75 14.881 1.962 7.634 6.028 15.291 7.534 23.018 2.772-.139 6.724-.528 10.611-.384 3.919-.003 8.333.292 11.6 2.09" fill="#E3240D"/>
    <path fill-rule="evenodd" clip-rule="evenodd" d="M112.002 282.491c.851 1.481-8.771 5.65-16.215 7.601-3.182 5.369 6.409 18.286 9.174 23.644a96.366 96.366 0 0 0-6.887.401c-1.51-7.728-9.123-15.789-11.696-23.296-1.45-4.232-2.448-10.318 1.022-15.134 7.454 4.234 20.832.22 24.602 6.784" fill="#CF0500"/>
    <path fill-rule="evenodd" clip-rule="evenodd" d="M92.394 339.26c2.098 1.053 4.2 2.095 6.316 3.122 4.1-5.039 7.385-10.2 12.435-14.686-5.574-1.967-10.145-4.942-14.254-8.638-3.02 6.635-3.53 13.217-4.497 20.202" fill="#E5E6E6"/>
    <path fill-rule="evenodd" clip-rule="evenodd" d="M101.913 326.653c-2.316-1.192-4.465-2.653-6.516-4.159a30.705 30.705 0 0 1 1.494-3.436c4.109 3.696 8.68 6.67 14.254 8.637-.719.634-1.44 1.268-2.12 1.93-2.601-.666-4.796-1.779-7.112-2.972M98.171 331.036a33.6 33.6 0 0 1-4.386-2.108c.202-.943.45-1.874.692-2.806a35.516 35.516 0 0 0 4.786 2.785c1.898.918 7.164 2.646 7.809 2.913-.399.428-1.167 1.39-1.549 1.829-1.112-.277-5.872-2.036-7.352-2.613M92.963 335.996c.047-.573.085-1.147.127-1.722 1.576.934 3.216 1.728 4.93 2.484 1.253.552 2.457 1.225 3.617 1.918-.268.41-.54.82-.808 1.231-2.688-1.211-5.205-2.658-7.866-3.911M99.573 341.32c-.285.355-.573.709-.863 1.062a535.765 535.765 0 0 1-6.316-3.122c.061-.449.125-.899.188-1.348 2.334 1.136 4.6 2.355 6.991 3.408zM99.54 335.59c-1.4-.649-2.86-1.177-4.21-1.923-.729-.403-1.433-.909-2.109-1.383.067-.438.136-.873.205-1.31.194.111.396.223.595.324a35.746 35.746 0 0 0 4.588 1.927c1.905.658 3.824 1.329 5.789 1.859-.613.734-1.167 1.507-1.738 2.264-1.007-.643-2.007-1.243-3.12-1.758" fill="#92D4A3"/>
    <path fill-rule="evenodd" clip-rule="evenodd" d="M101.609 342.335c-1.727-.654-2.799-.096-4.904-.779-1.17-.38-3.473-2.367-5.053-2.74-1.705 1.145-2.437 2.574-2.92 4.263 7.08 3.583 5.982 3.048 14.111 1.818.145-1.081.175-2.027-1.234-2.562" fill="#CF0500"/>
    <path d="m145.334 228.46 3.745-6.793 8.2 1.697-2.736 6.677-9.209-1.581" fill="#FF9D39"/>
    <path d="M157.156 223.232c-3.134 1.028-7.962-.532-8.09-1.61-.133-1.123 1.243-5.749 5.563-7.098 3.682-1.15 9.306 1.034 9.456 3.01.191 2.523-2.644 4.291-6.929 5.698z" fill="#FF9D39"/>
    <path d="M111.901 240.625c-1.27 10.97 16.17 12.366 35.433 6.829 3.203-.921 1.664-12.267-4.053-11.289-11.642 1.992-25.515 1.295-25.515 1.295s-5.562.547-5.865 3.165" fill="#29ABE2"/>
    <path d="M137.425 240.851s-4.075 10.358 9.909 6.603c6.465-1.736 8.866-20.672 8.866-20.672-6.88.486-9.075-1.934-9.075-1.934l-9.7 16.003" fill="#29ABE2"/>
    <path d="M147.334 247.454h.294v-.093h-.294v.093z" fill="#469B7E"/>
    <path d="M126.84 250.553a49.79 49.79 0 0 1-2.924-.084c-.201-2.721-.591-5.124-1.381-6.905 2.543.783 8.41 2.379 14.926 2.703.674 1.141 2.04 2.007 4.632 2.007 1.375 0 3.095-.243 5.241-.82-7.447 2.141-14.601 3.099-20.494 3.099" fill="#148ECF"/>
    <path d="M142.093 248.274c-2.592 0-3.958-.867-4.633-2.007a46.92 46.92 0 0 0 2.291.058c1.12 0 2.249-.044 3.376-.14 5.852-.501 8.34-2.899 9.262-4.594-1.236 2.8-2.807 5.077-4.762 5.772h-.003l-.021.008-.001.001-.011.003-.005.002a.088.088 0 0 0-.015.005l-.006.002-.009.003-.009.003-.01.003a.049.049 0 0 1-.011.004.014.014 0 0 0-.006.002l-.015.004a.008.008 0 0 1-.005.002l-.011.004-.006.002-.015.004-.005.002a.056.056 0 0 0-.012.004l-.005.001a.098.098 0 0 0-.016.005l-.004.001-.013.004-.004.001-.016.004-.004.002-.015.004h-.002l-.017.005-.004.001-.017.005c-2.146.576-3.866.82-5.241.82M113.343 239.408c.187-.452.399-.784.638-.899.159.097.328.204.505.317a4.38 4.38 0 0 1-1.143.582" fill="#148ECF"/>
    <path d="M120.771 201.864c2.762 4.776 1.544 11.284 1.544 11.284s3.173-3.903 2.755-9.192c-.221-2.794-1.809-5.948-1.809-5.948s-3.531 2.057-2.49 3.856" fill="#FFDB24"/>
    <path d="M120.771 201.864c2.762 4.776 1.544 11.284 1.544 11.284s3.173-3.903 2.755-9.192c-.221-2.794-1.809-5.948-1.809-5.948s-3.531 2.057-2.49 3.856" fill="#FFAB00"/>
    <path d="M93.387 246.074c.11-4.583 7.777-10.736 15.995-10.139 7.327.533 10.8 3.685 10.69 8.269-.109 4.583-3.133 8.43-11.373 8.305-8.24-.125-15.421-1.852-15.312-6.435" fill="#FF9D39"/>
    <path d="M91.23 242.876c6.392-6.608 11.864-6.619 11.864-6.619s2.736 3.683 7.927 3.532c4.645-.136 4.683-2.989 4.683-2.989s3.48.713 6.488 6.076c3.749 6.681.109 24.851 4.073 32.53 1.921 3.721-8.865 7.102-13.263 8.096-10.449 2.364-26.427.632-28.83-2.694-2.406-3.33-1.358-29.231 7.058-37.932" fill="#29ABE2"/>
    <path d="m112.902 283.524.1-.023-.1.023z" fill="#714B65"/>
    <path d="m126.265 275.405-.013-.025.013.025zm-.014-.027-.013-.024a.283.283 0 0 1 .013.024zm-.013-.025-.013-.025.013.025zm-.013-.025a12.375 12.375 0 0 0 0 0zm-1.366-4.465a39.956 39.956 0 0 1-.478-4.085h.001c.102 1.436.252 2.811.478 4.085h-.001" fill="#469B7E"/>
    <path d="M125.496 273.508a20.419 20.419 0 0 1-.636-2.645v-.001c.168.942.376 1.829.636 2.646" fill="#52A28D"/>
    <path d="M111.67 283.773c1.73-.775 3.241-1.8 4.516-3.037 1.595-1.547 3.094-3.435 3.133-5.503.013-.737-.149-1.687-.632-2.339-.4-.538-1.163-.841-1.736-1.247-3.633-2.577-7.246-5.378-9.986-8.595-1.495-1.752-2.722-3.65-3.392-5.708a10.878 10.878 0 0 1-.514-4.009c1.679 2.191 3.772 4.208 5.994 6.03 3.246 2.659 7.03 5.058 11.355 6.494a21.1 21.1 0 0 0 3.973.92c.102 1.437.253 2.81.479 4.085.167.941.375 1.828.635 2.644.208.655.45 1.265.73 1.82l.013.025.001.002.012.023.001.003.013.025c1.879 3.64-8.408 6.957-12.971 8.029-.1.024-.197.046-.292.067l-.1.023c-.402.089-.815.171-1.232.248" fill="#148ECF"/>
    <path d="M105.693 237.11c2.619.196 5.243.349 7.864.529.188-2.496.675-4.955.496-7.463-2.665.084-5.31.062-7.979.206.022 2.247-.241 4.485-.381 6.728" fill="#FF9D39"/>
    <path d="M105.997 232.605a23.8 23.8 0 0 0 .06-1.907c2.669-.113 5.345-.058 8.004-.183.088 1.466-.034 2.919-.217 4.377-2.4-1.408-4.894-1.944-7.847-2.287" fill="#FF5F00"/>
    <path d="M121.114 202.082c2.078 1.468 1.986 7.638 1.664 10.041-1.052 7.851 3.178 16.887-8.59 19.185-12.825 2.504-18.653-8.312-21.006-18.309-.597-2.538-.916-6.645-.934-9.256 5.601-1.078 24.384-4.826 28.866-1.661z" fill="#FFA741"/>
    <path d="M109.48 212.732c.133.477-.188 1.024-.808 1.124-.621.099-1.025-.302-1.259-.737-.235-.435.174-1.013.784-1.121.609-.108 1.149.256 1.283.734z" fill="#000"/>
    <path d="M105.971 219.691c.226 1.061-.488 1.845-2.02 1.963-1.274.097-3.146-1.246-3.049-2.281.096-1.035.714-1.355 1.965-1.358 1.25-.003 2.878.614 3.104 1.676zM122.449 219.166c-.9-.388-2.051-1.542-1.482-2.602.35-.652.881-.958 1.562-1.018.028 1.193-.049 2.434-.08 3.62" fill="#FF3B00"/>
    <path d="M100.936 207.789c1.61.002 2.914-.418 4.411-.995 1.056-.407 1.884-1.319.566-1.7-1.732-.501-4.299.489-5.481 1.452-.53.43-.029 1.242.504 1.243zM120.593 204.17c-1.015.521-2.594.793-3.795.504-.705-.169-.847-1.004.045-1.447 1.172-.58 3.174-.535 3.998.033.368.255.336.61-.248.91" fill="#FFDB24"/>
    <path d="M114.465 222.541c-1.009 0-1.806-.264-2.514-.808-.111-.086-.114-.227-.007-.317a.335.335 0 0 1 .397-.005c.934.719 2.027.857 3.776.479.147-.032.303.038.344.157.04.119-.048.242-.198.274-.671.146-1.265.22-1.798.22z" fill="#CF0500"/>
    <path d="M113.841 213.643c1.41 2.168 2.267 2.455 3.683 3.839 1.533 1.497.393 2.289-1.178 1.432-2.132-1.163-3.096-6.179-2.505-5.271z" fill="#FF5F00"/>
    <path d="M106.752 218.025a5.33 5.33 0 0 1-.855-.069c-1.641-.263-3.22-1.331-4.444-3.006-.117-.159-.048-.365.153-.458.199-.093.458-.039.575.121.638.873 1.99 2.382 3.882 2.686 1.134.182 2.331-.096 3.552-.829.979-.587 1.214-1.541 1.238-2.239.053-1.503-.815-3.163-2.112-4.035-1.883-1.267-3.929-1.587-5.474-.853-1.515.719-2.152 2.323-1.663 4.185.048.181-.098.358-.326.396-.227.038-.45-.077-.498-.259-.565-2.15.223-4.028 2.056-4.898 1.84-.874 4.31-.522 6.449.917 1.478.995 2.47 2.873 2.41 4.566-.042 1.194-.601 2.172-1.573 2.756-1.13.677-2.26 1.019-3.37 1.019" fill="#C7E8C9"/>
    <path d="M122.091 210.612c.023.443-.257.978-.858 1.065-.6.087-.962-.346-.997-.792-.033-.445.27-1.003.882-1.076.611-.074.949.361.973.803" fill="#000"/>
    <path d="m120.715 205.873-.187.003c-1.847.068-4 1.217-4.542 3.278-.374 1.421-.138 3.372 1.23 4.527.839.709 1.966.986 3.348.821 1.038-.123 2.035-.73 2.809-1.709 1.102-1.393 1.498-3.218.986-4.54-.581-1.5-1.935-2.38-3.644-2.38zm-.888 9.344c-1.28 0-2.382-.366-3.223-1.075-1.577-1.332-1.861-3.534-1.442-5.125.63-2.395 3.157-3.73 5.327-3.81 2.201-.081 3.952.983 4.674 2.849.58 1.498.147 3.545-1.078 5.094-.907 1.147-2.113 1.863-3.397 2.015a7.305 7.305 0 0 1-.861.052" fill="#C7E8C9"/>
    <path d="M112.497 212.483a.459.459 0 0 1-.347-.146c-.132-.152-.084-.361.107-.466.101-.055 2.501-1.348 4.87-.418.208.082.294.283.191.449-.103.166-.356.234-.563.152-1.931-.758-3.999.358-4.02.37a.497.497 0 0 1-.238.059z" fill="#C7E8C9"/>
    <path d="M96.014 203.662s12.061 1.298 21.152-.499c9.586-1.894 10.13-6.028 10.13-6.028l-10.892-.682-10.776-1.875 8.12-.369s-6.505-2.192-11.019-1.827c-6.656.538-10.737 3.58-12.395 7.129-.358.765.022 2.129.022 2.129s-2.362.92-2.666 1.527c-1.615 3.233 3.388 11.025 3.388 11.025l5.092 2.709-.599-8.165 1.007 1.901s1.037-1.995 1.069-3.357c.039-1.582-1.633-3.618-1.633-3.618" fill="#FFDB24"/>
    <path d="M91.904 209.824a16.141 16.141 0 0 1-2.533-4.517 23.194 23.194 0 0 1-.827-2.822c-.407.232-.75.475-.854.682-1.615 3.233 3.388 11.025 3.388 11.025l5.092 2.709-.324-4.429c-1.11-.7-3.196-1.701-3.942-2.648M120.887 201.404l.549-1.106c-2.366 1.235-5.08 2.056-7.988 2.365-3.571.38-7.151-.154-10.692-.487-2.729-.257-5.362-.138-8.018.133.448.433.983 1.096 1.418 1.536 3.866.315 13.8.744 21.009-.681 9.587-1.895 10.131-6.029 10.131-6.029l-6.409 4.269" fill="#FFAB00"/>
    <path d="M102.953 245.625c-4.578 5.41 8.01 21.902 19.746 22.724 3.393.238 6.631-5.075 4.674-9.463-1.663-3.73-7.383-4.239-15.559-12.925-2.219-2.356-7.017-2.516-8.861-.336" fill="#3DBBE8"/>
    <path d="M149.119 254.993c1.098-3.068 6.76-4.254 7.943-4.584 1.221-.339 3.626-.874 3.626-.874s1.234.008.442 1.104c-.366.508-2.093 1.641-2.093 1.641s3.594.42 4.574.776c1.449.526 2.605 1.457 2.641 1.876.051.608-3.661-.547-3.661-.547s4.204.428 4.264 1.135c.056.653-2.1.828-2.1.828s1.802.019 1.783.474c-.024.606-2.112 1.011-2.112 1.011s1.293-.349 1.533.24c.187.46-1.713 1.037-2.671 1.331-1.01.311-6.772 1.729-10.83 1.254-5.227-.612-4.045-3.693-3.339-5.665" fill="#FF9D39"/>
    <path d="M160.655 250.951c-1.875-.13-3.678.174-5.276.891.523.133 1.051.246 1.589.326.697.103 1.388.119 2.076.085.417-.283 1.258-.872 1.672-1.28l-.061-.022z" fill="#FF5F00"/>
    <path d="m164.018 254.795-.077-.008c-2.686-.615-4.44-.391-4.458-.388-.151.019-.297-.062-.323-.184-.026-.121.076-.237.229-.258.075-.01 1.888-.246 4.707.4.148.034.234.158.192.277-.035.098-.147.161-.27.161" fill="#CF0500"/>
    <path d="M117.366 226.121c.14.408-.471.896-1.365 1.089-.892.194-1.729.02-1.869-.389-.139-.408.472-.896 1.365-1.089.893-.194 1.73-.02 1.869.389" fill="#FFCA83"/>
    <path d="m140.061 256.167 10.102-2.067 2.735 6.411-8.94 3.18-3.897-7.524" fill="#FF9D39"/>
    <path d="M121.357 257.034s-12.956 3.432-1.02 10.589c5.517 3.309 26.637-4.548 26.637-4.548.773-4.169-2.872-8.053-2.872-8.053l-22.745 2.012z" fill="#3DBBE8"/>
    <path d="M94.815 214.891c1.54 1.418 2.155 4.291 1.06 5.371-1.176 1.16-3.576.898-5.576-1.285-1.908-2.082-4.209-3.522-3.065-4.682 1.55-1.57 6.042-.822 7.581.596" fill="#FFA741"/>
    <path d="M93.081 219.037c-.398 0-.797-.046-.977-.208-.231-.207-.09-.495.076-.829.196-.397.439-.891.122-1.284-.53-.659-2.1-.924-2.66-.971-.154-.012-.266-.122-.25-.245.016-.123.151-.211.308-.199.093.007 2.291.2 3.075 1.174.471.585.143 1.249-.073 1.688-.071.144-.168.341-.157.401.093.04.734.045 1.318-.025.153-.02.296.065.32.188.022.121-.083.235-.236.254a7.66 7.66 0 0 1-.866.056" fill="#CF0500"/>
    <path d="M155.873 223.506c.404.556 3.895.721 7.525-2.248l2.551-.064c-3.601-5.51-10.48 1.755-10.076 2.312" fill="#FF9D39"/>
    <path d="M528.777 155.542c.097-.177 5.814-12.623-2.081-8.021-3.552 2.07-4.9.625-5.065 2.326-.323 3.309 5.173 5.661 5.173 5.661l1.973.034" fill="#FFB300"/>
    <path d="M530.054 154.838c0 .308.302.557.672.557.377 0 .679-.249.679-.557 0-.307-.302-.557-.679-.557-.37 0-.672.25-.672.557z" fill="#FF5F00"/>
    <path d="M526.046 157.68c.291.327 1.38-.339 2.788-1.187 1.414-.848 2.121-1.215 1.83-1.543-.291-.328-1.67.094-3.084.941-1.408.848-1.819 1.461-1.534 1.789z" fill="#FF5F00"/>
    <path d="M529.279 155.274c-.046-.213-4.323-14.696-8.164-6.501-1.727 3.685-4.11 2.993-2.948 4.67 2.261 3.261 9.236 2.768 9.236 2.768l1.876-.937z" fill="#FFDB24"/>
    <path d="M527.403 156.211c-.302-.128-4.427-.931-5.426-.754-1.208.214-2.061 1.799-.286 2.279 1.49.402 4.549-.687 4.549-.687l1.163-.838" fill="#FFDB24"/>
    <path d="M530.601 154.194a.283.283 0 0 1-.211-.09c-.057-.071-1.436-1.745-1.169-3.163.086-.472.496-1.023 1.357-1.023.485 0 .73.177.85.326.233.285.193.686.051.937-.251.458-.889.384-1.186.282-.131-.044-.188-.162-.137-.264.057-.103.206-.149.331-.106.046.014.416.131.53-.075.074-.13.12-.396-.011-.555-.08-.096-.217-.143-.428-.143-.678 0-.826.521-.861.681-.239 1.266 1.084 2.864 1.095 2.88.08.093.046.217-.068.279l-.143.034" fill="#2A887B"/>
    <path d="M531.131 154.312c-.148-.004-.257-.096-.251-.207 0-.105.114-2.572 1.653-3.839.519-.432 1.374-.727 2.212-.253.467.265.553.569.547.777-.023.404-.416.769-.769.937-.627.298-1.175-.118-1.374-.379-.069-.095-.034-.218.085-.276.12-.058.274-.028.348.066.029.042.336.409.684.243.205-.098.508-.352.519-.607.011-.161-.097-.303-.331-.434-.724-.408-1.379.053-1.562.205-1.396 1.155-1.51 3.548-1.51 3.572-.006.109-.114.195-.251.195" fill="#2A887B"/>
    <path d="M525.761 149.565c.525 1.266.257 2.473-.605 2.698-.857.226-1.977-.618-2.5-1.883-.523-1.265-.251-2.473.607-2.698.858-.225 1.978.618 2.498 1.883" fill="#FFF07B"/>
    <path d="M523.398 150.905c.624.401.91.943.64 1.212-.272.269-.998.162-1.623-.238s-.911-.943-.639-1.212c.27-.268.997-.162 1.622.238zM522.638 152.782c1.391.394 2.303 1.2 2.035 1.799-.268.598-1.613.763-3.005.369-1.391-.395-2.302-1.201-2.034-1.799.268-.599 1.612-.765 3.004-.369z" fill="#FFF07B"/>
    <path d="M525.659 154.839c0 .346.353.627.786.627.439 0 .793-.281.793-.627s-.354-.627-.793-.627c-.433 0-.786.281-.786.627zM525.83 152.872c0 .272.279.493.615.493.342 0 .622-.221.622-.493s-.28-.492-.622-.492c-.336 0-.615.22-.615.492z" fill="#92D4A3"/>
    <path d="M522.686 153.007c-.18.321.143.748.723.955.58.207 1.197.116 1.377-.205.18-.32-.143-.748-.723-.956-.58-.207-1.197-.115-1.377.206zM520.725 153.723c-.091.163 0 .354.204.427.205.073.445.001.536-.163.092-.162 0-.354-.204-.427-.204-.073-.444 0-.536.163zM522.183 150.641c.331.514.907.805 1.287.65.38-.156.42-.698.089-1.212-.331-.515-.908-.806-1.288-.65-.38.155-.42.698-.088 1.212zM524.212 150.837c.03.465.313.831.634.818.32-.013.556-.4.528-.864-.035-.465-.316-.831-.636-.818-.32.013-.555.4-.526.864" fill="#FFA741"/>
    <path d="M215.652 159.827c2.354-3.012 4.59-11.699 6.461-13.789 4.152-4.637 9.874-2.747 11.794.996 3.713 7.243-2.083 14.819-7.412 20.502 1.936-3.532-8.19-5.426-10.843-7.709z" fill="#FFA77B"/>
    <path d="M228.031 165.062c-2.267 5.712-12.549 8.757-19.944 8.999-1.562-2.547-2.774-5.17-4.3-7.763 5.725-1.597 8.578-5.055 14.022-7.574 3.764-1.742 12.164 1.446 10.222 6.338z" fill="#FFA77B"/>
    <path d="m226.499 167.5.055-.08a.931.931 0 0 1-.022.045l-.033.035" fill="#7F8CA1"/>
    <path d="M232.958 159.115h-.002c.495-.901.924-1.819 1.265-2.746a19.705 19.705 0 0 1-1.263 2.746" fill="#F84C39"/>
    <path d="M232.015 160.69a26.59 26.59 0 0 0 .941-1.575h.003a26.644 26.644 0 0 1-.944 1.575z" fill="#7F8CA1"/>
    <path d="M219.125 152.429c.078-.248.177-.536.29-.849l.043-.01-.333.859" fill="#FF5D40"/>
    <path d="M226.532 167.465a.931.931 0 0 0 .022-.045l.063-.093c.611-.701 1.093-1.457 1.414-2.265.035-.087.066-.173.094-.259 1.722-3.209 3.403-7.561 2.104-9.508-.447-.668-.999-.863-1.589-.863-.413 0-.845.096-1.271.192-.426.097-.847.193-1.238.193a1.73 1.73 0 0 1-.59-.094c-1.397-.507-2.378-1.318-3.335-1.704a3.007 3.007 0 0 0-1.165-.236c-.251 0-.483.029-.716.058a5.639 5.639 0 0 1-.712.057 2.83 2.83 0 0 1-.608-.063c.032-.12.072-.256.12-.406l.332-.86c.376-.097.755-.281 1.138-.466.556-.268 1.12-.536 1.701-.536.399 0 .805.126 1.22.467 1.44 1.182 2.543 1.652 3.821 1.652.959 0 2.015-.265 3.385-.692a2.57 2.57 0 0 1 .769-.118c.81 0 1.553.377 2.266.754.418.221.826.442 1.232.587a13.998 13.998 0 0 1-.768 3.152c-.341.927-.77 1.845-1.265 2.746a26.59 26.59 0 0 1-.941 1.575c-1.564 2.421-3.543 4.703-5.483 6.775" fill="#FF8963"/>
    <path d="M226.617 167.328c.45-.667.981-1.543 1.508-2.526a4.488 4.488 0 0 1-.094.259c-.321.809-.803 1.565-1.414 2.267" fill="#FF8963"/>
    <path d="M218.951 151.639c-.487 0-.969-.216-1.453-.841-2.864-3.702 4.257-9.788 10.548-9.788.39 0 .776.023 1.157.072 1.415.181 3.086.979 4.621 2.105.125.315.201.614.214.885.047.97-.004 1.894-.166 2.802-.569-1.112-1.483-1.995-2.589-2.591a6.967 6.967 0 0 0-3.537-.979c-1.228 0-2.507.337-3.727 1.104a8.347 8.347 0 0 0-1.831 1.389c-.709.708-2.049 3.776-2.774 5.783a1.94 1.94 0 0 1-.463.059" fill="#AE9E89"/>
    <path d="M235.846 153.383c-.283 0-.564-.063-.847-.162a10.614 10.614 0 0 0-.275-4.085 11.504 11.504 0 0 0-.798-2.155l-.054-.108c.162-.907.213-1.831.166-2.802a2.814 2.814 0 0 0-.214-.885c3.734 2.738 6.659 7.413 3.104 9.847-.366.25-.725.35-1.082.35" fill="#AA9384"/>
    <path d="m234.999 153.22-.01-.004a11.062 11.062 0 0 0-.265-4.08 10.61 10.61 0 0 1 .275 4.084zm-10.98-8.812c1.22-.768 2.498-1.105 3.727-1.105 1.272 0 2.49.361 3.536.98a7.38 7.38 0 0 0-3.488-.862 7.744 7.744 0 0 0-3.775.987" fill="#AEBBA0"/>
    <path d="M219.414 151.58c.725-2.007 2.065-5.075 2.774-5.783a8.347 8.347 0 0 1 1.831-1.389 9 9 0 0 0-1.906 1.631c-.822.917-1.714 3.107-2.655 5.53l-.044.011zm14.445-4.635a6.893 6.893 0 0 0-2.576-2.662c1.106.595 2.02 1.479 2.589 2.591l-.013.071" fill="#AE9E89"/>
    <path d="M234.724 149.137a10.758 10.758 0 0 0-.865-2.192l.013-.071.054.108c.35.72.613 1.439.798 2.155" fill="#AB9786"/>
    <path d="M234.989 153.217c-.406-.145-.814-.366-1.232-.587-.713-.377-1.456-.753-2.266-.753-.25 0-.505.036-.769.118-1.37.427-2.426.692-3.385.692-1.278 0-2.381-.47-3.821-1.652-.415-.341-.821-.468-1.22-.468-.581 0-1.145.268-1.701.537-.383.184-.762.369-1.137.466.941-2.423 1.833-4.613 2.655-5.531a8.969 8.969 0 0 1 1.906-1.63 7.734 7.734 0 0 1 3.776-.987c1.245 0 2.45.304 3.488.862a6.89 6.89 0 0 1 2.624 2.751c.358.698.627 1.399.817 2.102a11.04 11.04 0 0 1 .265 4.08" fill="#AEAF97"/>
    <path d="M205.085 165.702c-4.458-1.152-6.848 1.172-9.88 2.105-2.127.654-1.934.752-3.693 1.268-.135.698.364.929 1.274 1.116.421.087 1.346.126 1.853.12-.894.621-1.817 1.664-2.5 2.371-.684.708-2.59 3.039-1.728 3.601 1.296.847 2.414-.966 3.327-1.327-.63.653-2.652 2.367-1.611 3.173 1.043.806 2.777-.931 3.511-1.387-.419.418-1.862 1.517-.989 2.053.874.536 2.201-.394 2.921-.765.066.526-.981 1.229.181 1.544 1.162.316 2.745-.62 3.96-.99 3.161-.964 6.689-3.361 7.821-5.66 1.6-3.253-1.608-6.488-4.447-7.222" fill="#FFA77B"/>
</svg>
