<svg width="48" height="48" viewBox="0 0 48 48" fill="none" xmlns="http://www.w3.org/2000/svg">
    <path fill-rule="evenodd" clip-rule="evenodd" d="M19 18a1 1 0 1 1 0 2 1 1 0 0 1 0-2zm17 12h-4.001a2 2 0 0 0-2 2v4a4 4 0 0 1-4 4H22a4 4 0 0 1-4-4v-4a2 2 0 0 0-2-2h-4c-2.21 0-4-1.79-4-4v-4a4 4 0 0 1 4-4h3a1 1 0 0 1 0 2h-2.5a2.5 2.5 0 0 0-2.501 2.5v3c0 1.381 1.12 2.501 2.501 2.501h4a3.5 3.5 0 0 1 3.5 3.5v4a2.5 2.5 0 0 0 2.5 2.5h3a2.5 2.5 0 0 0 2.5-2.5v-4a3.5 3.5 0 0 1 3.5-3.5h3.999a2.5 2.5 0 0 0 2.5-2.5v-3c0-1.381-1.118-2.5-2.5-2.5h-4a3.5 3.5 0 0 1-3.5-3.5V12.5a2.5 2.5 0 0 0-2.5-2.5h-3a2.5 2.5 0 0 0-2.5 2.5V15a1 1 0 1 1-2 0v-3c0-2.209 1.792-4 4.001-4h4a4 4 0 0 1 4 4v4.001c0 1.105.895 2 1.999 2H36A4 4 0 0 1 40 22v4a4 4 0 0 1-4 4z" fill="#fff"/>
</svg>
