<svg width="32" height="32" viewBox="0 0 32 32" fill="none" xmlns="http://www.w3.org/2000/svg">
    <path fill-rule="evenodd" clip-rule="evenodd" d="M14 14.666h6.667a.666.666 0 1 1 0 1.334H14a.667.667 0 0 1 0-1.334zM14 20h6.667a.667.667 0 0 1 0 1.334H14a.667.667 0 0 1 0-1.334zm0-2.666h6.667a.667.667 0 1 1 0 1.333H14a.667.667 0 1 1 0-1.333zm-2.666-2.667a.667.667 0 1 1 0 1.334.667.667 0 0 1 0-1.334zm0 5.333a.668.668 0 1 1-.002 1.335.668.668 0 0 1 .002-1.335zm0-2.666a.667.667 0 1 1 0 1.334.667.667 0 0 1 0-1.334zm11.334 9.333H9.333A2.667 2.667 0 0 1 6.666 24V10.666A2.667 2.667 0 0 1 9.333 8h1.115c.14 0 .26-.086.31-.209 0-.003.004-.008.009-.016a1.665 1.665 0 0 1 1.567-1.108h1.36A2.665 2.665 0 0 1 16 5.333c.986 0 1.845.537 2.307 1.333h1.027a.667.667 0 0 1 0 1.333h-1.031c-.484 0-.905-.257-1.14-.642A1.33 1.33 0 0 0 16 6.666c-.5 0-.931.28-1.159.688l-.001.001A1.332 1.332 0 0 1 13.698 8h-1.032a.666.666 0 0 0-.625.443l-.003.004a1.333 1.333 0 0 1-1.257.887H9.334C8.596 9.333 8 9.93 8 10.666V24c0 .736.597 1.333 1.333 1.333h13.335c.736 0 1.333-.597 1.333-1.333V10.666c0-.736-.597-1.333-1.333-1.333h-1a.334.334 0 0 0-.334.333v.667c0 .92-.746 1.667-1.667 1.667h-7.333c-.46 0-.877-.187-1.179-.489l.003-.003a.735.735 0 1 1 1.042-1.034c.12.118.285.192.466.192h6.668c.368 0 .666-.299.666-.666v-.667c0-.736.598-1.334 1.334-1.334h1.334a2.667 2.667 0 0 1 2.666 2.667V24a2.667 2.667 0 0 1-2.666 2.666z" fill="#fff"/>
</svg>
