<svg width="32" height="32" viewBox="0 0 32 32" fill="none" xmlns="http://www.w3.org/2000/svg">
    <path fill-rule="evenodd" clip-rule="evenodd" d="M16 19.348a.667.667 0 1 1-1.334 0 .667.667 0 0 1 1.334 0zm8.856-2.15h.001a.333.333 0 0 0-.13.542l.762.763a1.758 1.758 0 0 1 0 2.485 1.752 1.752 0 0 1-.527.36l-1.182.498a.5.5 0 0 0-.238.619c.01.024.016.043.02.058l.379.914a2.332 2.332 0 1 1-4.311 1.788l-.355-.858s-.002.002-.003 0a.586.586 0 0 0-.756-.302l-1.125.474h-.002a1.975 1.975 0 0 1-2.723-1.829v-.693a.667.667 0 1 1 1.334 0v.667c0 .369.298.668.666.668.082 0 .16-.018.232-.045l1.11-.467c.011-.005.02-.005.033-.01a1.88 1.88 0 0 1 2.46 1.011v.002l.36.87a1 1 0 1 0 1.848-.765l-.39-.944a1.832 1.832 0 0 1 .932-2.371l1.208-.51c.001 0 0 0 0 0a.326.326 0 0 0 .115-.534l-1.568-1.57a1.18 1.18 0 0 1 .84-2.01H24c.736.002 1.333-.596 1.333-1.333V8.003c0-.737-.597-1.335-1.333-1.335H8c-.737 0-1.334.598-1.334 1.335v6.673c0 .737.597 1.335 1.334 1.335h6a.667.667 0 0 0 .666-.668v-3.12a1.884 1.884 0 0 1 3.217-1.33c.006.006.006.003.01.007l3.556 3.558a.707.707 0 1 1-1 1.001l-3.641-3.644c-.002-.001 0 .004-.003 0a.468.468 0 0 0-.805.327v3.535c0 .922-.746 1.669-1.667 1.669H8a2.668 2.668 0 0 1-2.667-2.67V8.003A2.668 2.668 0 0 1 8 5.333h16a2.668 2.668 0 0 1 2.666 2.67v6.673c0 1.174-.759 2.164-1.81 2.522z" fill="#fff"/>
</svg>
