<svg width="48" height="48" viewBox="0 0 48 48" fill="none" xmlns="http://www.w3.org/2000/svg">
    <path fill-rule="evenodd" clip-rule="evenodd" d="M24 29.021a1 1 0 1 1-2.001 0 1 1 0 0 1 2.001 0zm13.284-3.225h.002a.5.5 0 0 0-.195.814l1.143 1.144a2.637 2.637 0 0 1 0 3.727 2.627 2.627 0 0 1-.79.54l-1.774.748a.749.749 0 0 0-.356.928c.014.037.024.065.03.087l.568 1.371a3.504 3.504 0 0 1-1.894 4.577 3.499 3.499 0 0 1-4.573-1.896l-.532-1.286c-.001-.001-.003.003-.004.002a.879.879 0 0 0-.804-.524.873.873 0 0 0-.331.069l-1.687.711h-.003A2.962 2.962 0 0 1 22 34.065v-1.04a1 1 0 1 1 2 0v1.001a1 1 0 0 0 1 1.001c.122 0 .239-.026.347-.066l1.666-.701c.017-.007.03-.008.048-.016a2.82 2.82 0 0 1 3.69 1.517l.001.003.54 1.306a1.5 1.5 0 1 0 2.772-1.149l-.585-1.415a2.748 2.748 0 0 1 1.398-3.557l1.812-.764c.002 0-.001 0 0 0a.489.489 0 0 0 .173-.8l-2.352-2.356a1.77 1.77 0 0 1 1.26-3.014H36c1.105 0 2-.896 2-2.001v-10.01a2.001 2.001 0 0 0-2-2.002H12c-1.104 0-2 .896-2 2.002v10.01c0 1.105.896 2.002 2 2.002h9a1 1 0 0 0 1-1.001v-4.68a2.826 2.826 0 0 1 4.825-1.996c.01.01.01.004.016.01l5.333 5.338a1.063 1.063 0 1 1-1.5 1.502l-5.462-5.466c-.002-.002 0 .005-.003 0a.702.702 0 0 0-1.209.49v5.302a2.501 2.501 0 0 1-2.5 2.503H12c-2.209 0-4-1.793-4-4.004v-10.01A4.002 4.002 0 0 1 12 8h24c2.209 0 4 1.793 4 4.004v10.01a3.997 3.997 0 0 1-2.716 3.782z" fill="#fff"/>
</svg>
