<svg width="40" height="40" viewBox="0 0 40 40" fill="none" xmlns="http://www.w3.org/2000/svg">
    <path fill-rule="evenodd" clip-rule="evenodd" d="M31.667 33.333H8.81A3.81 3.81 0 0 1 5 29.523v-2.857a.952.952 0 0 1 1.905 0v2.857c0 1.052.853 1.905 1.905 1.905h22.857a1.905 1.905 0 0 0 1.904-1.905v-7.619A1.905 1.905 0 0 0 31.667 20h-4.971c-.625 0-1.169.345-1.453.852a.856.856 0 0 0 .051-.109 5.702 5.702 0 0 1-10.112 0c.013.034.03.07.052.11a1.666 1.666 0 0 0-1.455-.853H8.363a2.38 2.38 0 0 1-2.29-3.035c.031-.106 0-.159-.062-.181L7.515 9.76c.732-2.34 2.33-3.094 3.645-3.094h18.096c1.316 0 2.92.754 3.66 3.094l1.17 5.406-.005.001a.923.923 0 0 1-.665 1.068.93.93 0 0 1-1.137-.656v-.004h-.004l-1.343-6.198c-.131-.45-.66-.806-1.186-.806h-19.06c-.526 0-1.053.356-1.18.806l-1.601 7.596c-.173.613.199 1.122.834 1.122h5.04c1.36 0 2.544.76 3.147 1.88 0-.003-.002-.005-.003-.007a3.806 3.806 0 0 0 6.63 0l-.003.006a3.573 3.573 0 0 1 3.146-1.88h4.97a3.81 3.81 0 0 1 3.81 3.81v7.62a3.81 3.81 0 0 1-3.81 3.809zM6.905 22.857a.952.952 0 1 1-1.905 0 .952.952 0 0 1 1.905 0z" fill="#00818F"/>
</svg>
