<svg width="89" height="88" viewBox="0 0 89 88" fill="none" xmlns="http://www.w3.org/2000/svg">
<g clip-path="url(#clip0_796_40420)">
<path d="M0.25 44C0.25 19.6995 19.9495 0 44.25 0V0C68.5505 0 88.25 19.6995 88.25 44V44C88.25 68.3005 68.5505 88 44.25 88V88C19.9495 88 0.25 68.3005 0.25 44V44Z" fill="white"/>
<path d="M27.2709 43.9949C27.2709 43.9949 21.6953 34.4732 20.4044 32.1774C19.1136 29.9057 22.0798 28.359 22.0798 28.359C22.0798 28.359 16.9438 26.6915 18.317 23.6223C19.6629 20.529 25.5954 19.3448 25.2659 18.0398C24.9363 16.7348 22.6292 12.699 25.8701 9.26729C29.111 5.83561 37.5979 9.26729 40.1522 9.26729C42.7065 9.26729 48.1722 7.01978 52.7864 6.77811C57.4007 6.53644 62.1248 11.2973 60.6416 16.3965C60.6416 16.3965 63.4156 15.2123 66.327 17.0973C69.2658 19.0065 69.9525 25.314 67.508 32.419C65.0636 39.5241 27.2709 43.9949 27.2709 43.9949Z" fill="#726358"/>
<path d="M70.5019 75.7742H19.6904C19.6904 75.7742 34.6866 68.5 35.7303 66.1558C36.1698 65.1891 36.4719 62.8933 36.6367 60.5491C36.6642 60.3074 36.6642 60.0658 36.6916 59.8241C36.9114 56.8757 36.9663 54.0966 36.9663 54.0966H53.1985C53.1985 54.0966 53.2534 56.8757 53.4732 59.8241C53.5006 60.0658 53.5006 60.3074 53.5281 60.5491C53.7204 62.8933 54.0225 65.1891 54.4345 66.1558C55.5056 68.5 70.5019 75.7742 70.5019 75.7742Z" fill="#FFDDCA"/>
<g opacity="0.25">
<path opacity="0.25" d="M53.528 60.5491C50.4793 61.7816 47.4856 62.4583 45.0961 62.4583C42.6791 62.4583 39.6853 61.7816 36.6641 60.5491C36.6916 60.3074 36.6916 60.0657 36.7191 59.8241C36.9388 56.8757 36.9937 54.0966 36.9937 54.0966H53.2259C53.2259 54.0966 53.2808 56.8757 53.5005 59.8241C53.5005 60.0657 53.528 60.3074 53.528 60.5491Z" fill="#DD7F50"/>
</g>
<path d="M63.5806 28.6006C58.7741 20.6498 45.0962 20.6498 45.0962 20.6498C45.0962 20.6498 31.4183 20.6498 26.6118 28.6006C24.1948 32.6123 24.9089 49.0699 29.7154 53.1299C34.5219 57.1899 40.8115 59.6307 45.0962 59.6307C49.3808 59.6307 55.6705 57.1899 60.477 53.1299C65.2835 49.0699 65.9976 32.6123 63.5806 28.6006Z" fill="#FFDDCA"/>
<path d="M34.2471 34.8599C34.2471 35.8266 34.9886 36.5999 35.895 36.5999C36.8014 36.5999 37.5429 35.8266 37.5429 34.8599C37.5429 33.8932 36.8014 33.1199 35.895 33.1199C34.9612 33.144 34.2471 33.9174 34.2471 34.8599Z" fill="#3F3832"/>
<path d="M54.4343 36.5999C55.3444 36.5999 56.0822 35.8209 56.0822 34.8599C56.0822 33.8989 55.3444 33.1199 54.4343 33.1199C53.5242 33.1199 52.7864 33.8989 52.7864 34.8599C52.7864 35.8209 53.5242 36.5999 54.4343 36.5999Z" fill="#3F3832"/>
<path d="M26.4471 33.2891C25.678 32.4916 24.3047 31.6216 21.9976 32.6607C19.6905 33.6999 20.1025 39.3791 21.9976 40.8533C24.5519 42.8108 26.3647 42.255 26.9964 40.8533C27.6281 39.4516 27.0513 33.9174 26.4471 33.2891Z" fill="#FFDDCA"/>
<path d="M63.7453 33.2891C64.5144 32.4916 65.8877 31.6216 68.1948 32.6607C70.5019 33.6999 70.0899 39.3791 68.1948 40.8533C65.6405 42.8108 63.8277 42.255 63.196 40.8533C62.5643 39.4516 63.1411 33.9174 63.7453 33.2891Z" fill="#FFDDCA"/>
<path opacity="0.5" d="M45.7279 35.3433C46.5519 35.3433 43.2011 39.5 43.8603 42.8108C44.0525 43.7533 46.1399 43.4875 46.7442 43.5358C47.3759 43.5842 46.5244 43.9467 45.9202 43.995C45.2885 44.0433 43.5856 43.9708 43.3384 43.3666C42.6243 41.6508 45.0962 35.3433 45.7279 35.3433Z" fill="#DD7F50"/>
<path d="M33.4232 31.4765C34.3021 31.1623 36.6092 30.8723 37.4606 30.969C38.3121 31.0657 38.6691 30.969 38.5318 30.4615C38.367 29.954 37.5979 30.0748 36.6092 30.1231C35.6204 30.1715 34.2471 30.6548 33.4232 30.969C32.5717 31.3073 32.9837 31.6457 33.4232 31.4765Z" fill="#3F3832"/>
<path d="M56.7689 31.4765C55.89 31.1623 53.5829 30.8723 52.7315 30.969C51.88 31.0657 51.523 30.969 51.6603 30.4615C51.7977 29.954 52.5942 30.0748 53.5829 30.1231C54.5717 30.1715 55.945 30.6548 56.7689 30.969C57.5929 31.3073 57.2084 31.6457 56.7689 31.4765Z" fill="#3F3832"/>
<path opacity="0.25" d="M35.7853 39.6691C35.7853 40.0558 34.879 40.3458 33.7803 40.3458C32.6817 40.3458 31.7753 40.0316 31.7753 39.6691C31.7753 39.2824 32.6817 38.9924 33.7803 38.9924C34.879 38.9924 35.7853 39.2824 35.7853 39.6691Z" fill="#FF3B3B"/>
<path opacity="0.25" d="M58.527 39.6691C58.527 40.0558 57.6206 40.3458 56.522 40.3458C55.4233 40.3458 54.517 40.0316 54.517 39.6691C54.517 39.2824 55.4233 38.9924 56.522 38.9924C57.6206 38.9924 58.527 39.2824 58.527 39.6691Z" fill="#FF3B3B"/>
<path d="M89.0961 94.7451H1.09613C1.09613 94.7451 1.81024 92.6184 2.9638 89.6942C3.12859 89.2834 3.29338 88.8484 3.45818 88.4134C4.06242 86.9392 4.74906 85.32 5.5181 83.7492C5.71036 83.3142 5.93009 82.9034 6.12235 82.4684C6.94632 80.7767 7.88015 79.1575 8.78652 77.8042C9.03371 77.4417 9.2809 77.1033 9.50062 76.7892C9.55555 76.6925 9.63795 76.62 9.69289 76.5475C10.0499 76.1125 10.3795 75.7258 10.7091 75.3633C11.7528 74.2517 13.9501 73.285 16.5593 72.4633C20.8714 71.0858 26.2821 70.1192 29.4407 69.6358C31.0337 69.3941 32.0499 69.2491 32.0499 69.2491C32.0499 69.2491 39.2459 73.0917 45.0687 72.995C53.0337 72.8742 58.0874 69.2491 58.0874 69.2491C58.0874 69.2491 58.8015 69.3458 59.9551 69.515C64.5968 70.2158 76.4894 72.2942 79.4282 75.3633C79.7578 75.7017 80.0874 76.0883 80.417 76.5475C80.7191 76.9342 81.0212 77.3692 81.2959 77.8283C82.2022 79.2058 83.0811 80.8009 83.9326 82.4925C84.1248 82.9034 84.3446 83.3384 84.5368 83.7734C85.3059 85.3684 85.9925 86.9634 86.6242 88.4375C86.789 88.8725 86.9813 89.2834 87.1461 89.7184C88.3546 92.6184 89.0961 94.7451 89.0961 94.7451Z" fill="#AFADAA"/>
<path d="M42.02 47.5475C42.7891 47.7892 45.5631 48.2966 47.4033 47.6925C49.2435 47.0883 47.7329 48.1033 46.8815 48.3208C46.03 48.5383 44.849 48.78 43.5581 48.4175C42.2398 48.0791 41.663 47.4508 42.02 47.5475Z" fill="#3F3832"/>
<path d="M24.5793 29.5916C24.5793 29.5916 23.7553 31.5249 25.5131 32.5641C27.2709 33.6033 30.0449 32.2499 30.4844 30.0749C30.9238 27.9241 30.814 24.9999 32.9288 25.3624C35.0437 25.7491 39.0262 26.4499 43.558 25.3624C48.0899 24.2749 52.3196 22.9941 52.3196 22.9941C52.3196 22.9941 62.4544 34.0383 64.6791 32.54C66.9038 31.0416 65.6954 24.2749 60.3396 21.9066C54.9838 19.5624 36.6367 15.8407 36.6367 15.8407L24.5793 29.5916Z" fill="#726358"/>
<path d="M34.2472 41.3124C31.8302 41.3124 29.3308 41.0465 28.4794 40.5632C27.4632 39.9832 26.6941 36.769 27.0237 34.5457C27.216 33.2407 27.7928 32.419 28.6442 32.1532C30.0999 31.7423 39.0262 31.7182 41.2235 32.2498C41.7728 32.3948 42.1848 32.6848 42.4594 33.144C43.3658 34.739 42.1299 37.639 42.1299 37.6874L42.1024 37.784C41.7728 38.5815 41.1411 40.0557 38.9438 40.8049C37.9551 41.1674 36.1423 41.3124 34.2472 41.3124ZM28.8365 32.6365C28.0125 32.8782 27.7104 33.8448 27.6005 34.6182C27.2709 36.8898 28.1224 39.7657 28.809 40.1765C30.045 40.8774 36.5818 41.1432 38.7241 40.3699C40.7016 39.6932 41.251 38.3882 41.5806 37.6149L41.608 37.5182C41.9376 36.769 42.6517 34.5457 41.9651 33.3857C41.7728 33.0473 41.4707 32.8298 41.0862 32.7332C38.8614 32.2015 30.0724 32.274 28.8365 32.6365Z" fill="#3F3832"/>
<path d="M55.89 41.3124C54.0223 41.3124 52.1821 41.1433 51.2208 40.8291C49.0236 40.0799 48.3919 38.5816 48.0623 37.8082L48.0074 37.7116C48.0074 37.6874 46.744 34.7632 47.6778 33.1682C47.9524 32.709 48.3644 32.3949 48.9137 32.274C51.1385 31.7424 60.0373 31.7424 61.493 32.1774C62.3444 32.419 62.9212 33.2407 63.1135 34.5699C63.4431 36.7932 62.674 40.0074 61.6578 40.5874C60.8064 41.0708 58.307 41.3124 55.89 41.3124ZM55.6978 32.3465C53.0061 32.3465 50.1497 32.4674 49.0236 32.7332C48.6116 32.8299 48.337 33.0474 48.1447 33.3857C47.4855 34.5457 48.1722 36.7691 48.5018 37.5182L48.5567 37.6149C48.8863 38.3883 49.4356 39.6691 51.4131 40.3699C53.5829 41.1191 60.1197 40.8774 61.3282 40.1766C62.0149 39.7899 62.8663 36.8899 62.5367 34.6182C62.4268 33.8449 62.0973 32.8782 61.3007 32.6365C60.6965 32.4674 58.2795 32.3465 55.6978 32.3465Z" fill="#3F3832"/>
<path d="M47.4856 34.3524C45.2609 33.2166 42.6791 34.1591 42.6517 34.1591L42.4319 33.6999C42.5418 33.6516 45.2884 32.6608 47.7603 33.9174L47.4856 34.3524Z" fill="#3F3832"/>
<path d="M65.1364 31.7297L62.1946 32.9265L62.4251 33.3652L65.367 32.1684L65.1364 31.7297Z" fill="#3F3832"/>
<path d="M25.3776 31.7302L25.1469 32.1688L28.088 33.3665L28.3187 32.9279L25.3776 31.7302Z" fill="#3F3832"/>
<path d="M37.4332 75.2424L41.0312 75.3632C41.0312 75.3632 39.548 82.9516 39.7952 84.4258C40.015 85.8999 41.9101 94.7691 41.9101 94.7691H1.09613C1.09613 94.7691 5.90262 81.7674 8.26466 77.4657C10.6267 73.1641 19.2509 70.9891 22.2996 70.2157C25.3208 69.4182 32.407 68.5482 32.407 68.5482L37.4332 75.2424Z" fill="#585D7F"/>
<path d="M35.7303 66.1799C35.7303 66.1799 35.0161 69.9499 36.4169 71.1824C37.8176 72.415 41.0311 75.3391 41.0311 75.3391C41.0311 75.3391 36.6366 79.1575 34.769 78.5533C32.9013 77.9733 29.8526 71.0133 29.8526 69.8049C29.8526 68.5966 35.7303 66.1799 35.7303 66.1799Z" fill="#686E8E"/>
<path d="M52.7591 75.2424L49.1611 75.3632C49.1611 75.3632 50.6443 82.9516 50.3971 84.4258C50.1774 85.8999 48.2822 94.7691 48.2822 94.7691H89.0962C89.0962 94.7691 84.2897 81.7674 81.9277 77.4657C79.5656 73.1641 70.9414 70.9891 67.8927 70.2157C64.8715 69.4182 57.7854 68.5482 57.7854 68.5482L52.7591 75.2424Z" fill="#585D7F"/>
<path d="M54.462 66.1799C54.462 66.1799 55.1761 69.9499 53.7754 71.1824C52.3746 72.415 49.1611 75.3391 49.1611 75.3391C49.1611 75.3391 53.5556 79.1575 55.4233 78.5533C57.291 77.9733 60.3397 71.0133 60.3397 69.8049C60.3397 68.5966 54.462 66.1799 54.462 66.1799Z" fill="#686E8E"/>
</g>
<defs>
<clipPath id="clip0_796_40420">
<path d="M0.25 44C0.25 19.6995 19.9495 0 44.25 0V0C68.5505 0 88.25 19.6995 88.25 44V44C88.25 68.3005 68.5505 88 44.25 88V88C19.9495 88 0.25 68.3005 0.25 44V44Z" fill="white"/>
</clipPath>
</defs>
</svg>
