<svg width="490" height="281" viewBox="0 0 490 281" fill="none" xmlns="http://www.w3.org/2000/svg">
<path d="M382.03 171.916V172.568C380.628 170.925 379.197 169.296 377.78 167.667C377.186 166.987 376.591 166.307 375.996 165.627C373.474 162.766 370.939 159.914 368.39 157.072C365.826 154.239 363.262 151.407 360.67 148.588C360.047 147.908 359.424 147.228 358.786 146.548C358.276 145.977 357.722 145.447 357.129 144.962C356.531 144.464 355.844 144.084 355.104 143.843C354.252 143.607 353.354 143.597 352.498 143.815C351.52 144.041 350.585 144.395 349.636 144.693C348.659 145.019 347.696 145.33 346.719 145.642C344.764 146.279 342.823 146.917 340.869 147.554C340.845 147.564 340.82 147.568 340.794 147.568C340.769 147.568 340.744 147.563 340.72 147.553C340.697 147.543 340.676 147.529 340.658 147.511C340.64 147.492 340.626 147.471 340.616 147.447L340.614 147.441C340.603 147.414 340.598 147.385 340.599 147.356C340.6 147.327 340.608 147.298 340.621 147.273C340.635 147.247 340.654 147.225 340.677 147.207C340.7 147.19 340.727 147.177 340.756 147.172C341.237 147.016 341.733 146.86 342.229 146.704C344.197 146.052 346.152 145.415 348.121 144.778C349.098 144.452 350.075 144.14 351.053 143.829C351.959 143.484 352.917 143.293 353.886 143.262C355.468 143.376 356.952 144.072 358.05 145.217C358.659 145.783 359.211 146.378 359.764 146.987C360.415 147.696 361.067 148.404 361.719 149.112C364.339 151.973 366.94 154.844 369.523 157.724C372.115 160.613 374.683 163.507 377.228 166.406C377.412 166.619 377.596 166.831 377.78 167.044C379.211 168.658 380.613 170.287 382.03 171.916Z" fill="white"/>
<path d="M356.909 147.571C356.374 146.882 355.661 146.352 354.847 146.039L354.042 146.067C360.363 155.904 368.645 164.332 378.371 170.824C371.217 163.073 364.063 155.322 356.909 147.571Z" fill="white"/>
<path d="M488.839 249.802L456.752 77.9924C456.203 75.1601 454.708 72.5985 452.512 70.7274C450.316 68.8563 447.549 67.7868 444.666 67.6943C444.407 67.6885 444.147 67.6885 443.888 67.6943L422.029 68.4784L419.676 68.5649L408.767 68.957L406.414 69.0377L399.397 69.2914L257.899 74.3713C257.686 74.3828 257.467 74.3828 257.254 74.377L225.546 73.7139L213.813 73.4717L213.438 73.466L204.777 73.2815L129.312 71.7131L109.304 71.2922L99.438 71.0904L97.0741 71.0385L85.8246 70.8078L83.4663 70.7559L71.9573 70.5195L69.599 70.4676L56.9541 70.2023L54.9706 70.162L43.6923 69.9256L41.9107 69.891H41.6512C38.657 69.9032 35.7636 70.9736 33.4824 72.913C31.2011 74.8523 29.679 77.5358 29.1851 80.4889L0.164782 258.774C-0.129917 260.58 -0.0284557 262.428 0.462115 264.191C0.952686 265.954 1.82062 267.589 3.00585 268.984C4.19107 270.378 5.66523 271.498 7.32619 272.266C8.98715 273.033 10.7952 273.431 12.6251 273.431H179.286C181.739 273.438 184.126 274.225 186.101 275.68L189.261 278.021C191.439 279.624 194.07 280.492 196.774 280.5C228.962 272.005 262.804 272.005 294.992 280.5C296.652 280.504 298.296 280.179 299.829 279.544C301.362 278.909 302.754 277.975 303.924 276.798C305.924 274.798 308.594 273.609 311.419 273.46L477.088 264.73C478.885 264.636 480.641 264.16 482.238 263.332C483.835 262.504 485.237 261.345 486.35 259.931C487.462 258.518 488.26 256.883 488.69 255.136C489.119 253.389 489.17 251.57 488.839 249.802V249.802Z" fill="#CCCCCC"/>
<path d="M443.439 223.01C443.226 228.832 440.711 234.332 436.444 238.3C432.178 242.267 426.511 244.379 420.689 244.17C411.069 243.83 399.589 243.66 387.129 243.92C346.439 244.79 295.319 250.39 264.569 270.53C260.704 273.067 256.137 274.32 251.519 274.11C251.179 274.09 250.849 274.07 250.509 274.04C245.721 273.602 241.21 271.603 237.669 268.35C220.729 252.85 181.879 234.08 92.949 232.76C92.579 232.76 92.219 232.74 91.859 232.72C88.9787 232.539 86.1623 231.792 83.5708 230.521C80.9794 229.251 78.6637 227.482 76.7562 225.317C74.8486 223.151 73.3866 220.631 72.4536 217.899C71.5207 215.168 71.1352 212.28 71.319 209.4L80.059 70.69L81.369 49.9L83.6691 13.53C83.901 9.86728 85.5186 6.43023 88.1933 3.91716C90.8679 1.40409 94.399 0.00351982 98.069 0H98.159L151.139 0.309998C173.459 1.32 191.946 4.16333 206.599 8.84C211.604 10.3921 216.474 12.3521 221.159 14.7C227.558 17.8024 233.307 22.0956 238.099 27.3501C241.084 30.7067 245.155 32.9052 249.599 33.56C250.288 33.663 250.983 33.7264 251.679 33.75C255.777 33.9196 259.821 32.7623 263.209 30.45C297.819 7.26004 368.349 5.50005 407.299 6.50005C412.746 6.62709 417.951 8.77727 421.9 12.5318C425.848 16.2863 428.258 21.3762 428.659 26.81L430.239 47.5001L431.809 68.13L440.869 187.36L443.389 220.53C443.451 221.355 443.467 222.183 443.439 223.01V223.01Z" fill="#F2F2F2"/>
<path d="M106.129 48.8098C138.056 38.6236 173.675 41.3203 203.922 55.6707C212.552 59.744 220.702 64.7641 228.223 70.6384C230.351 72.3081 233.378 69.3214 231.228 67.6337C203.447 46.086 168.541 35.8499 133.523 38.9819C123.835 39.8488 114.27 41.7704 104.999 44.7124C102.404 45.5404 103.513 49.6444 106.129 48.8098H106.129Z" fill="#3F3D56"/>
<path d="M281.813 72.2863C311.497 56.6841 347.043 53.2818 379.317 62.1383C388.518 64.6572 397.41 68.1927 405.829 72.6795C408.241 73.9664 410.39 70.2996 407.974 69.0104C377.214 52.5971 340.29 48.8188 306.7 57.9682C297.329 60.5251 288.265 64.0959 279.669 68.6172C277.247 69.89 279.393 73.5588 281.813 72.2863Z" fill="#3F3D56"/>
<path d="M281.813 100.614C311.497 85.0122 347.043 81.6099 379.317 90.4664C388.518 92.9853 397.411 96.5208 405.829 101.008C408.241 102.295 410.39 98.6278 407.974 97.3385C377.214 80.9253 340.29 77.1469 306.7 86.2963C297.329 88.8533 288.265 92.424 279.669 96.9453C277.247 98.2181 279.392 101.887 281.813 100.614L281.813 100.614Z" fill="#3F3D56"/>
<path d="M409.013 127.423C409.036 127.059 408.948 126.696 408.761 126.381C408.574 126.067 408.297 125.817 407.966 125.662C383.325 112.759 355.385 107.526 327.744 110.636C327.571 110.649 327.411 110.677 327.224 110.691H327.217C327.047 110.706 326.878 110.732 326.711 110.767C310.271 112.659 294.322 117.575 279.669 125.267C279.35 125.457 279.085 125.727 278.902 126.051C278.718 126.374 278.622 126.739 278.622 127.111V179.957C278.627 180.282 278.706 180.602 278.854 180.892C279.001 181.182 279.212 181.435 279.471 181.631C279.73 181.828 280.031 181.963 280.35 182.026C280.669 182.089 280.998 182.079 281.313 181.996C281.964 181.808 282.616 181.628 283.282 181.455C298.095 177.445 313.302 175.066 328.632 174.361C328.958 174.347 329.284 174.333 329.623 174.319C342.109 173.783 354.618 174.233 367.033 175.665C367.293 175.679 367.553 175.707 367.81 175.748C368.448 175.817 369.1 175.893 369.738 175.977C369.994 176.004 370.237 176.032 370.473 176.074C372.955 176.386 375.417 176.739 377.885 177.121C381.45 177.689 385.014 178.323 388.578 179.021C388.8 179.062 389.029 179.118 389.258 179.16C394.978 180.297 400.671 181.614 406.336 183.07C406.652 183.152 406.982 183.161 407.301 183.096C407.621 183.031 407.921 182.895 408.18 182.697C408.439 182.5 408.65 182.246 408.797 181.955C408.943 181.664 409.022 181.344 409.027 181.018V127.506C409.029 127.478 409.024 127.449 409.013 127.423V127.423Z" fill="#3F3D56"/>
<path d="M331.075 113.517C329.519 112.755 327.734 112.598 326.069 113.077C325.333 113.353 324.659 113.772 324.087 114.311C323.514 114.849 323.054 115.496 322.734 116.214C322.157 117.589 321.787 119.043 321.636 120.528C321.548 121.112 321.543 121.848 322.13 122.121C322.343 122.198 322.573 122.216 322.795 122.172C323.017 122.128 323.223 122.024 323.391 121.871C323.694 121.572 323.944 121.224 324.129 120.841C325.148 119.255 326.551 117.952 328.206 117.052C329.862 116.152 331.718 115.683 333.603 115.69L335.172 116.315C333.938 115.204 332.56 114.263 331.075 113.517V113.517Z" fill="#FF6582"/>
<path d="M348.054 125.697C346.837 123.905 345.394 121.992 343.135 121.406C340.518 120.729 337.831 122.075 335.551 123.403C328.772 127.351 322.207 131.657 315.885 136.301L315.892 136.371L330.567 135.47C334.101 135.253 337.757 135.006 340.88 133.518C342.002 132.815 343.256 132.348 344.564 132.146C345.376 132.19 346.171 132.395 346.903 132.747C347.635 133.1 348.291 133.595 348.831 134.202C355.594 140.613 357.551 150.416 365.139 156.048C360.311 145.467 354.595 135.314 348.054 125.697V125.697Z" fill="white"/>
<path d="M329.626 174.319C329.286 174.333 328.96 174.347 328.634 174.361C326.269 173.511 323.847 172.76 321.397 172.109C319.81 171.684 318.196 171.302 316.581 170.976C314.753 170.579 312.912 170.268 311.071 169.998C307.565 169.489 304.032 169.191 300.49 169.106C300.464 169.109 300.436 169.106 300.411 169.098C300.385 169.09 300.361 169.076 300.341 169.058C300.321 169.04 300.305 169.018 300.294 168.993C300.283 168.969 300.277 168.942 300.277 168.915C300.277 168.888 300.283 168.861 300.294 168.837C300.305 168.812 300.321 168.79 300.341 168.772C300.361 168.754 300.385 168.74 300.411 168.732C300.436 168.724 300.464 168.721 300.49 168.724C300.943 168.724 301.397 168.738 301.836 168.766C305.385 168.897 308.923 169.243 312.431 169.8C314.258 170.098 316.085 170.452 317.898 170.848C319.541 171.217 321.184 171.628 322.799 172.081C325.107 172.732 327.383 173.478 329.626 174.319Z" fill="white"/>
<path d="M370.475 176.075C370.234 176.032 369.993 176.004 369.738 175.976C368.761 175.168 367.77 174.403 366.736 173.653C365.447 172.718 364.115 171.84 362.756 171.018C359.744 169.19 356.6 167.59 353.35 166.231C348.212 164.091 342.894 162.413 337.458 161.217C331.258 159.858 324.981 158.874 318.663 158.27C312.345 157.619 306 157.222 299.654 156.826C299.385 156.812 299.371 156.415 299.654 156.429C300.448 156.486 301.241 156.528 302.048 156.585C308.464 156.982 314.881 157.435 321.255 158.157C327.575 158.835 333.844 159.923 340.022 161.415C345.297 162.715 350.444 164.483 355.404 166.698C358.257 167.98 361.02 169.451 363.676 171.103C365.362 172.165 366.991 173.299 368.548 174.502C369.2 175.012 369.852 175.522 370.475 176.075Z" fill="white"/>
<path d="M367.812 175.749C367.554 175.707 367.294 175.679 367.033 175.664C366.736 175.423 366.424 175.197 366.113 174.97C363.932 173.409 361.657 171.985 359.3 170.707C357.159 169.543 354.961 168.489 352.713 167.548C347.578 165.402 342.259 163.724 336.821 162.534C330.621 161.176 324.344 160.192 318.025 159.588C311.708 158.936 305.363 158.54 299.017 158.143C298.748 158.115 298.748 157.732 299.017 157.746C299.825 157.803 300.618 157.846 301.411 157.902C307.827 158.299 314.244 158.752 320.617 159.474C326.937 160.152 333.207 161.24 339.385 162.732C344.66 164.03 349.808 165.798 354.767 168.015C356.637 168.865 358.464 169.786 360.249 170.792C362.895 172.245 365.424 173.902 367.812 175.749Z" fill="white"/>
<path d="M389.257 179.162C389.031 179.12 388.804 179.063 388.577 179.021C388.322 178.752 388.081 178.468 387.841 178.185C386.623 176.783 385.419 175.366 384.229 173.936C379.541 168.355 375.093 162.604 370.9 156.741C367.303 151.727 363.889 146.613 360.66 141.401C359.116 138.936 357.628 136.443 356.17 133.922C355.037 131.968 353.932 130.008 352.855 128.044C352.544 127.478 352.246 126.911 351.949 126.344C351.255 125.013 350.561 123.667 349.824 122.35C349.024 120.736 347.848 119.338 346.396 118.271C345.671 117.785 344.831 117.497 343.96 117.435C342.732 117.44 341.524 117.751 340.447 118.342C332.523 122.032 325.048 126.618 318.167 132.01C311.448 137.237 305.371 143.242 300.066 149.899C299.896 150.098 299.527 149.913 299.683 149.701C300.32 148.908 300.972 148.115 301.623 147.335C306.723 141.304 312.465 135.847 318.748 131.061C318.762 131.047 318.79 131.033 318.805 131.019C319.357 130.579 319.909 130.155 320.476 129.744C323.984 127.161 327.635 124.777 331.411 122.605C333.337 121.486 335.306 120.424 337.317 119.418C337.813 119.163 338.323 118.908 338.833 118.667C339.343 118.413 339.853 118.172 340.362 117.931C341.372 117.416 342.475 117.113 343.606 117.039C347.544 116.982 349.569 120.948 350.971 123.625C351.41 124.461 351.864 125.296 352.303 126.132C354.003 129.291 355.773 132.435 357.615 135.537C358.733 137.463 359.895 139.376 361.071 141.273C362.756 143.979 364.484 146.656 366.283 149.319C366.283 149.321 366.283 149.322 366.284 149.324C366.284 149.326 366.285 149.327 366.287 149.329C366.288 149.33 366.289 149.331 366.291 149.332C366.293 149.333 366.295 149.333 366.296 149.333H366.297C368.379 152.477 370.546 155.565 372.784 158.639C376.623 163.894 380.645 169.03 384.852 174.049C386.297 175.777 387.765 177.482 389.257 179.162Z" fill="white"/>
<path d="M338.724 116.607L338.332 116.779C337.435 115.263 336.177 113.993 334.67 113.081C333.163 112.169 331.455 111.643 329.696 111.55C323.897 111.138 318.803 115.003 318.34 120.164C318.152 122.289 318.767 124.408 320.064 126.102L319.701 126.317C318.35 124.553 317.709 122.346 317.905 120.133C318.387 114.758 323.692 110.734 329.731 111.163C331.562 111.259 333.341 111.807 334.91 112.757C336.479 113.706 337.789 115.029 338.724 116.607V116.607Z" fill="#FF6582"/>
<path d="M310.07 127.05C308.548 126.388 306.891 126.098 305.234 126.203C303.578 126.309 301.971 126.807 300.545 127.656C305.75 128.455 310.909 129.527 316.001 130.867C313.893 129.767 312.243 128.044 310.07 127.05Z" fill="white"/>
<path d="M300.516 127.651L299.942 128.066C300.136 127.921 300.338 127.785 300.545 127.656L300.516 127.651Z" fill="white"/>
<path d="M317.774 130.056C317.546 129.829 317.319 129.603 317.089 129.376C315.326 127.457 313.203 125.904 310.84 124.804C309.638 124.297 308.347 124.031 307.042 124.02C305.694 124.052 304.361 124.31 303.099 124.786C302.505 124.997 301.925 125.236 301.353 125.492C300.699 125.784 300.058 126.096 299.419 126.411C298.22 127.002 297.036 127.618 295.868 128.261C293.544 129.539 291.293 130.915 289.115 132.389C287.985 133.153 286.879 133.942 285.797 134.757C284.79 135.513 283.803 136.29 282.837 137.087C282.63 137.257 282.322 136.982 282.528 136.812C282.783 136.601 283.041 136.391 283.298 136.184C284.026 135.599 284.765 135.024 285.516 134.461C286.885 133.433 288.29 132.444 289.73 131.495C291.97 130.019 294.286 128.642 296.68 127.366C297.876 126.729 299.089 126.118 300.318 125.534C300.689 125.358 301.065 125.186 301.444 125.023C302.312 124.634 303.207 124.309 304.122 124.052C305.435 123.676 306.808 123.556 308.166 123.699C309.466 123.865 310.729 124.253 311.897 124.848C314.213 126.146 316.302 127.812 318.083 129.78C318.269 129.967 317.962 130.243 317.774 130.056Z" fill="white"/>
<path d="M106.129 77.138C138.056 66.9517 173.675 69.6485 203.922 83.9988C212.552 88.0721 220.702 93.0922 228.223 98.9665C230.351 100.636 233.378 97.6495 231.228 95.9618C203.447 74.4141 168.541 64.178 133.523 67.3101C123.835 68.177 114.27 70.0985 104.999 73.0405C102.404 73.8685 103.513 77.9725 106.129 77.138L106.129 77.138Z" fill="#3F3D56"/>
<path d="M106.129 105.466C138.056 95.2798 173.675 97.9766 203.922 112.327C212.552 116.4 220.702 121.42 228.223 127.295C230.351 128.964 233.378 125.978 231.228 124.29C203.447 102.742 168.541 92.5062 133.523 95.6382C123.835 96.5051 114.27 98.4266 104.999 101.369C102.404 102.197 103.513 106.301 106.129 105.466L106.129 105.466Z" fill="#3F3D56"/>
<path d="M106.129 133.794C138.056 123.608 173.675 126.305 203.922 140.655C212.552 144.728 220.702 149.748 228.223 155.623C230.351 157.292 233.378 154.306 231.228 152.618C203.447 131.07 168.541 120.834 133.523 123.966C123.835 124.833 114.27 126.755 104.999 129.697C102.404 130.525 103.513 134.629 106.129 133.794L106.129 133.794Z" fill="#3F3D56"/>
<path d="M106.129 162.122C138.056 151.936 173.675 154.633 203.922 168.983C212.552 173.057 220.702 178.077 228.223 183.951C230.351 185.621 233.378 182.634 231.228 180.946C203.447 159.399 168.541 149.162 133.523 152.294C123.835 153.161 114.27 155.083 104.999 158.025C102.404 158.853 103.513 162.957 106.129 162.122L106.129 162.122Z" fill="#3F3D56"/>
<path d="M106.129 190.451C138.056 180.265 173.675 182.961 203.922 197.312C212.552 201.385 220.702 206.405 228.223 212.279C230.351 213.949 233.378 210.962 231.228 209.275C203.447 187.727 168.541 177.491 133.523 180.623C123.835 181.49 114.27 183.411 104.999 186.354C102.404 187.182 103.513 191.285 106.129 190.451H106.129Z" fill="#3F3D56"/>
<path d="M221.159 14.6998V82.6299C221.159 83.9799 218.799 85.1098 215.619 85.4198C215.592 85.4182 215.565 85.4216 215.539 85.4298C215.009 85.4698 214.449 85.4998 213.879 85.4998C212.126 85.532 210.381 85.2475 208.729 84.6599C208.579 84.5999 208.429 84.5298 208.279 84.4698C208.139 84.3898 207.989 84.3198 207.849 84.2398C207.059 83.7698 206.599 83.2199 206.599 82.6299V8.83984C211.604 10.392 216.474 12.3519 221.159 14.6998V14.6998Z" fill="#06064E"/>
<path d="M251.677 30.4551H249.597V272.69H251.677V30.4551Z" fill="#E6E6E6"/>
</svg>
