<svg width="96" height="96" viewBox="0 0 96 96" fill="none" xmlns="http://www.w3.org/2000/svg">
    <path fill-rule="evenodd" clip-rule="evenodd" d="M66 68a2 2 0 1 1 0-4 2 2 0 0 1 0 4zm-2-20h2a2 2 0 0 1 0 4h-.666c-.736 0-1.334.598-1.334 1.334V54a2 2 0 0 1-4 0v-2a4 4 0 0 1 4-4zm-6 12a2 2 0 0 1 0 4h-.666c-.736 0-1.334.598-1.334 1.334V66a2 2 0 0 1-4 0v-2a4 4 0 0 1 4-4h2zm-6-12h2a2 2 0 0 1 0 4h-.666c-.736 0-1.334.598-1.334 1.334V54a2 2 0 0 1-4 0v-2a4 4 0 0 1 4-4zm-6 12a2 2 0 0 1 0 4h-.666c-.736 0-1.334.598-1.334 1.334V66a2 2 0 0 1-4 0v-2a4 4 0 0 1 4-4h2zm-6-12h2a2 2 0 0 1 0 4h-.666c-.736 0-1.334.598-1.334 1.334V54a2 2 0 0 1-4 0v-2a4 4 0 0 1 4-4zM30 68a2 2 0 0 1-2-2v-2a4 4 0 0 1 4-4h2a2 2 0 0 1 0 4h-.666c-.736 0-1.334.598-1.334 1.334V66a2 2 0 0 1-2 2zm48-20a2 2 0 1 1 0-4 2 2 0 0 1 0 4zm-6 32H24a8 8 0 0 1-8-8V44a8 8 0 0 1 8-8h50a2 2 0 0 0 2-2v-2a4 4 0 0 0-4-4h-3a5 5 0 0 1-5-5v-1a2 2 0 0 0-4 0v1a5 5 0 0 1-5 5H41a5 5 0 0 1-5-5v-1a2 2 0 0 0-4 0v1a5 5 0 0 1-5 5h-3a4 4 0 0 0-4 4 2 2 0 0 1-4 0 8 8 0 0 1 8-8h2a2 2 0 0 0 2-2 6 6 0 0 1 12 0 2 2 0 0 0 2 2h12a2 2 0 0 0 2-2 6 6 0 0 1 12 0 2 2 0 0 0 2 2h2a8 8 0 0 1 8 8v3a5 5 0 0 1-5 5H24a4 4 0 0 0-4 4v28a4 4 0 0 0 4 4h48a4 4 0 0 0 4-4V54a2 2 0 0 1 4 0v18a8 8 0 0 1-8 8z" fill="#fff"/>
</svg>
