<svg width="40" height="40" viewBox="0 0 40 40" fill="none" xmlns="http://www.w3.org/2000/svg">
    <path d="M0 8a8 8 0 0 1 8-8h24a8 8 0 0 1 8 8v24a8 8 0 0 1-8 8H8a8 8 0 0 1-8-8V8z" fill="red"/>
    <path fill-rule="evenodd" clip-rule="evenodd" d="M16.666 27.5v-8.334a.833.833 0 1 1 1.667 0v8.333a.833.833 0 0 1-1.667 0zm5.833-2.5a.833.833 0 0 1-.833-.834v-5a.833.833 0 1 1 1.667 0v5c0 .46-.373.833-.834.833zm0 3.333a.833.833 0 1 1 0-1.667.833.833 0 0 1 0 1.667zm6.667-8.334a.833.833 0 1 1-.001-1.666.833.833 0 0 1 .001 1.666zm.833-5H13.75c-1.15 0-2.083.933-2.083 2.084v12.5c0 1.15.932 2.083 2.083 2.083h12.5c1.151 0 2.084-.933 2.084-2.083V22.5a.833.833 0 1 1 1.666 0V30a3.334 3.334 0 0 1-3.333 3.333H13.333a3.334 3.334 0 0 1-3.334-3.334V16.666a3.334 3.334 0 0 1 3.334-3.333h16.666a1.667 1.667 0 0 0 0-3.334h-6.25c-.92 0-1.162-1.666-2.083-1.666h-3.333c-.921 0-1.163 1.666-2.083 1.666H9.999c-.92 0-1.667.747-1.667 1.667a.833.833 0 1 1-1.666 0 3.333 3.333 0 0 1 3.333-3.333h4.584c.92 0 1.163-1.667 2.083-1.667h6.667c.92 0 1.163 1.667 2.083 1.667h4.583a3.333 3.333 0 1 1 0 6.666z" fill="#fff"/>
</svg>
