<svg width="48" height="48" viewBox="0 0 48 48" fill="none" xmlns="http://www.w3.org/2000/svg">
    <path fill-rule="evenodd" clip-rule="evenodd" d="M35.331 22.557c-.008.01-.01.019-.021.029a2.001 2.001 0 0 0 0 2.828c.012.011.014.021.023.033l3.497 3.496a3.995 3.995 0 0 1 0 5.65l-4.237 4.237a3.996 3.996 0 0 1-5.65 0l-3.498-3.497c-.01-.01-.02-.011-.031-.023a1.998 1.998 0 0 0-2.828 0 1 1 0 0 1-1.414-1.414l-.003-.003.317-.318c.013-.011.026-.019.04-.032a3.498 3.498 0 0 1 4.948 0c.014.014.029.023.043.036l3.486 3.486a2.499 2.499 0 0 0 3.531 0l3.53-3.532a2.498 2.498 0 0 0 0-3.53l-3.486-3.485c-.012-.015-.02-.03-.035-.044a3.5 3.5 0 0 1 0-4.948c.014-.014.02-.027.033-.04l3.489-3.489a2.498 2.498 0 0 0 0-3.53l-3.53-3.531a2.497 2.497 0 0 0-3.532 0l-3.484 3.483c-.014.014-.03.022-.045.038a3.498 3.498 0 0 1-4.948 0c-.015-.015-.03-.022-.043-.035l-3.486-3.486a2.496 2.496 0 0 0-3.53 0l-3.531 3.53a2.495 2.495 0 0 0 0 3.531l3.486 3.486c.012.014.02.028.035.043a3.498 3.498 0 0 1 0 4.948c-.016.016-.025.03-.038.046l-3.483 3.482a2.495 2.495 0 0 0 0 3.531l3.179 3.18-.12.119c.168.042.33.114.462.246a.999.999 0 1 1-1.413 1.413.965.965 0 0 1-.245-.462l-.096.096-3.533-3.533a3.993 3.993 0 0 1 0-5.649l3.497-3.496c.01-.012.012-.022.023-.033a2 2 0 0 0 0-2.828c-.01-.01-.011-.02-.02-.03l-3.5-3.5a3.993 3.993 0 0 1 0-5.649l4.237-4.237a3.995 3.995 0 0 1 5.65 0l3.496 3.496c.011.01.021.012.033.024a1.998 1.998 0 0 0 2.828 0c.012-.013.023-.014.034-.025l3.495-3.495a3.995 3.995 0 0 1 5.65 0l4.237 4.237a3.995 3.995 0 0 1 0 5.65l-3.499 3.5zM19.002 35.996a1 1 0 1 1-.002 2 1 1 0 0 1 .002-2z" fill="#231F20"/>
</svg>
