<svg width="40" height="40" viewBox="0 0 40 40" fill="none" xmlns="http://www.w3.org/2000/svg">
    <path d="M0 8a8 8 0 0 1 8-8h24a8 8 0 0 1 8 8v24a8 8 0 0 1-8 8H8a8 8 0 0 1-8-8V8z" fill="red"/>
    <path fill-rule="evenodd" clip-rule="evenodd" d="M29.443 18.797c-.008.008-.01.015-.018.024a1.667 1.667 0 0 0 0 2.356c.01.01.012.018.02.028l2.913 2.914a3.33 3.33 0 0 1 0 4.707l-3.53 3.532a3.33 3.33 0 0 1-4.709 0l-2.915-2.915c-.009-.008-.016-.009-.026-.019a1.665 1.665 0 0 0-2.357 0 .833.833 0 0 1-1.178-1.178l-.002-.003.264-.264c.01-.01.021-.016.033-.027a2.915 2.915 0 0 1 4.123 0c.013.012.024.02.037.03l2.904 2.905c.813.812 2.13.812 2.943 0l2.942-2.944a2.081 2.081 0 0 0 0-2.942l-2.905-2.904c-.01-.012-.018-.024-.03-.036a2.916 2.916 0 0 1 0-4.123c.012-.012.018-.022.027-.033l2.908-2.908a2.081 2.081 0 0 0 0-2.942l-2.942-2.942a2.081 2.081 0 0 0-2.943 0l-2.903 2.902c-.012.012-.024.019-.038.032a2.915 2.915 0 0 1-4.123 0c-.013-.013-.024-.019-.035-.03l-2.906-2.904a2.08 2.08 0 0 0-2.942 0l-2.942 2.942a2.08 2.08 0 0 0 0 2.942l2.905 2.905c.01.011.017.023.03.035a2.915 2.915 0 0 1 0 4.124c-.014.013-.021.026-.033.038l-2.902 2.902a2.08 2.08 0 0 0 0 2.942l2.649 2.65-.1.1c.14.035.276.095.385.204a.832.832 0 1 1-1.178 1.178.803.803 0 0 1-.204-.384l-.08.08-2.943-2.945a3.328 3.328 0 0 1 0-4.707l2.913-2.914c.009-.01.01-.018.02-.028.65-.65.65-1.705 0-2.356-.008-.009-.01-.016-.018-.024L7.642 15.88a3.328 3.328 0 0 1 0-4.708l3.53-3.53c1.3-1.301 3.408-1.301 4.709 0l2.913 2.913c.01.007.018.01.027.02a1.665 1.665 0 0 0 2.357 0c.01-.011.02-.013.029-.021l2.912-2.913c1.3-1.3 3.408-1.3 4.709 0l3.53 3.531a3.33 3.33 0 0 1 0 4.708l-2.915 2.917zM15.835 29.995a.833.833 0 1 1-.002 1.666.833.833 0 0 1 .002-1.666z" fill="#fff"/>
</svg>
