<svg width="512" height="512" viewBox="0 0 512 512" fill="none" xmlns="http://www.w3.org/2000/svg">
<path d="M241.955 336.298C326.907 336.298 395.775 269.392 395.775 186.859C395.775 104.327 326.907 37.4209 241.955 37.4209C157.002 37.4209 88.1348 104.327 88.1348 186.859C88.1348 269.392 157.002 336.298 241.955 336.298Z" fill="white"/>
<g filter="url(#filter0_d_3288_112550)">
<path d="M131.982 205.431C164.18 197.642 195.347 214.133 209.785 227.28C253.724 267.292 244.391 368.897 184.205 478.317C93.6304 406.378 48.3836 319.167 71.9394 261.742C73.9094 256.938 91.7864 215.157 131.982 205.431Z" fill="url(#paint0_linear_3288_112550)"/>
<path d="M367.193 259.649C393.898 267.952 409.337 293.403 414.103 309.183C428.609 357.209 377.833 426.787 286.823 480C252.358 388.638 257.35 305.847 299.293 274.441C302.802 271.814 333.854 249.284 367.193 259.649Z" fill="url(#paint1_linear_3288_112550)"/>
<path d="M129.182 158.585C95.6176 161.561 63.47 136.472 60.2588 101.149C57.0224 65.5505 84.5933 35.1302 117.695 32.2264C156.227 28.8462 189.657 63.8588 186.618 101.149C184.234 130.398 159.836 155.867 129.182 158.585Z" fill="url(#paint2_linear_3288_112550)"/>
<path d="M404.238 238.138C376.993 240.554 350.899 220.188 348.292 191.516C345.665 162.62 368.045 137.928 394.913 135.57C426.191 132.827 453.326 161.247 450.859 191.516C448.924 215.258 429.12 235.931 404.238 238.138Z" fill="url(#paint3_linear_3288_112550)"/>
</g>
<defs>
<filter id="filter0_d_3288_112550" x="56" y="32" width="399.016" height="461" filterUnits="userSpaceOnUse" color-interpolation-filters="sRGB">
<feFlood flood-opacity="0" result="BackgroundImageFix"/>
<feColorMatrix in="SourceAlpha" type="matrix" values="0 0 0 0 0 0 0 0 0 0 0 0 0 0 0 0 0 0 127 0" result="hardAlpha"/>
<feOffset dy="9"/>
<feGaussianBlur stdDeviation="2"/>
<feColorMatrix type="matrix" values="0 0 0 0 0 0 0 0 0 0 0 0 0 0 0 0 0 0 0.25 0"/>
<feBlend mode="normal" in2="BackgroundImageFix" result="effect1_dropShadow_3288_112550"/>
<feBlend mode="normal" in="SourceGraphic" in2="effect1_dropShadow_3288_112550" result="shape"/>
</filter>
<linearGradient id="paint0_linear_3288_112550" x1="87.5187" y1="237.355" x2="241.221" y2="248.895" gradientUnits="userSpaceOnUse">
<stop stop-color="#00818F"/>
<stop offset="0.273958" stop-color="#1F8D9B"/>
<stop offset="0.555208" stop-color="#3199A7"/>
<stop offset="0.792084" stop-color="#41A5B3"/>
<stop offset="1" stop-color="#4FB1BF"/>
</linearGradient>
<linearGradient id="paint1_linear_3288_112550" x1="283.39" y1="284.472" x2="420.035" y2="295.725" gradientUnits="userSpaceOnUse">
<stop stop-color="#00818F"/>
<stop offset="0.273958" stop-color="#1F8D9B"/>
<stop offset="0.555208" stop-color="#3199A7"/>
<stop offset="0.792084" stop-color="#41A5B3"/>
<stop offset="1" stop-color="#4FB1BF"/>
</linearGradient>
<linearGradient id="paint2_linear_3288_112550" x1="76.0953" y1="47.6543" x2="188.837" y2="61.2307" gradientUnits="userSpaceOnUse">
<stop stop-color="#00818F"/>
<stop offset="0.273958" stop-color="#1F8D9B"/>
<stop offset="0.555208" stop-color="#3199A7"/>
<stop offset="0.792084" stop-color="#41A5B3"/>
<stop offset="1" stop-color="#4FB1BF"/>
</linearGradient>
<linearGradient id="paint3_linear_3288_112550" x1="361.147" y1="148.094" x2="452.661" y2="159.114" gradientUnits="userSpaceOnUse">
<stop stop-color="#00818F"/>
<stop offset="0.273958" stop-color="#1F8D9B"/>
<stop offset="0.555208" stop-color="#3199A7"/>
<stop offset="0.792084" stop-color="#41A5B3"/>
<stop offset="1" stop-color="#4FB1BF"/>
</linearGradient>
</defs>
</svg>
