<svg width="49" height="48" viewBox="0 0 49 48" fill="none" xmlns="http://www.w3.org/2000/svg">
    <path fill-rule="evenodd" clip-rule="evenodd" d="M40.44 23.003a1 1 0 1 1-2 0c0-.264-1.668-1.517-2.065-1.914l-1.084-1.085h.031a3.987 3.987 0 0 1-.88-2.5v-4.498c0-.553-.45-1-1.001-1h-2a1 1 0 0 0-1 1v.343a.75.75 0 0 1-1.27.538l-3.315-3.316a1.998 1.998 0 0 0-2.827 0L11.011 22.59a1.99 1.99 0 0 0-.586 1.414h.02c0 1.103.838 2 1.67 2 .954 0 2.33 1.342 2.33 3V36a2 2 0 0 0 2 2h2.999a1 1 0 0 0 1-1v-6.5a2.5 2.5 0 0 1 2.5-2.5h2.998a2.5 2.5 0 0 1 2.5 2.5v6.5a1 1 0 0 0 1 1h3a2 2 0 0 0 2-2v-6.999a1 1 0 1 1 1.998 0v6.999c0 2.208-1.79 3.999-3.999 3.999h-3a3 3 0 0 1-2.999-3v-5.998a1 1 0 0 0-1-1h-2a1 1 0 0 0-1 1V37a3 3 0 0 1-2.998 3h-3a3.999 3.999 0 0 1-3.999-4v-6.998c0-.551-.466-.964-1-1.125-.01-.003-.015-.008-.024-.013a3.993 3.993 0 0 1-2.975-3.861v.222a3.975 3.975 0 0 1 1.15-3.05L21.615 9.156A3.963 3.963 0 0 1 24.44 8c1.023 0 2.05.375 2.83 1.156l1.759 1.759c.46-.55 1.14-.91 1.913-.91h2.998a2.5 2.5 0 0 1 2.5 2.5v4.999c0 .538.215 1.024.562 1.384l2.287 2.287c.785.784 1.15 1.175 1.15 1.828zm-3 3a1 1 0 1 1 0 1.998 1 1 0 0 1 0-1.998z" fill="#696969"/>
</svg>
