<svg width="49" height="48" viewBox="0 0 49 48" fill="none" xmlns="http://www.w3.org/2000/svg">
    <path fill-rule="evenodd" clip-rule="evenodd" d="M36.99 40h-24a4 4 0 0 1-4-3.999v-3c0-1.602 1.222-3.063 3.26-4.236a.94.94 0 0 1 1.498.756c0 .349-.194.65-.476.812l.003.004c-1.44.79-2.285 1.711-2.285 2.664v3a2 2 0 0 0 2 1.999h24a2 2 0 0 0 2-1.999v-3c0-2.762-6.268-5-14-5a7.96 7.96 0 0 1-4.879-1.67 8.07 8.07 0 0 1-2.318-2.856 8.116 8.116 0 0 1-.35-.842 7.217 7.217 0 0 1-.182-.601c-.022-.084-.046-.168-.066-.254a7.905 7.905 0 0 1-.114-.635c-.012-.082-.029-.163-.037-.245a7.885 7.885 0 0 1-.053-.897v-6a6 6 0 0 1 6-6.001h3.999a6 6 0 0 1 6 6v6c0 1.381-.37 2.668-.988 3.798a.994.994 0 0 1-.95.703 1 1 0 0 1-1-1c0-.169.047-.326.12-.465l-.012-.006c.456-.78.745-1.668.81-2.62.013-.135.02-.272.02-.41v-6a4 4 0 0 0-4-4h-4a4 4 0 0 0-4 4v6c0 .138.007.275.021.41a5.993 5.993 0 0 0 5.716 5.578c.08.009.166.012.264.012 1.701 0 3.339.118 4.877.333.397.055.784.117 1.167.186.01 0 .02.003.03.004.366.066.726.14 1.079.217l.122.027c.7.157 1.373.336 2.01.534.03.011.062.018.092.029.31.098.613.202.906.31l.093.035c.277.103.546.21.807.322a15.337 15.337 0 0 1 .854.394l.093.048c.25.126.493.257.722.393.006.002.011.007.017.01a11.525 11.525 0 0 1 .728.471 9.28 9.28 0 0 1 .618.476c.173.146.336.295.486.446l.023.022c.145.15.274.303.397.457.026.037.056.07.082.106.114.153.219.309.31.466l.033.06c.085.152.155.306.217.462.01.023.021.046.029.07A3.355 3.355 0 0 1 40.99 33v3a3.999 3.999 0 0 1-4 3.999zm-19-11.999A1 1 0 1 1 15.989 28 1 1 0 0 1 17.99 28z" fill="#696969"/>
</svg>
