<svg width="32" height="32" viewBox="0 0 32 32" fill="none" xmlns="http://www.w3.org/2000/svg">
    <path fill-rule="evenodd" clip-rule="evenodd" d="M20 6.5a2.492 2.492 0 0 1 2.298-2.48.995.995 0 0 1 .201-.02h.5a1 1 0 0 1 0 2 1 1 0 0 0-1 1A1 1 0 1 1 20 7v-.5zm2.298 9.52a.99.99 0 0 1 .201-.02h.5a1 1 0 1 1 0 2 1 1 0 0 0-1 1A1 1 0 1 1 20 19v-.5a2.491 2.491 0 0 1 2.298-2.48zM20 12.5a2.49 2.49 0 0 1 2.298-2.48.997.997 0 0 1 .201-.02h.5a1 1 0 1 1 0 2c-.55 0-1 .448-1 1A1 1 0 1 1 20 13v-.5zm-6-6a2.493 2.493 0 0 1 2.298-2.48c.067-.006.133-.02.202-.02h.5a1 1 0 0 1 0 2 1 1 0 0 0-1 1 1 1 0 1 1-2 0v-.5zm2.298 9.52c.067-.005.133-.02.202-.02h.5a1 1 0 1 1 0 2 1 1 0 0 0-1 1 1 1 0 1 1-2 0v-.5a2.492 2.492 0 0 1 2.298-2.48zM14 12.5a2.492 2.492 0 0 1 2.298-2.48c.067-.005.133-.02.202-.02h.5a1 1 0 0 1 0 2 1 1 0 0 0-1 1 1 1 0 1 1-2 0v-.5zm-6-6a2.493 2.493 0 0 1 2.3-2.48c.066-.006.13-.02.2-.02h.5a1 1 0 0 1 0 2 1 1 0 0 0-1 1 1 1 0 0 1-2 0v-.5zm2.3 9.52c.066-.005.13-.02.2-.02h.5a1 1 0 1 1 0 2 1 1 0 0 0-1 1 1.001 1.001 0 0 1-2 0v-.5a2.493 2.493 0 0 1 2.3-2.48zM8 12.5a2.492 2.492 0 0 1 2.3-2.48c.066-.005.13-.02.2-.02h.5a1 1 0 1 1 0 2 1 1 0 0 0-1 1 1 1 0 0 1-2 0v-.5zm-3 10a1 1 0 1 1 0 2 1 1 0 0 1 0-2zM24 32h-3.5a2.5 2.5 0 0 1-2.5-2.5V25a1 1 0 0 0-1-1h-2a1 1 0 0 0-1 1v4.5a2.5 2.5 0 0 1-2.5 2.5H8a4 4 0 0 1-4-4v-1a1 1 0 0 1 2 0v1a2 2 0 0 0 2 2h3.25a.75.75 0 0 0 .75-.75V24.5c0-1.38 1.12-2.5 2.5-2.5h3c1.38 0 2.5 1.12 2.5 2.5v4.75c0 .414.336.75.75.75H24a2 2 0 0 0 2-2V4a2 2 0 0 0-2-2H8a2 2 0 0 0-2 2v13a1 1 0 0 1-2 0V4a4 4 0 0 1 4-4h16a4 4 0 0 1 4 4v24a4 4 0 0 1-4 4z" fill="#000"/>
</svg>
