<svg width="48" height="48" viewBox="0 0 48 48" fill="none" xmlns="http://www.w3.org/2000/svg">
    <path fill-rule="evenodd" clip-rule="evenodd" d="M39.165 27.025c1.198 0 2.168 1.372 2.168 3.067v3.066c0 3.388-1.94 6.134-4.333 6.134h-1.084c-.599 0-1.083-.686-1.083-1.534 0-.846.484-1.533 1.083-1.533H37c1.196 0 2.165-1.372 2.165-3.067V30.81c0-.373-.188-.68-.439-.75-2.187-.31-3.893-2.925-3.893-6.103 0-3.177 1.706-5.792 3.893-6.103.25-.069.44-.376.44-.75V14.76c0-1.694-.97-3.067-2.166-3.067h-3.522c-.448 0-.812.514-.812 1.15v.383c0 .846-.484 1.534-1.083 1.534-.598 0-1.084-.688-1.084-1.534v-.766c0-2.118 1.213-3.834 2.709-3.834H37c2.393 0 4.333 2.745 4.333 6.134v3.065c0 1.695-.97 3.067-2.168 3.067-1.196 0-2.165 1.374-2.165 3.067 0 1.694.969 3.067 2.165 3.067zm-7.582-6.134c-.598 0-1.084-.685-1.084-1.533 0-.846.486-1.534 1.084-1.534.599 0 1.083.688 1.083 1.534 0 .848-.484 1.533-1.083 1.533zm1.083 7.668c0 .845-.484 1.533-1.083 1.533-.598 0-1.084-.688-1.084-1.533v-3.067c0-.848.486-1.534 1.084-1.534.599 0 1.083.686 1.083 1.534v3.067zm-2.167 6.133c0-.846.486-1.534 1.084-1.534.599 0 1.083.688 1.083 1.534v.766c0 2.118-1.212 3.834-2.71 3.834H11c-2.393 0-4.333-2.746-4.333-6.134v-3.066c0-1.695.97-3.067 2.166-3.067 1.197 0 2.167-1.373 2.167-3.067 0-1.693-.97-3.067-2.167-3.067-1.197 0-2.166-1.372-2.166-3.067V14.76c0-3.389 1.94-6.134 4.333-6.134h16.25c.598 0 1.082.686 1.082 1.533 0 .848-.484 1.534-1.082 1.534h-16.25c-1.197 0-2.167 1.373-2.167 3.067v2.346c0 .374.19.681.44.75 2.187.313 3.893 2.926 3.893 6.103 0 3.178-1.706 5.79-3.892 6.104-.252.069-.441.376-.441.75v2.346c0 1.695.97 3.067 2.167 3.067h18.687c.45 0 .813-.514.813-1.15v-.383zm-4.875-1.534H20.75c-.598 0-1.084-.686-1.084-1.534 0-.846.486-1.532 1.084-1.532h4.334c.597 0 1.083-.688 1.083-1.533v-9.201c0-.846-.486-1.534-1.084-1.534h-6.5c-.598 0-1.082.688-1.082 1.534v9.201c0 .845-.486 1.533-1.084 1.533-.599 0-1.083-.688-1.083-1.533v-9.968c0-2.116 1.211-3.832 2.707-3.832h7.584c1.495 0 2.707 1.716 2.707 3.832v10.735c0 2.116-1.212 3.832-2.707 3.832z" fill="#696969"/>
</svg>
