<svg width="32" height="32" viewBox="0 0 32 32" fill="none" xmlns="http://www.w3.org/2000/svg">
    <path fill-rule="evenodd" clip-rule="evenodd" d="M23.995 10a1 1 0 0 1 0 2 4 4 0 1 1 4-4 1 1 0 0 1-2 0 2 2 0 1 0-2 2zm7.98 2.883a3.992 3.992 0 0 1-.106.593c-.03.115-.06.228-.1.34-.026.071-.05.145-.08.216-.09.219-.202.427-.329.624l-.007.012a4.021 4.021 0 0 1-.69.805L15.289 30.849c-.781.782-1.805 1.151-2.829 1.151-1.024 0-2.047-.37-2.828-1.15l-8.485-8.487C.366 21.583 0 20.561 0 19.538c0-1.024.364-2.049 1.146-2.83l11.628-11.63c.006-.006.008-.014.013-.02a1.002 1.002 0 0 1 1.415 0 1 1 0 0 1 .008 1.401l.007.006-10.95 10.949a3 3 0 0 0 0 4.243l7.07 7.071a3.001 3.001 0 0 0 4.243 0l14.517-14.517a2.967 2.967 0 0 0 .836-1.674c.038-.173.061-.352.061-.536V4.5a2.5 2.5 0 0 0-2.5-2.5h-7.499a1 1 0 1 1 0-2h8a4 4 0 0 1 4 4v8.243c.011.214.003.427-.02.64zM15.995 4a1 1 0 1 1 0-2 1 1 0 0 1 0 2z" fill="#231F20"/>
</svg>
