<svg width="40" height="40" viewBox="0 0 40 40" fill="none" xmlns="http://www.w3.org/2000/svg">
    <path d="M0 8a8 8 0 0 1 8-8h24a8 8 0 0 1 8 8v24a8 8 0 0 1-8 8H8a8 8 0 0 1-8-8V8z" fill="#00818F"/>
    <path fill-rule="evenodd" clip-rule="evenodd" d="M24.582 29.166a.833.833 0 1 1-1.666 0 .833.833 0 0 1 1.666 0zm-2.916 4.167h-4.167a.833.833 0 0 1 0-1.667h4.167c5.523 0 10-4.477 10-10s-4.477-10-10-10h-2.5a2.5 2.5 0 0 1-2.5-2.5.833.833 0 0 0-1.026-.809c-.41.044-.81.215-1.125.529l-5.63 5.623a1.87 1.87 0 0 0 0 2.647l5.63 5.624c.315.314.714.484 1.125.528a.833.833 0 0 0 1.026-.808 2.5 2.5 0 0 1 2.5-2.5h1.666a5.833 5.833 0 0 1 5.834 5.833.833.833 0 0 1-1.667 0 4.167 4.167 0 0 0-4.166-4.167h-1.667a.833.833 0 0 0-.834.833 2.5 2.5 0 0 1-2.5 2.5l-.014-.001a3.779 3.779 0 0 1-2.675-1.111l-5.366-5.37a3.799 3.799 0 0 1 0-5.37l5.366-5.37a3.78 3.78 0 0 1 2.675-1.11l.014-.001a2.5 2.5 0 0 1 2.5 2.5c0 .46.373.833.834.833h2.5c6.443 0 11.666 5.224 11.666 11.667S28.11 33.333 21.666 33.333z" fill="#fff"/>
</svg>
