<svg width="48" height="48" viewBox="0 0 48 48" fill="none" xmlns="http://www.w3.org/2000/svg">
    <path fill-rule="evenodd" clip-rule="evenodd" d="M38.85 26.828 26.828 38.843a3.975 3.975 0 0 1-3.047 1.15H24a4 4 0 0 1-4-3.998v-1a1 1 0 0 1 2 0v1a2 2 0 0 0 2 2l.008.02a1.993 1.993 0 0 0 1.406-.585l12.021-12.017a1.998 1.998 0 0 0 0-2.827L25.415 10.57a1.992 1.992 0 0 0-1.408-.585l-.007.02a2 2 0 0 0-2 2v1.999a4 4 0 0 1-4 3.998h-6a2 2 0 0 0-2 2v7.997a2 2 0 0 0 2 1.999h1a1 1 0 1 1 0 1.999h-1a4 4 0 0 1-4-3.999v-7.997a4 4 0 0 1 4-3.998h6a2 2 0 0 0 2-2v-1.998a4 4 0 0 1 4-3.999h-.217a3.976 3.976 0 0 1 3.046 1.15l12.02 12.016A3.964 3.964 0 0 1 40 24c0 1.023-.37 2.047-1.15 2.828zM19 29.998a1 1 0 1 1 0 2 1 1 0 0 1 0-2z" fill="#000"/>
</svg>
