<svg width="32" height="32" viewBox="0 0 32 32" fill="none" xmlns="http://www.w3.org/2000/svg">
    <path fill-rule="evenodd" clip-rule="evenodd" d="M13.875 18.399c-.59 0-1.067-.478-1.067-1.067v-6.4a3.2 3.2 0 0 1 6.4 0v8.534c0 .21-.024.415-.063.615a3.135 3.135 0 0 1-.14.478c-.009.023-.015.05-.023.074a3.157 3.157 0 0 1-.26.511 3.337 3.337 0 0 1-.344.455 3.182 3.182 0 0 1-2.37 1.067.487.487 0 0 0-.12.012 1.064 1.064 0 0 0 .12 2.121c.59 0 1.067-.477 1.067-1.066a1.067 1.067 0 0 1 2.133 0 3.2 3.2 0 0 1-6.4 0c0-.212.024-.416.063-.616.034-.165.082-.323.14-.478.009-.023.015-.05.024-.074.069-.174.154-.34.252-.498l.007-.013c.102-.162.217-.314.344-.455a3.182 3.182 0 0 1 2.37-1.067c.085 0 .167-.012.246-.03.027-.008.05-.014.075-.024.432-.137.746-.536.746-1.012v-8.534a1.067 1.067 0 1 0-2.134 0v6.4c0 .59-.477 1.067-1.066 1.067zm11.738 12.808c-3.202-.02-6.404-.007-9.605-.007-2.133 0-4.267-.003-6.4 0a1.067 1.067 0 0 1 0-2.134v-.014c2.067-.001 4.231.007 6.4.007 3.105 0 6.211-.017 9.022 0 5.621.033 5.913-1.453 3.074-6.455C25.267 17.6 22.8 12.276 20.018 7.24c-2.782-5.036-5.238-5.036-8.02 0-2.782 5.035-5.262 10.36-8.1 15.363-1.094 1.926-1.757 2.88-1.757 4.862a1.067 1.067 0 0 1-2.134 0v.153c0-.05-.007-.1-.007-.153.008-1.258.552-2.835 1.63-4.729 3.236-5.685 5.94-11.388 9.112-17.11 3.173-5.724 7.345-5.724 10.515 0 3.173 5.722 5.877 11.425 9.114 17.11 3.237 5.684 1.65 8.507-4.758 8.47zm-20.272-2.14a1.067 1.067 0 1 1 0 2.133 1.067 1.067 0 0 1 0-2.134z" fill="#000"/>
</svg>
