<svg width="96" height="96" viewBox="0 0 96 96" fill="none" xmlns="http://www.w3.org/2000/svg">
    <path fill-rule="evenodd" clip-rule="evenodd" d="M63.99 36a2 2 0 0 1 0 4.001 8 8 0 0 1-8-8.001c0-4.419 3.58-8 8-8a8 8 0 0 1 8 8 2 2 0 0 1-4 0 4 4 0 1 0-4 4zm15.961 5.766a7.995 7.995 0 0 1-.212 1.185c-.06.232-.123.457-.202.68-.05.143-.1.292-.159.434-.18.437-.404.853-.657 1.248l-.015.023a8.052 8.052 0 0 1-1.379 1.61L46.576 77.698C45.013 79.26 42.966 80 40.918 80c-2.047 0-4.095-.739-5.657-2.301l-16.97-16.973c-1.56-1.56-2.29-3.605-2.291-5.65-.001-2.049.728-4.098 2.292-5.66l23.256-23.26c.011-.011.015-.028.026-.039a2.004 2.004 0 0 1 2.83 0 2 2 0 0 1 .016 2.801l.013.012-21.9 21.898a6 6 0 0 0 0 8.486l14.142 14.143a6.002 6.002 0 0 0 8.486 0l29.034-29.035a5.934 5.934 0 0 0 1.67-3.348c.078-.345.123-.704.123-1.073V25c0-2.762-2.237-5-4.999-5H55.99a2 2 0 1 1 0-4h16a8 8 0 0 1 8 8v16.486c.023.427.006.854-.039 1.28zM47.988 24a2 2 0 1 1 .001-4.001A2 2 0 0 1 47.988 24z" fill="#fff"/>
</svg>
