<svg width="48" height="48" viewBox="0 0 48 48" fill="none" xmlns="http://www.w3.org/2000/svg">
    <path fill-rule="evenodd" clip-rule="evenodd" d="M33 34a1 1 0 1 1 0-2 1 1 0 0 1 0 2zm-1-10h1a1 1 0 0 1 0 2h-.333a.667.667 0 0 0-.667.667V27a1 1 0 0 1-2 0v-1a2 2 0 0 1 2-2zm-3 6a1 1 0 0 1 0 2h-.333a.667.667 0 0 0-.667.667V33a1 1 0 0 1-2 0v-1a2 2 0 0 1 2-2h1zm-3-6h1a1 1 0 0 1 0 2h-.333a.667.667 0 0 0-.667.667V27a1 1 0 0 1-2 0v-1a2 2 0 0 1 2-2zm-3 6a1 1 0 0 1 0 2h-.333a.667.667 0 0 0-.667.667V33a1 1 0 0 1-2 0v-1a2 2 0 0 1 2-2h1zm-3-6h1a1 1 0 0 1 0 2h-.333a.667.667 0 0 0-.667.667V27a1 1 0 0 1-2 0v-1a2 2 0 0 1 2-2zm-5 10a1 1 0 0 1-1-1v-1a2 2 0 0 1 2-2h1a1 1 0 0 1 0 2h-.333a.667.667 0 0 0-.667.667V33a1 1 0 0 1-1 1zm24-10a1 1 0 1 1 0-2 1 1 0 0 1 0 2zm-3 16H12a4 4 0 0 1-4-4V22a4 4 0 0 1 4-4h25a1 1 0 0 0 1-1v-1a2 2 0 0 0-2-2h-1.5a2.5 2.5 0 0 1-2.5-2.5V11a1 1 0 0 0-2 0v.5a2.5 2.5 0 0 1-2.5 2.5h-7a2.5 2.5 0 0 1-2.5-2.5V11a1 1 0 0 0-2 0v.5a2.5 2.5 0 0 1-2.5 2.5H12a2 2 0 0 0-2 2 1 1 0 0 1-2 0 4 4 0 0 1 4-4h1a1 1 0 0 0 1-1 3 3 0 0 1 6 0 1 1 0 0 0 1 1h6a1 1 0 0 0 1-1 3 3 0 0 1 6 0 1 1 0 0 0 1 1h1a4 4 0 0 1 4 4v1.5a2.5 2.5 0 0 1-2.5 2.5H12a2 2 0 0 0-2 2v14a2 2 0 0 0 2 2h24a2 2 0 0 0 2-2v-9a1 1 0 0 1 2 0v9a4 4 0 0 1-4 4z" fill="#fff"/>
</svg>
