<svg width="32" height="32" viewBox="0 0 32 32" fill="none" xmlns="http://www.w3.org/2000/svg">
    <path fill-rule="evenodd" clip-rule="evenodd" d="M22 22.667a.667.667 0 1 1 0-1.334.667.667 0 0 1 0 1.334zM21.333 16H22a.667.667 0 0 1 0 1.334h-.222c-.246 0-.445.199-.445.444V18A.667.667 0 0 1 20 18v-.666c0-.737.597-1.334 1.333-1.334zm-2 4a.667.667 0 1 1 0 1.334h-.222c-.245 0-.445.199-.445.444V22a.667.667 0 0 1-1.333 0v-.666c0-.737.597-1.334 1.333-1.334h.667zm-2-4H18a.667.667 0 0 1 0 1.334h-.222c-.246 0-.445.199-.445.444V18A.667.667 0 0 1 16 18v-.666c0-.737.597-1.334 1.333-1.334zm-2 4a.667.667 0 1 1 0 1.334h-.222c-.245 0-.445.199-.445.444V22a.667.667 0 0 1-1.333 0v-.666c0-.737.597-1.334 1.333-1.334h.667zm-2-4H14a.667.667 0 0 1 0 1.334h-.222c-.246 0-.445.199-.445.444V18A.667.667 0 0 1 12 18v-.666c0-.737.597-1.334 1.333-1.334zM10 22.667A.667.667 0 0 1 9.333 22v-.666c0-.737.597-1.334 1.333-1.334h.667a.667.667 0 1 1 0 1.334h-.222c-.245 0-.445.199-.445.444V22a.667.667 0 0 1-.666.667zM26 16a.667.667 0 1 1 0-1.333A.667.667 0 0 1 26 16zm-2 10.667H8A2.667 2.667 0 0 1 5.333 24v-9.333A2.667 2.667 0 0 1 8 12h16.667a.667.667 0 0 0 .666-.666v-.667c0-.736-.597-1.333-1.333-1.333h-1c-.92 0-1.667-.747-1.667-1.667v-.333a.667.667 0 0 0-1.333 0v.333c0 .92-.746 1.667-1.667 1.667h-4.667c-.92 0-1.666-.747-1.666-1.667v-.333a.667.667 0 0 0-1.334 0v.333c0 .92-.746 1.667-1.666 1.667H8c-.737 0-1.334.597-1.334 1.333a.667.667 0 0 1-1.333 0A2.667 2.667 0 0 1 8 8h.666a.667.667 0 0 0 .667-.667 2 2 0 0 1 4 0c0 .369.299.667.667.667h4a.667.667 0 0 0 .666-.667 2 2 0 0 1 4 0c0 .369.299.667.667.667H24a2.667 2.667 0 0 1 2.666 2.667v1c0 .92-.746 1.667-1.666 1.667H8c-.737 0-1.334.597-1.334 1.333V24c0 .736.597 1.334 1.334 1.334h16c.736 0 1.333-.598 1.333-1.334v-6a.667.667 0 0 1 1.333 0v6A2.667 2.667 0 0 1 24 26.667z" fill="#fff"/>
</svg>
