<svg width="96" height="96" viewBox="0 0 96 96" fill="none" xmlns="http://www.w3.org/2000/svg">
    <path fill-rule="evenodd" clip-rule="evenodd" d="M76.923 67.692h-2.462a2.461 2.461 0 0 1 0-4.923h2.462a4.923 4.923 0 0 0 4.923-4.923v-7.382c0-.197-.038-.395-.095-.584-.019-.073-.054-.142-.083-.217-.034-.084-.066-.17-.11-.252-.561-1.139-1.936-2.235-3.653-2.55-2.195-.817-5.132-1.322-8.368-1.322-3.145 0-6.001.508-8.176 1.304a5.6 5.6 0 0 0-2.793 1.27l-.012-.015c-.4.354-.923.577-1.5.577a2.272 2.272 0 0 1-2.269-2.27c0-.888.513-1.649 1.252-2.02 1.335-.972 2.955-1.81 4.838-2.434a12.272 12.272 0 0 1-3.596-7.714 9.99 9.99 0 0 1-.05-1.007v-7.384c0-5.437 4.407-9.846 9.847-9.846H72c5.436 0 9.846 4.409 9.846 9.846v7.384a2.46 2.46 0 1 1-4.923 0v-7.384A4.924 4.924 0 0 0 72 20.923h-4.923a4.923 4.923 0 0 0-4.925 4.923v7.384a7.386 7.386 0 0 0 7.384 7.386c9.096 0 16.526 4.026 17.169 9.134.038.23.063.468.063.714v7.382c0 5.44-4.41 9.846-9.846 9.846zm-25.878-21.16c-.027.085-.06.174-.1.257-.004.002-.004.01-.006.012h-.004c-.399.82-1.23 1.392-2.203 1.392a2.463 2.463 0 0 1-2.254-3.452l-.007-.004a9.783 9.783 0 0 0 .914-4.122c0-.547-.058-1.084-.143-1.61.092-.444.143-.906.143-1.379v-10.02c0-3.69-2.939-6.683-6.565-6.683h-6.562c-3.627 0-6.566 2.993-6.566 6.683v10.02c0 .473.052.935.143 1.379a10.036 10.036 0 0 0-.143 1.61c0 5.438 4.41 9.849 9.847 9.849 15.694 0 28.5 5.613 29.446 12.694.054.274.093.556.093.842v6.156c0 5.438-4.41 9.844-9.847 9.844H17.846C12.41 80 8 75.594 8 70.156V64c0-.286.028-.555.07-.822.32-2.481 2.104-4.767 4.929-6.697.4-.34.91-.556 1.474-.556a2.276 2.276 0 0 1 2.279 2.277c0 .805-.418 1.505-1.05 1.91l.017.025c-1.778 1.187-2.796 2.505-2.796 3.863v6.156a4.924 4.924 0 0 0 4.923 4.92H57.23a4.922 4.922 0 0 0 4.923-4.92V64c0-4.76-11.021-8.613-24.614-8.613-3.953 0-7.536-1.565-10.186-4.094a14.8 14.8 0 0 1-3.309-4.692c-.017-.03-.029-.06-.044-.091a14.94 14.94 0 0 1-.438-1.145c-.029-.088-.067-.171-.095-.26-.112-.345-.197-.703-.282-1.061-.033-.134-.074-.263-.102-.4a16.29 16.29 0 0 1-.196-1.246c-.01-.08-.03-.156-.035-.235a14.564 14.564 0 0 1-.083-1.547c0-.273.025-.535.042-.806-.02-.278-.042-.554-.042-.836V27.488C22.769 21.142 27.73 16 33.845 16h7.386c6.119 0 11.076 5.142 11.076 11.488v11.486c0 .282-.021.558-.04.837.015.27.04.532.04.805a14.62 14.62 0 0 1-1.262 5.916zm-27.043 7.622a2.46 2.46 0 1 1-4.923 0 2.46 2.46 0 1 1 4.923 0z" fill="#fff"/>
</svg>
