<svg width="96" height="96" viewBox="0 0 96 96" fill="none" xmlns="http://www.w3.org/2000/svg">
    <path fill-rule="evenodd" clip-rule="evenodd" d="M42.002 44h20.001a2 2 0 1 1 0 4H42.002a2 2 0 0 1 0-4zm0 15.999h20.001a2 2 0 1 1 0 4.001H42.002a2 2 0 0 1 0-4.001zm0-7.999h20.001a2 2 0 1 1 0 3.998H42.002a2 2 0 1 1 0-3.998zm-7.999-8a2 2 0 1 1 0 4 2 2 0 0 1 0-4zm0 15.999a2 2 0 1 1 0 4.001 2 2 0 0 1 0-4.001zm0-7.999a2 2 0 1 1 0 3.996 2 2 0 0 1 0-3.996zm34.002 28H28.002A8.002 8.002 0 0 1 20 72V32A8.002 8.002 0 0 1 28.002 24h3.343c.422 0 .783-.26.929-.627.002-.01.013-.025.029-.048.693-1.935 2.527-3.326 4.7-3.326h4.08A7.995 7.995 0 0 1 48.003 16c2.958 0 5.534 1.61 6.92 3.998h3.08a2 2 0 0 1 0 4.001H54.91a4 4 0 0 1-3.422-1.928c-.684-1.23-1.98-2.073-3.485-2.073-1.5 0-2.794.84-3.478 2.064-.002.002-.004.002-.004.004A3.994 3.994 0 0 1 41.096 24h-3.094c-.866 0-1.597.556-1.876 1.328-.002.004-.009.009-.01.013a4 4 0 0 1-3.77 2.66H28.002a4.002 4.002 0 0 0-4.001 4v40a4 4 0 0 0 4.001 3.999h40.003a4 4 0 0 0 4-3.999V32a4.003 4.003 0 0 0-4-4h-3.001c-.552 0-1 .448-1 1v2a5 5 0 0 1-5.001 5h-22c-1.381 0-2.63-.56-3.536-1.466l.009-.008a2.204 2.204 0 0 1 1.559-3.76c.614-.001 1.168.252 1.567.658a1.99 1.99 0 0 0 1.4.577h20.001a2 2 0 0 0 2-2.001v-2c0-2.209 1.792-4.001 4.001-4.001h4.001a8 8 0 0 1 7.999 8.002V72a8 8 0 0 1-8 8z" fill="#fff"/>
</svg>
