<svg width="89" height="88" viewBox="0 0 89 88" fill="none" xmlns="http://www.w3.org/2000/svg">
<path d="M79.5931 3.44812L57.0044 12.0878L79.5931 25.344V3.44812Z" fill="#B0D9D9"/>
<path d="M87.6227 72.9937H7.995V87.1175H87.6227V72.9937Z" fill="#F2A88D"/>
<path d="M87.6227 59.1401H30.0509V73.2649H87.6227V59.1401Z" fill="#F2A88D"/>
<path d="M87.6227 45.032H56.1733V59.1568H87.6227V45.032Z" fill="#F2A88D"/>
<path d="M69.0398 39.7373H64.2696C63.7857 39.7373 63.3924 39.3426 63.3924 38.8549C63.3924 38.3681 63.7848 37.9733 64.2696 37.9733H69.0398C69.5236 37.9733 69.917 38.3681 69.917 38.8549C69.917 39.3426 69.5236 39.7373 69.0398 39.7373ZM59.8835 39.7373H54.6203C54.1355 39.7373 53.743 39.3426 53.743 38.8549C53.743 38.3681 54.1355 37.9733 54.6203 37.9733H59.8835C60.3683 37.9733 60.7607 38.3681 60.7607 38.8549C60.7607 39.3426 60.3683 39.7373 59.8835 39.7373Z" fill="#00818F"/>
<path d="M49.5546 49.7183C49.0707 49.7183 48.6774 49.3235 48.6774 48.8359V37.9733H54.6202C55.1041 37.9733 55.4975 38.3681 55.4975 38.8549C55.4975 39.3426 55.105 39.7373 54.6202 39.7373H50.4318V48.8359C50.4327 49.3235 50.0394 49.7183 49.5546 49.7183Z" fill="#00818F"/>
<path d="M49.5546 53.8463H46.1436C45.6598 53.8463 45.2664 53.4516 45.2664 52.9639C45.2664 52.4762 45.6588 52.0814 46.1436 52.0814H49.5546C50.0393 52.0814 50.4318 52.4762 50.4318 52.9639C50.4318 53.4516 50.0393 53.8463 49.5546 53.8463ZM41.7575 53.8463H36.4943C36.0095 53.8463 35.6171 53.4516 35.6171 52.9639C35.6171 52.4762 36.0095 52.0814 36.4943 52.0814H41.7575C42.2423 52.0814 42.6348 52.4762 42.6348 52.9639C42.6348 53.4516 42.2423 53.8463 41.7575 53.8463Z" fill="#00818F"/>
<path d="M23.4321 63.2858C22.9483 63.2858 22.5549 62.891 22.5549 62.4033V52.0814H36.4943C36.9781 52.0814 37.3715 52.4762 37.3715 52.9639C37.3715 53.4516 36.9791 53.8463 36.4943 53.8463H24.3094V62.4033C24.3094 62.8919 23.9169 63.2858 23.4321 63.2858Z" fill="#00818F"/>
<path d="M22.2586 67.698H16.9953C16.5105 67.698 16.1181 67.3032 16.1181 66.8156C16.1181 66.3279 16.5105 65.9332 16.9953 65.9332H22.2586C22.7433 65.9332 23.1358 66.3279 23.1358 66.8156C23.1358 67.3032 22.7433 67.698 22.2586 67.698ZM12.6092 67.698H7.34596C6.86211 67.698 6.46875 67.3032 6.46875 66.8156C6.46875 66.3279 6.86119 65.9332 7.34596 65.9332H12.6092C13.0931 65.9332 13.4864 66.3279 13.4864 66.8156C13.4864 67.3032 13.094 67.698 12.6092 67.698Z" fill="#00818F"/>
<path d="M1.37721 88C0.893361 88 0.5 87.6052 0.5 87.1176V65.9332H4.19352C4.6783 65.9332 5.07073 66.3279 5.07073 66.8156C5.07073 67.3032 4.6783 67.698 4.19352 67.698H2.25442V87.1167C2.25442 87.6053 1.86199 88 1.37721 88Z" fill="#00818F"/>
<path d="M79.5932 45.7426C79.1084 45.7426 78.7159 45.3478 78.7159 44.8602V0.882463C78.7159 0.394793 79.1084 0 79.5932 0C80.077 0 80.4704 0.394793 80.4704 0.882463V44.8602C80.4694 45.3478 80.077 45.7426 79.5932 45.7426Z" fill="#00818F"/>
<path d="M17.7221 28.5431C17.2382 28.5431 16.8448 28.1483 16.8448 27.6607V5.87898C16.8448 5.39131 17.2382 4.99652 17.7221 4.99652C18.2068 4.99652 18.5993 5.39131 18.5993 5.87898V27.6607C18.5993 28.1483 18.2068 28.5431 17.7221 28.5431Z" fill="#00818F"/>
<path d="M22.5808 46.5126C21.0083 46.5126 19.7303 45.2261 19.7303 43.6451C19.7303 42.0632 21.0092 40.7767 22.5808 40.7767C24.1524 40.7767 25.4313 42.0632 25.4313 43.6451C25.4313 45.2261 24.1524 46.5126 22.5808 46.5126ZM22.5808 42.5416C21.976 42.5416 21.4838 43.0358 21.4838 43.6451C21.4838 44.2526 21.9751 44.7486 22.5808 44.7486C23.1856 44.7486 23.6778 44.2535 23.6778 43.6451C23.6778 43.0367 23.1856 42.5416 22.5808 42.5416Z" fill="#00818F"/>
<path d="M41.862 7.01778C40.2904 7.01778 39.0115 5.73037 39.0115 4.14939C39.0115 2.56841 40.2904 1.28094 41.862 1.28094C43.4345 1.28094 44.7124 2.56841 44.7124 4.14939C44.7124 5.73037 43.4345 7.01778 41.862 7.01778ZM41.862 3.04678C41.2571 3.04678 40.765 3.54094 40.765 4.1503C40.765 4.75965 41.2571 5.25382 41.862 5.25382C42.4668 5.25382 42.9589 4.75965 42.9589 4.1503C42.9589 3.54094 42.4668 3.04678 41.862 3.04678Z" fill="#00818F"/>
<path d="M30.9447 39.6648C30.4609 39.6648 30.0675 39.27 30.0675 38.7833V29.5882C30.0675 29.1005 30.4599 28.7057 30.9447 28.7057C31.4295 28.7057 31.8219 29.1005 31.8219 29.5882V38.7833C31.8219 39.27 31.4295 39.6648 30.9447 39.6648Z" fill="#00818F"/>
<path d="M49.1631 34.3784C48.6783 34.3784 48.2859 33.9836 48.2859 33.4959V28.2022C48.2859 27.7145 48.6783 27.3197 49.1631 27.3197C49.6469 27.3197 50.0403 27.7145 50.0403 28.2022V33.4959C50.0394 33.9836 49.6469 34.3784 49.1631 34.3784ZM49.1631 24.6714C48.6783 24.6714 48.2859 24.2767 48.2859 23.7899V18.4952C48.2859 18.0075 48.6783 17.6127 49.1631 17.6127C49.6469 17.6127 50.0403 18.0075 50.0403 18.4952V23.7899C50.0394 24.2767 49.6469 24.6714 49.1631 24.6714Z" fill="#00818F"/>
<path d="M51.7874 18.7405L49.1631 14.1684L46.538 18.7405H51.7874Z" fill="#00818F"/>
<path d="M12.2666 58.5C11.7818 58.5 11.3894 58.1052 11.3894 57.6176V52.3229C11.3894 51.8352 11.7818 51.4404 12.2666 51.4404C12.7505 51.4404 13.1438 51.8352 13.1438 52.3229V57.6176C13.1438 58.1052 12.7514 58.5 12.2666 58.5ZM12.2666 48.7931C11.7818 48.7931 11.3894 48.3983 11.3894 47.9106V42.6159C11.3894 42.1291 11.7818 41.7335 12.2666 41.7335C12.7505 41.7335 13.1438 42.1291 13.1438 42.6159V47.9106C13.1438 48.3983 12.7514 48.7931 12.2666 48.7931Z" fill="#00818F"/>
<path d="M14.8909 42.8602L12.2666 38.2891L9.64148 42.8602H14.8909Z" fill="#00818F"/>
<path d="M37.3106 24.6C36.8267 24.6 36.4333 24.2043 36.4333 23.7175V16.5399C36.4333 16.0523 36.8258 15.6575 37.3106 15.6575C37.7953 15.6575 38.1878 16.0523 38.1878 16.5399V23.7175C38.1878 24.2043 37.7953 24.6 37.3106 24.6Z" fill="#00818F"/>
<path d="M88.4999 88H5.94789C5.46404 88 5.07068 87.6052 5.07068 87.1176C5.07068 86.6308 5.46312 86.2351 5.94789 86.2351H86.7455V38.7833C86.7455 38.2957 87.1379 37.9009 87.6227 37.9009C88.1075 37.9009 88.4999 38.2957 88.4999 38.7833V88V88Z" fill="#00818F"/>
</svg>
