<svg width="40" height="40" viewBox="0 0 40 40" fill="none" xmlns="http://www.w3.org/2000/svg">
    <path d="M0 8a8 8 0 0 1 8-8h24a8 8 0 0 1 8 8v24a8 8 0 0 1-8 8H8a8 8 0 0 1-8-8V8z" fill="#00818F"/>
    <path fill-rule="evenodd" clip-rule="evenodd" d="M20.417 13.75a.833.833 0 1 1 1.666 0 .833.833 0 0 1-1.666 0zm11.956.065-.352.351c-.003.004-.006.004-.01.007-.639.64-1.668.647-2.321.028l-2.148-2.148a.833.833 0 0 1 1.178-1.178l1.815 1.813c.002.002.003 0 .005.002a.416.416 0 0 0 .588 0c.005-.005.01 0 .015-.003l.05-.05a1.666 1.666 0 0 0 0-2.358l-1.472-1.473a1.666 1.666 0 0 0-2.357 0l-2.86 2.86H10.417c-1.15 0-2.083.933-2.083 2.084v15.833c0 1.15.932 2.083 2.083 2.083H26.25a2.083 2.083 0 0 0 2.083-2.083V18.866a.416.416 0 0 0-.71-.294c-.002.002-.001-.005-.003-.005l-4.63 4.63a3.307 3.307 0 0 1-1.774.921c-.123.03-.25.048-.382.048h-.117a3.846 3.846 0 0 1-.167 0H17.5c-.92 0-1.666-.746-1.666-1.666V19.166c0-.132.019-.26.048-.382.115-.65.419-1.273.921-1.774l1.77-1.77.005.004a.833.833 0 0 1 1.423.59.83.83 0 0 1-.294.63l-1.725 1.724c-.364.363-.516.85-.475 1.324 0 .024-.007.047-.007.071v1.25c0 .92.747 1.667 1.667 1.667h1.25c.024 0 .046-.006.07-.007.475.041.962-.112 1.324-.475l5.352-5.352c.3-.295.714-.417 1.17-.417.921 0 1.667.746 1.667 1.667V30a3.334 3.334 0 0 1-3.333 3.334H10.001A3.334 3.334 0 0 1 6.667 30V13.333A3.333 3.333 0 0 1 10.001 10h13.812l2.372-2.372a3.306 3.306 0 0 1 2.357-.962c.853 0 1.706.31 2.357.962L32.373 9.1c.651.652.962 1.517.96 2.371 0 .852-.31 1.693-.96 2.343z" fill="#fff"/>
</svg>
