<svg width="96" height="96" viewBox="0 0 96 96" fill="none" xmlns="http://www.w3.org/2000/svg">
    <path fill-rule="evenodd" clip-rule="evenodd" d="M38.218 41.21a2.394 2.394 0 0 1 0-3.393 2.399 2.399 0 1 1 3.393 3.393c-.936.94-2.456.94-3.393 0zm20.364-3.393c5.622 5.623 5.622 14.74 0 20.364-5.623 5.625-14.741 5.625-20.364 0-2.836-2.833-4.254-6.468-4.217-10.182h.013c0-.614.235-1.227.704-1.696a2.396 2.396 0 0 1 3.394 0c.48.481.704 1.118.691 1.752-.007 2.47.927 4.85 2.808 6.733 3.75 3.75 9.828 3.75 13.577 0 3.748-3.75 3.748-9.828 0-13.578-1.883-1.881-4.268-2.813-6.735-2.805a2.368 2.368 0 0 1-1.75-.695 2.398 2.398 0 0 1 1.696-4.096v-.015c3.714-.02 7.35 1.385 10.183 4.218zM84.4 50.399c-.962 0-1.782-.57-2.167-1.384C75.577 37.598 62.558 28.798 48.4 28.798c-14.205 0-26.578 7.736-33.22 19.2 6.642 11.468 19.015 19.2 33.22 19.2 6.491 0 12.6-1.617 17.953-4.466l.01.02c.362-.218.782-.354 1.238-.354 1.323 0 2.4 1.078 2.4 2.401 0 1.053-.684 1.94-1.626 2.263A42.818 42.818 0 0 1 48.399 72C31.447 72 17.073 62.21 10 47.999 17.073 33.787 31.447 24 48.4 24c16.301 0 30.458 8.864 37.81 22.197.162.295.305.583.414.908.113.278.176.578.176.894 0 1.325-1.077 2.4-2.4 2.4zM74.798 57.6a2.4 2.4 0 1 1 .003 4.8 2.4 2.4 0 0 1-.003-4.8z" fill="#fff"/>
</svg>
