<svg width="48" height="48" viewBox="0 0 48 48" fill="none" xmlns="http://www.w3.org/2000/svg">
    <path fill-rule="evenodd" clip-rule="evenodd" d="M38.94 40a5.328 5.328 0 0 1-3.003-.919L20.735 27.654c-.042-.036-.087-.07-.128-.107-2.144-1.959-2.144-5.135 0-7.096.042-.038.087-.07.13-.107l4.896-3.68c.465-.479.866-1.03.866-1.718v-2.313c0-1.296-1.149-2.347-2.567-2.347a2.72 2.72 0 0 0-1.441.411c-4.372 3.252-11.248 8.374-15.072 11.222-1.232 1.16-1.225 3.012.03 4.159a3.2 3.2 0 0 0 .257.211c.02.016.031.028.05.042l14.738 10.971c.196.123.41.22.639.29l-.002.004c.502.149.868.574.868 1.082 0 .631-.56 1.142-1.25 1.142-.133 0-.258-.024-.378-.058l-.002.002c-.01-.002-.02-.009-.03-.011a1.494 1.494 0 0 1-.151-.06 5.338 5.338 0 0 1-1.25-.61L5.735 27.653c-.042-.036-.088-.068-.128-.106-1.062-.97-1.598-2.24-1.607-3.513-.01-1.296.526-2.594 1.607-3.583.044-.04.091-.073.136-.111L20.928 8.925A5.334 5.334 0 0 1 23.942 8c2.792 0 5.057 2.07 5.057 4.624V14.857c0 1.372-.665 2.6-1.713 3.438l-4.867 3.623c-1.232 1.16-1.225 3.013.03 4.16.082.075.168.146.258.211.02.016.03.028.049.042l14.736 10.971a2.71 2.71 0 0 0 1.438.412c1.419 0 2.57-1.052 2.57-2.35v-22.73c0-1.298-1.151-2.348-2.57-2.348-.537 0-1.032.158-1.446.417l-3.836 2.856a1.303 1.303 0 0 1-.898.35c-.69 0-1.25-.51-1.25-1.141 0-.421.252-.785.624-.984l3.803-2.859A5.33 5.33 0 0 1 38.94 8C41.735 8 44 10.07 44 12.624v22.75C44 37.93 41.735 40 38.94 40zm-11.816-4c.691 0 1.25.51 1.25 1.142 0 .632-.559 1.144-1.25 1.144-.69 0-1.25-.512-1.25-1.144 0-.631.56-1.143 1.25-1.143z" fill="#000"/>
</svg>
