<svg width="33" height="32" viewBox="0 0 33 32" fill="none" xmlns="http://www.w3.org/2000/svg">
<path fill-rule="evenodd" clip-rule="evenodd" d="M26.2635 15.3828L22.6993 18.1101C22.4083 18.3549 22.2185 18.7172 22.2185 19.1276C22.2185 19.2435 22.2358 19.3558 22.2641 19.4639C22.2641 19.4639 23.6414 24.2587 23.6687 24.3482C23.7218 24.5165 23.7501 24.6958 23.7501 24.882C23.7501 25.8686 22.95 26.6668 21.9637 26.6668C21.5799 26.6668 21.225 26.5475 20.9324 26.3409L20.3142 25.9054V25.9047C20.116 25.7725 19.9845 25.5473 19.9845 25.2908C19.9845 24.884 20.3142 24.5543 20.7211 24.5543C20.8963 24.5543 21.0541 24.6167 21.1814 24.7189L21.184 24.7157L21.3728 24.8504C21.45 24.8983 21.5385 24.9285 21.6355 24.9285C21.9119 24.9285 22.1352 24.7053 22.1352 24.4289C22.1352 24.384 22.13 24.3413 22.1189 24.3C22.1153 24.287 22.1147 24.2785 22.1147 24.2743L20.796 19.7054C20.7331 19.4795 20.698 19.2392 20.698 18.9919C20.698 18.1283 21.1091 17.3599 21.7462 16.8723C21.7514 16.8677 21.753 16.8654 21.7575 16.8619L25.1625 14.2374C25.2852 14.1463 25.3643 14.0005 25.3643 13.8364C25.3643 13.5601 25.141 13.3361 24.8647 13.3361C24.8302 13.3361 24.8184 13.3342 24.8243 13.3316H20.6231C19.478 13.3075 18.5102 12.5677 18.1557 11.5381L18.0785 11.3178C18.0639 11.2764 18.0482 11.2319 18.0356 11.1941L16.7449 7.50918C16.7237 7.45351 16.696 7.39947 16.6514 7.35489C16.4789 7.18205 16.198 7.18205 16.0255 7.35489C15.9741 7.4063 15.9379 7.46718 15.9174 7.53164C15.9148 7.5401 15.9138 7.53522 15.9122 7.53747L14.6345 11.1836C14.613 11.2439 14.5899 11.3116 14.5668 11.3796L14.5111 11.5365C14.1579 12.5667 13.1895 13.3075 12.0433 13.3316H7.84254C7.84842 13.3342 7.83638 13.3361 7.80217 13.3361C7.52646 13.3361 7.30217 13.5601 7.30217 13.8364C7.30217 14.0005 7.38125 14.1463 7.504 14.2374L10.9093 16.8619C10.9135 16.8654 10.9152 16.8677 10.9204 16.8723C11.5574 17.3599 11.9689 18.1284 11.9689 18.9919C11.9689 19.2393 11.9337 19.4795 11.8709 19.7054L10.5522 24.2743C10.5522 24.2785 10.5512 24.287 10.5476 24.3C10.5375 24.3413 10.5313 24.384 10.5313 24.4289C10.5313 24.7053 10.7556 24.9285 11.031 24.9285C11.1273 24.9285 11.2165 24.8983 11.293 24.8511L14.7755 22.3676C14.7771 22.3666 14.7787 22.366 14.7807 22.365C15.2107 22.0568 15.7387 21.8738 16.308 21.8686C16.3148 21.8686 16.3217 21.867 16.3285 21.867C16.3295 21.867 16.3301 21.867 16.3311 21.867C16.3321 21.867 16.3327 21.867 16.3337 21.867V21.868C16.7142 21.8712 17.0205 22.1788 17.0205 22.559C17.0205 22.9401 16.7142 23.2474 16.3337 23.251V23.2519C16.1947 23.2519 16.0674 23.2955 15.9603 23.3678L11.7318 26.3425C11.4414 26.5485 11.086 26.6668 10.7031 26.6668C9.71646 26.6668 8.91634 25.8686 8.91634 24.882C8.91634 24.6958 8.94467 24.5165 8.99805 24.3482C9.02538 24.2587 10.4027 19.4638 10.4027 19.4638C10.431 19.3557 10.4479 19.2435 10.4479 19.1276C10.4479 18.7171 10.2585 18.3532 9.96646 18.1091L6.39983 15.3792C5.95354 15.0332 5.66675 14.4958 5.66675 13.8881C5.66675 12.8466 6.51083 12.0026 7.55217 12.0026C7.55475 12.0026 7.55642 12.0026 7.559 12.0026L11.9285 11.9983C12.4796 11.9762 12.9431 11.6224 13.1244 11.1322C13.1244 11.1322 14.7566 6.64297 14.8451 6.38876C14.9213 6.17264 15.046 5.96889 15.2195 5.79572C15.835 5.17926 16.8344 5.17926 17.4506 5.79572C17.6209 5.96464 17.7436 6.16384 17.8201 6.37609C17.9024 6.60622 19.5424 11.1331 19.5424 11.1331C19.7254 11.624 20.1889 11.9761 20.7384 11.9983L25.1075 12.0026C25.1101 12.0026 25.112 12.0026 25.1147 12.0026C26.156 12.0026 27.0001 12.8466 27.0001 13.8881C27.0001 14.4975 26.7107 15.0374 26.2635 15.3828ZM18.6664 23.3349C19.0349 23.3349 19.3338 23.6338 19.3338 24.0022C19.3338 24.3703 19.0349 24.6685 18.6664 24.6685C18.2983 24.6685 18.0004 24.3703 18.0004 24.0022C18.0004 23.6338 18.2983 23.3349 18.6664 23.3349Z" fill="#231F20"/>
</svg>
