<svg width="32" height="32" viewBox="0 0 32 32" fill="none" xmlns="http://www.w3.org/2000/svg">
    <path fill-rule="evenodd" clip-rule="evenodd" d="M26.11 18.017c.799 0 1.445.915 1.445 2.045v2.043c0 2.26-1.293 4.09-2.888 4.09h-.723c-.399 0-.722-.458-.722-1.023 0-.564.323-1.022.722-1.022h.723c.797 0 1.443-.914 1.443-2.045v-1.564c0-.25-.125-.454-.292-.5-1.458-.207-2.596-1.95-2.596-4.069 0-2.118 1.138-3.861 2.596-4.069.167-.045.292-.25.292-.5V9.84c0-1.129-.646-2.044-1.443-2.044h-2.348c-.299 0-.541.342-.541.766v.256c0 .564-.323 1.022-.723 1.022-.398 0-.722-.458-.722-1.022v-.511c0-1.412.809-2.556 1.806-2.556h2.528c1.595 0 2.888 1.83 2.888 4.09v2.043c0 1.13-.646 2.045-1.445 2.045-.797 0-1.443.915-1.443 2.044 0 1.13.646 2.045 1.443 2.045zm-5.055-4.09c-.398 0-.722-.457-.722-1.022 0-.564.324-1.022.722-1.022.4 0 .723.458.723 1.022 0 .565-.323 1.023-.723 1.023zm.723 5.112c0 .564-.323 1.023-.723 1.023-.398 0-.722-.46-.722-1.023v-2.045c0-.565.324-1.022.722-1.022.4 0 .723.457.723 1.022v2.045zm-1.445 4.089c0-.564.324-1.023.722-1.023.4 0 .723.459.723 1.023v.51c0 1.412-.809 2.556-1.807 2.556H7.333c-1.596 0-2.889-1.83-2.889-4.089v-2.043c0-1.13.646-2.045 1.444-2.045.799 0 1.445-.916 1.445-2.045s-.646-2.044-1.445-2.044c-.798 0-1.444-.915-1.444-2.045V9.839c0-2.259 1.293-4.089 2.889-4.089h10.833c.399 0 .722.457.722 1.022s-.323 1.023-.722 1.023H7.333c-.798 0-1.445.915-1.445 2.044v1.565c0 .248.126.454.294.5 1.458.208 2.595 1.95 2.595 4.068 0 2.118-1.137 3.86-2.595 4.07-.168.045-.294.25-.294.499v1.564c0 1.13.647 2.045 1.445 2.045H19.79c.3 0 .542-.343.542-.767v-.255zm-3.25-1.023h-3.25c-.399 0-.723-.457-.723-1.022 0-.564.324-1.021.723-1.021h2.889c.398 0 .722-.46.722-1.023v-6.134c0-.564-.323-1.022-.722-1.022h-4.334c-.398 0-.721.458-.721 1.022v6.134c0 .564-.324 1.023-.723 1.023-.399 0-.722-.46-.722-1.023v-6.645c0-1.41.808-2.555 1.805-2.555h5.056c.997 0 1.805 1.144 1.805 2.555v7.156c0 1.412-.808 2.555-1.805 2.555z" fill="#000"/>
</svg>
