<svg width="25" height="24" viewBox="0 0 25 24" fill="none" xmlns="http://www.w3.org/2000/svg">
    <path fill-rule="evenodd" clip-rule="evenodd" d="M5.652 16.848a.615.615 0 0 1 0-.87l1.74-1.74a.615.615 0 1 1 .87.87l-1.74 1.74c-.24.24-.63.24-.87 0zm12.518 0-1.74-1.74a.615.615 0 0 1 .87-.87l1.74 1.74a.616.616 0 0 1-.87.87zm3.314-9.261-7.398 6.782a2.462 2.462 0 0 1-3.48 0l-4.34-4.34-.278-.278-1.185-1.185-.005.001c-.112-.14-.272-.26-.452-.26a.615.615 0 0 0-.615.616V17.538c0 .68.55 1.23 1.23 1.23h14.77c.68 0 1.23-.55 1.23-1.23v-7.384a.615.615 0 1 1 1.23 0v7.384A2.462 2.462 0 0 1 19.732 20H4.96A2.462 2.462 0 0 1 2.5 17.538V8.923c0-1.02.827-1.846 1.846-1.846.475 0 .904.218 1.231.533V7.6l5.899 5.898a1.23 1.23 0 0 0 1.74 0l7.397-6.782c.24-.24.356-.555.355-.87h-.007c0-.68-.55-.615-1.23-.615H6.807a.616.616 0 0 1 0-1.231H19.73c1.129 0 2.079.338 2.368 1.231.21.816.025 1.717-.614 2.356zM4.346 5.231a.615.615 0 1 1 0-1.23.615.615 0 0 1 0 1.23z" fill="#000"/>
</svg>
