<svg width="675" height="656" viewBox="0 0 675 656" fill="none" xmlns="http://www.w3.org/2000/svg">
    <path d="M635.046 181.058a319.557 319.557 0 0 0-20.995-32.945 319.23 319.23 0 0 0-17.022-21.45h-.015a321.809 321.809 0 0 0-43.036-41.27 319.601 319.601 0 0 0-78.772-46.026l.252 41.387 2.71 471.794H243.262L230.051 81.644l.984-40.726C115.868 89.354 35.004 203.235 35.004 336.009a320.25 320.25 0 0 0 10.403 81.215 314.733 314.733 0 0 0 10.613 33.065 296.794 296.794 0 0 0 4.734 11.675c.8 1.877 1.616 3.739 2.461 5.594a254.036 254.036 0 0 0 3.373 7.225c.898 1.877 1.82 3.742 2.768 5.594a247.107 247.107 0 0 0 3.777 7.232 269.241 269.241 0 0 0 3.081 5.595 321.316 321.316 0 0 0 86.519 98.611 320.066 320.066 0 0 0 384.537 0 307.215 307.215 0 0 0 12.527-9.925 304.558 304.558 0 0 0 8.01-6.903 321.333 321.333 0 0 0 61.958-74.873 313.892 313.892 0 0 0 16.215-30.783 303.853 303.853 0 0 0 3.717-8.422 315.626 315.626 0 0 0 15.565-46.258v-.007c.089-.367.187-.741.276-1.107a329.349 329.349 0 0 0 1.593-6.716v-.008a309.808 309.808 0 0 0 4.166-21.958c.142-.95.285-1.9.419-2.85.052-.344.105-.688.142-1.032v-.007a323.09 323.09 0 0 0 1.967-17.292A327.293 327.293 0 0 0 675 336.009a318.533 318.533 0 0 0-39.954-154.951z" fill="#F2F2F2"/>
    <path d="M603.62 529.17c18.94-25.592 26.225-61.639 11.491-89.862a146.687 146.687 0 0 1-69.452 72.935c-11.989 5.878-25.936 11.167-31.486 23.312-3.453 7.557-2.795 16.48-.02 24.31 2.777 7.831 7.498 14.799 12.17 21.67l.246 2.059c29.41-12.194 58.11-28.833 77.051-54.424z" fill="#E6E6E6"/>
    <path d="M614.482 439.534a125.373 125.373 0 0 1-26.083 72.598 53.973 53.973 0 0 1-12.102 11.821 30.965 30.965 0 0 1-15.482 5.091c-5.145.369-10.449.15-15.414 1.763a18.952 18.952 0 0 0-11.345 10.572c-2.749 6.068-3.154 12.761-3.322 19.32-.187 7.283-.266 14.851-3.701 21.471-.416.802.853 1.401 1.268.6 5.977-11.518 2.096-24.988 5.658-37.097 1.662-5.65 5.037-10.833 10.678-13.097 4.932-1.98 10.403-1.76 15.615-2.088a33.044 33.044 0 0 0 15.324-4.414 49.933 49.933 0 0 0 12.512-11.312 121.62 121.62 0 0 0 19.055-32.898 127.59 127.59 0 0 0 8.737-42.452c.029-.9-1.369-.772-1.398.122z" fill="#fff"/>
    <path d="M593.982 505.722a18.81 18.81 0 0 0 23.958-4.398c.569-.702-.494-1.618-1.063-.916a17.424 17.424 0 0 1-22.295 4.045c-.78-.454-1.376.817-.6 1.269zM563.447 529.201a36.256 36.256 0 0 1 2.673-26.287c.413-.804-.856-1.403-1.269-.6a37.713 37.713 0 0 0-2.725 27.36c.245.87 1.565.393 1.321-.473zM610.596 468.38a10.652 10.652 0 0 1-6.955-7.329c-.234-.873-1.554-.395-1.321.473a11.94 11.94 0 0 0 7.676 8.125.727.727 0 0 0 .934-.334.704.704 0 0 0-.334-.935z" fill="#fff"/>
    <path d="M509.678 416.847c.131.55.261 1.099.384 1.658a140.198 140.198 0 0 1 3.334 22.501c.048.585.087 1.179.118 1.765a147.814 147.814 0 0 1-7.052 53.968 143.646 143.646 0 0 1-8.334 20.158c-4.538 8.974-10.171 18.343-11.442 28.007a24.731 24.731 0 0 0-.244 3.039l37.595 35.792c.126.038.245.086.371.124l1.436 1.498c.193-.323.386-.663.579-.986.112-.187.217-.382.329-.569.073-.127.145-.255.217-.366.025-.042.049-.085.065-.118.072-.111.128-.222.193-.324 1.084-1.894 2.157-3.8 3.218-5.716.009-.009.009-.009.008-.025 8.052-14.623 14.953-30.046 19.293-46.026.131-.481.27-.97.383-1.467a136.983 136.983 0 0 0 3.958-22.002c.38-4.07.554-8.156.52-12.243a100.706 100.706 0 0 0-5.235-31.049c-6.706-19.957-19.719-37.546-38.27-46.917a75.322 75.322 0 0 0-1.424-.702z" fill="#E6E6E6"/>
    <path d="M509.309 417.405a125.386 125.386 0 0 1 22.884 73.668 54.015 54.015 0 0 1-2.546 16.725 30.964 30.964 0 0 1-9.297 13.386c-3.885 3.392-8.252 6.411-11.246 10.688a18.969 18.969 0 0 0-2.692 15.271c1.458 6.5 5.165 12.088 8.98 17.426 4.235 5.928 8.729 12.018 9.972 19.372.15.891 1.524.605 1.374-.284-2.163-12.796-13.372-21.214-17.818-33.027-2.075-5.512-2.501-11.682.639-16.886 2.747-4.551 7.248-7.668 11.211-11.068a33.04 33.04 0 0 0 9.578-12.75 49.93 49.93 0 0 0 3.18-16.565 121.677 121.677 0 0 0-4.593-37.74 127.584 127.584 0 0 0-18.583-39.155c-.52-.736-1.559.207-1.043.939z" fill="#fff"/>
    <path d="M532.79 482.594a18.81 18.81 0 0 0 16.481-17.936c.032-.902-1.368-.994-1.4-.091a17.423 17.423 0 0 1-15.366 16.653c-.896.107-.607 1.481.285 1.374zM522.547 519.724a36.257 36.257 0 0 1-13.693-22.597c-.154-.891-1.528-.605-1.374.284a37.707 37.707 0 0 0 14.297 23.486c.72.548 1.486-.628.77-1.173zM523.573 442.777a10.66 10.66 0 0 1-5.193.425 10.66 10.66 0 0 1-4.773-2.09c-.712-.556-1.478.62-.77 1.173a11.93 11.93 0 0 0 11.021 1.866.728.728 0 0 0 .544-.83.705.705 0 0 0-.829-.544z" fill="#fff"/>
    <path d="M14.939 385.839c-16.798-27.046-21.129-63.566-4.15-90.499a146.686 146.686 0 0 0 63.294 78.338c11.472 6.833 24.943 13.239 29.488 25.794 2.827 7.813 1.447 16.653-1.956 24.232-3.404 7.579-8.676 14.14-13.89 20.609l-.413 2.032c-28.323-14.543-55.575-33.46-72.373-60.506z" fill="#E6E6E6"/>
    <path d="M11.396 295.617a125.38 125.38 0 0 0 20.097 74.478 54.005 54.005 0 0 0 11.102 12.765 30.976 30.976 0 0 0 15.017 6.333c5.097.785 10.402.998 15.22 3.009a18.962 18.962 0 0 1 10.448 11.459c2.247 6.271 2.106 12.975 1.74 19.526-.405 7.274-.941 14.823 1.945 21.701.35.833-.964 1.327-1.314.495-5.02-11.966-.058-25.076-2.624-37.434-1.197-5.766-4.14-11.207-9.578-13.922-4.755-2.374-10.225-2.599-15.393-3.349a33.048 33.048 0 0 1-14.915-5.646 49.907 49.907 0 0 1-11.551-12.291 121.641 121.641 0 0 1-16.32-34.337 127.602 127.602 0 0 1-5.257-43.022c.044-.899 1.428-.658 1.383.235z" fill="#fff"/>
    <path d="M26.45 363.252a18.814 18.814 0 0 1-23.521-6.331c-.51-.745.624-1.572 1.134-.826a17.42 17.42 0 0 0 21.892 5.844c.815-.39 1.305.925.495 1.313zM54.975 389.135a36.258 36.258 0 0 0-.527-26.418c-.347-.834.967-1.328 1.313-.495a37.712 37.712 0 0 1 .493 27.491c-.316.848-1.593.265-1.279-.578zM12.926 324.684a10.65 10.65 0 0 0 7.527-6.74c.305-.851 1.581-.267 1.279.579a11.937 11.937 0 0 1-8.311 7.474.727.727 0 0 1-.904-.409.705.705 0 0 1 .409-.904z" fill="#fff"/>
    <path d="M117.698 281.522c-.175.537-.35 1.075-.518 1.621a140.25 140.25 0 0 0-5.151 22.156c-.095.58-.183 1.168-.262 1.749a147.833 147.833 0 0 0 2.643 54.363 143.45 143.45 0 0 0 6.669 20.768c3.793 9.313 8.647 19.109 9.128 28.845.061 1.015.06 2.033-.004 3.048l-40.38 32.619c-.128.028-.25.066-.38.094l-1.552 1.376c-.166-.338-.331-.692-.497-1.03-.097-.195-.185-.398-.282-.594-.062-.133-.124-.266-.187-.382a2.133 2.133 0 0 1-.054-.123c-.064-.117-.11-.231-.166-.338a473.594 473.594 0 0 1-2.744-5.959c-.007-.01-.007-.01-.006-.026-6.836-15.229-12.46-31.161-15.488-47.442-.091-.489-.19-.988-.263-1.493a136.995 136.995 0 0 1-2.157-22.251c-.047-4.087.112-8.174.477-12.244a100.71 100.71 0 0 1 7.741-30.522c8.305-19.345 22.706-35.819 41.956-43.651.493-.2.977-.393 1.477-.584z" fill="#E6E6E6"/>
    <path d="M118.021 282.108a125.378 125.378 0 0 0-28.796 71.565 53.987 53.987 0 0 0 1.179 16.876 30.968 30.968 0 0 0 8.177 14.098c3.597 3.696 7.705 7.06 10.341 11.566a18.97 18.97 0 0 1 1.442 15.44c-1.981 6.359-6.13 11.628-10.366 16.639-4.703 5.563-9.677 11.268-11.514 18.497-.222.876-1.568.479-1.346-.396 3.196-12.577 15.051-20.056 20.443-31.468 2.516-5.325 3.442-11.441.735-16.883-2.368-4.759-6.6-8.231-10.274-11.942a33.047 33.047 0 0 1-8.51-13.487 49.914 49.914 0 0 1-1.823-16.768 121.641 121.641 0 0 1 7.644-37.242 127.612 127.612 0 0 1 21.705-37.516c.577-.691 1.536.334.963 1.021z" fill="#fff"/>
    <path d="M89.32 345.174a18.815 18.815 0 0 1-14.97-19.216.701.701 0 0 1 1.403.023 17.416 17.416 0 0 0 13.962 17.846c.885.18.484 1.525-.396 1.347zM96.51 383.013a36.25 36.25 0 0 0 15.485-21.41c.226-.875 1.572-.479 1.347.395a37.715 37.715 0 0 1-16.159 22.247c-.762.487-1.43-.747-.672-1.232zM101.742 306.237a10.65 10.65 0 0 0 10.068-.849c.755-.497 1.423.738.672 1.231a11.927 11.927 0 0 1-11.136.964.724.724 0 0 1-.475-.871.702.702 0 0 1 .871-.475z" fill="#fff"/>
    <path d="M326.762 109.762c24.553 0 44.458-19.904 44.458-44.457s-19.905-44.457-44.458-44.457c-24.553 0-44.458 19.904-44.458 44.457s19.905 44.457 44.458 44.457z" fill="#FF6584"/>
    <path d="M462.883 62.985a163.565 163.565 0 0 0-12.67-12.026c-8.661-7.345-18.249-13.59-28.937-17.524a66.735 66.735 0 0 0-12.416-3.268c-.508-.082-1.01-.165-1.518-.232a.566.566 0 0 0-.112 0 1.371 1.371 0 0 0-.24-.045 54.575 54.575 0 0 0-3.126-.314 54.175 54.175 0 0 0-16.783 1.511 55.82 55.82 0 0 0-9.275 3.23 83.134 83.134 0 0 0-8.698 4.93 52.156 52.156 0 0 1-4.637 2.505 57.84 57.84 0 0 1-14.584 4.667c-3.409.611-6.86.952-10.322 1.017-3.006.06-5.841.165-8.691 1.25a20.826 20.826 0 0 0-12.692 13.746 1.335 1.335 0 0 0 .599 1.473c.77.553 1.518 1.182 2.333 1.675a7.316 7.316 0 0 0 2.274.621c1.286.27 2.575.531 3.866.785a322.94 322.94 0 0 0 14.308 2.506 327.716 327.716 0 0 0 29.064 3.081c.06.009.12.014.18.015 11.007.665 22.04.772 33.058.322 1.668-.067 3.328-.15 4.996-.247a322.72 322.72 0 0 0 20.792-1.84 330.22 330.22 0 0 0 32.655-5.646 1.33 1.33 0 0 0 .905-.934 1.32 1.32 0 0 0-.329-1.258zM370.477 122.264a145.268 145.268 0 0 0-21.174-18.638 99.603 99.603 0 0 0-7.831-4.988 82.995 82.995 0 0 0-12.602-5.924 66.272 66.272 0 0 0-13.934-3.5c-.037-.007-.075 0-.112-.007l-.232-.045c-2.306-.3-4.63-.442-6.956-.427-1.667 0-3.343.09-5.003.255a55.332 55.332 0 0 0-7.958 1.376c-1.294.322-2.58.695-3.844 1.122a54.864 54.864 0 0 0-5.423 2.109c-.03.015-.052.022-.082.037a80.81 80.81 0 0 0-8.616 4.892c-.06.037-.127.074-.187.112a54.374 54.374 0 0 1-9.932 4.652 60.62 60.62 0 0 1-9.11 2.408 64.506 64.506 0 0 1-10.321 1.01c-3.007.059-5.842.164-8.684 1.256a20.836 20.836 0 0 0-12.699 13.747 1.346 1.346 0 0 0 .598 1.473c.77.553 1.526 1.174 2.333 1.668.719.331 1.487.54 2.274.621 1.287.269 2.573.538 3.867.792 4.749.943 9.521 1.775 14.315 2.498a329.45 329.45 0 0 0 19.805 2.386c3.141.292 6.285.531 9.431.718 8.07.486 16.148.676 24.233.568 1.668-.022 3.336-.059 5.004-.112a325.095 325.095 0 0 0 29.617-2.228 325.886 325.886 0 0 0 32.647-5.647 1.315 1.315 0 0 0 .904-.929 1.327 1.327 0 0 0-.328-1.255z" fill="#E6E6E6"/>
    <path d="m259.662 2.952 39.166 541.227-78.332 6.953V9.838c9.334-7.291 22.733-8.432 39.166-6.886zM452.993 2.952l-39.166 541.227 78.333 6.953V9.838c-9.334-7.291-22.733-8.432-39.167-6.886z" fill="#CCC"/>
    <path d="M494.003 10.074C491.572 4.114 486.404 0 480.428 0H231.393c-8.31 0-15.063 7.972-15.063 17.781v537.936a19.219 19.219 0 0 0 5.19 13.42 14.258 14.258 0 0 0 6.522 3.911c1.091.302 2.219.454 3.351.451h249.035c1.132.003 2.26-.149 3.351-.451 6.701-1.801 11.712-8.881 11.712-17.331V17.781a20.419 20.419 0 0 0-1.488-7.707zm-3.508 545.643c0 6.551-4.517 11.884-10.067 11.884H231.393c-4.6 0-8.497-3.664-9.686-8.652a13.798 13.798 0 0 1-.381-3.232V17.781c0-6.55 4.517-11.874 10.067-11.874h249.035c1.021-.001 2.035.181 2.992.538 4.091 1.501 7.075 6.013 7.075 11.336v537.936z" fill="#CCC"/>
    <path d="M492.993 163.514H218.829v5h274.164v-5zM492.993 60.303H218.829v5h274.164v-5zM492.993 246.845H218.829v4.999h274.164v-4.999z" fill="#CCC"/>
    <path d="M307.798 2.244h-5v315.432h5V2.244zM409.024 2.244h-5v315.432h5V2.244zM524.241 542.251h-328.33a22.525 22.525 0 0 0-22.497 22.497 22.267 22.267 0 0 0 1.623 8.369 22.498 22.498 0 0 0 20.874 14.136h328.33a22.506 22.506 0 0 0 20.882-14.136 22.267 22.267 0 0 0 1.623-8.369 22.532 22.532 0 0 0-22.505-22.497z" fill="#CCC"/>
    <path d="M492.993 306.009H220.496v16.666h272.497v-16.666z" fill="#CCC"/>
    <path d="M354.244 301.01h5a9.167 9.167 0 0 1 9.167 9.166h-23.333a9.177 9.177 0 0 1 2.684-6.482 9.177 9.177 0 0 1 6.482-2.684z" fill="#CCC"/>
    <path d="M361.551 353.012c28.522 0 51.643-23.121 51.643-51.641 0-28.521-23.121-51.641-51.643-51.641-28.521 0-51.642 23.12-51.642 51.641 0 28.52 23.121 51.641 51.642 51.641z" fill="#FFB8B8"/>
    <path d="M303.943 251.692c.39-5.931 4.312-11.999 16.772-15.17 0 0 21.384-27.344 50.443-13.004 0 0 14.087-2.424 24.534 12.192 0 0 10.356-6.108 14.726 4.718 0 0 12.147 22.084 7.675 44.61-4.472 22.525-6.761 25.336-6.761 25.336s5.7-46.593-27.131-43.362c-32.831 3.23-59.263-8.315-66.698 16.963-6.174 20.99-5.396 31.891-5.396 31.891s-20.645-20.939-13.626-37.427c3.59-8.433 4.86-17.602 5.462-26.747z" fill="#2F2E41"/>
    <path d="M221.116 583.588h285.647c-1.909-21.789-3.157-105.077-3.157-110.559 0-24.178-19.784-50.563-19.784-50.563l-7.082-3.914-59.138-18.451-15.305-19.879a17.023 17.023 0 0 0-13.63-6.655l-48.346.363a17.068 17.068 0 0 0-11.465 4.543l-29.937 27.772-43.909 20.967-.075-.075-.458.342-6.517 4.692-4.191 3.029s-10.996 13.193-19.784 52.76c-1.323 5.951-2.251 82.99-2.869 95.628z" fill="#F2A88D"/>
    <path d="M572.878 573.117c-.688.629-1.383 1.249-2.079 1.87a319.869 319.869 0 0 1-20.538 16.828H165.725a314.14 314.14 0 0 1-22.624-18.698h429.777z" fill="#CCC"/>
    <path d="M431.925 577.605H290.568l2.992-14.21h135.373l2.992 14.21z" fill="#2F2E41"/>
    <path d="M559.812 516.277h-36.783a5.673 5.673 0 0 0-4.36 2.019 8.287 8.287 0 0 0-1.556-.15 8.728 8.728 0 0 0-8.733 8.725 8.722 8.722 0 0 0 8.733 8.724 8.617 8.617 0 0 0 3.8-.883l.613 7.539 2.438 29.797c.116.372.272.73.464 1.069a5.73 5.73 0 0 0 5.034 2.992h23.918a5.756 5.756 0 0 0 5.041-2.992c.187-.34.34-.699.456-1.069l6.432-48.33a5.747 5.747 0 0 0-5.497-7.441zm-42.699 16.827a6.23 6.23 0 0 1-6.226-6.233 6.233 6.233 0 0 1 6.226-6.234c.113 0 .217.03.329.037a5.711 5.711 0 0 0 .09 3.044l2.633 8.556a6.127 6.127 0 0 1-3.052.83zM476.733 358.147H243.89a7.557 7.557 0 0 0-7.546 7.547v157.119a7.553 7.553 0 0 0 7.546 7.547h232.843a7.554 7.554 0 0 0 7.547-7.547V365.694a7.557 7.557 0 0 0-7.547-7.547z" fill="#3F3D56"/>
    <path d="M386.534 484.042h-54.471a2.905 2.905 0 0 0-2.902 2.909v86.047h60.283v-86.047a2.911 2.911 0 0 0-1.796-2.688 2.916 2.916 0 0 0-1.114-.221zm-27.052 48.891a6.465 6.465 0 0 1-6.432-6.432v-9.925a6.433 6.433 0 0 1 12.864 0v9.925a6.462 6.462 0 0 1-6.432 6.432z" fill="#2F2E41"/>
    <path d="M328.974 570.245v8.302a1.628 1.628 0 0 0 1.623 1.623h57.41a1.63 1.63 0 0 0 1.623-1.623v-8.302h-60.656z" fill="#3F3D56"/>
    <path d="M471.782 521.171a3.676 3.676 0 1 0 0-7.353 3.676 3.676 0 0 0 0 7.353zM273.284 512.163a1.283 1.283 0 0 0-1.189.794 1.282 1.282 0 0 0-.098.492v6.619a1.289 1.289 0 0 0 1.287 1.284 1.289 1.289 0 0 0 1.286-1.284v-6.619a1.282 1.282 0 0 0-.794-1.188 1.282 1.282 0 0 0-.492-.098zM280.269 512.163a1.278 1.278 0 0 0-.909.377 1.282 1.282 0 0 0-.377.909v6.619a1.286 1.286 0 1 0 2.573 0v-6.619a1.3 1.3 0 0 0-.377-.909 1.278 1.278 0 0 0-.91-.377zM287.255 512.163a1.283 1.283 0 0 0-1.189.794 1.3 1.3 0 0 0-.098.492v6.619a1.289 1.289 0 0 0 1.287 1.284 1.289 1.289 0 0 0 1.286-1.284v-6.619a1.282 1.282 0 0 0-.794-1.188 1.278 1.278 0 0 0-.492-.098zM294.24 512.163a1.282 1.282 0 0 0-1.188.794 1.282 1.282 0 0 0-.098.492v6.619a1.289 1.289 0 0 0 1.287 1.284 1.289 1.289 0 0 0 1.286-1.284v-6.619a1.282 1.282 0 0 0-.794-1.188 1.283 1.283 0 0 0-.493-.098z" fill="#2F2E41"/>
    <path d="M299.814 573.865c10.74 0 19.446-8.706 19.446-19.445 0-10.74-8.706-19.446-19.446-19.446-10.74 0-19.446 8.706-19.446 19.446 0 10.739 8.706 19.445 19.446 19.445zM435.665 577.605c10.739 0 19.446-8.706 19.446-19.446 0-10.739-8.707-19.445-19.446-19.445-10.74 0-19.446 8.706-19.446 19.445 0 10.74 8.706 19.446 19.446 19.446z" fill="#FFB8B8"/>
    <path d="M227.058 273.298a2.992 2.992 0 1 0 0-5.983 2.992 2.992 0 0 0 0 5.983z" fill="#3F3D56"/>
    <path d="M185.994 188.62v1.518a7.903 7.903 0 0 0-1.526-.15h-7.823v16.798a9.384 9.384 0 0 1-9.379 9.379h-11.563v2.588c0 1.037.206 2.064.606 3.021h-1.601a9.214 9.214 0 0 1-.501-3.021v-2.588h-6.357v-1.496h6.357v-16.798a9.381 9.381 0 0 1 9.379-9.378h11.563v-2.618h1.496v2.618h7.823c.511 0 1.021.043 1.526.127z" fill="#F2A88D"/>
    <path d="M167.266 176.526h-20.882a9.383 9.383 0 0 0-9.379 9.379v20.881a9.383 9.383 0 0 0 9.379 9.379h20.882a9.384 9.384 0 0 0 9.379-9.379v-20.911a9.381 9.381 0 0 0-9.379-9.349zm7.883 30.26a7.893 7.893 0 0 1-7.883 7.883h-20.882a7.892 7.892 0 0 1-7.883-7.883v-20.881a7.893 7.893 0 0 1 7.883-7.883h20.882a7.89 7.89 0 0 1 7.883 7.853v20.911z" fill="#3F3D56"/>
    <path d="M154.207 214.669v1.496h1.496v-1.496h-1.496zm0 0v1.496h1.496v-1.496h-1.496zm31.787-26.049a9.298 9.298 0 0 0-1.526-.127h-20.882a9.383 9.383 0 0 0-9.379 9.378v20.882a9.384 9.384 0 0 0 9.379 9.378h20.882a9.383 9.383 0 0 0 9.379-9.378v-20.882a9.375 9.375 0 0 0-7.853-9.251zm6.357 30.133a7.893 7.893 0 0 1-7.883 7.883h-20.882a7.898 7.898 0 0 1-7.883-7.883v-20.882a7.893 7.893 0 0 1 7.883-7.883h20.882a7.888 7.888 0 0 1 7.883 7.883v20.882zm-38.144-4.084v1.496h1.496v-1.496h-1.496z" fill="#3F3D56"/>
    <path d="M139.436 409.64H50.732a2.338 2.338 0 0 0-2.333 2.326v5.258a314.733 314.733 0 0 0 10.613 33.065h80.424a2.323 2.323 0 0 0 2.326-2.326v-35.997a2.331 2.331 0 0 0-2.326-2.326z" fill="#F2A88D"/>
    <path d="M130.984 461.964H63.746c.8 1.877 1.616 3.739 2.46 5.594h64.778c3.65.052 3.613-5.647 0-5.594zM130.984 474.783H69.58a232.64 232.64 0 0 0 2.767 5.594h58.637c3.65.053 3.613-5.639 0-5.594zM130.984 487.609h-54.86a269.709 269.709 0 0 0 3.082 5.595h51.778c3.65.052 3.613-5.647 0-5.595z" fill="#E4E4E4"/>
    <path d="M590.845 142.851h-.427a8.58 8.58 0 0 1 3.822.904h-1.94a7.893 7.893 0 0 0-7.883 7.883v20.882a7.893 7.893 0 0 0 7.883 7.883h1.237a8.6 8.6 0 0 1-3.119.592h.427a8.64 8.64 0 0 0 8.63-8.631v-20.882a8.639 8.639 0 0 0-8.63-8.631z" fill="#3F3D56"/>
    <path opacity=".21" d="M590.845 142.851h-.427a8.58 8.58 0 0 1 3.822.904h-1.94a7.893 7.893 0 0 0-7.883 7.883v20.882a7.893 7.893 0 0 0 7.883 7.883h1.237a8.6 8.6 0 0 1-3.119.592h.427a8.64 8.64 0 0 0 8.63-8.631v-20.882a8.639 8.639 0 0 0-8.63-8.631z" fill="#000"/>
    <path d="M535.498 142.851h-.426a8.58 8.58 0 0 1 3.822.904h-1.94a7.893 7.893 0 0 0-7.883 7.883v20.882a7.893 7.893 0 0 0 7.883 7.883h1.237a8.604 8.604 0 0 1-3.119.592h.426a8.641 8.641 0 0 0 8.631-8.631v-20.882a8.643 8.643 0 0 0-8.631-8.631z" fill="#F2A88D"/>
    <path opacity=".21" d="M535.498 142.851h-.426a8.58 8.58 0 0 1 3.822.904h-1.94a7.893 7.893 0 0 0-7.883 7.883v20.882a7.893 7.893 0 0 0 7.883 7.883h1.237a8.604 8.604 0 0 1-3.119.592h.426a8.641 8.641 0 0 0 8.631-8.631v-20.882a8.643 8.643 0 0 0-8.631-8.631z" fill="#000"/>
    <path d="M537.038 180.468a7.896 7.896 0 0 1-7.883-7.883v-20.882a7.89 7.89 0 0 1 7.883-7.883h1.939a8.56 8.56 0 0 0-3.821-.903h-20.883a8.638 8.638 0 0 0-8.63 8.63v20.882a8.638 8.638 0 0 0 8.63 8.631h20.883a8.595 8.595 0 0 0 3.118-.592h-1.236z" fill="#F2A88D"/>
    <path d="M592.384 180.468a7.892 7.892 0 0 1-7.883-7.883v-20.882a7.892 7.892 0 0 1 7.883-7.883h1.939a8.558 8.558 0 0 0-3.821-.903h-20.883a8.635 8.635 0 0 0-8.63 8.63v20.882a8.639 8.639 0 0 0 8.63 8.631h20.883a8.595 8.595 0 0 0 3.118-.592h-1.236z" fill="#3F3D56"/>
    <path d="M617.043 148.113a319.38 319.38 0 0 1 20.994 32.945h-13.073a8.641 8.641 0 0 1-8.631-8.63v-20.882a8.626 8.626 0 0 1 .71-3.433z" fill="#FF6584"/>
</svg>
