<svg width="32" height="20" viewBox="0 0 32 20" fill="none" xmlns="http://www.w3.org/2000/svg">
    <path fill-rule="evenodd" clip-rule="evenodd" d="M11.758 7.17a1 1 0 1 1 1.414-1.414 1 1 0 0 1-1.414 1.415zm8.484-1.413a6 6 0 0 1-8.484 8.485C10.576 13.062 9.985 11.547 10 10h.006a.998.998 0 0 1 1.708-.707c.2.2.293.466.287.73a3.907 3.907 0 0 0 1.17 2.805 4 4 0 1 0 5.657-5.657 3.908 3.908 0 0 0-2.806-1.169A1 1 0 1 1 16 4.006v-.007a5.905 5.905 0 0 1 4.243 1.758zM31 11a1 1 0 0 1-.903-.576C27.324 5.666 21.9 1.999 16 1.999 10.08 2 4.925 5.222 2.158 10c2.767 4.778 7.923 8 13.842 8 2.704 0 5.25-.674 7.48-1.86l.005.008a.994.994 0 0 1 .515-.148.998.998 0 0 1 .322 1.943A17.84 17.84 0 0 1 16 20C8.936 20 2.947 15.92 0 10 2.947 4.078 8.936 0 16 0c6.792 0 12.69 3.693 15.754 9.249.068.123.127.243.173.378A1 1 0 0 1 31 11zM26.999 14A1 1 0 1 1 27 16 1 1 0 0 1 27 14z" fill="#C4C4C4"/>
</svg>
